G04 EAGLE Gerber RS-274X export*
G75*
%MOMM*%
%FSLAX34Y34*%
%LPD*%
%INTop Copper*%
%IPPOS*%
%AMOC8*
5,1,8,0,0,1.08239X$1,22.5*%
G01*
%ADD10R,1.000000X1.100000*%
%ADD11R,1.100000X1.000000*%
%ADD12C,1.778000*%
%ADD13C,0.300000*%
%ADD14R,0.900000X0.600000*%
%ADD15R,1.200000X1.200000*%
%ADD16R,1.270000X2.540000*%
%ADD17R,0.900000X0.800000*%
%ADD18R,1.600000X2.300000*%
%ADD19R,0.812800X0.304800*%
%ADD20R,0.304800X0.812800*%
%ADD21R,3.251200X3.251200*%
%ADD22R,1.200000X0.600000*%
%ADD23C,0.450000*%
%ADD24C,0.254000*%
%ADD25C,0.200000*%
%ADD26C,0.716400*%
%ADD27C,0.756400*%

G36*
X311234Y63528D02*
X311234Y63528D01*
X311253Y63526D01*
X311355Y63548D01*
X311457Y63564D01*
X311474Y63574D01*
X311494Y63578D01*
X311583Y63631D01*
X311674Y63680D01*
X311688Y63694D01*
X311705Y63704D01*
X311772Y63783D01*
X311844Y63858D01*
X311852Y63876D01*
X311865Y63891D01*
X311904Y63987D01*
X311947Y64081D01*
X311949Y64101D01*
X311957Y64119D01*
X311975Y64286D01*
X311975Y67214D01*
X311972Y67234D01*
X311974Y67253D01*
X311952Y67355D01*
X311936Y67457D01*
X311926Y67474D01*
X311922Y67494D01*
X311869Y67583D01*
X311820Y67674D01*
X311806Y67688D01*
X311796Y67705D01*
X311717Y67772D01*
X311642Y67844D01*
X311624Y67852D01*
X311609Y67865D01*
X311513Y67904D01*
X311419Y67947D01*
X311399Y67949D01*
X311381Y67957D01*
X311214Y67975D01*
X307513Y67975D01*
X307422Y67961D01*
X307332Y67953D01*
X307302Y67941D01*
X307270Y67936D01*
X307189Y67893D01*
X307105Y67857D01*
X307073Y67831D01*
X307052Y67820D01*
X307030Y67797D01*
X306974Y67752D01*
X304615Y65393D01*
X300385Y65393D01*
X297393Y68385D01*
X297393Y72615D01*
X300385Y75607D01*
X304615Y75607D01*
X306974Y73248D01*
X307048Y73195D01*
X307118Y73135D01*
X307148Y73123D01*
X307174Y73104D01*
X307261Y73077D01*
X307346Y73043D01*
X307387Y73039D01*
X307409Y73032D01*
X307441Y73033D01*
X307513Y73025D01*
X311214Y73025D01*
X311234Y73028D01*
X311253Y73026D01*
X311355Y73048D01*
X311457Y73064D01*
X311474Y73074D01*
X311494Y73078D01*
X311583Y73131D01*
X311674Y73180D01*
X311688Y73194D01*
X311705Y73204D01*
X311772Y73283D01*
X311844Y73358D01*
X311852Y73376D01*
X311865Y73391D01*
X311904Y73487D01*
X311947Y73581D01*
X311949Y73601D01*
X311957Y73619D01*
X311975Y73786D01*
X311975Y76532D01*
X312868Y77425D01*
X324132Y77425D01*
X325176Y76381D01*
X325234Y76339D01*
X325286Y76289D01*
X325333Y76267D01*
X325375Y76237D01*
X325444Y76216D01*
X325509Y76186D01*
X325561Y76180D01*
X325611Y76165D01*
X325682Y76167D01*
X325753Y76159D01*
X325804Y76170D01*
X325856Y76171D01*
X325924Y76196D01*
X325994Y76211D01*
X326039Y76238D01*
X326087Y76255D01*
X326143Y76300D01*
X326205Y76337D01*
X326239Y76377D01*
X326279Y76409D01*
X326318Y76469D01*
X326365Y76524D01*
X326384Y76572D01*
X326412Y76616D01*
X326430Y76686D01*
X326457Y76752D01*
X326465Y76823D01*
X326473Y76855D01*
X326471Y76878D01*
X326475Y76919D01*
X326475Y80881D01*
X326464Y80952D01*
X326462Y81024D01*
X326444Y81073D01*
X326436Y81124D01*
X326402Y81187D01*
X326377Y81255D01*
X326345Y81295D01*
X326320Y81341D01*
X326268Y81391D01*
X326224Y81447D01*
X326180Y81475D01*
X326142Y81511D01*
X326077Y81541D01*
X326017Y81580D01*
X325966Y81592D01*
X325919Y81614D01*
X325848Y81622D01*
X325778Y81640D01*
X325726Y81636D01*
X325675Y81641D01*
X325604Y81626D01*
X325533Y81621D01*
X325485Y81600D01*
X325434Y81589D01*
X325373Y81552D01*
X325307Y81524D01*
X325251Y81479D01*
X325223Y81463D01*
X325208Y81445D01*
X325176Y81419D01*
X324132Y80375D01*
X312868Y80375D01*
X311975Y81268D01*
X311975Y93532D01*
X312868Y94425D01*
X314714Y94425D01*
X314734Y94428D01*
X314753Y94426D01*
X314855Y94448D01*
X314957Y94464D01*
X314974Y94474D01*
X314994Y94478D01*
X315083Y94531D01*
X315174Y94580D01*
X315188Y94594D01*
X315205Y94604D01*
X315272Y94683D01*
X315344Y94758D01*
X315352Y94776D01*
X315365Y94791D01*
X315404Y94887D01*
X315447Y94981D01*
X315449Y95001D01*
X315457Y95019D01*
X315475Y95186D01*
X315475Y99046D01*
X317177Y100748D01*
X326252Y109823D01*
X327954Y111525D01*
X334987Y111525D01*
X335077Y111539D01*
X335168Y111547D01*
X335198Y111559D01*
X335230Y111564D01*
X335311Y111607D01*
X335395Y111643D01*
X335427Y111669D01*
X335448Y111680D01*
X335470Y111703D01*
X335526Y111748D01*
X337885Y114107D01*
X339485Y114107D01*
X339556Y114118D01*
X339627Y114120D01*
X339676Y114138D01*
X339728Y114146D01*
X339791Y114180D01*
X339858Y114205D01*
X339899Y114237D01*
X339945Y114262D01*
X339994Y114314D01*
X340050Y114358D01*
X340079Y114402D01*
X340114Y114440D01*
X340145Y114505D01*
X340183Y114565D01*
X340196Y114616D01*
X340218Y114663D01*
X340226Y114734D01*
X340243Y114804D01*
X340239Y114856D01*
X340245Y114907D01*
X340230Y114978D01*
X340224Y115049D01*
X340204Y115097D01*
X340193Y115148D01*
X340156Y115209D01*
X340128Y115275D01*
X340083Y115331D01*
X340067Y115359D01*
X340049Y115374D01*
X340023Y115406D01*
X322475Y132954D01*
X322475Y193639D01*
X322461Y193729D01*
X322453Y193820D01*
X322441Y193850D01*
X322436Y193882D01*
X322393Y193962D01*
X322357Y194046D01*
X322331Y194078D01*
X322320Y194099D01*
X322297Y194121D01*
X322252Y194177D01*
X309177Y207252D01*
X309103Y207305D01*
X309034Y207365D01*
X309004Y207377D01*
X308977Y207396D01*
X308890Y207423D01*
X308806Y207457D01*
X308765Y207461D01*
X308742Y207468D01*
X308710Y207467D01*
X308639Y207475D01*
X275186Y207475D01*
X275166Y207472D01*
X275147Y207474D01*
X275045Y207452D01*
X274943Y207436D01*
X274926Y207426D01*
X274906Y207422D01*
X274817Y207369D01*
X274726Y207320D01*
X274712Y207306D01*
X274695Y207296D01*
X274628Y207217D01*
X274556Y207142D01*
X274548Y207124D01*
X274535Y207109D01*
X274496Y207013D01*
X274453Y206919D01*
X274451Y206899D01*
X274443Y206881D01*
X274425Y206714D01*
X274425Y194368D01*
X273532Y193475D01*
X262268Y193475D01*
X261375Y194368D01*
X261375Y197214D01*
X261372Y197234D01*
X261374Y197253D01*
X261352Y197355D01*
X261336Y197457D01*
X261326Y197474D01*
X261322Y197494D01*
X261269Y197583D01*
X261220Y197674D01*
X261206Y197688D01*
X261196Y197705D01*
X261117Y197772D01*
X261042Y197844D01*
X261024Y197852D01*
X261009Y197865D01*
X260913Y197904D01*
X260819Y197947D01*
X260799Y197949D01*
X260781Y197957D01*
X260614Y197975D01*
X225954Y197975D01*
X223824Y200105D01*
X223766Y200147D01*
X223714Y200196D01*
X223667Y200218D01*
X223625Y200249D01*
X223556Y200270D01*
X223491Y200300D01*
X223439Y200306D01*
X223389Y200321D01*
X223318Y200319D01*
X223247Y200327D01*
X223196Y200316D01*
X223144Y200315D01*
X223076Y200290D01*
X223006Y200275D01*
X222961Y200248D01*
X222913Y200230D01*
X222857Y200185D01*
X222795Y200149D01*
X222761Y200109D01*
X222721Y200077D01*
X222682Y200016D01*
X222635Y199962D01*
X222616Y199913D01*
X222588Y199870D01*
X222570Y199800D01*
X222543Y199734D01*
X222535Y199662D01*
X222527Y199631D01*
X222529Y199608D01*
X222525Y199567D01*
X222525Y186786D01*
X222528Y186766D01*
X222526Y186747D01*
X222548Y186645D01*
X222564Y186543D01*
X222574Y186526D01*
X222578Y186506D01*
X222631Y186417D01*
X222680Y186326D01*
X222694Y186312D01*
X222704Y186295D01*
X222783Y186228D01*
X222858Y186156D01*
X222876Y186148D01*
X222891Y186135D01*
X222987Y186096D01*
X223081Y186053D01*
X223101Y186051D01*
X223119Y186043D01*
X223286Y186025D01*
X260614Y186025D01*
X260634Y186028D01*
X260653Y186026D01*
X260755Y186048D01*
X260857Y186064D01*
X260874Y186074D01*
X260894Y186078D01*
X260983Y186131D01*
X261074Y186180D01*
X261088Y186194D01*
X261105Y186204D01*
X261172Y186283D01*
X261244Y186358D01*
X261252Y186376D01*
X261265Y186391D01*
X261304Y186487D01*
X261347Y186581D01*
X261349Y186601D01*
X261357Y186619D01*
X261375Y186786D01*
X261375Y189632D01*
X262268Y190525D01*
X273532Y190525D01*
X274425Y189632D01*
X274425Y186786D01*
X274428Y186766D01*
X274426Y186747D01*
X274448Y186645D01*
X274464Y186543D01*
X274474Y186526D01*
X274478Y186506D01*
X274531Y186417D01*
X274580Y186326D01*
X274594Y186312D01*
X274604Y186295D01*
X274683Y186228D01*
X274758Y186156D01*
X274776Y186148D01*
X274791Y186135D01*
X274887Y186096D01*
X274981Y186053D01*
X275001Y186051D01*
X275019Y186043D01*
X275186Y186025D01*
X292546Y186025D01*
X319525Y159046D01*
X319525Y115013D01*
X319539Y114923D01*
X319547Y114832D01*
X319559Y114802D01*
X319564Y114770D01*
X319607Y114689D01*
X319643Y114605D01*
X319669Y114573D01*
X319680Y114552D01*
X319703Y114530D01*
X319748Y114474D01*
X322107Y112115D01*
X322107Y107885D01*
X319115Y104893D01*
X314885Y104893D01*
X311893Y107885D01*
X311893Y112115D01*
X314252Y114474D01*
X314305Y114548D01*
X314365Y114618D01*
X314377Y114648D01*
X314396Y114674D01*
X314423Y114761D01*
X314457Y114846D01*
X314461Y114887D01*
X314468Y114909D01*
X314467Y114941D01*
X314475Y115013D01*
X314475Y156639D01*
X314461Y156729D01*
X314453Y156820D01*
X314441Y156850D01*
X314436Y156882D01*
X314393Y156962D01*
X314357Y157046D01*
X314331Y157078D01*
X314320Y157099D01*
X314297Y157121D01*
X314252Y157177D01*
X290677Y180752D01*
X290603Y180805D01*
X290534Y180865D01*
X290504Y180877D01*
X290477Y180896D01*
X290390Y180923D01*
X290306Y180957D01*
X290265Y180961D01*
X290242Y180968D01*
X290210Y180967D01*
X290139Y180975D01*
X275186Y180975D01*
X275166Y180972D01*
X275147Y180974D01*
X275045Y180952D01*
X274943Y180936D01*
X274926Y180926D01*
X274906Y180922D01*
X274817Y180869D01*
X274726Y180820D01*
X274712Y180806D01*
X274695Y180796D01*
X274628Y180717D01*
X274556Y180642D01*
X274548Y180624D01*
X274535Y180609D01*
X274496Y180513D01*
X274453Y180419D01*
X274451Y180399D01*
X274443Y180381D01*
X274425Y180214D01*
X274425Y177368D01*
X273532Y176475D01*
X262268Y176475D01*
X261375Y177368D01*
X261375Y180214D01*
X261372Y180234D01*
X261374Y180253D01*
X261352Y180355D01*
X261336Y180457D01*
X261326Y180474D01*
X261322Y180494D01*
X261269Y180583D01*
X261220Y180674D01*
X261206Y180688D01*
X261196Y180705D01*
X261117Y180772D01*
X261042Y180844D01*
X261024Y180852D01*
X261009Y180865D01*
X260913Y180904D01*
X260819Y180947D01*
X260799Y180949D01*
X260781Y180957D01*
X260614Y180975D01*
X220454Y180975D01*
X218752Y182677D01*
X217474Y183955D01*
X217416Y183997D01*
X217364Y184046D01*
X217317Y184068D01*
X217275Y184099D01*
X217206Y184120D01*
X217141Y184150D01*
X217089Y184156D01*
X217039Y184171D01*
X216968Y184169D01*
X216897Y184177D01*
X216846Y184166D01*
X216794Y184165D01*
X216726Y184140D01*
X216656Y184125D01*
X216611Y184098D01*
X216563Y184080D01*
X216507Y184035D01*
X216445Y183999D01*
X216411Y183959D01*
X216371Y183927D01*
X216332Y183866D01*
X216285Y183812D01*
X216266Y183763D01*
X216238Y183720D01*
X216220Y183650D01*
X216193Y183584D01*
X216185Y183512D01*
X216177Y183481D01*
X216179Y183458D01*
X216175Y183417D01*
X216175Y176536D01*
X216178Y176516D01*
X216176Y176497D01*
X216198Y176395D01*
X216214Y176293D01*
X216224Y176276D01*
X216228Y176256D01*
X216281Y176167D01*
X216330Y176076D01*
X216344Y176062D01*
X216354Y176045D01*
X216433Y175978D01*
X216508Y175906D01*
X216526Y175898D01*
X216541Y175885D01*
X216637Y175846D01*
X216731Y175803D01*
X216751Y175801D01*
X216769Y175793D01*
X216936Y175775D01*
X224934Y175775D01*
X225827Y174882D01*
X225827Y170932D01*
X225830Y170912D01*
X225828Y170893D01*
X225850Y170791D01*
X225866Y170689D01*
X225876Y170672D01*
X225880Y170652D01*
X225933Y170563D01*
X225982Y170472D01*
X225996Y170458D01*
X226006Y170441D01*
X226085Y170374D01*
X226160Y170302D01*
X226178Y170294D01*
X226193Y170281D01*
X226289Y170242D01*
X226383Y170199D01*
X226403Y170197D01*
X226421Y170189D01*
X226588Y170171D01*
X253285Y170171D01*
X253375Y170185D01*
X253466Y170193D01*
X253496Y170205D01*
X253528Y170210D01*
X253608Y170253D01*
X253692Y170289D01*
X253724Y170315D01*
X253745Y170326D01*
X253767Y170349D01*
X253823Y170394D01*
X255954Y172525D01*
X285046Y172525D01*
X286525Y171046D01*
X286525Y120954D01*
X272046Y106475D01*
X254013Y106475D01*
X253922Y106461D01*
X253832Y106453D01*
X253802Y106441D01*
X253770Y106436D01*
X253689Y106393D01*
X253605Y106357D01*
X253573Y106331D01*
X253552Y106320D01*
X253530Y106297D01*
X253474Y106252D01*
X251115Y103893D01*
X246885Y103893D01*
X243893Y106885D01*
X243893Y111115D01*
X246885Y114107D01*
X251115Y114107D01*
X253474Y111748D01*
X253548Y111695D01*
X253618Y111635D01*
X253648Y111623D01*
X253674Y111604D01*
X253761Y111577D01*
X253846Y111543D01*
X253887Y111539D01*
X253909Y111532D01*
X253941Y111533D01*
X254013Y111525D01*
X269639Y111525D01*
X269729Y111539D01*
X269820Y111547D01*
X269850Y111559D01*
X269882Y111564D01*
X269962Y111607D01*
X270046Y111643D01*
X270078Y111669D01*
X270099Y111680D01*
X270121Y111703D01*
X270177Y111748D01*
X281252Y122823D01*
X281305Y122897D01*
X281365Y122966D01*
X281377Y122996D01*
X281396Y123023D01*
X281423Y123110D01*
X281457Y123194D01*
X281461Y123235D01*
X281468Y123258D01*
X281467Y123290D01*
X281475Y123361D01*
X281475Y166714D01*
X281472Y166734D01*
X281474Y166753D01*
X281452Y166855D01*
X281436Y166957D01*
X281426Y166974D01*
X281422Y166994D01*
X281369Y167083D01*
X281320Y167174D01*
X281306Y167188D01*
X281296Y167205D01*
X281217Y167272D01*
X281142Y167344D01*
X281124Y167352D01*
X281109Y167365D01*
X281013Y167404D01*
X280919Y167447D01*
X280899Y167449D01*
X280881Y167457D01*
X280714Y167475D01*
X258361Y167475D01*
X258271Y167461D01*
X258180Y167453D01*
X258150Y167441D01*
X258118Y167436D01*
X258038Y167393D01*
X257954Y167357D01*
X257922Y167331D01*
X257901Y167320D01*
X257879Y167297D01*
X257823Y167252D01*
X255692Y165121D01*
X226588Y165121D01*
X226568Y165118D01*
X226549Y165120D01*
X226447Y165098D01*
X226345Y165082D01*
X226328Y165072D01*
X226308Y165068D01*
X226219Y165015D01*
X226128Y164966D01*
X226114Y164952D01*
X226097Y164942D01*
X226030Y164863D01*
X225958Y164788D01*
X225950Y164770D01*
X225937Y164755D01*
X225898Y164659D01*
X225855Y164565D01*
X225853Y164545D01*
X225845Y164527D01*
X225827Y164360D01*
X225827Y161648D01*
X225841Y161558D01*
X225849Y161467D01*
X225861Y161437D01*
X225866Y161405D01*
X225909Y161324D01*
X225945Y161240D01*
X225971Y161208D01*
X225982Y161188D01*
X226005Y161165D01*
X226050Y161109D01*
X226335Y160824D01*
X226670Y160245D01*
X226843Y159598D01*
X226843Y158501D01*
X220238Y158501D01*
X220219Y158498D01*
X220199Y158500D01*
X220098Y158478D01*
X219996Y158462D01*
X219978Y158452D01*
X219959Y158448D01*
X219869Y158395D01*
X219778Y158347D01*
X219765Y158332D01*
X219747Y158322D01*
X219680Y158243D01*
X219609Y158168D01*
X219600Y158150D01*
X219587Y158135D01*
X219549Y158039D01*
X219505Y157945D01*
X219503Y157925D01*
X219496Y157907D01*
X219477Y157740D01*
X219480Y157720D01*
X219478Y157701D01*
X219478Y157700D01*
X219500Y157599D01*
X219517Y157497D01*
X219526Y157480D01*
X219530Y157460D01*
X219584Y157371D01*
X219632Y157280D01*
X219646Y157266D01*
X219657Y157249D01*
X219735Y157182D01*
X219810Y157110D01*
X219828Y157102D01*
X219843Y157089D01*
X219940Y157050D01*
X220033Y157007D01*
X220053Y157005D01*
X220072Y156997D01*
X220238Y156979D01*
X226843Y156979D01*
X226843Y155946D01*
X226846Y155926D01*
X226844Y155907D01*
X226866Y155805D01*
X226882Y155703D01*
X226892Y155686D01*
X226896Y155666D01*
X226949Y155577D01*
X226998Y155486D01*
X227012Y155472D01*
X227022Y155455D01*
X227101Y155388D01*
X227176Y155316D01*
X227194Y155308D01*
X227209Y155295D01*
X227305Y155256D01*
X227399Y155213D01*
X227419Y155211D01*
X227437Y155203D01*
X227604Y155185D01*
X254986Y155185D01*
X257160Y153011D01*
X257218Y152969D01*
X257270Y152920D01*
X257317Y152898D01*
X257359Y152867D01*
X257428Y152846D01*
X257493Y152816D01*
X257545Y152810D01*
X257595Y152795D01*
X257666Y152797D01*
X257737Y152789D01*
X257788Y152800D01*
X257840Y152801D01*
X257908Y152826D01*
X257978Y152841D01*
X258023Y152868D01*
X258071Y152886D01*
X258127Y152931D01*
X258189Y152967D01*
X258223Y153007D01*
X258263Y153039D01*
X258302Y153100D01*
X258349Y153154D01*
X258368Y153203D01*
X258396Y153246D01*
X258414Y153316D01*
X258441Y153382D01*
X258449Y153454D01*
X258457Y153485D01*
X258455Y153508D01*
X258459Y153549D01*
X258459Y156077D01*
X264477Y156077D01*
X264477Y149559D01*
X262449Y149559D01*
X262378Y149548D01*
X262307Y149546D01*
X262258Y149528D01*
X262206Y149520D01*
X262143Y149486D01*
X262076Y149461D01*
X262035Y149429D01*
X261989Y149404D01*
X261940Y149353D01*
X261884Y149308D01*
X261855Y149264D01*
X261820Y149226D01*
X261789Y149161D01*
X261751Y149101D01*
X261738Y149050D01*
X261716Y149003D01*
X261708Y148932D01*
X261691Y148862D01*
X261695Y148810D01*
X261689Y148759D01*
X261704Y148688D01*
X261710Y148617D01*
X261730Y148569D01*
X261741Y148518D01*
X261778Y148457D01*
X261806Y148391D01*
X261851Y148335D01*
X261867Y148307D01*
X261885Y148292D01*
X261911Y148260D01*
X262323Y147848D01*
X262397Y147794D01*
X262466Y147735D01*
X262496Y147723D01*
X262523Y147704D01*
X262610Y147677D01*
X262694Y147643D01*
X262735Y147639D01*
X262758Y147632D01*
X262790Y147633D01*
X262861Y147625D01*
X271632Y147625D01*
X272525Y146732D01*
X272525Y134468D01*
X271632Y133575D01*
X260368Y133575D01*
X259475Y134468D01*
X259475Y143239D01*
X259461Y143329D01*
X259453Y143420D01*
X259441Y143450D01*
X259436Y143482D01*
X259393Y143562D01*
X259357Y143646D01*
X259331Y143678D01*
X259320Y143699D01*
X259297Y143721D01*
X259252Y143777D01*
X253117Y149912D01*
X253043Y149965D01*
X252974Y150025D01*
X252944Y150037D01*
X252917Y150056D01*
X252830Y150083D01*
X252746Y150117D01*
X252705Y150121D01*
X252682Y150128D01*
X252650Y150127D01*
X252579Y150135D01*
X226588Y150135D01*
X226568Y150132D01*
X226549Y150134D01*
X226447Y150112D01*
X226345Y150096D01*
X226328Y150086D01*
X226308Y150082D01*
X226219Y150029D01*
X226128Y149980D01*
X226114Y149966D01*
X226097Y149956D01*
X226030Y149877D01*
X225958Y149802D01*
X225950Y149784D01*
X225937Y149769D01*
X225898Y149673D01*
X225855Y149579D01*
X225853Y149559D01*
X225845Y149541D01*
X225827Y149374D01*
X225827Y146286D01*
X225830Y146266D01*
X225828Y146247D01*
X225850Y146145D01*
X225866Y146043D01*
X225876Y146026D01*
X225880Y146006D01*
X225933Y145917D01*
X225982Y145826D01*
X225996Y145812D01*
X226006Y145795D01*
X226085Y145728D01*
X226160Y145656D01*
X226178Y145648D01*
X226193Y145635D01*
X226289Y145596D01*
X226383Y145553D01*
X226403Y145551D01*
X226421Y145543D01*
X226588Y145525D01*
X240046Y145525D01*
X241525Y144046D01*
X241525Y130013D01*
X241540Y129922D01*
X241547Y129832D01*
X241559Y129802D01*
X241564Y129770D01*
X241607Y129689D01*
X241643Y129605D01*
X241669Y129573D01*
X241680Y129552D01*
X241703Y129530D01*
X241748Y129474D01*
X244107Y127115D01*
X244107Y122885D01*
X241115Y119893D01*
X236885Y119893D01*
X233893Y122885D01*
X233893Y127115D01*
X236252Y129474D01*
X236305Y129548D01*
X236365Y129618D01*
X236377Y129648D01*
X236396Y129674D01*
X236423Y129761D01*
X236457Y129846D01*
X236461Y129887D01*
X236468Y129909D01*
X236467Y129941D01*
X236475Y130013D01*
X236475Y139714D01*
X236472Y139734D01*
X236474Y139753D01*
X236452Y139855D01*
X236436Y139957D01*
X236426Y139974D01*
X236422Y139994D01*
X236369Y140083D01*
X236320Y140174D01*
X236306Y140188D01*
X236296Y140205D01*
X236217Y140272D01*
X236142Y140344D01*
X236124Y140352D01*
X236109Y140365D01*
X236013Y140404D01*
X235919Y140447D01*
X235899Y140449D01*
X235881Y140457D01*
X235714Y140475D01*
X226588Y140475D01*
X226568Y140472D01*
X226549Y140474D01*
X226447Y140452D01*
X226345Y140436D01*
X226328Y140426D01*
X226308Y140422D01*
X226219Y140369D01*
X226128Y140320D01*
X226114Y140306D01*
X226097Y140296D01*
X226030Y140217D01*
X225958Y140142D01*
X225950Y140124D01*
X225937Y140109D01*
X225898Y140013D01*
X225855Y139919D01*
X225853Y139899D01*
X225845Y139881D01*
X225827Y139714D01*
X225827Y135518D01*
X224934Y134625D01*
X223524Y134625D01*
X223504Y134622D01*
X223485Y134624D01*
X223383Y134602D01*
X223281Y134586D01*
X223264Y134576D01*
X223244Y134572D01*
X223155Y134519D01*
X223064Y134470D01*
X223050Y134456D01*
X223033Y134446D01*
X222966Y134367D01*
X222894Y134292D01*
X222886Y134274D01*
X222873Y134259D01*
X222834Y134163D01*
X222791Y134069D01*
X222789Y134049D01*
X222781Y134031D01*
X222763Y133864D01*
X222763Y124123D01*
X222777Y124033D01*
X222785Y123942D01*
X222797Y123912D01*
X222802Y123880D01*
X222845Y123800D01*
X222881Y123716D01*
X222907Y123684D01*
X222918Y123663D01*
X222941Y123641D01*
X222986Y123585D01*
X282823Y63748D01*
X282897Y63695D01*
X282966Y63635D01*
X282996Y63623D01*
X283023Y63604D01*
X283110Y63577D01*
X283194Y63543D01*
X283235Y63539D01*
X283258Y63532D01*
X283290Y63533D01*
X283361Y63525D01*
X311214Y63525D01*
X311234Y63528D01*
G37*
G36*
X26304Y145184D02*
X26304Y145184D01*
X26356Y145185D01*
X26424Y145210D01*
X26494Y145225D01*
X26539Y145252D01*
X26587Y145270D01*
X26643Y145315D01*
X26705Y145351D01*
X26739Y145391D01*
X26779Y145423D01*
X26818Y145484D01*
X26865Y145538D01*
X26884Y145587D01*
X26912Y145630D01*
X26930Y145700D01*
X26957Y145766D01*
X26965Y145838D01*
X26973Y145869D01*
X26971Y145892D01*
X26975Y145933D01*
X26975Y157532D01*
X27868Y158425D01*
X30214Y158425D01*
X30234Y158428D01*
X30253Y158426D01*
X30355Y158448D01*
X30457Y158464D01*
X30474Y158474D01*
X30494Y158478D01*
X30583Y158531D01*
X30674Y158580D01*
X30688Y158594D01*
X30705Y158604D01*
X30772Y158683D01*
X30844Y158758D01*
X30852Y158776D01*
X30865Y158791D01*
X30904Y158887D01*
X30947Y158981D01*
X30949Y159001D01*
X30957Y159019D01*
X30975Y159186D01*
X30975Y166946D01*
X31052Y167023D01*
X31105Y167097D01*
X31165Y167166D01*
X31177Y167196D01*
X31196Y167223D01*
X31223Y167310D01*
X31257Y167394D01*
X31261Y167435D01*
X31268Y167458D01*
X31267Y167490D01*
X31275Y167561D01*
X31275Y178532D01*
X32168Y179425D01*
X43539Y179425D01*
X43629Y179439D01*
X43720Y179447D01*
X43750Y179459D01*
X43782Y179464D01*
X43862Y179507D01*
X43946Y179543D01*
X43978Y179569D01*
X43999Y179580D01*
X44021Y179603D01*
X44077Y179648D01*
X46252Y181823D01*
X46305Y181897D01*
X46365Y181966D01*
X46377Y181996D01*
X46396Y182023D01*
X46423Y182110D01*
X46457Y182194D01*
X46461Y182235D01*
X46468Y182258D01*
X46467Y182290D01*
X46475Y182361D01*
X46475Y196046D01*
X47405Y196976D01*
X47447Y197034D01*
X47496Y197086D01*
X47518Y197133D01*
X47549Y197175D01*
X47570Y197244D01*
X47600Y197309D01*
X47606Y197361D01*
X47621Y197411D01*
X47619Y197482D01*
X47627Y197553D01*
X47616Y197604D01*
X47615Y197656D01*
X47590Y197724D01*
X47575Y197794D01*
X47548Y197839D01*
X47530Y197887D01*
X47485Y197943D01*
X47449Y198005D01*
X47409Y198039D01*
X47377Y198079D01*
X47316Y198118D01*
X47262Y198165D01*
X47213Y198184D01*
X47170Y198212D01*
X47100Y198230D01*
X47034Y198257D01*
X46962Y198265D01*
X46931Y198273D01*
X46908Y198271D01*
X46867Y198275D01*
X45768Y198275D01*
X44875Y199168D01*
X44875Y210432D01*
X45768Y211325D01*
X48614Y211325D01*
X48634Y211328D01*
X48653Y211326D01*
X48755Y211348D01*
X48857Y211364D01*
X48874Y211374D01*
X48894Y211378D01*
X48983Y211431D01*
X49074Y211480D01*
X49088Y211494D01*
X49105Y211504D01*
X49172Y211583D01*
X49244Y211658D01*
X49252Y211676D01*
X49265Y211691D01*
X49304Y211787D01*
X49312Y211806D01*
X49313Y211807D01*
X49347Y211881D01*
X49349Y211901D01*
X49357Y211919D01*
X49369Y212031D01*
X49373Y212045D01*
X49372Y212055D01*
X49375Y212086D01*
X49375Y212109D01*
X49374Y212119D01*
X49374Y212125D01*
X49367Y212157D01*
X49361Y212199D01*
X49353Y212290D01*
X49341Y212320D01*
X49336Y212352D01*
X49310Y212400D01*
X49310Y212401D01*
X49306Y212407D01*
X49293Y212432D01*
X49257Y212516D01*
X49231Y212548D01*
X49220Y212569D01*
X49197Y212591D01*
X49193Y212596D01*
X49184Y212612D01*
X49174Y212621D01*
X49152Y212647D01*
X45347Y216452D01*
X45273Y216505D01*
X45204Y216565D01*
X45174Y216577D01*
X45147Y216596D01*
X45060Y216623D01*
X44976Y216657D01*
X44935Y216661D01*
X44912Y216668D01*
X44880Y216667D01*
X44809Y216675D01*
X37417Y216675D01*
X35645Y218447D01*
X35645Y227953D01*
X37417Y229725D01*
X46923Y229725D01*
X48695Y227953D01*
X48695Y220561D01*
X48709Y220471D01*
X48717Y220380D01*
X48729Y220350D01*
X48734Y220318D01*
X48777Y220238D01*
X48813Y220154D01*
X48839Y220122D01*
X48850Y220101D01*
X48873Y220079D01*
X48918Y220023D01*
X54425Y214516D01*
X54425Y212086D01*
X54428Y212066D01*
X54426Y212047D01*
X54448Y211945D01*
X54464Y211843D01*
X54474Y211826D01*
X54478Y211806D01*
X54531Y211717D01*
X54580Y211626D01*
X54594Y211612D01*
X54604Y211595D01*
X54683Y211528D01*
X54758Y211456D01*
X54776Y211448D01*
X54791Y211435D01*
X54887Y211396D01*
X54981Y211353D01*
X55001Y211351D01*
X55019Y211343D01*
X55186Y211325D01*
X58032Y211325D01*
X58925Y210432D01*
X58925Y199168D01*
X58581Y198824D01*
X58539Y198766D01*
X58489Y198714D01*
X58467Y198667D01*
X58437Y198625D01*
X58416Y198556D01*
X58386Y198491D01*
X58380Y198439D01*
X58365Y198389D01*
X58367Y198318D01*
X58359Y198247D01*
X58370Y198196D01*
X58371Y198144D01*
X58396Y198076D01*
X58411Y198006D01*
X58438Y197961D01*
X58455Y197913D01*
X58500Y197857D01*
X58537Y197795D01*
X58577Y197761D01*
X58609Y197721D01*
X58669Y197682D01*
X58724Y197635D01*
X58772Y197616D01*
X58816Y197588D01*
X58885Y197570D01*
X58952Y197543D01*
X59023Y197535D01*
X59055Y197527D01*
X59078Y197529D01*
X59119Y197525D01*
X61681Y197525D01*
X61752Y197536D01*
X61824Y197538D01*
X61873Y197556D01*
X61924Y197564D01*
X61987Y197598D01*
X62055Y197623D01*
X62095Y197655D01*
X62141Y197680D01*
X62191Y197732D01*
X62247Y197776D01*
X62275Y197820D01*
X62311Y197858D01*
X62341Y197923D01*
X62380Y197983D01*
X62392Y198034D01*
X62414Y198081D01*
X62422Y198152D01*
X62440Y198222D01*
X62436Y198274D01*
X62441Y198325D01*
X62426Y198396D01*
X62421Y198467D01*
X62400Y198515D01*
X62389Y198566D01*
X62352Y198627D01*
X62324Y198693D01*
X62279Y198749D01*
X62263Y198777D01*
X62245Y198792D01*
X62219Y198824D01*
X61875Y199168D01*
X61875Y210432D01*
X62768Y211325D01*
X75032Y211325D01*
X75925Y210432D01*
X75925Y208286D01*
X75926Y208278D01*
X75926Y208275D01*
X75928Y208266D01*
X75926Y208247D01*
X75948Y208145D01*
X75964Y208043D01*
X75974Y208026D01*
X75978Y208006D01*
X76031Y207917D01*
X76080Y207826D01*
X76094Y207812D01*
X76104Y207795D01*
X76183Y207728D01*
X76258Y207656D01*
X76276Y207648D01*
X76291Y207635D01*
X76387Y207596D01*
X76481Y207553D01*
X76501Y207551D01*
X76519Y207543D01*
X76686Y207525D01*
X89705Y207525D01*
X89795Y207539D01*
X89886Y207547D01*
X89915Y207559D01*
X89947Y207564D01*
X90028Y207607D01*
X90112Y207643D01*
X90144Y207669D01*
X90165Y207680D01*
X90187Y207703D01*
X90243Y207748D01*
X92802Y210307D01*
X97198Y210307D01*
X100307Y207198D01*
X100307Y202802D01*
X97198Y199693D01*
X92802Y199693D01*
X90243Y202252D01*
X90169Y202305D01*
X90099Y202365D01*
X90069Y202377D01*
X90043Y202396D01*
X89956Y202423D01*
X89871Y202457D01*
X89830Y202461D01*
X89808Y202468D01*
X89776Y202467D01*
X89705Y202475D01*
X76686Y202475D01*
X76666Y202472D01*
X76647Y202474D01*
X76545Y202452D01*
X76443Y202436D01*
X76426Y202426D01*
X76406Y202422D01*
X76317Y202369D01*
X76226Y202320D01*
X76212Y202306D01*
X76195Y202296D01*
X76128Y202217D01*
X76056Y202142D01*
X76048Y202124D01*
X76035Y202109D01*
X75996Y202013D01*
X75953Y201919D01*
X75951Y201899D01*
X75943Y201881D01*
X75925Y201714D01*
X75925Y199168D01*
X75581Y198824D01*
X75539Y198766D01*
X75489Y198714D01*
X75467Y198667D01*
X75437Y198625D01*
X75416Y198556D01*
X75386Y198491D01*
X75380Y198439D01*
X75365Y198389D01*
X75367Y198318D01*
X75359Y198247D01*
X75370Y198196D01*
X75371Y198144D01*
X75396Y198076D01*
X75411Y198006D01*
X75438Y197961D01*
X75455Y197913D01*
X75500Y197857D01*
X75537Y197795D01*
X75577Y197761D01*
X75609Y197721D01*
X75669Y197682D01*
X75724Y197635D01*
X75772Y197616D01*
X75816Y197588D01*
X75885Y197570D01*
X75952Y197543D01*
X76023Y197535D01*
X76055Y197527D01*
X76078Y197529D01*
X76119Y197525D01*
X102714Y197525D01*
X102734Y197528D01*
X102753Y197526D01*
X102855Y197548D01*
X102957Y197564D01*
X102974Y197574D01*
X102994Y197578D01*
X103083Y197631D01*
X103174Y197680D01*
X103188Y197694D01*
X103205Y197704D01*
X103272Y197783D01*
X103344Y197858D01*
X103352Y197876D01*
X103365Y197891D01*
X103404Y197987D01*
X103447Y198081D01*
X103449Y198101D01*
X103457Y198119D01*
X103475Y198286D01*
X103475Y207639D01*
X103461Y207729D01*
X103453Y207820D01*
X103441Y207850D01*
X103436Y207882D01*
X103393Y207962D01*
X103357Y208046D01*
X103331Y208078D01*
X103320Y208099D01*
X103297Y208121D01*
X103252Y208177D01*
X61240Y250189D01*
X61182Y250231D01*
X61130Y250280D01*
X61083Y250302D01*
X61041Y250333D01*
X60972Y250354D01*
X60907Y250384D01*
X60855Y250390D01*
X60805Y250405D01*
X60734Y250403D01*
X60663Y250411D01*
X60612Y250400D01*
X60560Y250399D01*
X60492Y250374D01*
X60422Y250359D01*
X60377Y250332D01*
X60329Y250314D01*
X60273Y250269D01*
X60211Y250233D01*
X60177Y250193D01*
X60137Y250161D01*
X60098Y250100D01*
X60051Y250046D01*
X60032Y249997D01*
X60004Y249954D01*
X59986Y249884D01*
X59959Y249818D01*
X59951Y249746D01*
X59943Y249715D01*
X59945Y249692D01*
X59941Y249651D01*
X59941Y247623D01*
X53662Y247623D01*
X53642Y247620D01*
X53623Y247622D01*
X53521Y247600D01*
X53419Y247583D01*
X53402Y247574D01*
X53382Y247570D01*
X53293Y247517D01*
X53202Y247468D01*
X53188Y247454D01*
X53171Y247444D01*
X53104Y247365D01*
X53033Y247290D01*
X53024Y247272D01*
X53011Y247257D01*
X52972Y247161D01*
X52929Y247067D01*
X52927Y247047D01*
X52919Y247029D01*
X52901Y246862D01*
X52901Y246099D01*
X52899Y246099D01*
X52899Y246862D01*
X52896Y246882D01*
X52898Y246901D01*
X52876Y247003D01*
X52859Y247105D01*
X52850Y247122D01*
X52846Y247142D01*
X52793Y247231D01*
X52744Y247322D01*
X52730Y247336D01*
X52720Y247353D01*
X52641Y247420D01*
X52566Y247491D01*
X52548Y247500D01*
X52533Y247513D01*
X52437Y247552D01*
X52343Y247595D01*
X52323Y247597D01*
X52305Y247605D01*
X52138Y247623D01*
X45859Y247623D01*
X45859Y249132D01*
X45856Y249152D01*
X45858Y249171D01*
X45836Y249273D01*
X45820Y249375D01*
X45810Y249392D01*
X45806Y249412D01*
X45753Y249501D01*
X45704Y249592D01*
X45690Y249606D01*
X45680Y249623D01*
X45601Y249690D01*
X45526Y249762D01*
X45508Y249770D01*
X45493Y249783D01*
X45397Y249822D01*
X45303Y249865D01*
X45283Y249867D01*
X45265Y249875D01*
X45098Y249893D01*
X42885Y249893D01*
X39893Y252885D01*
X39893Y257115D01*
X42885Y260107D01*
X46114Y260107D01*
X46134Y260110D01*
X46153Y260108D01*
X46255Y260130D01*
X46357Y260146D01*
X46374Y260156D01*
X46394Y260160D01*
X46483Y260213D01*
X46574Y260262D01*
X46588Y260276D01*
X46605Y260286D01*
X46672Y260365D01*
X46744Y260440D01*
X46752Y260458D01*
X46765Y260473D01*
X46804Y260569D01*
X46847Y260663D01*
X46849Y260683D01*
X46857Y260701D01*
X46875Y260868D01*
X46875Y261214D01*
X46872Y261234D01*
X46874Y261253D01*
X46852Y261355D01*
X46836Y261457D01*
X46826Y261474D01*
X46822Y261494D01*
X46769Y261583D01*
X46720Y261674D01*
X46706Y261688D01*
X46696Y261705D01*
X46617Y261772D01*
X46542Y261844D01*
X46524Y261852D01*
X46509Y261865D01*
X46413Y261904D01*
X46319Y261947D01*
X46299Y261949D01*
X46281Y261957D01*
X46114Y261975D01*
X31886Y261975D01*
X31866Y261972D01*
X31847Y261974D01*
X31745Y261952D01*
X31643Y261936D01*
X31626Y261926D01*
X31606Y261922D01*
X31517Y261869D01*
X31426Y261820D01*
X31412Y261806D01*
X31395Y261796D01*
X31328Y261717D01*
X31256Y261642D01*
X31248Y261624D01*
X31235Y261609D01*
X31196Y261513D01*
X31153Y261419D01*
X31151Y261399D01*
X31143Y261381D01*
X31125Y261214D01*
X31125Y258368D01*
X30232Y257475D01*
X18968Y257475D01*
X18075Y258368D01*
X18075Y270632D01*
X18968Y271525D01*
X30232Y271525D01*
X31125Y270632D01*
X31125Y267786D01*
X31128Y267766D01*
X31126Y267747D01*
X31148Y267645D01*
X31164Y267543D01*
X31174Y267526D01*
X31178Y267506D01*
X31231Y267417D01*
X31280Y267326D01*
X31294Y267312D01*
X31304Y267295D01*
X31383Y267228D01*
X31458Y267156D01*
X31476Y267148D01*
X31491Y267135D01*
X31587Y267096D01*
X31681Y267053D01*
X31701Y267051D01*
X31719Y267043D01*
X31886Y267025D01*
X46114Y267025D01*
X46134Y267028D01*
X46153Y267026D01*
X46255Y267048D01*
X46357Y267064D01*
X46374Y267074D01*
X46394Y267078D01*
X46483Y267131D01*
X46574Y267180D01*
X46588Y267194D01*
X46605Y267204D01*
X46672Y267283D01*
X46744Y267358D01*
X46752Y267376D01*
X46765Y267391D01*
X46804Y267487D01*
X46847Y267581D01*
X46849Y267601D01*
X46857Y267619D01*
X46875Y267786D01*
X46875Y269732D01*
X47768Y270625D01*
X55967Y270625D01*
X56038Y270636D01*
X56109Y270638D01*
X56158Y270656D01*
X56210Y270664D01*
X56273Y270698D01*
X56340Y270723D01*
X56381Y270755D01*
X56427Y270780D01*
X56476Y270831D01*
X56532Y270876D01*
X56561Y270920D01*
X56596Y270958D01*
X56627Y271023D01*
X56665Y271083D01*
X56678Y271134D01*
X56700Y271181D01*
X56708Y271252D01*
X56725Y271322D01*
X56721Y271374D01*
X56727Y271425D01*
X56712Y271496D01*
X56706Y271567D01*
X56686Y271615D01*
X56675Y271666D01*
X56638Y271727D01*
X56610Y271793D01*
X56565Y271849D01*
X56549Y271877D01*
X56531Y271892D01*
X56505Y271924D01*
X52177Y276252D01*
X52103Y276305D01*
X52034Y276365D01*
X52004Y276377D01*
X51977Y276396D01*
X51891Y276423D01*
X51806Y276457D01*
X51765Y276461D01*
X51742Y276468D01*
X51710Y276467D01*
X51639Y276475D01*
X16286Y276475D01*
X16266Y276472D01*
X16247Y276474D01*
X16145Y276452D01*
X16043Y276436D01*
X16026Y276426D01*
X16006Y276422D01*
X15917Y276369D01*
X15826Y276320D01*
X15812Y276306D01*
X15795Y276296D01*
X15728Y276217D01*
X15656Y276142D01*
X15648Y276124D01*
X15635Y276109D01*
X15596Y276013D01*
X15553Y275919D01*
X15551Y275899D01*
X15543Y275881D01*
X15525Y275714D01*
X15525Y214585D01*
X15536Y214514D01*
X15538Y214442D01*
X15556Y214393D01*
X15564Y214342D01*
X15598Y214278D01*
X15623Y214211D01*
X15655Y214170D01*
X15680Y214124D01*
X15732Y214075D01*
X15776Y214019D01*
X15820Y213991D01*
X15858Y213955D01*
X15923Y213925D01*
X15983Y213886D01*
X16034Y213873D01*
X16081Y213851D01*
X16152Y213844D01*
X16222Y213826D01*
X16274Y213830D01*
X16325Y213824D01*
X16396Y213840D01*
X16467Y213845D01*
X16515Y213865D01*
X16566Y213877D01*
X16627Y213913D01*
X16693Y213941D01*
X16749Y213986D01*
X16777Y214003D01*
X16792Y214021D01*
X16824Y214046D01*
X17885Y215107D01*
X18171Y215107D01*
X18242Y215118D01*
X18313Y215120D01*
X18362Y215138D01*
X18414Y215146D01*
X18477Y215180D01*
X18544Y215205D01*
X18585Y215237D01*
X18631Y215262D01*
X18680Y215314D01*
X18736Y215358D01*
X18765Y215402D01*
X18801Y215440D01*
X18831Y215505D01*
X18869Y215565D01*
X18882Y215616D01*
X18904Y215663D01*
X18912Y215734D01*
X18930Y215804D01*
X18925Y215856D01*
X18931Y215907D01*
X18916Y215978D01*
X18910Y216049D01*
X18890Y216097D01*
X18879Y216148D01*
X18842Y216209D01*
X18814Y216275D01*
X18769Y216331D01*
X18753Y216359D01*
X18735Y216374D01*
X18709Y216406D01*
X17897Y217219D01*
X17365Y218140D01*
X17089Y219168D01*
X17089Y221677D01*
X23107Y221677D01*
X23107Y215593D01*
X23094Y215586D01*
X23027Y215561D01*
X22986Y215529D01*
X22940Y215504D01*
X22891Y215452D01*
X22835Y215408D01*
X22807Y215364D01*
X22771Y215326D01*
X22741Y215261D01*
X22702Y215201D01*
X22689Y215150D01*
X22667Y215103D01*
X22660Y215032D01*
X22642Y214962D01*
X22646Y214910D01*
X22640Y214859D01*
X22656Y214788D01*
X22661Y214717D01*
X22681Y214669D01*
X22693Y214618D01*
X22729Y214557D01*
X22757Y214491D01*
X22802Y214435D01*
X22819Y214407D01*
X22837Y214392D01*
X22862Y214360D01*
X25107Y212115D01*
X25107Y207885D01*
X24048Y206826D01*
X23995Y206752D01*
X23935Y206682D01*
X23923Y206652D01*
X23904Y206626D01*
X23877Y206539D01*
X23843Y206454D01*
X23839Y206413D01*
X23832Y206391D01*
X23833Y206359D01*
X23825Y206287D01*
X23825Y196586D01*
X23828Y196566D01*
X23826Y196547D01*
X23848Y196445D01*
X23864Y196343D01*
X23874Y196326D01*
X23878Y196306D01*
X23931Y196217D01*
X23980Y196126D01*
X23994Y196112D01*
X24004Y196095D01*
X24083Y196028D01*
X24158Y195956D01*
X24176Y195948D01*
X24191Y195935D01*
X24287Y195896D01*
X24381Y195853D01*
X24401Y195851D01*
X24419Y195843D01*
X24586Y195825D01*
X26932Y195825D01*
X27825Y194932D01*
X27825Y182668D01*
X26932Y181775D01*
X16286Y181775D01*
X16266Y181772D01*
X16247Y181774D01*
X16145Y181752D01*
X16043Y181736D01*
X16026Y181726D01*
X16006Y181722D01*
X15917Y181669D01*
X15826Y181620D01*
X15812Y181606D01*
X15795Y181596D01*
X15728Y181517D01*
X15656Y181442D01*
X15648Y181424D01*
X15635Y181409D01*
X15596Y181313D01*
X15553Y181219D01*
X15551Y181199D01*
X15543Y181181D01*
X15525Y181014D01*
X15525Y179586D01*
X15528Y179566D01*
X15526Y179547D01*
X15548Y179445D01*
X15564Y179343D01*
X15574Y179326D01*
X15578Y179306D01*
X15631Y179217D01*
X15680Y179126D01*
X15694Y179112D01*
X15704Y179095D01*
X15783Y179028D01*
X15858Y178956D01*
X15876Y178948D01*
X15891Y178935D01*
X15987Y178896D01*
X16081Y178853D01*
X16101Y178851D01*
X16119Y178843D01*
X16286Y178825D01*
X26932Y178825D01*
X27825Y177932D01*
X27825Y165668D01*
X26932Y164775D01*
X24586Y164775D01*
X24566Y164772D01*
X24547Y164774D01*
X24445Y164752D01*
X24343Y164736D01*
X24326Y164726D01*
X24306Y164722D01*
X24217Y164669D01*
X24126Y164620D01*
X24112Y164606D01*
X24095Y164596D01*
X24028Y164517D01*
X23956Y164442D01*
X23948Y164424D01*
X23935Y164409D01*
X23896Y164313D01*
X23853Y164219D01*
X23851Y164199D01*
X23843Y164181D01*
X23825Y164014D01*
X23825Y155954D01*
X22148Y154277D01*
X22095Y154203D01*
X22035Y154134D01*
X22023Y154104D01*
X22004Y154077D01*
X21977Y153990D01*
X21943Y153906D01*
X21939Y153865D01*
X21932Y153842D01*
X21933Y153810D01*
X21925Y153739D01*
X21925Y149461D01*
X21939Y149371D01*
X21947Y149280D01*
X21959Y149250D01*
X21964Y149218D01*
X22007Y149138D01*
X22043Y149054D01*
X22069Y149022D01*
X22080Y149001D01*
X22103Y148979D01*
X22148Y148923D01*
X25676Y145395D01*
X25734Y145353D01*
X25786Y145304D01*
X25833Y145282D01*
X25875Y145251D01*
X25944Y145230D01*
X26009Y145200D01*
X26061Y145194D01*
X26111Y145179D01*
X26182Y145181D01*
X26253Y145173D01*
X26304Y145184D01*
G37*
G36*
X175138Y49536D02*
X175138Y49536D01*
X175209Y49538D01*
X175258Y49556D01*
X175310Y49564D01*
X175373Y49598D01*
X175440Y49623D01*
X175481Y49655D01*
X175527Y49680D01*
X175576Y49732D01*
X175632Y49776D01*
X175661Y49820D01*
X175696Y49858D01*
X175727Y49923D01*
X175765Y49983D01*
X175778Y50034D01*
X175800Y50081D01*
X175808Y50152D01*
X175825Y50222D01*
X175821Y50274D01*
X175827Y50325D01*
X175812Y50396D01*
X175806Y50467D01*
X175786Y50515D01*
X175775Y50566D01*
X175738Y50627D01*
X175710Y50693D01*
X175665Y50749D01*
X175649Y50777D01*
X175631Y50792D01*
X175605Y50824D01*
X174252Y52177D01*
X144775Y81654D01*
X144775Y100414D01*
X144772Y100434D01*
X144774Y100453D01*
X144752Y100555D01*
X144736Y100657D01*
X144726Y100674D01*
X144722Y100694D01*
X144669Y100783D01*
X144620Y100874D01*
X144606Y100888D01*
X144596Y100905D01*
X144517Y100972D01*
X144442Y101044D01*
X144424Y101052D01*
X144409Y101065D01*
X144313Y101104D01*
X144219Y101147D01*
X144199Y101149D01*
X144181Y101157D01*
X144014Y101175D01*
X141168Y101175D01*
X140275Y102068D01*
X140275Y113332D01*
X141168Y114225D01*
X153432Y114225D01*
X154325Y113332D01*
X154325Y110986D01*
X154328Y110966D01*
X154326Y110947D01*
X154348Y110845D01*
X154364Y110743D01*
X154374Y110726D01*
X154378Y110706D01*
X154431Y110617D01*
X154480Y110526D01*
X154494Y110512D01*
X154504Y110495D01*
X154583Y110428D01*
X154658Y110356D01*
X154676Y110348D01*
X154691Y110335D01*
X154787Y110296D01*
X154881Y110253D01*
X154901Y110251D01*
X154919Y110243D01*
X155086Y110225D01*
X156014Y110225D01*
X156034Y110228D01*
X156053Y110226D01*
X156155Y110248D01*
X156257Y110264D01*
X156274Y110274D01*
X156294Y110278D01*
X156383Y110331D01*
X156474Y110380D01*
X156488Y110394D01*
X156505Y110404D01*
X156572Y110483D01*
X156644Y110558D01*
X156652Y110576D01*
X156665Y110591D01*
X156704Y110687D01*
X156747Y110781D01*
X156749Y110801D01*
X156757Y110819D01*
X156775Y110986D01*
X156775Y112932D01*
X157668Y113825D01*
X169932Y113825D01*
X170825Y112932D01*
X170825Y101668D01*
X169932Y100775D01*
X157668Y100775D01*
X156775Y101668D01*
X156775Y104414D01*
X156772Y104434D01*
X156774Y104453D01*
X156752Y104555D01*
X156736Y104657D01*
X156726Y104674D01*
X156722Y104694D01*
X156669Y104783D01*
X156620Y104874D01*
X156606Y104888D01*
X156596Y104905D01*
X156517Y104972D01*
X156442Y105044D01*
X156424Y105052D01*
X156409Y105065D01*
X156313Y105104D01*
X156219Y105147D01*
X156199Y105149D01*
X156181Y105157D01*
X156014Y105175D01*
X155086Y105175D01*
X155066Y105172D01*
X155047Y105174D01*
X154945Y105152D01*
X154843Y105136D01*
X154826Y105126D01*
X154806Y105122D01*
X154717Y105069D01*
X154626Y105020D01*
X154612Y105006D01*
X154595Y104996D01*
X154528Y104917D01*
X154456Y104842D01*
X154448Y104824D01*
X154435Y104809D01*
X154396Y104713D01*
X154353Y104619D01*
X154351Y104599D01*
X154343Y104581D01*
X154325Y104414D01*
X154325Y102068D01*
X153432Y101175D01*
X150586Y101175D01*
X150566Y101172D01*
X150547Y101174D01*
X150445Y101152D01*
X150343Y101136D01*
X150326Y101126D01*
X150306Y101122D01*
X150217Y101069D01*
X150126Y101020D01*
X150112Y101006D01*
X150095Y100996D01*
X150028Y100917D01*
X149956Y100842D01*
X149948Y100824D01*
X149935Y100809D01*
X149896Y100713D01*
X149853Y100619D01*
X149851Y100599D01*
X149843Y100581D01*
X149825Y100414D01*
X149825Y84061D01*
X149839Y83971D01*
X149847Y83880D01*
X149859Y83850D01*
X149864Y83818D01*
X149907Y83738D01*
X149943Y83654D01*
X149969Y83622D01*
X149980Y83601D01*
X150003Y83579D01*
X150048Y83523D01*
X177823Y55748D01*
X177897Y55695D01*
X177966Y55635D01*
X177996Y55623D01*
X178023Y55604D01*
X178110Y55577D01*
X178194Y55543D01*
X178235Y55539D01*
X178258Y55532D01*
X178290Y55533D01*
X178361Y55525D01*
X208915Y55525D01*
X208986Y55536D01*
X209058Y55538D01*
X209107Y55556D01*
X209158Y55564D01*
X209222Y55598D01*
X209289Y55623D01*
X209330Y55655D01*
X209376Y55680D01*
X209425Y55732D01*
X209481Y55776D01*
X209509Y55820D01*
X209545Y55858D01*
X209575Y55923D01*
X209614Y55983D01*
X209627Y56034D01*
X209649Y56081D01*
X209656Y56152D01*
X209674Y56222D01*
X209670Y56274D01*
X209676Y56325D01*
X209660Y56396D01*
X209655Y56467D01*
X209635Y56515D01*
X209623Y56566D01*
X209587Y56627D01*
X209559Y56693D01*
X209514Y56749D01*
X209497Y56777D01*
X209479Y56792D01*
X209454Y56824D01*
X206893Y59385D01*
X206893Y63615D01*
X209321Y66043D01*
X209371Y66113D01*
X209428Y66177D01*
X209442Y66212D01*
X209464Y66242D01*
X209490Y66325D01*
X209523Y66404D01*
X209529Y66452D01*
X209537Y66477D01*
X209536Y66508D01*
X209544Y66571D01*
X209957Y97147D01*
X209942Y97242D01*
X209935Y97338D01*
X209924Y97363D01*
X209920Y97390D01*
X209876Y97476D01*
X209839Y97565D01*
X209817Y97591D01*
X209808Y97609D01*
X209784Y97632D01*
X209770Y97650D01*
X209762Y97663D01*
X209754Y97670D01*
X209734Y97696D01*
X203824Y103605D01*
X203766Y103647D01*
X203714Y103696D01*
X203667Y103718D01*
X203625Y103749D01*
X203556Y103770D01*
X203491Y103800D01*
X203439Y103806D01*
X203389Y103821D01*
X203318Y103819D01*
X203247Y103827D01*
X203196Y103816D01*
X203144Y103815D01*
X203076Y103790D01*
X203006Y103775D01*
X202962Y103748D01*
X202913Y103730D01*
X202857Y103685D01*
X202795Y103649D01*
X202761Y103609D01*
X202721Y103577D01*
X202682Y103516D01*
X202635Y103462D01*
X202616Y103413D01*
X202588Y103370D01*
X202570Y103300D01*
X202543Y103234D01*
X202535Y103162D01*
X202527Y103131D01*
X202529Y103108D01*
X202525Y103067D01*
X202525Y78954D01*
X201046Y77475D01*
X170013Y77475D01*
X169922Y77461D01*
X169832Y77453D01*
X169802Y77441D01*
X169770Y77436D01*
X169689Y77393D01*
X169605Y77357D01*
X169573Y77331D01*
X169552Y77320D01*
X169530Y77297D01*
X169474Y77252D01*
X167115Y74893D01*
X162885Y74893D01*
X159893Y77885D01*
X159893Y82115D01*
X162885Y85107D01*
X167115Y85107D01*
X169474Y82748D01*
X169548Y82695D01*
X169618Y82635D01*
X169648Y82623D01*
X169674Y82604D01*
X169761Y82577D01*
X169846Y82543D01*
X169887Y82539D01*
X169909Y82532D01*
X169941Y82533D01*
X170013Y82525D01*
X196714Y82525D01*
X196734Y82528D01*
X196753Y82526D01*
X196855Y82548D01*
X196957Y82564D01*
X196974Y82574D01*
X196994Y82578D01*
X197083Y82631D01*
X197174Y82680D01*
X197188Y82694D01*
X197205Y82704D01*
X197272Y82783D01*
X197344Y82858D01*
X197352Y82876D01*
X197365Y82891D01*
X197404Y82987D01*
X197447Y83081D01*
X197449Y83101D01*
X197457Y83119D01*
X197475Y83286D01*
X197475Y103639D01*
X197461Y103729D01*
X197453Y103820D01*
X197441Y103850D01*
X197436Y103882D01*
X197393Y103962D01*
X197357Y104046D01*
X197331Y104078D01*
X197320Y104099D01*
X197297Y104121D01*
X197252Y104177D01*
X192252Y109177D01*
X190140Y111289D01*
X190082Y111331D01*
X190030Y111380D01*
X189983Y111402D01*
X189941Y111433D01*
X189872Y111454D01*
X189807Y111484D01*
X189755Y111490D01*
X189705Y111505D01*
X189634Y111503D01*
X189563Y111511D01*
X189512Y111500D01*
X189460Y111499D01*
X189392Y111474D01*
X189322Y111459D01*
X189277Y111432D01*
X189229Y111414D01*
X189173Y111369D01*
X189111Y111333D01*
X189077Y111293D01*
X189037Y111261D01*
X188998Y111200D01*
X188951Y111146D01*
X188932Y111097D01*
X188904Y111054D01*
X188886Y110984D01*
X188859Y110918D01*
X188851Y110846D01*
X188843Y110815D01*
X188845Y110792D01*
X188841Y110751D01*
X188841Y108823D01*
X182323Y108823D01*
X182323Y114841D01*
X184751Y114841D01*
X184822Y114852D01*
X184893Y114854D01*
X184942Y114872D01*
X184994Y114880D01*
X185057Y114914D01*
X185124Y114939D01*
X185165Y114971D01*
X185211Y114996D01*
X185260Y115048D01*
X185316Y115092D01*
X185345Y115136D01*
X185380Y115174D01*
X185411Y115239D01*
X185449Y115299D01*
X185462Y115350D01*
X185484Y115397D01*
X185492Y115468D01*
X185509Y115538D01*
X185505Y115590D01*
X185511Y115641D01*
X185496Y115712D01*
X185490Y115783D01*
X185470Y115831D01*
X185459Y115882D01*
X185422Y115943D01*
X185394Y116009D01*
X185349Y116065D01*
X185333Y116093D01*
X185315Y116108D01*
X185289Y116140D01*
X180629Y120800D01*
X180629Y124212D01*
X180626Y124232D01*
X180628Y124251D01*
X180606Y124353D01*
X180590Y124455D01*
X180580Y124472D01*
X180576Y124492D01*
X180523Y124581D01*
X180474Y124672D01*
X180460Y124686D01*
X180450Y124703D01*
X180371Y124770D01*
X180296Y124842D01*
X180278Y124850D01*
X180263Y124863D01*
X180167Y124902D01*
X180073Y124945D01*
X180053Y124947D01*
X180035Y124955D01*
X179868Y124973D01*
X176371Y124973D01*
X176281Y124959D01*
X176190Y124951D01*
X176160Y124939D01*
X176128Y124934D01*
X176048Y124891D01*
X175964Y124855D01*
X175932Y124829D01*
X175911Y124818D01*
X175889Y124795D01*
X175833Y124750D01*
X171058Y119975D01*
X162513Y119975D01*
X162423Y119961D01*
X162332Y119953D01*
X162302Y119941D01*
X162270Y119936D01*
X162189Y119893D01*
X162105Y119857D01*
X162073Y119831D01*
X162052Y119820D01*
X162030Y119797D01*
X161974Y119752D01*
X159615Y117393D01*
X155385Y117393D01*
X152393Y120385D01*
X152393Y124615D01*
X155385Y127607D01*
X159615Y127607D01*
X161974Y125248D01*
X162048Y125195D01*
X162118Y125135D01*
X162148Y125123D01*
X162174Y125104D01*
X162261Y125077D01*
X162346Y125043D01*
X162387Y125039D01*
X162409Y125032D01*
X162441Y125033D01*
X162513Y125025D01*
X168651Y125025D01*
X168741Y125039D01*
X168832Y125047D01*
X168862Y125059D01*
X168894Y125064D01*
X168974Y125107D01*
X169058Y125143D01*
X169090Y125169D01*
X169111Y125180D01*
X169133Y125203D01*
X169189Y125248D01*
X174802Y130861D01*
X174855Y130935D01*
X174915Y131004D01*
X174927Y131034D01*
X174946Y131061D01*
X174973Y131148D01*
X175007Y131232D01*
X175011Y131273D01*
X175018Y131296D01*
X175017Y131328D01*
X175025Y131399D01*
X175025Y133864D01*
X175022Y133884D01*
X175024Y133903D01*
X175002Y134005D01*
X174986Y134107D01*
X174976Y134124D01*
X174972Y134144D01*
X174919Y134233D01*
X174870Y134324D01*
X174856Y134338D01*
X174846Y134355D01*
X174767Y134422D01*
X174692Y134494D01*
X174674Y134502D01*
X174659Y134515D01*
X174563Y134554D01*
X174469Y134597D01*
X174449Y134599D01*
X174431Y134607D01*
X174264Y134625D01*
X166266Y134625D01*
X165965Y134926D01*
X165891Y134980D01*
X165822Y135039D01*
X165792Y135051D01*
X165766Y135070D01*
X165679Y135097D01*
X165594Y135131D01*
X165553Y135135D01*
X165531Y135142D01*
X165498Y135141D01*
X165427Y135149D01*
X151535Y135149D01*
X151445Y135135D01*
X151354Y135127D01*
X151324Y135115D01*
X151292Y135110D01*
X151212Y135067D01*
X151128Y135031D01*
X151096Y135005D01*
X151075Y134994D01*
X151053Y134971D01*
X150997Y134926D01*
X139046Y122975D01*
X120433Y122975D01*
X120362Y122964D01*
X120291Y122962D01*
X120242Y122944D01*
X120190Y122936D01*
X120127Y122902D01*
X120060Y122877D01*
X120019Y122845D01*
X119973Y122820D01*
X119924Y122768D01*
X119868Y122724D01*
X119839Y122680D01*
X119804Y122642D01*
X119773Y122577D01*
X119735Y122517D01*
X119722Y122466D01*
X119700Y122419D01*
X119692Y122348D01*
X119675Y122278D01*
X119679Y122226D01*
X119673Y122175D01*
X119688Y122104D01*
X119694Y122033D01*
X119714Y121985D01*
X119725Y121934D01*
X119762Y121873D01*
X119790Y121807D01*
X119835Y121751D01*
X119851Y121723D01*
X119869Y121708D01*
X119895Y121676D01*
X120748Y120823D01*
X127123Y114448D01*
X127197Y114395D01*
X127266Y114335D01*
X127296Y114323D01*
X127323Y114304D01*
X127410Y114277D01*
X127494Y114243D01*
X127535Y114239D01*
X127558Y114232D01*
X127590Y114233D01*
X127661Y114225D01*
X136432Y114225D01*
X137325Y113332D01*
X137325Y102068D01*
X136432Y101175D01*
X133586Y101175D01*
X133566Y101172D01*
X133547Y101174D01*
X133445Y101152D01*
X133343Y101136D01*
X133326Y101126D01*
X133306Y101122D01*
X133217Y101069D01*
X133126Y101020D01*
X133112Y101006D01*
X133095Y100996D01*
X133028Y100917D01*
X132956Y100842D01*
X132948Y100824D01*
X132935Y100809D01*
X132896Y100713D01*
X132853Y100619D01*
X132851Y100599D01*
X132843Y100581D01*
X132825Y100414D01*
X132825Y90061D01*
X132839Y89971D01*
X132847Y89880D01*
X132859Y89850D01*
X132864Y89818D01*
X132907Y89738D01*
X132943Y89654D01*
X132969Y89622D01*
X132980Y89601D01*
X133003Y89579D01*
X133048Y89523D01*
X162525Y60046D01*
X162525Y60013D01*
X162539Y59923D01*
X162547Y59832D01*
X162559Y59802D01*
X162564Y59770D01*
X162607Y59689D01*
X162643Y59605D01*
X162669Y59573D01*
X162680Y59552D01*
X162703Y59530D01*
X162748Y59474D01*
X165107Y57115D01*
X165107Y52885D01*
X163046Y50824D01*
X163004Y50766D01*
X162955Y50714D01*
X162933Y50667D01*
X162903Y50625D01*
X162882Y50556D01*
X162851Y50491D01*
X162846Y50439D01*
X162830Y50389D01*
X162832Y50318D01*
X162824Y50247D01*
X162835Y50196D01*
X162837Y50144D01*
X162861Y50076D01*
X162877Y50006D01*
X162903Y49961D01*
X162921Y49913D01*
X162966Y49857D01*
X163003Y49795D01*
X163042Y49761D01*
X163075Y49721D01*
X163135Y49682D01*
X163190Y49635D01*
X163238Y49616D01*
X163282Y49588D01*
X163351Y49570D01*
X163418Y49543D01*
X163489Y49535D01*
X163520Y49527D01*
X163544Y49529D01*
X163585Y49525D01*
X175067Y49525D01*
X175138Y49536D01*
G37*
G36*
X91729Y19539D02*
X91729Y19539D01*
X91820Y19547D01*
X91850Y19559D01*
X91882Y19564D01*
X91962Y19607D01*
X92046Y19643D01*
X92078Y19669D01*
X92099Y19680D01*
X92121Y19703D01*
X92177Y19748D01*
X92670Y20241D01*
X92724Y20315D01*
X92783Y20384D01*
X92795Y20414D01*
X92814Y20441D01*
X92841Y20528D01*
X92875Y20612D01*
X92879Y20653D01*
X92886Y20676D01*
X92885Y20708D01*
X92893Y20779D01*
X92893Y24115D01*
X94740Y25962D01*
X94751Y25978D01*
X94767Y25990D01*
X94823Y26078D01*
X94883Y26161D01*
X94889Y26180D01*
X94900Y26197D01*
X94925Y26298D01*
X94956Y26397D01*
X94955Y26416D01*
X94960Y26436D01*
X94952Y26539D01*
X94949Y26642D01*
X94942Y26661D01*
X94941Y26681D01*
X94900Y26776D01*
X94865Y26873D01*
X94852Y26889D01*
X94845Y26907D01*
X94740Y27038D01*
X92393Y29385D01*
X92393Y33615D01*
X93454Y34676D01*
X93496Y34734D01*
X93545Y34786D01*
X93567Y34833D01*
X93597Y34875D01*
X93618Y34944D01*
X93649Y35009D01*
X93654Y35061D01*
X93670Y35111D01*
X93668Y35182D01*
X93676Y35253D01*
X93665Y35304D01*
X93663Y35356D01*
X93639Y35424D01*
X93623Y35494D01*
X93597Y35539D01*
X93579Y35587D01*
X93534Y35643D01*
X93497Y35705D01*
X93458Y35739D01*
X93425Y35779D01*
X93365Y35818D01*
X93310Y35865D01*
X93262Y35884D01*
X93218Y35912D01*
X93149Y35930D01*
X93082Y35957D01*
X93011Y35965D01*
X92980Y35973D01*
X92956Y35971D01*
X92915Y35975D01*
X85097Y35975D01*
X85007Y35961D01*
X84916Y35953D01*
X84886Y35941D01*
X84854Y35936D01*
X84773Y35893D01*
X84690Y35857D01*
X84657Y35831D01*
X84637Y35820D01*
X84615Y35797D01*
X84559Y35752D01*
X83732Y34925D01*
X70468Y34925D01*
X69575Y35818D01*
X69575Y38831D01*
X69560Y38927D01*
X69550Y39024D01*
X69540Y39048D01*
X69536Y39074D01*
X69490Y39160D01*
X69450Y39249D01*
X69433Y39268D01*
X69420Y39291D01*
X69350Y39358D01*
X69284Y39430D01*
X69261Y39442D01*
X69242Y39460D01*
X69154Y39501D01*
X69068Y39548D01*
X69043Y39553D01*
X69019Y39564D01*
X68922Y39575D01*
X68826Y39592D01*
X68800Y39588D01*
X68775Y39591D01*
X68679Y39570D01*
X68583Y39556D01*
X68560Y39544D01*
X68534Y39539D01*
X68451Y39489D01*
X68364Y39445D01*
X68345Y39426D01*
X68323Y39413D01*
X68260Y39339D01*
X68192Y39269D01*
X68176Y39241D01*
X68163Y39226D01*
X68151Y39195D01*
X68111Y39122D01*
X65953Y33912D01*
X61688Y29647D01*
X56116Y27339D01*
X50084Y27339D01*
X44512Y29647D01*
X40247Y33912D01*
X37939Y39484D01*
X37939Y45516D01*
X40247Y51088D01*
X44512Y55353D01*
X50084Y57661D01*
X56116Y57661D01*
X61688Y55353D01*
X65953Y51088D01*
X68261Y45516D01*
X68261Y43605D01*
X68272Y43534D01*
X68274Y43462D01*
X68292Y43413D01*
X68300Y43362D01*
X68334Y43299D01*
X68359Y43231D01*
X68391Y43191D01*
X68416Y43145D01*
X68468Y43095D01*
X68512Y43039D01*
X68556Y43011D01*
X68594Y42975D01*
X68659Y42945D01*
X68719Y42906D01*
X68770Y42894D01*
X68817Y42872D01*
X68888Y42864D01*
X68958Y42846D01*
X69010Y42850D01*
X69061Y42845D01*
X69132Y42860D01*
X69203Y42865D01*
X69251Y42886D01*
X69302Y42897D01*
X69363Y42934D01*
X69429Y42962D01*
X69485Y43007D01*
X69513Y43023D01*
X69528Y43041D01*
X69560Y43067D01*
X70468Y43975D01*
X83732Y43975D01*
X84625Y43082D01*
X84625Y41786D01*
X84628Y41766D01*
X84626Y41747D01*
X84648Y41645D01*
X84664Y41543D01*
X84674Y41526D01*
X84678Y41506D01*
X84731Y41417D01*
X84780Y41326D01*
X84794Y41312D01*
X84804Y41295D01*
X84883Y41228D01*
X84958Y41156D01*
X84976Y41148D01*
X84991Y41135D01*
X85087Y41096D01*
X85181Y41053D01*
X85201Y41051D01*
X85219Y41043D01*
X85386Y41025D01*
X95481Y41025D01*
X95552Y41036D01*
X95624Y41038D01*
X95673Y41056D01*
X95724Y41064D01*
X95787Y41098D01*
X95855Y41123D01*
X95895Y41155D01*
X95941Y41180D01*
X95991Y41232D01*
X96047Y41276D01*
X96075Y41320D01*
X96111Y41358D01*
X96141Y41423D01*
X96180Y41483D01*
X96192Y41534D01*
X96214Y41581D01*
X96222Y41652D01*
X96240Y41722D01*
X96236Y41774D01*
X96241Y41825D01*
X96226Y41896D01*
X96221Y41967D01*
X96200Y42015D01*
X96189Y42066D01*
X96152Y42127D01*
X96124Y42193D01*
X96079Y42249D01*
X96063Y42277D01*
X96045Y42292D01*
X96019Y42324D01*
X95475Y42868D01*
X95475Y54132D01*
X96368Y55025D01*
X99214Y55025D01*
X99234Y55028D01*
X99253Y55026D01*
X99355Y55048D01*
X99457Y55064D01*
X99474Y55074D01*
X99494Y55078D01*
X99583Y55131D01*
X99674Y55180D01*
X99688Y55194D01*
X99705Y55204D01*
X99772Y55283D01*
X99844Y55358D01*
X99852Y55376D01*
X99865Y55391D01*
X99904Y55487D01*
X99947Y55581D01*
X99949Y55601D01*
X99957Y55619D01*
X99975Y55786D01*
X99975Y58639D01*
X99961Y58729D01*
X99953Y58820D01*
X99941Y58850D01*
X99936Y58882D01*
X99893Y58962D01*
X99857Y59046D01*
X99831Y59078D01*
X99820Y59099D01*
X99797Y59121D01*
X99752Y59177D01*
X96827Y62102D01*
X96753Y62155D01*
X96684Y62215D01*
X96654Y62227D01*
X96627Y62246D01*
X96540Y62273D01*
X96456Y62307D01*
X96415Y62311D01*
X96392Y62318D01*
X96360Y62317D01*
X96289Y62325D01*
X85386Y62325D01*
X85366Y62322D01*
X85347Y62324D01*
X85245Y62302D01*
X85143Y62286D01*
X85126Y62276D01*
X85106Y62272D01*
X85017Y62219D01*
X84926Y62170D01*
X84912Y62156D01*
X84895Y62146D01*
X84828Y62067D01*
X84756Y61992D01*
X84748Y61974D01*
X84735Y61959D01*
X84696Y61863D01*
X84653Y61769D01*
X84651Y61749D01*
X84643Y61731D01*
X84625Y61564D01*
X84625Y61218D01*
X83732Y60325D01*
X74333Y60325D01*
X74262Y60314D01*
X74191Y60312D01*
X74142Y60294D01*
X74090Y60286D01*
X74027Y60252D01*
X73960Y60227D01*
X73919Y60195D01*
X73873Y60170D01*
X73824Y60118D01*
X73768Y60074D01*
X73739Y60030D01*
X73704Y59992D01*
X73673Y59927D01*
X73635Y59867D01*
X73622Y59816D01*
X73600Y59769D01*
X73592Y59698D01*
X73575Y59628D01*
X73579Y59576D01*
X73573Y59525D01*
X73588Y59454D01*
X73594Y59383D01*
X73614Y59335D01*
X73625Y59284D01*
X73662Y59223D01*
X73690Y59157D01*
X73735Y59101D01*
X73751Y59073D01*
X73769Y59058D01*
X73795Y59026D01*
X75923Y56898D01*
X75997Y56844D01*
X76066Y56785D01*
X76096Y56773D01*
X76123Y56754D01*
X76210Y56727D01*
X76294Y56693D01*
X76335Y56689D01*
X76358Y56682D01*
X76390Y56683D01*
X76461Y56675D01*
X83732Y56675D01*
X84625Y55782D01*
X84625Y48518D01*
X83732Y47625D01*
X70468Y47625D01*
X69575Y48518D01*
X69575Y55789D01*
X69561Y55879D01*
X69553Y55970D01*
X69541Y56000D01*
X69536Y56032D01*
X69493Y56112D01*
X69457Y56196D01*
X69431Y56228D01*
X69420Y56249D01*
X69397Y56271D01*
X69352Y56327D01*
X60927Y64752D01*
X60853Y64805D01*
X60784Y64865D01*
X60754Y64877D01*
X60727Y64896D01*
X60640Y64923D01*
X60556Y64957D01*
X60515Y64961D01*
X60492Y64968D01*
X60460Y64967D01*
X60389Y64975D01*
X38954Y64975D01*
X33475Y70454D01*
X33475Y112139D01*
X33461Y112229D01*
X33453Y112320D01*
X33441Y112350D01*
X33436Y112382D01*
X33393Y112462D01*
X33357Y112546D01*
X33331Y112578D01*
X33320Y112599D01*
X33297Y112621D01*
X33252Y112677D01*
X29924Y116005D01*
X29866Y116047D01*
X29814Y116096D01*
X29767Y116118D01*
X29725Y116149D01*
X29656Y116170D01*
X29591Y116200D01*
X29539Y116206D01*
X29489Y116221D01*
X29418Y116219D01*
X29347Y116227D01*
X29296Y116216D01*
X29244Y116215D01*
X29176Y116190D01*
X29106Y116175D01*
X29061Y116148D01*
X29013Y116130D01*
X28957Y116085D01*
X28895Y116049D01*
X28861Y116009D01*
X28821Y115977D01*
X28782Y115916D01*
X28735Y115862D01*
X28716Y115813D01*
X28688Y115770D01*
X28670Y115700D01*
X28643Y115634D01*
X28635Y115562D01*
X28627Y115531D01*
X28629Y115508D01*
X28625Y115467D01*
X28625Y112018D01*
X27732Y111125D01*
X14468Y111125D01*
X13575Y112018D01*
X13575Y119282D01*
X14468Y120175D01*
X23917Y120175D01*
X23988Y120186D01*
X24059Y120188D01*
X24108Y120206D01*
X24160Y120214D01*
X24223Y120248D01*
X24290Y120273D01*
X24331Y120305D01*
X24377Y120330D01*
X24426Y120382D01*
X24482Y120426D01*
X24511Y120470D01*
X24546Y120508D01*
X24577Y120573D01*
X24615Y120633D01*
X24628Y120684D01*
X24650Y120731D01*
X24658Y120802D01*
X24675Y120872D01*
X24671Y120924D01*
X24677Y120975D01*
X24662Y121046D01*
X24656Y121117D01*
X24636Y121165D01*
X24625Y121216D01*
X24588Y121277D01*
X24560Y121343D01*
X24515Y121399D01*
X24499Y121427D01*
X24481Y121442D01*
X24455Y121474D01*
X19077Y126852D01*
X19003Y126905D01*
X18934Y126965D01*
X18904Y126977D01*
X18877Y126996D01*
X18790Y127023D01*
X18706Y127057D01*
X18665Y127061D01*
X18642Y127068D01*
X18610Y127067D01*
X18539Y127075D01*
X10922Y127075D01*
X10902Y127072D01*
X10883Y127074D01*
X10781Y127052D01*
X10679Y127036D01*
X10662Y127026D01*
X10642Y127022D01*
X10553Y126969D01*
X10462Y126920D01*
X10448Y126906D01*
X10431Y126896D01*
X10364Y126817D01*
X10292Y126742D01*
X10284Y126724D01*
X10271Y126709D01*
X10232Y126613D01*
X10189Y126519D01*
X10187Y126499D01*
X10179Y126481D01*
X10161Y126314D01*
X10161Y63569D01*
X10172Y63498D01*
X10174Y63427D01*
X10192Y63378D01*
X10200Y63326D01*
X10234Y63263D01*
X10259Y63196D01*
X10291Y63155D01*
X10316Y63109D01*
X10367Y63060D01*
X10412Y63004D01*
X10456Y62975D01*
X10494Y62940D01*
X10559Y62909D01*
X10619Y62871D01*
X10670Y62858D01*
X10717Y62836D01*
X10788Y62828D01*
X10858Y62811D01*
X10910Y62815D01*
X10961Y62809D01*
X11032Y62824D01*
X11103Y62830D01*
X11151Y62850D01*
X11202Y62861D01*
X11263Y62898D01*
X11329Y62926D01*
X11385Y62971D01*
X11413Y62987D01*
X11428Y63005D01*
X11460Y63031D01*
X13352Y64923D01*
X13405Y64997D01*
X13465Y65066D01*
X13477Y65096D01*
X13496Y65123D01*
X13523Y65209D01*
X13557Y65294D01*
X13561Y65335D01*
X13568Y65358D01*
X13567Y65390D01*
X13575Y65461D01*
X13575Y68482D01*
X14468Y69375D01*
X27732Y69375D01*
X28625Y68482D01*
X28625Y61218D01*
X27732Y60325D01*
X16211Y60325D01*
X16121Y60311D01*
X16030Y60303D01*
X16000Y60291D01*
X15968Y60286D01*
X15888Y60243D01*
X15804Y60207D01*
X15772Y60181D01*
X15751Y60170D01*
X15729Y60147D01*
X15673Y60102D01*
X14748Y59177D01*
X14695Y59103D01*
X14635Y59034D01*
X14623Y59004D01*
X14604Y58977D01*
X14577Y58890D01*
X14543Y58806D01*
X14539Y58765D01*
X14532Y58742D01*
X14533Y58710D01*
X14525Y58639D01*
X14525Y57436D01*
X14528Y57416D01*
X14526Y57397D01*
X14548Y57295D01*
X14564Y57193D01*
X14574Y57176D01*
X14578Y57156D01*
X14631Y57067D01*
X14680Y56976D01*
X14694Y56962D01*
X14704Y56945D01*
X14783Y56878D01*
X14858Y56806D01*
X14876Y56798D01*
X14891Y56785D01*
X14987Y56746D01*
X15081Y56703D01*
X15101Y56701D01*
X15119Y56693D01*
X15286Y56675D01*
X27732Y56675D01*
X28625Y55782D01*
X28625Y48518D01*
X27732Y47625D01*
X15286Y47625D01*
X15266Y47622D01*
X15247Y47624D01*
X15145Y47602D01*
X15043Y47586D01*
X15026Y47576D01*
X15006Y47572D01*
X14917Y47519D01*
X14826Y47470D01*
X14812Y47456D01*
X14795Y47446D01*
X14728Y47367D01*
X14656Y47292D01*
X14648Y47274D01*
X14635Y47259D01*
X14596Y47163D01*
X14553Y47069D01*
X14551Y47049D01*
X14543Y47031D01*
X14525Y46864D01*
X14525Y44736D01*
X14528Y44716D01*
X14526Y44697D01*
X14548Y44595D01*
X14564Y44493D01*
X14574Y44476D01*
X14578Y44456D01*
X14631Y44367D01*
X14680Y44276D01*
X14694Y44262D01*
X14704Y44245D01*
X14783Y44178D01*
X14858Y44106D01*
X14876Y44098D01*
X14891Y44085D01*
X14987Y44046D01*
X15081Y44003D01*
X15101Y44001D01*
X15119Y43993D01*
X15286Y43975D01*
X27732Y43975D01*
X28625Y43082D01*
X28625Y35818D01*
X27732Y34925D01*
X15286Y34925D01*
X15266Y34922D01*
X15247Y34924D01*
X15145Y34902D01*
X15043Y34886D01*
X15026Y34876D01*
X15006Y34872D01*
X14917Y34819D01*
X14826Y34770D01*
X14812Y34756D01*
X14795Y34746D01*
X14728Y34667D01*
X14656Y34592D01*
X14648Y34574D01*
X14635Y34559D01*
X14596Y34463D01*
X14553Y34369D01*
X14551Y34349D01*
X14543Y34331D01*
X14525Y34164D01*
X14525Y32036D01*
X14528Y32016D01*
X14526Y31997D01*
X14548Y31895D01*
X14564Y31793D01*
X14574Y31776D01*
X14578Y31756D01*
X14631Y31667D01*
X14680Y31576D01*
X14694Y31562D01*
X14704Y31545D01*
X14783Y31478D01*
X14858Y31406D01*
X14876Y31398D01*
X14891Y31385D01*
X14987Y31346D01*
X15081Y31303D01*
X15101Y31301D01*
X15119Y31293D01*
X15286Y31275D01*
X27732Y31275D01*
X28625Y30382D01*
X28625Y30036D01*
X28628Y30016D01*
X28626Y29997D01*
X28648Y29895D01*
X28664Y29793D01*
X28674Y29776D01*
X28678Y29756D01*
X28731Y29667D01*
X28780Y29576D01*
X28794Y29562D01*
X28804Y29545D01*
X28883Y29478D01*
X28958Y29406D01*
X28976Y29398D01*
X28991Y29385D01*
X29087Y29346D01*
X29181Y29303D01*
X29201Y29301D01*
X29219Y29293D01*
X29386Y29275D01*
X41296Y29275D01*
X50823Y19748D01*
X50897Y19695D01*
X50966Y19635D01*
X50996Y19623D01*
X51023Y19604D01*
X51110Y19577D01*
X51194Y19543D01*
X51235Y19539D01*
X51258Y19532D01*
X51290Y19533D01*
X51361Y19525D01*
X91639Y19525D01*
X91729Y19539D01*
G37*
G36*
X254222Y229766D02*
X254222Y229766D01*
X254274Y229767D01*
X254342Y229792D01*
X254412Y229807D01*
X254457Y229834D01*
X254505Y229852D01*
X254561Y229897D01*
X254623Y229933D01*
X254657Y229973D01*
X254697Y230005D01*
X254736Y230066D01*
X254783Y230120D01*
X254802Y230169D01*
X254830Y230212D01*
X254848Y230282D01*
X254875Y230348D01*
X254883Y230420D01*
X254891Y230451D01*
X254889Y230474D01*
X254893Y230515D01*
X254893Y234615D01*
X257885Y237607D01*
X261221Y237607D01*
X261311Y237621D01*
X261402Y237629D01*
X261432Y237641D01*
X261464Y237646D01*
X261544Y237689D01*
X261628Y237725D01*
X261660Y237751D01*
X261681Y237762D01*
X261703Y237785D01*
X261759Y237830D01*
X286454Y262525D01*
X346114Y262525D01*
X346134Y262528D01*
X346153Y262526D01*
X346255Y262548D01*
X346357Y262564D01*
X346374Y262574D01*
X346394Y262578D01*
X346483Y262631D01*
X346574Y262680D01*
X346588Y262694D01*
X346605Y262704D01*
X346672Y262783D01*
X346744Y262858D01*
X346752Y262876D01*
X346765Y262891D01*
X346804Y262987D01*
X346847Y263081D01*
X346849Y263101D01*
X346857Y263119D01*
X346875Y263286D01*
X346875Y272314D01*
X346872Y272334D01*
X346874Y272353D01*
X346852Y272455D01*
X346836Y272557D01*
X346826Y272574D01*
X346822Y272594D01*
X346769Y272683D01*
X346720Y272774D01*
X346706Y272788D01*
X346696Y272805D01*
X346617Y272872D01*
X346542Y272944D01*
X346524Y272952D01*
X346509Y272965D01*
X346413Y273004D01*
X346319Y273047D01*
X346299Y273049D01*
X346281Y273057D01*
X346114Y273075D01*
X343268Y273075D01*
X342375Y273968D01*
X342375Y285232D01*
X343268Y286125D01*
X354311Y286125D01*
X354382Y286136D01*
X354454Y286138D01*
X354503Y286156D01*
X354554Y286164D01*
X354617Y286198D01*
X354685Y286223D01*
X354725Y286255D01*
X354771Y286280D01*
X354821Y286332D01*
X354877Y286376D01*
X354905Y286420D01*
X354941Y286458D01*
X354971Y286523D01*
X355010Y286583D01*
X355022Y286634D01*
X355044Y286681D01*
X355052Y286752D01*
X355070Y286822D01*
X355066Y286874D01*
X355071Y286925D01*
X355056Y286996D01*
X355051Y287067D01*
X355030Y287115D01*
X355019Y287166D01*
X354982Y287227D01*
X354954Y287293D01*
X354909Y287349D01*
X354893Y287377D01*
X354875Y287392D01*
X354849Y287424D01*
X351795Y290479D01*
X349639Y295683D01*
X349639Y301317D01*
X351795Y306521D01*
X355779Y310505D01*
X357000Y311011D01*
X357083Y311062D01*
X357169Y311108D01*
X357187Y311126D01*
X357209Y311140D01*
X357271Y311216D01*
X357338Y311286D01*
X357349Y311310D01*
X357366Y311330D01*
X357401Y311421D01*
X357442Y311509D01*
X357444Y311535D01*
X357454Y311559D01*
X357458Y311657D01*
X357469Y311753D01*
X357463Y311779D01*
X357464Y311805D01*
X357437Y311899D01*
X357416Y311994D01*
X357403Y312016D01*
X357396Y312041D01*
X357340Y312121D01*
X357290Y312205D01*
X357270Y312222D01*
X357255Y312243D01*
X357177Y312302D01*
X357103Y312365D01*
X357079Y312375D01*
X357058Y312390D01*
X356966Y312420D01*
X356875Y312457D01*
X356843Y312460D01*
X356824Y312466D01*
X356791Y312466D01*
X356708Y312475D01*
X326361Y312475D01*
X326271Y312461D01*
X326180Y312453D01*
X326150Y312441D01*
X326118Y312436D01*
X326038Y312393D01*
X325954Y312357D01*
X325922Y312331D01*
X325901Y312320D01*
X325879Y312297D01*
X325823Y312252D01*
X249109Y235538D01*
X249097Y235522D01*
X249082Y235510D01*
X249025Y235422D01*
X248965Y235339D01*
X248959Y235320D01*
X248949Y235303D01*
X248923Y235202D01*
X248893Y235103D01*
X248893Y235084D01*
X248889Y235064D01*
X248897Y234961D01*
X248899Y234858D01*
X248906Y234839D01*
X248908Y234819D01*
X248948Y234724D01*
X248984Y234627D01*
X248996Y234611D01*
X249004Y234593D01*
X249109Y234462D01*
X253594Y229977D01*
X253652Y229935D01*
X253704Y229886D01*
X253751Y229864D01*
X253793Y229833D01*
X253862Y229812D01*
X253927Y229782D01*
X253979Y229776D01*
X254029Y229761D01*
X254100Y229763D01*
X254171Y229755D01*
X254222Y229766D01*
G37*
G36*
X238729Y232539D02*
X238729Y232539D01*
X238820Y232547D01*
X238850Y232559D01*
X238882Y232564D01*
X238962Y232607D01*
X239046Y232643D01*
X239078Y232669D01*
X239099Y232680D01*
X239121Y232703D01*
X239177Y232748D01*
X323954Y317525D01*
X376046Y317525D01*
X377748Y315823D01*
X380823Y312748D01*
X382525Y311046D01*
X382525Y288886D01*
X382528Y288866D01*
X382526Y288847D01*
X382548Y288745D01*
X382564Y288643D01*
X382574Y288626D01*
X382578Y288606D01*
X382631Y288517D01*
X382680Y288426D01*
X382694Y288412D01*
X382704Y288395D01*
X382783Y288328D01*
X382858Y288256D01*
X382876Y288248D01*
X382891Y288235D01*
X382987Y288196D01*
X383081Y288153D01*
X383101Y288151D01*
X383119Y288143D01*
X383286Y288125D01*
X388332Y288125D01*
X388540Y287917D01*
X388598Y287875D01*
X388650Y287825D01*
X388697Y287803D01*
X388739Y287773D01*
X388808Y287752D01*
X388873Y287722D01*
X388925Y287716D01*
X388975Y287701D01*
X389046Y287703D01*
X389117Y287695D01*
X389168Y287706D01*
X389220Y287707D01*
X389288Y287732D01*
X389358Y287747D01*
X389403Y287774D01*
X389451Y287791D01*
X389507Y287836D01*
X389569Y287873D01*
X389603Y287913D01*
X389643Y287945D01*
X389682Y288005D01*
X389729Y288060D01*
X389748Y288108D01*
X389776Y288152D01*
X389794Y288221D01*
X389821Y288288D01*
X389829Y288359D01*
X389837Y288391D01*
X389835Y288414D01*
X389839Y288455D01*
X389839Y319078D01*
X389836Y319098D01*
X389838Y319117D01*
X389816Y319219D01*
X389800Y319321D01*
X389790Y319338D01*
X389786Y319358D01*
X389733Y319447D01*
X389684Y319538D01*
X389670Y319552D01*
X389660Y319569D01*
X389581Y319636D01*
X389506Y319708D01*
X389488Y319716D01*
X389473Y319729D01*
X389377Y319768D01*
X389283Y319811D01*
X389263Y319813D01*
X389245Y319821D01*
X389078Y319839D01*
X311772Y319839D01*
X311655Y319820D01*
X311537Y319802D01*
X311534Y319800D01*
X311529Y319800D01*
X311424Y319744D01*
X311319Y319689D01*
X311316Y319686D01*
X311312Y319684D01*
X311231Y319599D01*
X311147Y319513D01*
X311146Y319509D01*
X311143Y319506D01*
X311092Y319398D01*
X311041Y319291D01*
X311041Y319287D01*
X311039Y319283D01*
X311026Y319165D01*
X311012Y319047D01*
X311012Y319042D01*
X311012Y319039D01*
X311015Y319025D01*
X311037Y318881D01*
X311211Y318232D01*
X311211Y315723D01*
X304432Y315723D01*
X304412Y315720D01*
X304393Y315722D01*
X304291Y315700D01*
X304189Y315683D01*
X304172Y315674D01*
X304152Y315670D01*
X304063Y315617D01*
X303972Y315568D01*
X303958Y315554D01*
X303941Y315544D01*
X303874Y315465D01*
X303803Y315390D01*
X303794Y315372D01*
X303781Y315357D01*
X303742Y315261D01*
X303699Y315167D01*
X303697Y315147D01*
X303689Y315129D01*
X303671Y314962D01*
X303671Y314199D01*
X303669Y314199D01*
X303669Y314962D01*
X303666Y314982D01*
X303668Y315001D01*
X303646Y315103D01*
X303629Y315205D01*
X303620Y315222D01*
X303616Y315242D01*
X303563Y315331D01*
X303514Y315422D01*
X303500Y315436D01*
X303490Y315453D01*
X303411Y315520D01*
X303336Y315591D01*
X303318Y315600D01*
X303303Y315613D01*
X303207Y315652D01*
X303113Y315695D01*
X303093Y315697D01*
X303075Y315705D01*
X302908Y315723D01*
X296129Y315723D01*
X296129Y318232D01*
X296303Y318881D01*
X296315Y319000D01*
X296328Y319117D01*
X296327Y319122D01*
X296328Y319126D01*
X296301Y319241D01*
X296276Y319358D01*
X296274Y319361D01*
X296273Y319366D01*
X296211Y319467D01*
X296150Y319569D01*
X296146Y319572D01*
X296144Y319575D01*
X296053Y319652D01*
X295963Y319729D01*
X295959Y319730D01*
X295956Y319733D01*
X295845Y319776D01*
X295735Y319821D01*
X295730Y319821D01*
X295727Y319823D01*
X295713Y319823D01*
X295568Y319839D01*
X293416Y319839D01*
X293396Y319836D01*
X293377Y319838D01*
X293275Y319816D01*
X293173Y319800D01*
X293156Y319790D01*
X293136Y319786D01*
X293047Y319733D01*
X292956Y319684D01*
X292942Y319670D01*
X292925Y319660D01*
X292858Y319581D01*
X292786Y319506D01*
X292778Y319488D01*
X292765Y319473D01*
X292726Y319377D01*
X292683Y319283D01*
X292681Y319263D01*
X292673Y319245D01*
X292655Y319078D01*
X292655Y309447D01*
X290883Y307675D01*
X283491Y307675D01*
X283401Y307661D01*
X283310Y307653D01*
X283280Y307641D01*
X283248Y307636D01*
X283168Y307593D01*
X283084Y307557D01*
X283052Y307531D01*
X283031Y307520D01*
X283009Y307497D01*
X282953Y307452D01*
X280476Y304975D01*
X267086Y304975D01*
X267066Y304972D01*
X267047Y304974D01*
X266945Y304952D01*
X266843Y304936D01*
X266826Y304926D01*
X266806Y304922D01*
X266717Y304869D01*
X266626Y304820D01*
X266612Y304806D01*
X266595Y304796D01*
X266528Y304717D01*
X266456Y304642D01*
X266448Y304624D01*
X266435Y304609D01*
X266396Y304513D01*
X266353Y304419D01*
X266351Y304399D01*
X266343Y304381D01*
X266325Y304214D01*
X266325Y301368D01*
X265432Y300475D01*
X254168Y300475D01*
X253824Y300819D01*
X253766Y300861D01*
X253714Y300911D01*
X253667Y300933D01*
X253625Y300963D01*
X253556Y300984D01*
X253491Y301014D01*
X253439Y301020D01*
X253389Y301035D01*
X253318Y301033D01*
X253247Y301041D01*
X253196Y301030D01*
X253144Y301029D01*
X253076Y301004D01*
X253006Y300989D01*
X252961Y300962D01*
X252913Y300945D01*
X252857Y300900D01*
X252795Y300863D01*
X252761Y300823D01*
X252721Y300791D01*
X252682Y300731D01*
X252635Y300676D01*
X252616Y300628D01*
X252588Y300584D01*
X252570Y300515D01*
X252543Y300448D01*
X252535Y300377D01*
X252527Y300345D01*
X252529Y300322D01*
X252525Y300281D01*
X252525Y297719D01*
X252536Y297648D01*
X252538Y297576D01*
X252556Y297527D01*
X252564Y297476D01*
X252598Y297413D01*
X252623Y297345D01*
X252655Y297305D01*
X252680Y297259D01*
X252732Y297209D01*
X252776Y297153D01*
X252820Y297125D01*
X252858Y297089D01*
X252923Y297059D01*
X252983Y297020D01*
X253034Y297008D01*
X253081Y296986D01*
X253152Y296978D01*
X253222Y296960D01*
X253274Y296964D01*
X253325Y296959D01*
X253396Y296974D01*
X253467Y296979D01*
X253515Y297000D01*
X253566Y297011D01*
X253627Y297048D01*
X253693Y297076D01*
X253749Y297121D01*
X253777Y297137D01*
X253792Y297155D01*
X253824Y297181D01*
X254168Y297525D01*
X265432Y297525D01*
X266325Y296632D01*
X266325Y284368D01*
X265432Y283475D01*
X263086Y283475D01*
X263066Y283472D01*
X263047Y283474D01*
X262945Y283452D01*
X262843Y283436D01*
X262826Y283426D01*
X262806Y283422D01*
X262717Y283369D01*
X262626Y283320D01*
X262612Y283306D01*
X262595Y283296D01*
X262528Y283217D01*
X262456Y283142D01*
X262448Y283124D01*
X262435Y283109D01*
X262396Y283013D01*
X262353Y282919D01*
X262351Y282899D01*
X262343Y282881D01*
X262325Y282714D01*
X262325Y263754D01*
X240330Y241759D01*
X240277Y241685D01*
X240217Y241616D01*
X240205Y241586D01*
X240186Y241559D01*
X240159Y241472D01*
X240125Y241388D01*
X240121Y241347D01*
X240114Y241324D01*
X240115Y241292D01*
X240107Y241221D01*
X240107Y237885D01*
X237115Y234893D01*
X232885Y234893D01*
X229893Y237885D01*
X229893Y242115D01*
X232885Y245107D01*
X236221Y245107D01*
X236311Y245121D01*
X236402Y245129D01*
X236432Y245141D01*
X236464Y245146D01*
X236544Y245189D01*
X236628Y245225D01*
X236660Y245251D01*
X236681Y245262D01*
X236703Y245285D01*
X236759Y245330D01*
X257052Y265623D01*
X257105Y265697D01*
X257165Y265766D01*
X257177Y265796D01*
X257196Y265823D01*
X257223Y265910D01*
X257230Y265927D01*
X257247Y265965D01*
X257248Y265973D01*
X257257Y265994D01*
X257261Y266035D01*
X257268Y266058D01*
X257267Y266090D01*
X257275Y266161D01*
X257275Y282714D01*
X257272Y282734D01*
X257274Y282753D01*
X257252Y282855D01*
X257236Y282957D01*
X257226Y282974D01*
X257222Y282994D01*
X257169Y283083D01*
X257120Y283174D01*
X257106Y283188D01*
X257096Y283205D01*
X257017Y283272D01*
X256942Y283344D01*
X256924Y283352D01*
X256909Y283365D01*
X256813Y283404D01*
X256719Y283447D01*
X256699Y283449D01*
X256681Y283457D01*
X256514Y283475D01*
X254168Y283475D01*
X253824Y283819D01*
X253766Y283861D01*
X253714Y283911D01*
X253667Y283933D01*
X253625Y283963D01*
X253556Y283984D01*
X253491Y284014D01*
X253439Y284020D01*
X253389Y284035D01*
X253318Y284033D01*
X253247Y284041D01*
X253196Y284030D01*
X253144Y284029D01*
X253076Y284004D01*
X253006Y283989D01*
X252961Y283962D01*
X252913Y283945D01*
X252857Y283900D01*
X252795Y283863D01*
X252761Y283823D01*
X252721Y283791D01*
X252682Y283731D01*
X252635Y283676D01*
X252616Y283628D01*
X252588Y283584D01*
X252570Y283515D01*
X252543Y283448D01*
X252535Y283377D01*
X252527Y283345D01*
X252529Y283322D01*
X252525Y283281D01*
X252525Y268954D01*
X222748Y239177D01*
X222695Y239103D01*
X222635Y239034D01*
X222623Y239004D01*
X222604Y238977D01*
X222577Y238890D01*
X222543Y238806D01*
X222539Y238765D01*
X222532Y238742D01*
X222533Y238710D01*
X222525Y238639D01*
X222525Y233286D01*
X222528Y233266D01*
X222526Y233247D01*
X222548Y233145D01*
X222564Y233043D01*
X222574Y233026D01*
X222578Y233006D01*
X222631Y232917D01*
X222680Y232826D01*
X222694Y232812D01*
X222704Y232795D01*
X222783Y232728D01*
X222858Y232656D01*
X222876Y232648D01*
X222891Y232635D01*
X222987Y232596D01*
X223081Y232553D01*
X223101Y232551D01*
X223119Y232543D01*
X223286Y232525D01*
X238639Y232525D01*
X238729Y232539D01*
G37*
G36*
X350004Y123984D02*
X350004Y123984D01*
X350056Y123985D01*
X350124Y124010D01*
X350194Y124025D01*
X350239Y124052D01*
X350287Y124070D01*
X350343Y124115D01*
X350405Y124151D01*
X350439Y124191D01*
X350479Y124223D01*
X350518Y124284D01*
X350565Y124338D01*
X350584Y124387D01*
X350612Y124430D01*
X350630Y124500D01*
X350657Y124566D01*
X350665Y124638D01*
X350673Y124669D01*
X350671Y124692D01*
X350675Y124733D01*
X350675Y169814D01*
X350672Y169834D01*
X350674Y169853D01*
X350652Y169955D01*
X350636Y170057D01*
X350626Y170074D01*
X350622Y170094D01*
X350569Y170183D01*
X350520Y170274D01*
X350506Y170288D01*
X350496Y170305D01*
X350417Y170372D01*
X350342Y170444D01*
X350324Y170452D01*
X350309Y170465D01*
X350213Y170504D01*
X350119Y170547D01*
X350099Y170549D01*
X350081Y170557D01*
X349914Y170575D01*
X347068Y170575D01*
X346175Y171468D01*
X346175Y182732D01*
X347068Y183625D01*
X349914Y183625D01*
X349934Y183628D01*
X349953Y183626D01*
X350055Y183648D01*
X350157Y183664D01*
X350174Y183674D01*
X350194Y183678D01*
X350283Y183731D01*
X350374Y183780D01*
X350388Y183794D01*
X350405Y183804D01*
X350472Y183883D01*
X350544Y183958D01*
X350552Y183976D01*
X350565Y183991D01*
X350604Y184087D01*
X350647Y184181D01*
X350649Y184201D01*
X350657Y184219D01*
X350675Y184386D01*
X350675Y192939D01*
X350661Y193029D01*
X350653Y193120D01*
X350641Y193150D01*
X350636Y193182D01*
X350593Y193262D01*
X350557Y193346D01*
X350531Y193378D01*
X350520Y193399D01*
X350497Y193421D01*
X350452Y193477D01*
X326677Y217252D01*
X326603Y217305D01*
X326534Y217365D01*
X326504Y217377D01*
X326477Y217396D01*
X326390Y217423D01*
X326306Y217457D01*
X326265Y217461D01*
X326242Y217468D01*
X326210Y217467D01*
X326139Y217475D01*
X250013Y217475D01*
X249922Y217461D01*
X249832Y217453D01*
X249802Y217441D01*
X249770Y217436D01*
X249689Y217393D01*
X249605Y217357D01*
X249573Y217331D01*
X249552Y217320D01*
X249530Y217297D01*
X249529Y217296D01*
X249527Y217295D01*
X249525Y217293D01*
X249474Y217252D01*
X247115Y214893D01*
X242885Y214893D01*
X239893Y217885D01*
X239893Y222115D01*
X242885Y225107D01*
X247115Y225107D01*
X249474Y222748D01*
X249548Y222695D01*
X249618Y222635D01*
X249648Y222623D01*
X249674Y222604D01*
X249761Y222577D01*
X249846Y222543D01*
X249887Y222539D01*
X249909Y222532D01*
X249941Y222533D01*
X250013Y222525D01*
X252067Y222525D01*
X252138Y222536D01*
X252209Y222538D01*
X252258Y222556D01*
X252310Y222564D01*
X252373Y222598D01*
X252440Y222623D01*
X252481Y222655D01*
X252527Y222680D01*
X252576Y222731D01*
X252632Y222776D01*
X252661Y222820D01*
X252696Y222858D01*
X252727Y222923D01*
X252765Y222983D01*
X252778Y223034D01*
X252800Y223081D01*
X252808Y223152D01*
X252825Y223222D01*
X252821Y223274D01*
X252827Y223325D01*
X252812Y223396D01*
X252806Y223467D01*
X252786Y223515D01*
X252775Y223566D01*
X252738Y223627D01*
X252710Y223693D01*
X252665Y223749D01*
X252649Y223777D01*
X252631Y223792D01*
X252605Y223824D01*
X252252Y224177D01*
X245538Y230891D01*
X245522Y230903D01*
X245510Y230918D01*
X245422Y230975D01*
X245339Y231035D01*
X245320Y231041D01*
X245303Y231051D01*
X245202Y231077D01*
X245103Y231107D01*
X245084Y231107D01*
X245064Y231111D01*
X244961Y231103D01*
X244858Y231101D01*
X244839Y231094D01*
X244819Y231092D01*
X244724Y231052D01*
X244627Y231016D01*
X244611Y231004D01*
X244593Y230996D01*
X244462Y230891D01*
X241046Y227475D01*
X223286Y227475D01*
X223266Y227472D01*
X223247Y227474D01*
X223145Y227452D01*
X223043Y227436D01*
X223026Y227426D01*
X223006Y227422D01*
X222917Y227369D01*
X222826Y227320D01*
X222812Y227306D01*
X222795Y227296D01*
X222728Y227217D01*
X222656Y227142D01*
X222648Y227124D01*
X222635Y227109D01*
X222596Y227013D01*
X222553Y226919D01*
X222551Y226899D01*
X222543Y226881D01*
X222525Y226714D01*
X222525Y208861D01*
X222539Y208771D01*
X222547Y208680D01*
X222559Y208650D01*
X222564Y208618D01*
X222607Y208538D01*
X222643Y208454D01*
X222669Y208422D01*
X222680Y208401D01*
X222703Y208379D01*
X222748Y208323D01*
X223594Y207477D01*
X223652Y207435D01*
X223704Y207386D01*
X223751Y207364D01*
X223793Y207333D01*
X223862Y207312D01*
X223927Y207282D01*
X223979Y207276D01*
X224029Y207261D01*
X224100Y207263D01*
X224171Y207255D01*
X224222Y207266D01*
X224274Y207267D01*
X224342Y207292D01*
X224412Y207307D01*
X224457Y207334D01*
X224505Y207352D01*
X224561Y207397D01*
X224623Y207433D01*
X224657Y207473D01*
X224697Y207505D01*
X224736Y207566D01*
X224783Y207620D01*
X224802Y207669D01*
X224830Y207712D01*
X224848Y207782D01*
X224875Y207848D01*
X224883Y207920D01*
X224891Y207951D01*
X224889Y207974D01*
X224893Y208015D01*
X224893Y212115D01*
X227885Y215107D01*
X232115Y215107D01*
X234474Y212748D01*
X234548Y212695D01*
X234618Y212635D01*
X234648Y212623D01*
X234674Y212604D01*
X234761Y212577D01*
X234846Y212543D01*
X234887Y212539D01*
X234909Y212532D01*
X234941Y212533D01*
X235013Y212525D01*
X311046Y212525D01*
X327525Y196046D01*
X327525Y184356D01*
X327536Y184285D01*
X327538Y184213D01*
X327556Y184164D01*
X327564Y184113D01*
X327598Y184050D01*
X327623Y183982D01*
X327655Y183942D01*
X327680Y183896D01*
X327731Y183846D01*
X327776Y183790D01*
X327820Y183762D01*
X327858Y183726D01*
X327923Y183696D01*
X327983Y183657D01*
X328034Y183644D01*
X328081Y183623D01*
X328152Y183615D01*
X328222Y183597D01*
X328274Y183601D01*
X328325Y183595D01*
X328396Y183611D01*
X328467Y183616D01*
X328515Y183637D01*
X328566Y183648D01*
X328627Y183685D01*
X328693Y183713D01*
X328749Y183757D01*
X328777Y183774D01*
X328792Y183792D01*
X328824Y183817D01*
X329140Y184133D01*
X329719Y184468D01*
X330366Y184641D01*
X334677Y184641D01*
X334677Y177862D01*
X334680Y177843D01*
X334678Y177825D01*
X334678Y177824D01*
X334678Y177823D01*
X334700Y177721D01*
X334717Y177619D01*
X334726Y177602D01*
X334730Y177582D01*
X334783Y177493D01*
X334832Y177402D01*
X334846Y177388D01*
X334856Y177371D01*
X334935Y177304D01*
X335010Y177233D01*
X335028Y177224D01*
X335043Y177211D01*
X335139Y177172D01*
X335233Y177129D01*
X335253Y177127D01*
X335271Y177119D01*
X335438Y177101D01*
X336201Y177101D01*
X336201Y177099D01*
X335438Y177099D01*
X335418Y177096D01*
X335399Y177098D01*
X335297Y177076D01*
X335195Y177059D01*
X335178Y177050D01*
X335158Y177046D01*
X335069Y176993D01*
X334978Y176944D01*
X334964Y176930D01*
X334947Y176920D01*
X334880Y176841D01*
X334809Y176766D01*
X334800Y176748D01*
X334787Y176733D01*
X334748Y176637D01*
X334705Y176543D01*
X334703Y176523D01*
X334695Y176505D01*
X334677Y176338D01*
X334677Y169559D01*
X330366Y169559D01*
X329719Y169732D01*
X329140Y170067D01*
X328824Y170383D01*
X328766Y170424D01*
X328714Y170474D01*
X328667Y170496D01*
X328625Y170526D01*
X328556Y170547D01*
X328491Y170577D01*
X328439Y170583D01*
X328389Y170599D01*
X328318Y170597D01*
X328247Y170605D01*
X328196Y170593D01*
X328144Y170592D01*
X328076Y170568D01*
X328006Y170552D01*
X327961Y170526D01*
X327913Y170508D01*
X327857Y170463D01*
X327795Y170426D01*
X327761Y170387D01*
X327721Y170354D01*
X327682Y170294D01*
X327635Y170239D01*
X327616Y170191D01*
X327588Y170147D01*
X327570Y170078D01*
X327543Y170011D01*
X327535Y169940D01*
X327527Y169909D01*
X327529Y169885D01*
X327525Y169844D01*
X327525Y135361D01*
X327539Y135271D01*
X327547Y135180D01*
X327559Y135150D01*
X327564Y135118D01*
X327607Y135038D01*
X327643Y134954D01*
X327669Y134922D01*
X327680Y134901D01*
X327703Y134879D01*
X327748Y134823D01*
X333594Y128977D01*
X333652Y128935D01*
X333704Y128886D01*
X333751Y128864D01*
X333793Y128833D01*
X333862Y128812D01*
X333927Y128782D01*
X333979Y128776D01*
X334029Y128761D01*
X334100Y128763D01*
X334171Y128755D01*
X334222Y128766D01*
X334274Y128767D01*
X334342Y128792D01*
X334412Y128807D01*
X334457Y128834D01*
X334505Y128852D01*
X334561Y128897D01*
X334623Y128933D01*
X334657Y128973D01*
X334697Y129005D01*
X334736Y129066D01*
X334783Y129120D01*
X334802Y129169D01*
X334830Y129212D01*
X334848Y129282D01*
X334875Y129348D01*
X334883Y129420D01*
X334891Y129451D01*
X334889Y129474D01*
X334893Y129515D01*
X334893Y132115D01*
X337885Y135107D01*
X342115Y135107D01*
X345107Y132115D01*
X345107Y128779D01*
X345121Y128689D01*
X345129Y128598D01*
X345141Y128568D01*
X345146Y128536D01*
X345189Y128456D01*
X345225Y128372D01*
X345251Y128340D01*
X345262Y128319D01*
X345285Y128297D01*
X345330Y128241D01*
X349376Y124195D01*
X349434Y124153D01*
X349486Y124104D01*
X349533Y124082D01*
X349575Y124051D01*
X349644Y124030D01*
X349709Y124000D01*
X349761Y123994D01*
X349811Y123979D01*
X349882Y123981D01*
X349953Y123973D01*
X350004Y123984D01*
G37*
G36*
X158729Y276539D02*
X158729Y276539D01*
X158820Y276547D01*
X158850Y276559D01*
X158882Y276564D01*
X158962Y276607D01*
X159046Y276643D01*
X159078Y276669D01*
X159099Y276680D01*
X159121Y276703D01*
X159177Y276748D01*
X163352Y280923D01*
X163405Y280997D01*
X163465Y281066D01*
X163477Y281096D01*
X163496Y281123D01*
X163523Y281210D01*
X163557Y281294D01*
X163561Y281335D01*
X163568Y281358D01*
X163567Y281390D01*
X163575Y281461D01*
X163575Y285946D01*
X165277Y287648D01*
X176423Y298794D01*
X176491Y298888D01*
X176561Y298983D01*
X176563Y298989D01*
X176567Y298994D01*
X176601Y299105D01*
X176638Y299217D01*
X176638Y299223D01*
X176639Y299229D01*
X176636Y299346D01*
X176635Y299462D01*
X176633Y299470D01*
X176633Y299475D01*
X176627Y299492D01*
X176588Y299624D01*
X175385Y302528D01*
X175385Y306672D01*
X176971Y310500D01*
X179900Y313429D01*
X183728Y315015D01*
X187872Y315015D01*
X190776Y313812D01*
X190890Y313785D01*
X191004Y313756D01*
X191010Y313757D01*
X191016Y313755D01*
X191132Y313766D01*
X191249Y313775D01*
X191254Y313778D01*
X191261Y313778D01*
X191368Y313826D01*
X191475Y313872D01*
X191481Y313876D01*
X191485Y313878D01*
X191499Y313891D01*
X191606Y313977D01*
X196169Y318540D01*
X196211Y318598D01*
X196260Y318650D01*
X196282Y318697D01*
X196313Y318739D01*
X196334Y318808D01*
X196364Y318873D01*
X196370Y318925D01*
X196385Y318975D01*
X196383Y319046D01*
X196391Y319117D01*
X196380Y319168D01*
X196379Y319220D01*
X196354Y319288D01*
X196339Y319358D01*
X196312Y319403D01*
X196294Y319451D01*
X196249Y319507D01*
X196213Y319569D01*
X196173Y319603D01*
X196141Y319643D01*
X196080Y319682D01*
X196026Y319729D01*
X195977Y319748D01*
X195934Y319776D01*
X195864Y319794D01*
X195798Y319821D01*
X195726Y319829D01*
X195695Y319837D01*
X195672Y319835D01*
X195631Y319839D01*
X118569Y319839D01*
X118498Y319828D01*
X118427Y319826D01*
X118378Y319808D01*
X118326Y319800D01*
X118263Y319766D01*
X118196Y319741D01*
X118155Y319709D01*
X118109Y319684D01*
X118060Y319632D01*
X118004Y319588D01*
X117975Y319544D01*
X117940Y319506D01*
X117909Y319441D01*
X117871Y319381D01*
X117858Y319330D01*
X117836Y319283D01*
X117828Y319212D01*
X117811Y319142D01*
X117815Y319090D01*
X117809Y319039D01*
X117824Y318968D01*
X117830Y318897D01*
X117850Y318849D01*
X117861Y318798D01*
X117898Y318737D01*
X117926Y318671D01*
X117971Y318615D01*
X117987Y318587D01*
X118005Y318572D01*
X118031Y318540D01*
X148823Y287748D01*
X148897Y287695D01*
X148966Y287635D01*
X148996Y287623D01*
X149023Y287604D01*
X149110Y287577D01*
X149194Y287543D01*
X149235Y287539D01*
X149258Y287532D01*
X149290Y287533D01*
X149361Y287525D01*
X149987Y287525D01*
X150078Y287539D01*
X150168Y287547D01*
X150198Y287559D01*
X150230Y287564D01*
X150311Y287607D01*
X150395Y287643D01*
X150427Y287669D01*
X150448Y287680D01*
X150470Y287703D01*
X150526Y287748D01*
X152885Y290107D01*
X157115Y290107D01*
X160107Y287115D01*
X160107Y282885D01*
X157115Y279893D01*
X152885Y279893D01*
X150526Y282252D01*
X150452Y282305D01*
X150382Y282365D01*
X150352Y282377D01*
X150326Y282396D01*
X150239Y282423D01*
X150154Y282457D01*
X150113Y282461D01*
X150091Y282468D01*
X150059Y282467D01*
X149987Y282475D01*
X146954Y282475D01*
X116177Y313252D01*
X116103Y313305D01*
X116034Y313365D01*
X116004Y313377D01*
X115977Y313396D01*
X115890Y313423D01*
X115806Y313457D01*
X115765Y313461D01*
X115742Y313468D01*
X115710Y313467D01*
X115639Y313475D01*
X74286Y313475D01*
X74266Y313472D01*
X74247Y313474D01*
X74145Y313452D01*
X74043Y313436D01*
X74026Y313426D01*
X74006Y313422D01*
X73917Y313369D01*
X73826Y313320D01*
X73812Y313306D01*
X73795Y313296D01*
X73728Y313217D01*
X73656Y313142D01*
X73648Y313124D01*
X73635Y313109D01*
X73596Y313013D01*
X73553Y312919D01*
X73551Y312899D01*
X73543Y312881D01*
X73525Y312714D01*
X73525Y310719D01*
X73536Y310648D01*
X73538Y310576D01*
X73556Y310527D01*
X73564Y310476D01*
X73598Y310413D01*
X73623Y310345D01*
X73655Y310305D01*
X73680Y310259D01*
X73732Y310209D01*
X73776Y310153D01*
X73820Y310125D01*
X73858Y310089D01*
X73923Y310059D01*
X73983Y310020D01*
X74034Y310008D01*
X74081Y309986D01*
X74152Y309978D01*
X74222Y309960D01*
X74274Y309964D01*
X74325Y309959D01*
X74396Y309974D01*
X74467Y309979D01*
X74515Y310000D01*
X74566Y310011D01*
X74627Y310048D01*
X74693Y310076D01*
X74749Y310121D01*
X74777Y310137D01*
X74792Y310155D01*
X74824Y310181D01*
X75668Y311025D01*
X85932Y311025D01*
X86825Y310132D01*
X86825Y304361D01*
X86839Y304271D01*
X86847Y304180D01*
X86859Y304150D01*
X86864Y304118D01*
X86907Y304038D01*
X86943Y303954D01*
X86969Y303922D01*
X86980Y303901D01*
X87003Y303879D01*
X87048Y303823D01*
X95123Y295748D01*
X95197Y295695D01*
X95266Y295635D01*
X95296Y295623D01*
X95323Y295604D01*
X95410Y295577D01*
X95494Y295543D01*
X95535Y295539D01*
X95558Y295532D01*
X95590Y295533D01*
X95661Y295525D01*
X126046Y295525D01*
X139525Y282046D01*
X139525Y277286D01*
X139528Y277266D01*
X139526Y277247D01*
X139548Y277145D01*
X139564Y277043D01*
X139574Y277026D01*
X139578Y277006D01*
X139631Y276917D01*
X139680Y276826D01*
X139694Y276812D01*
X139704Y276795D01*
X139783Y276728D01*
X139858Y276656D01*
X139876Y276648D01*
X139891Y276635D01*
X139987Y276596D01*
X140081Y276553D01*
X140101Y276551D01*
X140119Y276543D01*
X140286Y276525D01*
X158639Y276525D01*
X158729Y276539D01*
G37*
G36*
X126638Y128036D02*
X126638Y128036D01*
X126709Y128038D01*
X126758Y128056D01*
X126810Y128064D01*
X126873Y128098D01*
X126940Y128123D01*
X126981Y128155D01*
X127027Y128180D01*
X127076Y128231D01*
X127132Y128276D01*
X127161Y128320D01*
X127196Y128358D01*
X127227Y128423D01*
X127265Y128483D01*
X127278Y128534D01*
X127300Y128581D01*
X127308Y128652D01*
X127325Y128722D01*
X127321Y128774D01*
X127327Y128825D01*
X127312Y128896D01*
X127306Y128967D01*
X127286Y129015D01*
X127275Y129066D01*
X127238Y129127D01*
X127210Y129193D01*
X127165Y129249D01*
X127149Y129277D01*
X127131Y129292D01*
X127105Y129324D01*
X127075Y129354D01*
X127075Y134597D01*
X127061Y134687D01*
X127053Y134778D01*
X127041Y134808D01*
X127036Y134840D01*
X126993Y134920D01*
X126957Y135004D01*
X126931Y135036D01*
X126920Y135057D01*
X126897Y135079D01*
X126852Y135135D01*
X126805Y135182D01*
X126805Y136366D01*
X126791Y136456D01*
X126783Y136547D01*
X126771Y136577D01*
X126766Y136609D01*
X126723Y136690D01*
X126687Y136773D01*
X126661Y136806D01*
X126650Y136826D01*
X126627Y136848D01*
X126582Y136904D01*
X125825Y137661D01*
X125825Y155339D01*
X126582Y156096D01*
X126635Y156170D01*
X126695Y156239D01*
X126707Y156269D01*
X126726Y156295D01*
X126753Y156382D01*
X126787Y156467D01*
X126791Y156508D01*
X126798Y156530D01*
X126797Y156563D01*
X126805Y156634D01*
X126805Y157818D01*
X126852Y157865D01*
X126905Y157939D01*
X126965Y158008D01*
X126977Y158038D01*
X126996Y158064D01*
X127023Y158151D01*
X127057Y158236D01*
X127061Y158277D01*
X127068Y158299D01*
X127067Y158332D01*
X127075Y158403D01*
X127075Y164039D01*
X127061Y164129D01*
X127053Y164220D01*
X127041Y164250D01*
X127036Y164282D01*
X126993Y164362D01*
X126957Y164446D01*
X126931Y164478D01*
X126920Y164499D01*
X126897Y164521D01*
X126852Y164577D01*
X126677Y164752D01*
X126603Y164805D01*
X126534Y164865D01*
X126504Y164877D01*
X126477Y164896D01*
X126390Y164923D01*
X126306Y164957D01*
X126265Y164961D01*
X126242Y164968D01*
X126210Y164967D01*
X126139Y164975D01*
X98361Y164975D01*
X98271Y164961D01*
X98180Y164953D01*
X98150Y164941D01*
X98118Y164936D01*
X98038Y164893D01*
X97954Y164857D01*
X97922Y164831D01*
X97901Y164820D01*
X97879Y164797D01*
X97823Y164752D01*
X95248Y162177D01*
X95195Y162103D01*
X95135Y162034D01*
X95123Y162004D01*
X95104Y161977D01*
X95077Y161890D01*
X95043Y161806D01*
X95039Y161765D01*
X95032Y161742D01*
X95033Y161710D01*
X95025Y161639D01*
X95025Y152868D01*
X94132Y151975D01*
X82868Y151975D01*
X81975Y152868D01*
X81975Y163867D01*
X81964Y163938D01*
X81962Y164009D01*
X81944Y164058D01*
X81936Y164110D01*
X81902Y164173D01*
X81877Y164240D01*
X81845Y164281D01*
X81820Y164327D01*
X81769Y164376D01*
X81724Y164432D01*
X81680Y164461D01*
X81642Y164496D01*
X81577Y164527D01*
X81517Y164565D01*
X81466Y164578D01*
X81419Y164600D01*
X81348Y164608D01*
X81278Y164625D01*
X81226Y164621D01*
X81175Y164627D01*
X81104Y164612D01*
X81033Y164606D01*
X80985Y164586D01*
X80934Y164575D01*
X80873Y164538D01*
X80807Y164510D01*
X80751Y164465D01*
X80723Y164449D01*
X80708Y164431D01*
X80676Y164405D01*
X73448Y157177D01*
X73395Y157103D01*
X73335Y157034D01*
X73323Y157004D01*
X73304Y156977D01*
X73277Y156891D01*
X73243Y156806D01*
X73239Y156765D01*
X73232Y156742D01*
X73233Y156710D01*
X73225Y156639D01*
X73225Y150786D01*
X73228Y150766D01*
X73226Y150747D01*
X73248Y150645D01*
X73264Y150543D01*
X73274Y150526D01*
X73278Y150506D01*
X73331Y150417D01*
X73380Y150326D01*
X73394Y150312D01*
X73404Y150295D01*
X73483Y150228D01*
X73558Y150156D01*
X73576Y150148D01*
X73591Y150135D01*
X73687Y150096D01*
X73781Y150053D01*
X73801Y150051D01*
X73819Y150043D01*
X73986Y150025D01*
X76832Y150025D01*
X77725Y149132D01*
X77725Y140361D01*
X77739Y140271D01*
X77747Y140180D01*
X77759Y140150D01*
X77764Y140118D01*
X77807Y140038D01*
X77843Y139954D01*
X77869Y139922D01*
X77880Y139901D01*
X77903Y139879D01*
X77948Y139823D01*
X80676Y137095D01*
X80734Y137053D01*
X80786Y137004D01*
X80833Y136982D01*
X80875Y136951D01*
X80944Y136930D01*
X81009Y136900D01*
X81061Y136894D01*
X81111Y136879D01*
X81182Y136881D01*
X81253Y136873D01*
X81304Y136884D01*
X81356Y136885D01*
X81424Y136910D01*
X81494Y136925D01*
X81538Y136952D01*
X81587Y136970D01*
X81643Y137015D01*
X81705Y137051D01*
X81739Y137091D01*
X81779Y137123D01*
X81818Y137184D01*
X81865Y137238D01*
X81884Y137287D01*
X81912Y137330D01*
X81930Y137400D01*
X81957Y137466D01*
X81965Y137538D01*
X81973Y137569D01*
X81971Y137592D01*
X81975Y137633D01*
X81975Y148132D01*
X82868Y149025D01*
X94132Y149025D01*
X95025Y148132D01*
X95025Y135868D01*
X94132Y134975D01*
X91786Y134975D01*
X91766Y134972D01*
X91747Y134974D01*
X91645Y134952D01*
X91543Y134936D01*
X91526Y134926D01*
X91506Y134922D01*
X91417Y134869D01*
X91326Y134820D01*
X91312Y134806D01*
X91295Y134796D01*
X91228Y134717D01*
X91156Y134642D01*
X91148Y134624D01*
X91135Y134609D01*
X91096Y134513D01*
X91053Y134419D01*
X91051Y134399D01*
X91043Y134381D01*
X91025Y134214D01*
X91025Y133786D01*
X91028Y133766D01*
X91026Y133747D01*
X91048Y133645D01*
X91064Y133543D01*
X91074Y133526D01*
X91078Y133506D01*
X91131Y133417D01*
X91180Y133326D01*
X91194Y133312D01*
X91204Y133295D01*
X91283Y133228D01*
X91358Y133156D01*
X91376Y133148D01*
X91391Y133135D01*
X91487Y133096D01*
X91581Y133053D01*
X91601Y133051D01*
X91619Y133043D01*
X91786Y133025D01*
X101714Y133025D01*
X101734Y133028D01*
X101753Y133026D01*
X101855Y133048D01*
X101957Y133064D01*
X101974Y133074D01*
X101994Y133078D01*
X102083Y133131D01*
X102174Y133180D01*
X102188Y133194D01*
X102205Y133204D01*
X102272Y133283D01*
X102344Y133358D01*
X102352Y133376D01*
X102365Y133391D01*
X102404Y133487D01*
X102447Y133581D01*
X102449Y133601D01*
X102457Y133619D01*
X102475Y133786D01*
X102475Y136696D01*
X102461Y136786D01*
X102453Y136877D01*
X102441Y136907D01*
X102436Y136939D01*
X102393Y137020D01*
X102357Y137103D01*
X102331Y137136D01*
X102320Y137156D01*
X102297Y137178D01*
X102252Y137234D01*
X101825Y137661D01*
X101825Y138626D01*
X101822Y138646D01*
X101824Y138665D01*
X101802Y138767D01*
X101786Y138869D01*
X101776Y138886D01*
X101772Y138906D01*
X101719Y138995D01*
X101670Y139086D01*
X101656Y139100D01*
X101646Y139117D01*
X101567Y139184D01*
X101492Y139256D01*
X101474Y139264D01*
X101459Y139277D01*
X101363Y139316D01*
X101269Y139359D01*
X101249Y139361D01*
X101231Y139369D01*
X101064Y139387D01*
X100582Y139387D01*
X100581Y139388D01*
X100581Y153612D01*
X100582Y153613D01*
X101064Y153613D01*
X101084Y153616D01*
X101103Y153614D01*
X101205Y153636D01*
X101307Y153652D01*
X101324Y153662D01*
X101344Y153666D01*
X101433Y153719D01*
X101524Y153768D01*
X101538Y153782D01*
X101555Y153792D01*
X101622Y153871D01*
X101694Y153946D01*
X101702Y153964D01*
X101715Y153979D01*
X101754Y154075D01*
X101797Y154169D01*
X101799Y154189D01*
X101807Y154207D01*
X101825Y154374D01*
X101825Y155339D01*
X102582Y156096D01*
X102635Y156170D01*
X102695Y156239D01*
X102707Y156269D01*
X102726Y156295D01*
X102753Y156382D01*
X102787Y156467D01*
X102791Y156508D01*
X102798Y156530D01*
X102797Y156563D01*
X102805Y156634D01*
X102805Y157818D01*
X104442Y159455D01*
X106758Y159455D01*
X108395Y157818D01*
X108395Y156634D01*
X108409Y156544D01*
X108417Y156453D01*
X108429Y156423D01*
X108434Y156391D01*
X108477Y156310D01*
X108513Y156227D01*
X108539Y156194D01*
X108550Y156174D01*
X108573Y156152D01*
X108618Y156096D01*
X109375Y155339D01*
X109375Y137661D01*
X108618Y136904D01*
X108565Y136830D01*
X108505Y136761D01*
X108493Y136731D01*
X108474Y136705D01*
X108447Y136618D01*
X108413Y136533D01*
X108409Y136492D01*
X108402Y136470D01*
X108403Y136437D01*
X108395Y136366D01*
X108395Y135182D01*
X107748Y134535D01*
X107695Y134461D01*
X107635Y134392D01*
X107623Y134362D01*
X107604Y134336D01*
X107577Y134249D01*
X107543Y134164D01*
X107539Y134123D01*
X107532Y134101D01*
X107533Y134068D01*
X107525Y133997D01*
X107525Y128786D01*
X107528Y128766D01*
X107526Y128747D01*
X107548Y128645D01*
X107564Y128543D01*
X107574Y128526D01*
X107578Y128506D01*
X107631Y128417D01*
X107680Y128326D01*
X107694Y128312D01*
X107704Y128295D01*
X107783Y128228D01*
X107858Y128156D01*
X107876Y128148D01*
X107891Y128135D01*
X107987Y128096D01*
X108081Y128053D01*
X108101Y128051D01*
X108119Y128043D01*
X108286Y128025D01*
X126567Y128025D01*
X126638Y128036D01*
G37*
G36*
X46034Y296228D02*
X46034Y296228D01*
X46053Y296226D01*
X46155Y296248D01*
X46257Y296264D01*
X46274Y296274D01*
X46294Y296278D01*
X46383Y296331D01*
X46474Y296380D01*
X46488Y296394D01*
X46505Y296404D01*
X46572Y296483D01*
X46644Y296558D01*
X46652Y296576D01*
X46665Y296591D01*
X46704Y296687D01*
X46747Y296781D01*
X46749Y296801D01*
X46757Y296819D01*
X46775Y296986D01*
X46775Y300632D01*
X47668Y301525D01*
X57932Y301525D01*
X58825Y300632D01*
X58825Y300286D01*
X58828Y300266D01*
X58826Y300247D01*
X58848Y300145D01*
X58864Y300043D01*
X58874Y300026D01*
X58878Y300006D01*
X58931Y299917D01*
X58980Y299826D01*
X58994Y299812D01*
X59004Y299795D01*
X59083Y299728D01*
X59158Y299656D01*
X59176Y299648D01*
X59191Y299635D01*
X59287Y299596D01*
X59381Y299553D01*
X59401Y299551D01*
X59419Y299543D01*
X59586Y299525D01*
X64639Y299525D01*
X64729Y299539D01*
X64820Y299547D01*
X64850Y299559D01*
X64882Y299564D01*
X64962Y299607D01*
X65046Y299643D01*
X65078Y299669D01*
X65099Y299680D01*
X65121Y299703D01*
X65177Y299748D01*
X68252Y302823D01*
X68305Y302897D01*
X68365Y302966D01*
X68377Y302996D01*
X68396Y303023D01*
X68423Y303110D01*
X68457Y303194D01*
X68461Y303235D01*
X68468Y303258D01*
X68467Y303290D01*
X68475Y303361D01*
X68475Y317046D01*
X69969Y318540D01*
X70011Y318598D01*
X70060Y318650D01*
X70082Y318697D01*
X70113Y318739D01*
X70134Y318808D01*
X70164Y318873D01*
X70170Y318925D01*
X70185Y318975D01*
X70183Y319046D01*
X70191Y319117D01*
X70180Y319168D01*
X70179Y319220D01*
X70154Y319288D01*
X70139Y319358D01*
X70112Y319403D01*
X70094Y319451D01*
X70049Y319507D01*
X70013Y319569D01*
X69973Y319603D01*
X69941Y319643D01*
X69880Y319682D01*
X69826Y319729D01*
X69777Y319748D01*
X69734Y319776D01*
X69664Y319794D01*
X69598Y319821D01*
X69526Y319829D01*
X69495Y319837D01*
X69472Y319835D01*
X69431Y319839D01*
X60602Y319839D01*
X60582Y319836D01*
X60563Y319838D01*
X60461Y319816D01*
X60359Y319800D01*
X60342Y319790D01*
X60322Y319786D01*
X60233Y319733D01*
X60142Y319684D01*
X60128Y319670D01*
X60111Y319660D01*
X60044Y319581D01*
X59972Y319506D01*
X59964Y319488D01*
X59951Y319473D01*
X59912Y319377D01*
X59869Y319283D01*
X59867Y319263D01*
X59859Y319245D01*
X59841Y319078D01*
X59841Y317499D01*
X53538Y317499D01*
X53519Y317496D01*
X53499Y317498D01*
X53397Y317476D01*
X53295Y317460D01*
X53278Y317450D01*
X53258Y317446D01*
X53169Y317393D01*
X53078Y317344D01*
X53064Y317330D01*
X53047Y317320D01*
X52980Y317241D01*
X52909Y317166D01*
X52900Y317148D01*
X52887Y317133D01*
X52849Y317037D01*
X52805Y316943D01*
X52803Y316923D01*
X52796Y316905D01*
X52783Y316981D01*
X52774Y316998D01*
X52770Y317018D01*
X52717Y317107D01*
X52668Y317198D01*
X52654Y317212D01*
X52644Y317229D01*
X52565Y317296D01*
X52490Y317368D01*
X52472Y317376D01*
X52457Y317389D01*
X52360Y317428D01*
X52267Y317471D01*
X52247Y317473D01*
X52229Y317481D01*
X52062Y317499D01*
X45759Y317499D01*
X45759Y319078D01*
X45756Y319098D01*
X45758Y319117D01*
X45736Y319219D01*
X45720Y319321D01*
X45710Y319338D01*
X45706Y319358D01*
X45653Y319447D01*
X45604Y319538D01*
X45590Y319552D01*
X45580Y319569D01*
X45501Y319636D01*
X45426Y319708D01*
X45408Y319716D01*
X45393Y319729D01*
X45297Y319768D01*
X45203Y319811D01*
X45183Y319813D01*
X45165Y319821D01*
X44998Y319839D01*
X41419Y319839D01*
X41372Y319832D01*
X41324Y319833D01*
X41251Y319812D01*
X41176Y319800D01*
X41134Y319777D01*
X41088Y319763D01*
X41026Y319720D01*
X40959Y319684D01*
X40926Y319650D01*
X40887Y319622D01*
X40842Y319561D01*
X40790Y319506D01*
X40769Y319463D01*
X40741Y319424D01*
X40718Y319352D01*
X40686Y319283D01*
X40681Y319235D01*
X40666Y319190D01*
X40667Y319114D01*
X40659Y319039D01*
X40669Y318992D01*
X40670Y318944D01*
X40695Y318872D01*
X40711Y318798D01*
X40736Y318757D01*
X40752Y318712D01*
X40798Y318652D01*
X40837Y318587D01*
X40874Y318556D01*
X40903Y318518D01*
X41007Y318442D01*
X41024Y318427D01*
X41030Y318425D01*
X41038Y318419D01*
X41360Y318233D01*
X41833Y317760D01*
X42168Y317181D01*
X42341Y316534D01*
X42341Y312223D01*
X35562Y312223D01*
X35542Y312220D01*
X35523Y312222D01*
X35421Y312200D01*
X35319Y312183D01*
X35302Y312174D01*
X35282Y312170D01*
X35193Y312117D01*
X35102Y312068D01*
X35088Y312054D01*
X35071Y312044D01*
X35004Y311965D01*
X34933Y311890D01*
X34924Y311872D01*
X34911Y311857D01*
X34872Y311761D01*
X34829Y311667D01*
X34827Y311647D01*
X34819Y311629D01*
X34801Y311462D01*
X34801Y310699D01*
X34799Y310699D01*
X34799Y311462D01*
X34796Y311482D01*
X34798Y311501D01*
X34776Y311603D01*
X34759Y311705D01*
X34750Y311722D01*
X34746Y311742D01*
X34693Y311831D01*
X34644Y311922D01*
X34630Y311936D01*
X34620Y311953D01*
X34541Y312020D01*
X34466Y312091D01*
X34448Y312100D01*
X34433Y312113D01*
X34337Y312152D01*
X34243Y312195D01*
X34223Y312197D01*
X34205Y312205D01*
X34038Y312223D01*
X27259Y312223D01*
X27259Y316534D01*
X27432Y317181D01*
X27767Y317760D01*
X28240Y318233D01*
X28562Y318419D01*
X28599Y318449D01*
X28641Y318472D01*
X28693Y318527D01*
X28752Y318575D01*
X28777Y318615D01*
X28810Y318650D01*
X28842Y318719D01*
X28883Y318783D01*
X28894Y318829D01*
X28914Y318873D01*
X28922Y318948D01*
X28940Y319022D01*
X28936Y319070D01*
X28941Y319117D01*
X28925Y319192D01*
X28918Y319267D01*
X28899Y319311D01*
X28889Y319358D01*
X28850Y319423D01*
X28820Y319492D01*
X28787Y319528D01*
X28763Y319569D01*
X28705Y319618D01*
X28654Y319674D01*
X28612Y319698D01*
X28576Y319729D01*
X28506Y319757D01*
X28439Y319794D01*
X28392Y319803D01*
X28348Y319821D01*
X28219Y319835D01*
X28198Y319839D01*
X28191Y319838D01*
X28181Y319839D01*
X23044Y319839D01*
X22950Y319824D01*
X22855Y319815D01*
X22829Y319804D01*
X22801Y319800D01*
X22717Y319755D01*
X22630Y319717D01*
X22609Y319698D01*
X22584Y319684D01*
X22518Y319615D01*
X22448Y319551D01*
X22434Y319527D01*
X22414Y319506D01*
X22374Y319420D01*
X22328Y319336D01*
X22323Y319309D01*
X22311Y319283D01*
X22300Y319188D01*
X22283Y319095D01*
X22287Y319067D01*
X22284Y319039D01*
X22304Y318945D01*
X22317Y318851D01*
X22332Y318819D01*
X22336Y318798D01*
X22353Y318770D01*
X22385Y318697D01*
X22568Y318381D01*
X22741Y317734D01*
X22741Y313423D01*
X15962Y313423D01*
X15942Y313420D01*
X15923Y313422D01*
X15821Y313400D01*
X15719Y313383D01*
X15702Y313374D01*
X15682Y313370D01*
X15593Y313317D01*
X15502Y313268D01*
X15488Y313254D01*
X15471Y313244D01*
X15404Y313165D01*
X15333Y313090D01*
X15324Y313072D01*
X15311Y313057D01*
X15272Y312961D01*
X15229Y312867D01*
X15227Y312847D01*
X15219Y312829D01*
X15201Y312662D01*
X15201Y311899D01*
X14438Y311899D01*
X14418Y311896D01*
X14399Y311898D01*
X14297Y311876D01*
X14195Y311859D01*
X14178Y311850D01*
X14158Y311846D01*
X14069Y311793D01*
X13978Y311744D01*
X13964Y311730D01*
X13947Y311720D01*
X13880Y311641D01*
X13809Y311566D01*
X13800Y311548D01*
X13787Y311533D01*
X13748Y311437D01*
X13705Y311343D01*
X13703Y311323D01*
X13695Y311305D01*
X13677Y311138D01*
X13677Y303859D01*
X10922Y303859D01*
X10902Y303856D01*
X10883Y303858D01*
X10781Y303836D01*
X10679Y303820D01*
X10662Y303810D01*
X10642Y303806D01*
X10553Y303753D01*
X10462Y303704D01*
X10448Y303690D01*
X10431Y303680D01*
X10364Y303601D01*
X10292Y303526D01*
X10284Y303508D01*
X10271Y303493D01*
X10232Y303397D01*
X10189Y303303D01*
X10187Y303283D01*
X10179Y303265D01*
X10161Y303098D01*
X10161Y302686D01*
X10162Y302676D01*
X10162Y302670D01*
X10164Y302662D01*
X10162Y302647D01*
X10184Y302545D01*
X10200Y302443D01*
X10210Y302426D01*
X10214Y302406D01*
X10267Y302317D01*
X10316Y302226D01*
X10330Y302212D01*
X10340Y302195D01*
X10419Y302128D01*
X10494Y302056D01*
X10512Y302048D01*
X10527Y302035D01*
X10623Y301996D01*
X10717Y301953D01*
X10737Y301951D01*
X10755Y301943D01*
X10922Y301925D01*
X20832Y301925D01*
X21725Y301032D01*
X21725Y298186D01*
X21728Y298166D01*
X21726Y298147D01*
X21748Y298045D01*
X21764Y297943D01*
X21774Y297926D01*
X21778Y297906D01*
X21831Y297817D01*
X21880Y297726D01*
X21894Y297712D01*
X21904Y297695D01*
X21983Y297628D01*
X22058Y297556D01*
X22076Y297548D01*
X22091Y297535D01*
X22187Y297496D01*
X22281Y297453D01*
X22301Y297451D01*
X22319Y297443D01*
X22486Y297425D01*
X27514Y297425D01*
X27534Y297428D01*
X27553Y297426D01*
X27655Y297448D01*
X27757Y297464D01*
X27774Y297474D01*
X27794Y297478D01*
X27883Y297531D01*
X27974Y297580D01*
X27988Y297594D01*
X28005Y297604D01*
X28072Y297683D01*
X28144Y297758D01*
X28152Y297776D01*
X28165Y297791D01*
X28204Y297887D01*
X28247Y297981D01*
X28249Y298001D01*
X28257Y298019D01*
X28275Y298186D01*
X28275Y299832D01*
X29168Y300725D01*
X40432Y300725D01*
X41325Y299832D01*
X41325Y296986D01*
X41328Y296966D01*
X41326Y296947D01*
X41348Y296845D01*
X41364Y296743D01*
X41374Y296726D01*
X41378Y296706D01*
X41431Y296617D01*
X41480Y296526D01*
X41494Y296512D01*
X41504Y296495D01*
X41583Y296428D01*
X41658Y296356D01*
X41676Y296348D01*
X41691Y296335D01*
X41787Y296296D01*
X41881Y296253D01*
X41901Y296251D01*
X41919Y296243D01*
X42086Y296225D01*
X46014Y296225D01*
X46034Y296228D01*
G37*
G36*
X111271Y41040D02*
X111271Y41040D01*
X111366Y41049D01*
X111392Y41060D01*
X111420Y41064D01*
X111504Y41109D01*
X111591Y41147D01*
X111612Y41166D01*
X111637Y41180D01*
X111702Y41249D01*
X111773Y41313D01*
X111787Y41337D01*
X111806Y41358D01*
X111846Y41444D01*
X111893Y41528D01*
X111898Y41555D01*
X111910Y41581D01*
X111920Y41676D01*
X111938Y41769D01*
X111934Y41797D01*
X111937Y41825D01*
X111917Y41919D01*
X111903Y42013D01*
X111889Y42045D01*
X111885Y42066D01*
X111868Y42094D01*
X111836Y42167D01*
X111632Y42519D01*
X111459Y43166D01*
X111459Y46977D01*
X118738Y46977D01*
X118758Y46980D01*
X118777Y46978D01*
X118879Y47000D01*
X118981Y47017D01*
X118998Y47026D01*
X119018Y47030D01*
X119107Y47083D01*
X119198Y47132D01*
X119212Y47146D01*
X119229Y47156D01*
X119296Y47235D01*
X119367Y47310D01*
X119376Y47328D01*
X119389Y47343D01*
X119428Y47439D01*
X119471Y47533D01*
X119473Y47553D01*
X119481Y47571D01*
X119499Y47738D01*
X119499Y48501D01*
X119501Y48501D01*
X119501Y47738D01*
X119504Y47718D01*
X119502Y47699D01*
X119524Y47597D01*
X119541Y47495D01*
X119550Y47478D01*
X119554Y47458D01*
X119607Y47369D01*
X119656Y47278D01*
X119670Y47264D01*
X119680Y47247D01*
X119759Y47180D01*
X119834Y47109D01*
X119852Y47100D01*
X119867Y47087D01*
X119963Y47048D01*
X120057Y47005D01*
X120077Y47003D01*
X120095Y46995D01*
X120262Y46977D01*
X127541Y46977D01*
X127541Y43165D01*
X127368Y42519D01*
X127164Y42167D01*
X127130Y42077D01*
X127090Y41991D01*
X127087Y41963D01*
X127077Y41937D01*
X127073Y41841D01*
X127063Y41747D01*
X127069Y41719D01*
X127068Y41691D01*
X127095Y41599D01*
X127115Y41506D01*
X127130Y41482D01*
X127138Y41455D01*
X127192Y41377D01*
X127241Y41295D01*
X127263Y41277D01*
X127279Y41254D01*
X127356Y41197D01*
X127428Y41135D01*
X127455Y41125D01*
X127477Y41108D01*
X127568Y41079D01*
X127656Y41043D01*
X127692Y41039D01*
X127711Y41033D01*
X127744Y41033D01*
X127823Y41025D01*
X131714Y41025D01*
X131734Y41028D01*
X131753Y41026D01*
X131855Y41048D01*
X131957Y41064D01*
X131974Y41074D01*
X131994Y41078D01*
X132083Y41131D01*
X132174Y41180D01*
X132188Y41194D01*
X132205Y41204D01*
X132272Y41283D01*
X132344Y41358D01*
X132352Y41376D01*
X132365Y41391D01*
X132404Y41487D01*
X132447Y41581D01*
X132449Y41601D01*
X132457Y41619D01*
X132475Y41786D01*
X132475Y69639D01*
X132461Y69729D01*
X132453Y69820D01*
X132441Y69850D01*
X132436Y69882D01*
X132393Y69962D01*
X132357Y70046D01*
X132331Y70078D01*
X132320Y70099D01*
X132297Y70121D01*
X132252Y70177D01*
X121324Y81105D01*
X121266Y81147D01*
X121214Y81196D01*
X121167Y81218D01*
X121125Y81249D01*
X121056Y81270D01*
X120991Y81300D01*
X120939Y81306D01*
X120889Y81321D01*
X120818Y81319D01*
X120747Y81327D01*
X120696Y81316D01*
X120644Y81315D01*
X120576Y81290D01*
X120506Y81275D01*
X120461Y81248D01*
X120413Y81230D01*
X120357Y81185D01*
X120295Y81149D01*
X120261Y81109D01*
X120221Y81077D01*
X120182Y81016D01*
X120135Y80962D01*
X120116Y80913D01*
X120088Y80870D01*
X120070Y80800D01*
X120043Y80734D01*
X120035Y80662D01*
X120027Y80631D01*
X120029Y80608D01*
X120025Y80567D01*
X120025Y66454D01*
X118546Y64975D01*
X112513Y64975D01*
X112423Y64961D01*
X112332Y64953D01*
X112302Y64941D01*
X112270Y64936D01*
X112189Y64893D01*
X112105Y64857D01*
X112073Y64831D01*
X112052Y64820D01*
X112030Y64797D01*
X111974Y64752D01*
X109615Y62393D01*
X105515Y62393D01*
X105444Y62382D01*
X105373Y62380D01*
X105324Y62362D01*
X105272Y62354D01*
X105209Y62320D01*
X105142Y62295D01*
X105101Y62263D01*
X105055Y62238D01*
X105006Y62187D01*
X104950Y62142D01*
X104921Y62098D01*
X104886Y62060D01*
X104855Y61995D01*
X104817Y61935D01*
X104804Y61884D01*
X104782Y61837D01*
X104774Y61766D01*
X104757Y61696D01*
X104761Y61644D01*
X104755Y61593D01*
X104770Y61522D01*
X104776Y61451D01*
X104796Y61403D01*
X104807Y61352D01*
X104844Y61291D01*
X104872Y61225D01*
X104917Y61169D01*
X104933Y61141D01*
X104951Y61126D01*
X104977Y61094D01*
X105025Y61046D01*
X105025Y55786D01*
X105028Y55766D01*
X105026Y55747D01*
X105048Y55645D01*
X105064Y55543D01*
X105074Y55526D01*
X105078Y55506D01*
X105131Y55417D01*
X105180Y55326D01*
X105194Y55312D01*
X105204Y55295D01*
X105283Y55228D01*
X105358Y55156D01*
X105376Y55148D01*
X105391Y55135D01*
X105487Y55096D01*
X105581Y55053D01*
X105601Y55051D01*
X105619Y55043D01*
X105786Y55025D01*
X108632Y55025D01*
X109525Y54132D01*
X109525Y42868D01*
X108981Y42324D01*
X108939Y42266D01*
X108889Y42214D01*
X108867Y42167D01*
X108837Y42125D01*
X108816Y42056D01*
X108786Y41991D01*
X108780Y41939D01*
X108765Y41889D01*
X108767Y41818D01*
X108759Y41747D01*
X108770Y41696D01*
X108771Y41644D01*
X108796Y41576D01*
X108811Y41506D01*
X108838Y41461D01*
X108855Y41413D01*
X108900Y41357D01*
X108937Y41295D01*
X108977Y41261D01*
X109009Y41221D01*
X109069Y41182D01*
X109124Y41135D01*
X109172Y41116D01*
X109216Y41088D01*
X109286Y41070D01*
X109352Y41043D01*
X109423Y41035D01*
X109455Y41027D01*
X109478Y41029D01*
X109519Y41025D01*
X111177Y41025D01*
X111271Y41040D01*
G37*
G36*
X354104Y68884D02*
X354104Y68884D01*
X354156Y68885D01*
X354224Y68910D01*
X354294Y68925D01*
X354339Y68952D01*
X354387Y68970D01*
X354443Y69015D01*
X354505Y69051D01*
X354539Y69091D01*
X354579Y69123D01*
X354618Y69184D01*
X354665Y69238D01*
X354684Y69287D01*
X354712Y69330D01*
X354730Y69400D01*
X354757Y69466D01*
X354765Y69538D01*
X354773Y69569D01*
X354771Y69592D01*
X354775Y69633D01*
X354775Y77314D01*
X354772Y77334D01*
X354774Y77353D01*
X354752Y77455D01*
X354736Y77557D01*
X354726Y77574D01*
X354722Y77594D01*
X354669Y77683D01*
X354620Y77774D01*
X354606Y77788D01*
X354596Y77805D01*
X354517Y77872D01*
X354442Y77944D01*
X354424Y77952D01*
X354409Y77965D01*
X354313Y78004D01*
X354219Y78047D01*
X354199Y78049D01*
X354181Y78057D01*
X354014Y78075D01*
X351168Y78075D01*
X350275Y78968D01*
X350275Y90232D01*
X351168Y91125D01*
X354014Y91125D01*
X354034Y91128D01*
X354053Y91126D01*
X354155Y91148D01*
X354257Y91164D01*
X354274Y91174D01*
X354294Y91178D01*
X354383Y91231D01*
X354474Y91280D01*
X354488Y91294D01*
X354505Y91304D01*
X354572Y91383D01*
X354644Y91458D01*
X354652Y91476D01*
X354665Y91491D01*
X354704Y91587D01*
X354747Y91681D01*
X354749Y91701D01*
X354757Y91719D01*
X354775Y91886D01*
X354775Y100339D01*
X354761Y100429D01*
X354753Y100520D01*
X354741Y100550D01*
X354736Y100582D01*
X354693Y100662D01*
X354657Y100746D01*
X354631Y100778D01*
X354620Y100799D01*
X354597Y100821D01*
X354552Y100877D01*
X346406Y109023D01*
X346348Y109065D01*
X346296Y109114D01*
X346249Y109136D01*
X346207Y109167D01*
X346138Y109188D01*
X346073Y109218D01*
X346021Y109224D01*
X345971Y109239D01*
X345900Y109237D01*
X345829Y109245D01*
X345778Y109234D01*
X345726Y109233D01*
X345658Y109208D01*
X345588Y109193D01*
X345543Y109166D01*
X345495Y109148D01*
X345439Y109103D01*
X345377Y109067D01*
X345343Y109027D01*
X345303Y108995D01*
X345264Y108934D01*
X345217Y108880D01*
X345198Y108831D01*
X345170Y108788D01*
X345152Y108718D01*
X345125Y108652D01*
X345117Y108580D01*
X345109Y108549D01*
X345111Y108526D01*
X345107Y108485D01*
X345107Y106885D01*
X342115Y103893D01*
X337885Y103893D01*
X335526Y106252D01*
X335452Y106305D01*
X335382Y106365D01*
X335352Y106377D01*
X335326Y106396D01*
X335239Y106423D01*
X335154Y106457D01*
X335113Y106461D01*
X335091Y106468D01*
X335059Y106467D01*
X334987Y106475D01*
X332286Y106475D01*
X332266Y106472D01*
X332247Y106474D01*
X332145Y106452D01*
X332043Y106436D01*
X332026Y106426D01*
X332006Y106422D01*
X331917Y106369D01*
X331826Y106320D01*
X331812Y106306D01*
X331795Y106296D01*
X331728Y106217D01*
X331656Y106142D01*
X331648Y106124D01*
X331635Y106109D01*
X331596Y106013D01*
X331553Y105919D01*
X331551Y105899D01*
X331543Y105881D01*
X331525Y105714D01*
X331525Y91756D01*
X331536Y91685D01*
X331538Y91613D01*
X331556Y91564D01*
X331564Y91513D01*
X331598Y91450D01*
X331623Y91382D01*
X331655Y91342D01*
X331680Y91296D01*
X331732Y91246D01*
X331776Y91190D01*
X331820Y91162D01*
X331858Y91126D01*
X331923Y91096D01*
X331983Y91057D01*
X332034Y91044D01*
X332081Y91023D01*
X332152Y91015D01*
X332222Y90997D01*
X332274Y91001D01*
X332325Y90995D01*
X332396Y91011D01*
X332467Y91016D01*
X332515Y91037D01*
X332566Y91048D01*
X332627Y91085D01*
X332693Y91113D01*
X332749Y91157D01*
X332777Y91174D01*
X332792Y91192D01*
X332824Y91217D01*
X333240Y91633D01*
X333819Y91968D01*
X334466Y92141D01*
X338777Y92141D01*
X338777Y85362D01*
X338780Y85342D01*
X338778Y85323D01*
X338800Y85221D01*
X338817Y85119D01*
X338826Y85102D01*
X338830Y85082D01*
X338883Y84993D01*
X338932Y84902D01*
X338946Y84888D01*
X338956Y84871D01*
X339035Y84804D01*
X339110Y84733D01*
X339128Y84724D01*
X339143Y84711D01*
X339239Y84672D01*
X339333Y84629D01*
X339353Y84627D01*
X339371Y84619D01*
X339538Y84601D01*
X340301Y84601D01*
X340301Y84599D01*
X339538Y84599D01*
X339518Y84596D01*
X339499Y84598D01*
X339397Y84576D01*
X339295Y84559D01*
X339278Y84550D01*
X339258Y84546D01*
X339169Y84493D01*
X339078Y84444D01*
X339064Y84430D01*
X339047Y84420D01*
X338980Y84341D01*
X338909Y84266D01*
X338900Y84248D01*
X338887Y84233D01*
X338848Y84137D01*
X338805Y84043D01*
X338803Y84023D01*
X338795Y84005D01*
X338777Y83838D01*
X338777Y77059D01*
X334466Y77059D01*
X333819Y77232D01*
X333240Y77567D01*
X332824Y77983D01*
X332766Y78025D01*
X332714Y78074D01*
X332667Y78096D01*
X332625Y78126D01*
X332556Y78147D01*
X332491Y78177D01*
X332439Y78183D01*
X332389Y78199D01*
X332318Y78197D01*
X332247Y78205D01*
X332196Y78193D01*
X332144Y78192D01*
X332076Y78168D01*
X332006Y78152D01*
X331961Y78126D01*
X331913Y78108D01*
X331857Y78063D01*
X331795Y78026D01*
X331761Y77987D01*
X331721Y77954D01*
X331682Y77894D01*
X331635Y77839D01*
X331616Y77791D01*
X331588Y77747D01*
X331570Y77678D01*
X331543Y77611D01*
X331535Y77540D01*
X331527Y77509D01*
X331529Y77485D01*
X331525Y77444D01*
X331525Y73286D01*
X331528Y73266D01*
X331526Y73247D01*
X331548Y73145D01*
X331564Y73043D01*
X331574Y73026D01*
X331578Y73006D01*
X331631Y72917D01*
X331680Y72826D01*
X331694Y72812D01*
X331704Y72795D01*
X331783Y72728D01*
X331858Y72656D01*
X331876Y72648D01*
X331891Y72635D01*
X331987Y72596D01*
X332081Y72553D01*
X332101Y72551D01*
X332119Y72543D01*
X332286Y72525D01*
X350046Y72525D01*
X351823Y70748D01*
X353476Y69095D01*
X353534Y69053D01*
X353586Y69004D01*
X353633Y68982D01*
X353675Y68951D01*
X353744Y68930D01*
X353809Y68900D01*
X353861Y68894D01*
X353911Y68879D01*
X353982Y68881D01*
X354053Y68873D01*
X354104Y68884D01*
G37*
%LPC*%
G36*
X68385Y218393D02*
X68385Y218393D01*
X66026Y220752D01*
X65952Y220805D01*
X65882Y220865D01*
X65852Y220877D01*
X65826Y220896D01*
X65739Y220923D01*
X65654Y220957D01*
X65613Y220961D01*
X65591Y220968D01*
X65559Y220967D01*
X65487Y220975D01*
X58454Y220975D01*
X56752Y222677D01*
X34677Y244752D01*
X34603Y244805D01*
X34534Y244865D01*
X34504Y244877D01*
X34477Y244896D01*
X34390Y244923D01*
X34306Y244957D01*
X34265Y244961D01*
X34242Y244968D01*
X34210Y244967D01*
X34139Y244975D01*
X31886Y244975D01*
X31866Y244972D01*
X31847Y244974D01*
X31745Y244952D01*
X31643Y244936D01*
X31626Y244926D01*
X31606Y244922D01*
X31517Y244869D01*
X31426Y244820D01*
X31412Y244806D01*
X31395Y244796D01*
X31328Y244717D01*
X31256Y244642D01*
X31248Y244624D01*
X31235Y244609D01*
X31196Y244513D01*
X31153Y244419D01*
X31151Y244399D01*
X31143Y244381D01*
X31125Y244214D01*
X31125Y241368D01*
X30232Y240475D01*
X18968Y240475D01*
X18075Y241368D01*
X18075Y253632D01*
X18968Y254525D01*
X30232Y254525D01*
X31125Y253632D01*
X31125Y250786D01*
X31128Y250766D01*
X31126Y250747D01*
X31148Y250645D01*
X31164Y250543D01*
X31174Y250526D01*
X31178Y250506D01*
X31231Y250417D01*
X31280Y250326D01*
X31294Y250312D01*
X31304Y250295D01*
X31383Y250228D01*
X31458Y250156D01*
X31476Y250148D01*
X31491Y250135D01*
X31587Y250096D01*
X31681Y250053D01*
X31701Y250051D01*
X31719Y250043D01*
X31886Y250025D01*
X36546Y250025D01*
X44560Y242011D01*
X44618Y241969D01*
X44670Y241920D01*
X44717Y241898D01*
X44759Y241867D01*
X44828Y241846D01*
X44893Y241816D01*
X44945Y241810D01*
X44995Y241795D01*
X45066Y241797D01*
X45137Y241789D01*
X45188Y241800D01*
X45240Y241801D01*
X45308Y241826D01*
X45378Y241841D01*
X45423Y241868D01*
X45471Y241886D01*
X45527Y241931D01*
X45589Y241967D01*
X45623Y242007D01*
X45663Y242039D01*
X45702Y242100D01*
X45749Y242154D01*
X45768Y242203D01*
X45796Y242246D01*
X45814Y242316D01*
X45841Y242382D01*
X45849Y242454D01*
X45857Y242485D01*
X45855Y242508D01*
X45859Y242549D01*
X45859Y244577D01*
X51377Y244577D01*
X51377Y239559D01*
X48849Y239559D01*
X48778Y239548D01*
X48707Y239546D01*
X48658Y239528D01*
X48606Y239520D01*
X48543Y239486D01*
X48476Y239461D01*
X48435Y239429D01*
X48389Y239404D01*
X48340Y239353D01*
X48284Y239308D01*
X48255Y239264D01*
X48220Y239226D01*
X48189Y239161D01*
X48151Y239101D01*
X48138Y239050D01*
X48116Y239003D01*
X48108Y238932D01*
X48091Y238862D01*
X48095Y238810D01*
X48089Y238759D01*
X48104Y238688D01*
X48110Y238617D01*
X48130Y238569D01*
X48141Y238518D01*
X48178Y238457D01*
X48206Y238391D01*
X48251Y238335D01*
X48267Y238307D01*
X48285Y238292D01*
X48311Y238260D01*
X60323Y226248D01*
X60397Y226195D01*
X60466Y226135D01*
X60496Y226123D01*
X60523Y226104D01*
X60609Y226077D01*
X60694Y226043D01*
X60735Y226039D01*
X60758Y226032D01*
X60790Y226033D01*
X60861Y226025D01*
X65487Y226025D01*
X65577Y226039D01*
X65668Y226047D01*
X65698Y226059D01*
X65730Y226064D01*
X65811Y226107D01*
X65895Y226143D01*
X65927Y226169D01*
X65948Y226180D01*
X65970Y226203D01*
X66026Y226248D01*
X68385Y228607D01*
X72615Y228607D01*
X75607Y225615D01*
X75607Y221385D01*
X72615Y218393D01*
X68385Y218393D01*
G37*
%LPD*%
%LPC*%
G36*
X32168Y182375D02*
X32168Y182375D01*
X31275Y183268D01*
X31275Y195532D01*
X32168Y196425D01*
X34514Y196425D01*
X34534Y196428D01*
X34553Y196426D01*
X34655Y196448D01*
X34757Y196464D01*
X34774Y196474D01*
X34794Y196478D01*
X34883Y196531D01*
X34974Y196580D01*
X34988Y196594D01*
X35005Y196604D01*
X35072Y196683D01*
X35144Y196758D01*
X35152Y196776D01*
X35165Y196791D01*
X35204Y196887D01*
X35247Y196981D01*
X35249Y197001D01*
X35257Y197019D01*
X35275Y197186D01*
X35275Y204132D01*
X35272Y204152D01*
X35274Y204171D01*
X35252Y204273D01*
X35236Y204375D01*
X35226Y204392D01*
X35222Y204412D01*
X35169Y204501D01*
X35120Y204592D01*
X35106Y204606D01*
X35096Y204623D01*
X35017Y204690D01*
X34942Y204762D01*
X34924Y204770D01*
X34909Y204783D01*
X34813Y204822D01*
X34719Y204865D01*
X34699Y204867D01*
X34681Y204875D01*
X34514Y204893D01*
X32885Y204893D01*
X29893Y207885D01*
X29893Y212115D01*
X32885Y215107D01*
X37115Y215107D01*
X40107Y212115D01*
X40107Y208779D01*
X40121Y208689D01*
X40129Y208598D01*
X40141Y208568D01*
X40146Y208536D01*
X40189Y208456D01*
X40225Y208372D01*
X40251Y208340D01*
X40262Y208319D01*
X40285Y208297D01*
X40325Y208247D01*
X40325Y197186D01*
X40328Y197166D01*
X40326Y197147D01*
X40348Y197045D01*
X40364Y196943D01*
X40374Y196926D01*
X40378Y196906D01*
X40431Y196817D01*
X40480Y196726D01*
X40494Y196712D01*
X40504Y196695D01*
X40583Y196628D01*
X40658Y196556D01*
X40676Y196548D01*
X40691Y196535D01*
X40787Y196496D01*
X40881Y196453D01*
X40901Y196451D01*
X40919Y196443D01*
X41086Y196425D01*
X43432Y196425D01*
X44325Y195532D01*
X44325Y183268D01*
X43432Y182375D01*
X32168Y182375D01*
G37*
%LPD*%
G36*
X62934Y136928D02*
X62934Y136928D01*
X62953Y136926D01*
X63055Y136948D01*
X63157Y136964D01*
X63174Y136974D01*
X63194Y136978D01*
X63283Y137031D01*
X63374Y137080D01*
X63388Y137094D01*
X63405Y137104D01*
X63472Y137183D01*
X63544Y137258D01*
X63552Y137276D01*
X63565Y137291D01*
X63604Y137387D01*
X63647Y137481D01*
X63649Y137501D01*
X63657Y137519D01*
X63675Y137686D01*
X63675Y149132D01*
X64568Y150025D01*
X67414Y150025D01*
X67434Y150028D01*
X67453Y150026D01*
X67555Y150048D01*
X67657Y150064D01*
X67674Y150074D01*
X67694Y150078D01*
X67783Y150131D01*
X67874Y150180D01*
X67888Y150194D01*
X67905Y150204D01*
X67972Y150283D01*
X68044Y150358D01*
X68052Y150376D01*
X68065Y150391D01*
X68104Y150487D01*
X68147Y150581D01*
X68149Y150601D01*
X68157Y150619D01*
X68175Y150786D01*
X68175Y155439D01*
X68161Y155529D01*
X68153Y155620D01*
X68141Y155650D01*
X68136Y155682D01*
X68093Y155762D01*
X68057Y155846D01*
X68031Y155878D01*
X68020Y155899D01*
X67997Y155921D01*
X67952Y155977D01*
X61759Y162170D01*
X61685Y162223D01*
X61616Y162283D01*
X61586Y162295D01*
X61559Y162314D01*
X61472Y162341D01*
X61388Y162375D01*
X61347Y162379D01*
X61324Y162386D01*
X61292Y162385D01*
X61221Y162393D01*
X57885Y162393D01*
X56824Y163454D01*
X56766Y163496D01*
X56714Y163545D01*
X56667Y163567D01*
X56625Y163597D01*
X56556Y163618D01*
X56491Y163649D01*
X56439Y163654D01*
X56389Y163670D01*
X56318Y163668D01*
X56247Y163676D01*
X56196Y163665D01*
X56144Y163663D01*
X56076Y163639D01*
X56006Y163623D01*
X55961Y163597D01*
X55913Y163579D01*
X55857Y163534D01*
X55795Y163497D01*
X55761Y163458D01*
X55721Y163425D01*
X55682Y163365D01*
X55635Y163310D01*
X55616Y163262D01*
X55588Y163218D01*
X55570Y163149D01*
X55543Y163082D01*
X55535Y163011D01*
X55527Y162980D01*
X55529Y162956D01*
X55525Y162915D01*
X55525Y159454D01*
X48411Y152340D01*
X48369Y152282D01*
X48320Y152230D01*
X48298Y152183D01*
X48267Y152141D01*
X48246Y152072D01*
X48216Y152007D01*
X48210Y151955D01*
X48195Y151905D01*
X48197Y151834D01*
X48189Y151763D01*
X48200Y151712D01*
X48201Y151660D01*
X48226Y151592D01*
X48241Y151522D01*
X48268Y151477D01*
X48286Y151429D01*
X48331Y151373D01*
X48367Y151311D01*
X48407Y151277D01*
X48439Y151237D01*
X48500Y151198D01*
X48554Y151151D01*
X48603Y151132D01*
X48646Y151104D01*
X48716Y151086D01*
X48782Y151059D01*
X48854Y151051D01*
X48885Y151043D01*
X48908Y151045D01*
X48949Y151041D01*
X52177Y151041D01*
X52177Y144262D01*
X52180Y144242D01*
X52178Y144223D01*
X52200Y144121D01*
X52217Y144019D01*
X52226Y144002D01*
X52230Y143982D01*
X52283Y143893D01*
X52332Y143802D01*
X52346Y143788D01*
X52356Y143771D01*
X52435Y143704D01*
X52510Y143633D01*
X52528Y143624D01*
X52543Y143611D01*
X52639Y143572D01*
X52733Y143529D01*
X52753Y143527D01*
X52771Y143519D01*
X52938Y143501D01*
X53701Y143501D01*
X53701Y142738D01*
X53704Y142718D01*
X53702Y142699D01*
X53724Y142597D01*
X53741Y142495D01*
X53750Y142478D01*
X53754Y142458D01*
X53807Y142369D01*
X53856Y142278D01*
X53870Y142264D01*
X53880Y142247D01*
X53959Y142180D01*
X54034Y142109D01*
X54052Y142100D01*
X54067Y142087D01*
X54163Y142048D01*
X54257Y142005D01*
X54277Y142003D01*
X54295Y141995D01*
X54462Y141977D01*
X61741Y141977D01*
X61741Y138166D01*
X61665Y137883D01*
X61653Y137764D01*
X61640Y137647D01*
X61641Y137642D01*
X61641Y137638D01*
X61667Y137523D01*
X61692Y137406D01*
X61694Y137403D01*
X61695Y137399D01*
X61758Y137297D01*
X61819Y137195D01*
X61822Y137192D01*
X61824Y137189D01*
X61915Y137112D01*
X62005Y137035D01*
X62009Y137034D01*
X62013Y137031D01*
X62123Y136988D01*
X62234Y136943D01*
X62239Y136943D01*
X62242Y136941D01*
X62255Y136941D01*
X62400Y136925D01*
X62914Y136925D01*
X62934Y136928D01*
G37*
%LPC*%
G36*
X14468Y85725D02*
X14468Y85725D01*
X13575Y86618D01*
X13575Y93882D01*
X14468Y94775D01*
X27732Y94775D01*
X28625Y93882D01*
X28625Y86618D01*
X27732Y85725D01*
X14468Y85725D01*
G37*
%LPD*%
%LPC*%
G36*
X14468Y98425D02*
X14468Y98425D01*
X13575Y99318D01*
X13575Y106582D01*
X14468Y107475D01*
X27732Y107475D01*
X28625Y106582D01*
X28625Y99318D01*
X27732Y98425D01*
X14468Y98425D01*
G37*
%LPD*%
%LPC*%
G36*
X14468Y73025D02*
X14468Y73025D01*
X13575Y73918D01*
X13575Y81182D01*
X14468Y82075D01*
X27732Y82075D01*
X28625Y81182D01*
X28625Y73918D01*
X27732Y73025D01*
X14468Y73025D01*
G37*
%LPD*%
%LPC*%
G36*
X115751Y134761D02*
X115751Y134761D01*
X114658Y135391D01*
X113766Y136283D01*
X113136Y137376D01*
X112809Y138594D01*
X112809Y138626D01*
X112806Y138646D01*
X112808Y138665D01*
X112786Y138767D01*
X112770Y138869D01*
X112760Y138886D01*
X112756Y138906D01*
X112703Y138995D01*
X112654Y139086D01*
X112640Y139100D01*
X112630Y139117D01*
X112551Y139184D01*
X112476Y139256D01*
X112458Y139264D01*
X112443Y139277D01*
X112347Y139316D01*
X112253Y139359D01*
X112233Y139361D01*
X112215Y139369D01*
X112048Y139387D01*
X110996Y139387D01*
X110995Y139388D01*
X110995Y153612D01*
X110996Y153613D01*
X112048Y153613D01*
X112068Y153616D01*
X112087Y153614D01*
X112189Y153636D01*
X112291Y153652D01*
X112308Y153662D01*
X112328Y153666D01*
X112417Y153719D01*
X112508Y153768D01*
X112522Y153782D01*
X112539Y153792D01*
X112606Y153871D01*
X112678Y153946D01*
X112686Y153964D01*
X112699Y153979D01*
X112738Y154075D01*
X112781Y154169D01*
X112783Y154189D01*
X112791Y154207D01*
X112809Y154374D01*
X112809Y154406D01*
X113136Y155624D01*
X113766Y156717D01*
X114658Y157609D01*
X115751Y158239D01*
X116476Y158433D01*
X116476Y146863D01*
X116479Y146844D01*
X116477Y146824D01*
X116499Y146722D01*
X116515Y146620D01*
X116525Y146603D01*
X116529Y146583D01*
X116576Y146505D01*
X116547Y146435D01*
X116504Y146342D01*
X116502Y146322D01*
X116494Y146304D01*
X116476Y146137D01*
X116476Y134567D01*
X115751Y134761D01*
G37*
%LPD*%
%LPC*%
G36*
X118724Y146137D02*
X118724Y146137D01*
X118721Y146156D01*
X118723Y146176D01*
X118701Y146278D01*
X118685Y146380D01*
X118675Y146397D01*
X118671Y146417D01*
X118624Y146495D01*
X118653Y146565D01*
X118696Y146658D01*
X118698Y146678D01*
X118706Y146696D01*
X118724Y146863D01*
X118724Y158433D01*
X119449Y158239D01*
X120542Y157609D01*
X121434Y156717D01*
X122064Y155624D01*
X122391Y154406D01*
X122391Y154374D01*
X122394Y154354D01*
X122392Y154335D01*
X122414Y154233D01*
X122430Y154131D01*
X122440Y154114D01*
X122444Y154094D01*
X122497Y154005D01*
X122546Y153914D01*
X122560Y153900D01*
X122570Y153883D01*
X122649Y153816D01*
X122724Y153744D01*
X122742Y153736D01*
X122757Y153723D01*
X122853Y153684D01*
X122947Y153641D01*
X122967Y153639D01*
X122985Y153631D01*
X123152Y153613D01*
X123950Y153613D01*
X123951Y153612D01*
X123951Y139388D01*
X123950Y139387D01*
X123152Y139387D01*
X123132Y139384D01*
X123113Y139386D01*
X123011Y139364D01*
X122909Y139348D01*
X122892Y139338D01*
X122872Y139334D01*
X122783Y139281D01*
X122692Y139232D01*
X122678Y139218D01*
X122661Y139208D01*
X122594Y139129D01*
X122522Y139054D01*
X122514Y139036D01*
X122501Y139021D01*
X122462Y138925D01*
X122419Y138831D01*
X122417Y138811D01*
X122409Y138793D01*
X122391Y138626D01*
X122391Y138594D01*
X122064Y137376D01*
X121434Y136283D01*
X120542Y135391D01*
X119449Y134761D01*
X118724Y134567D01*
X118724Y146137D01*
G37*
%LPD*%
G36*
X163616Y160268D02*
X163616Y160268D01*
X163635Y160266D01*
X163737Y160288D01*
X163839Y160304D01*
X163856Y160314D01*
X163876Y160318D01*
X163965Y160371D01*
X164056Y160420D01*
X164070Y160434D01*
X164087Y160444D01*
X164154Y160523D01*
X164226Y160598D01*
X164234Y160616D01*
X164247Y160631D01*
X164286Y160727D01*
X164329Y160821D01*
X164331Y160841D01*
X164339Y160859D01*
X164357Y161026D01*
X164357Y162059D01*
X170962Y162059D01*
X170981Y162062D01*
X171001Y162060D01*
X171102Y162082D01*
X171204Y162098D01*
X171222Y162108D01*
X171241Y162112D01*
X171331Y162165D01*
X171422Y162213D01*
X171435Y162228D01*
X171453Y162238D01*
X171520Y162317D01*
X171591Y162392D01*
X171600Y162410D01*
X171613Y162425D01*
X171651Y162521D01*
X171695Y162615D01*
X171697Y162635D01*
X171704Y162653D01*
X171723Y162820D01*
X171720Y162840D01*
X171722Y162859D01*
X171722Y162860D01*
X171700Y162961D01*
X171683Y163063D01*
X171674Y163080D01*
X171670Y163100D01*
X171616Y163189D01*
X171568Y163280D01*
X171554Y163294D01*
X171543Y163311D01*
X171465Y163378D01*
X171390Y163450D01*
X171372Y163458D01*
X171357Y163471D01*
X171260Y163510D01*
X171167Y163553D01*
X171147Y163555D01*
X171128Y163563D01*
X170962Y163581D01*
X164357Y163581D01*
X164357Y164360D01*
X164354Y164380D01*
X164356Y164399D01*
X164334Y164501D01*
X164318Y164603D01*
X164308Y164620D01*
X164304Y164640D01*
X164251Y164729D01*
X164202Y164820D01*
X164188Y164834D01*
X164178Y164851D01*
X164099Y164918D01*
X164024Y164990D01*
X164006Y164998D01*
X163991Y165011D01*
X163895Y165050D01*
X163801Y165093D01*
X163781Y165095D01*
X163763Y165103D01*
X163596Y165121D01*
X151368Y165121D01*
X151348Y165118D01*
X151329Y165120D01*
X151227Y165098D01*
X151125Y165082D01*
X151108Y165072D01*
X151088Y165068D01*
X150999Y165015D01*
X150908Y164966D01*
X150894Y164952D01*
X150877Y164942D01*
X150810Y164863D01*
X150738Y164788D01*
X150730Y164770D01*
X150717Y164755D01*
X150678Y164659D01*
X150635Y164565D01*
X150633Y164545D01*
X150625Y164527D01*
X150607Y164360D01*
X150607Y163385D01*
X148786Y161564D01*
X148744Y161506D01*
X148695Y161454D01*
X148673Y161407D01*
X148643Y161365D01*
X148622Y161296D01*
X148591Y161231D01*
X148586Y161179D01*
X148570Y161129D01*
X148572Y161058D01*
X148564Y160987D01*
X148575Y160936D01*
X148577Y160884D01*
X148601Y160816D01*
X148617Y160746D01*
X148643Y160701D01*
X148661Y160653D01*
X148706Y160597D01*
X148743Y160535D01*
X148782Y160501D01*
X148815Y160461D01*
X148875Y160422D01*
X148930Y160375D01*
X148978Y160356D01*
X149022Y160328D01*
X149091Y160310D01*
X149158Y160283D01*
X149229Y160275D01*
X149260Y160267D01*
X149284Y160269D01*
X149325Y160265D01*
X163596Y160265D01*
X163616Y160268D01*
G37*
%LPC*%
G36*
X161923Y306123D02*
X161923Y306123D01*
X161923Y315932D01*
X163077Y315749D01*
X164788Y315193D01*
X166391Y314376D01*
X167847Y313319D01*
X169119Y312047D01*
X170176Y310591D01*
X170993Y308988D01*
X171549Y307277D01*
X171732Y306123D01*
X161923Y306123D01*
G37*
%LPD*%
%LPC*%
G36*
X149068Y306123D02*
X149068Y306123D01*
X149251Y307277D01*
X149807Y308988D01*
X150624Y310591D01*
X151681Y312047D01*
X152953Y313319D01*
X154409Y314376D01*
X156012Y315193D01*
X157723Y315749D01*
X158877Y315932D01*
X158877Y306123D01*
X149068Y306123D01*
G37*
%LPD*%
%LPC*%
G36*
X161923Y303077D02*
X161923Y303077D01*
X171732Y303077D01*
X171549Y301923D01*
X170993Y300212D01*
X170176Y298609D01*
X169119Y297153D01*
X167847Y295881D01*
X166391Y294824D01*
X164788Y294007D01*
X163077Y293451D01*
X161923Y293268D01*
X161923Y303077D01*
G37*
%LPD*%
%LPC*%
G36*
X157723Y293451D02*
X157723Y293451D01*
X156012Y294007D01*
X154409Y294824D01*
X152953Y295881D01*
X151681Y297153D01*
X150624Y298609D01*
X149807Y300212D01*
X149251Y301923D01*
X149068Y303077D01*
X158877Y303077D01*
X158877Y293268D01*
X157723Y293451D01*
G37*
%LPD*%
G36*
X163616Y150028D02*
X163616Y150028D01*
X163635Y150026D01*
X163737Y150048D01*
X163839Y150064D01*
X163856Y150074D01*
X163876Y150078D01*
X163965Y150131D01*
X164056Y150180D01*
X164070Y150194D01*
X164087Y150204D01*
X164154Y150283D01*
X164226Y150358D01*
X164234Y150376D01*
X164247Y150391D01*
X164286Y150487D01*
X164329Y150581D01*
X164331Y150601D01*
X164339Y150619D01*
X164357Y150786D01*
X164357Y151899D01*
X170962Y151899D01*
X170981Y151902D01*
X171001Y151900D01*
X171102Y151922D01*
X171204Y151938D01*
X171222Y151948D01*
X171241Y151952D01*
X171331Y152005D01*
X171422Y152053D01*
X171435Y152068D01*
X171453Y152078D01*
X171520Y152157D01*
X171591Y152232D01*
X171600Y152250D01*
X171613Y152265D01*
X171651Y152361D01*
X171695Y152455D01*
X171697Y152475D01*
X171704Y152493D01*
X171723Y152660D01*
X171720Y152680D01*
X171722Y152699D01*
X171722Y152700D01*
X171700Y152801D01*
X171683Y152903D01*
X171674Y152920D01*
X171670Y152940D01*
X171616Y153029D01*
X171568Y153120D01*
X171554Y153134D01*
X171543Y153151D01*
X171465Y153218D01*
X171390Y153290D01*
X171372Y153298D01*
X171357Y153311D01*
X171260Y153350D01*
X171167Y153393D01*
X171147Y153395D01*
X171128Y153403D01*
X170962Y153421D01*
X164357Y153421D01*
X164357Y154454D01*
X164354Y154474D01*
X164356Y154493D01*
X164334Y154595D01*
X164318Y154697D01*
X164308Y154714D01*
X164304Y154734D01*
X164251Y154823D01*
X164202Y154914D01*
X164188Y154928D01*
X164178Y154945D01*
X164099Y155012D01*
X164024Y155084D01*
X164006Y155092D01*
X163991Y155105D01*
X163895Y155144D01*
X163801Y155187D01*
X163781Y155189D01*
X163763Y155197D01*
X163596Y155215D01*
X159101Y155215D01*
X159011Y155201D01*
X158920Y155193D01*
X158890Y155181D01*
X158858Y155176D01*
X158778Y155133D01*
X158694Y155097D01*
X158662Y155071D01*
X158641Y155060D01*
X158619Y155037D01*
X158563Y154992D01*
X154895Y151324D01*
X154853Y151266D01*
X154804Y151214D01*
X154782Y151167D01*
X154751Y151125D01*
X154730Y151056D01*
X154700Y150991D01*
X154694Y150939D01*
X154679Y150889D01*
X154681Y150818D01*
X154673Y150747D01*
X154684Y150696D01*
X154685Y150644D01*
X154710Y150576D01*
X154725Y150506D01*
X154752Y150462D01*
X154770Y150413D01*
X154815Y150357D01*
X154851Y150295D01*
X154891Y150261D01*
X154923Y150221D01*
X154984Y150182D01*
X155038Y150135D01*
X155087Y150116D01*
X155130Y150088D01*
X155200Y150070D01*
X155266Y150043D01*
X155338Y150035D01*
X155369Y150027D01*
X155392Y150029D01*
X155433Y150025D01*
X163596Y150025D01*
X163616Y150028D01*
G37*
%LPC*%
G36*
X341823Y86123D02*
X341823Y86123D01*
X341823Y92141D01*
X346134Y92141D01*
X346781Y91968D01*
X347360Y91633D01*
X347833Y91160D01*
X348168Y90581D01*
X348341Y89934D01*
X348341Y86123D01*
X341823Y86123D01*
G37*
%LPD*%
%LPC*%
G36*
X55223Y145023D02*
X55223Y145023D01*
X55223Y151041D01*
X59534Y151041D01*
X60181Y150868D01*
X60760Y150533D01*
X61233Y150060D01*
X61568Y149481D01*
X61741Y148834D01*
X61741Y145023D01*
X55223Y145023D01*
G37*
%LPD*%
%LPC*%
G36*
X121023Y50023D02*
X121023Y50023D01*
X121023Y56041D01*
X125334Y56041D01*
X125981Y55868D01*
X126560Y55533D01*
X127033Y55060D01*
X127368Y54481D01*
X127541Y53834D01*
X127541Y50023D01*
X121023Y50023D01*
G37*
%LPD*%
%LPC*%
G36*
X337723Y178623D02*
X337723Y178623D01*
X337723Y184641D01*
X342034Y184641D01*
X342681Y184468D01*
X343260Y184133D01*
X343733Y183660D01*
X344068Y183081D01*
X344241Y182434D01*
X344241Y178623D01*
X337723Y178623D01*
G37*
%LPD*%
%LPC*%
G36*
X333923Y281123D02*
X333923Y281123D01*
X333923Y287141D01*
X338234Y287141D01*
X338881Y286968D01*
X339460Y286633D01*
X339933Y286160D01*
X340268Y285581D01*
X340441Y284934D01*
X340441Y281123D01*
X333923Y281123D01*
G37*
%LPD*%
%LPC*%
G36*
X267523Y159123D02*
X267523Y159123D01*
X267523Y165641D01*
X271335Y165641D01*
X271981Y165468D01*
X272560Y165133D01*
X273033Y164660D01*
X273368Y164081D01*
X273541Y163434D01*
X273541Y159123D01*
X267523Y159123D01*
G37*
%LPD*%
%LPC*%
G36*
X16723Y303859D02*
X16723Y303859D01*
X16723Y310377D01*
X22741Y310377D01*
X22741Y306066D01*
X22568Y305419D01*
X22233Y304840D01*
X21760Y304367D01*
X21181Y304032D01*
X20534Y303859D01*
X16723Y303859D01*
G37*
%LPD*%
%LPC*%
G36*
X324359Y281123D02*
X324359Y281123D01*
X324359Y284934D01*
X324532Y285581D01*
X324867Y286160D01*
X325340Y286633D01*
X325919Y286968D01*
X326566Y287141D01*
X330877Y287141D01*
X330877Y281123D01*
X324359Y281123D01*
G37*
%LPD*%
%LPC*%
G36*
X267523Y149559D02*
X267523Y149559D01*
X267523Y156077D01*
X273541Y156077D01*
X273541Y151766D01*
X273368Y151119D01*
X273033Y150540D01*
X272560Y150067D01*
X271981Y149732D01*
X271334Y149559D01*
X267523Y149559D01*
G37*
%LPD*%
%LPC*%
G36*
X172759Y108823D02*
X172759Y108823D01*
X172759Y112634D01*
X172932Y113281D01*
X173267Y113860D01*
X173740Y114333D01*
X174319Y114668D01*
X174966Y114841D01*
X179277Y114841D01*
X179277Y108823D01*
X172759Y108823D01*
G37*
%LPD*%
%LPC*%
G36*
X36323Y302659D02*
X36323Y302659D01*
X36323Y309177D01*
X42341Y309177D01*
X42341Y304866D01*
X42168Y304219D01*
X41833Y303640D01*
X41360Y303167D01*
X40781Y302832D01*
X40134Y302659D01*
X36323Y302659D01*
G37*
%LPD*%
%LPC*%
G36*
X111459Y50023D02*
X111459Y50023D01*
X111459Y53834D01*
X111632Y54481D01*
X111967Y55060D01*
X112440Y55533D01*
X113019Y55868D01*
X113666Y56041D01*
X117977Y56041D01*
X117977Y50023D01*
X111459Y50023D01*
G37*
%LPD*%
%LPC*%
G36*
X258459Y159123D02*
X258459Y159123D01*
X258459Y163434D01*
X258632Y164081D01*
X258967Y164660D01*
X259440Y165133D01*
X260019Y165468D01*
X260666Y165641D01*
X264477Y165641D01*
X264477Y159123D01*
X258459Y159123D01*
G37*
%LPD*%
%LPC*%
G36*
X182323Y99759D02*
X182323Y99759D01*
X182323Y105777D01*
X188841Y105777D01*
X188841Y101965D01*
X188668Y101319D01*
X188333Y100740D01*
X187860Y100267D01*
X187281Y99932D01*
X186634Y99759D01*
X182323Y99759D01*
G37*
%LPD*%
%LPC*%
G36*
X341823Y77059D02*
X341823Y77059D01*
X341823Y83077D01*
X348341Y83077D01*
X348341Y79265D01*
X348168Y78619D01*
X347833Y78040D01*
X347360Y77567D01*
X346781Y77232D01*
X346134Y77059D01*
X341823Y77059D01*
G37*
%LPD*%
%LPC*%
G36*
X337723Y169559D02*
X337723Y169559D01*
X337723Y175577D01*
X344241Y175577D01*
X344241Y171765D01*
X344068Y171119D01*
X343733Y170540D01*
X343260Y170067D01*
X342681Y169732D01*
X342034Y169559D01*
X337723Y169559D01*
G37*
%LPD*%
%LPC*%
G36*
X333923Y272059D02*
X333923Y272059D01*
X333923Y278077D01*
X340441Y278077D01*
X340441Y274265D01*
X340268Y273619D01*
X339933Y273040D01*
X339460Y272567D01*
X338881Y272232D01*
X338234Y272059D01*
X333923Y272059D01*
G37*
%LPD*%
%LPC*%
G36*
X29466Y302659D02*
X29466Y302659D01*
X28819Y302832D01*
X28240Y303167D01*
X27767Y303640D01*
X27432Y304219D01*
X27259Y304866D01*
X27259Y309177D01*
X33277Y309177D01*
X33277Y302659D01*
X29466Y302659D01*
G37*
%LPD*%
%LPC*%
G36*
X326566Y272059D02*
X326566Y272059D01*
X325919Y272232D01*
X325340Y272567D01*
X324867Y273040D01*
X324532Y273619D01*
X324359Y274266D01*
X324359Y278077D01*
X330877Y278077D01*
X330877Y272059D01*
X326566Y272059D01*
G37*
%LPD*%
%LPC*%
G36*
X174966Y99759D02*
X174966Y99759D01*
X174319Y99932D01*
X173740Y100267D01*
X173267Y100740D01*
X172932Y101319D01*
X172759Y101966D01*
X172759Y105777D01*
X179277Y105777D01*
X179277Y99759D01*
X174966Y99759D01*
G37*
%LPD*%
%LPC*%
G36*
X26153Y224723D02*
X26153Y224723D01*
X26153Y230741D01*
X28662Y230741D01*
X29690Y230465D01*
X30611Y229933D01*
X31363Y229181D01*
X31895Y228260D01*
X32171Y227232D01*
X32171Y224723D01*
X26153Y224723D01*
G37*
%LPD*%
%LPC*%
G36*
X305193Y306659D02*
X305193Y306659D01*
X305193Y312677D01*
X311211Y312677D01*
X311211Y310168D01*
X310935Y309140D01*
X310403Y308219D01*
X309651Y307467D01*
X308730Y306935D01*
X307702Y306659D01*
X305193Y306659D01*
G37*
%LPD*%
%LPC*%
G36*
X17089Y224723D02*
X17089Y224723D01*
X17089Y227232D01*
X17365Y228260D01*
X17897Y229181D01*
X18649Y229933D01*
X19570Y230465D01*
X20598Y230741D01*
X23107Y230741D01*
X23107Y224723D01*
X17089Y224723D01*
G37*
%LPD*%
%LPC*%
G36*
X26153Y215659D02*
X26153Y215659D01*
X26153Y221677D01*
X32171Y221677D01*
X32171Y219168D01*
X31895Y218140D01*
X31363Y217219D01*
X30611Y216467D01*
X29690Y215935D01*
X28662Y215659D01*
X26153Y215659D01*
G37*
%LPD*%
%LPC*%
G36*
X299638Y306659D02*
X299638Y306659D01*
X298610Y306935D01*
X297689Y307467D01*
X296937Y308219D01*
X296405Y309140D01*
X296129Y310168D01*
X296129Y312677D01*
X302147Y312677D01*
X302147Y306659D01*
X299638Y306659D01*
G37*
%LPD*%
%LPC*%
G36*
X78599Y28249D02*
X78599Y28249D01*
X78599Y32291D01*
X83434Y32291D01*
X84081Y32118D01*
X84660Y31783D01*
X85133Y31310D01*
X85468Y30731D01*
X85641Y30084D01*
X85641Y28249D01*
X78599Y28249D01*
G37*
%LPD*%
%LPC*%
G36*
X68559Y28249D02*
X68559Y28249D01*
X68559Y30084D01*
X68732Y30731D01*
X69067Y31310D01*
X69540Y31783D01*
X70119Y32118D01*
X70766Y32291D01*
X75601Y32291D01*
X75601Y28249D01*
X68559Y28249D01*
G37*
%LPD*%
%LPC*%
G36*
X78599Y21209D02*
X78599Y21209D01*
X78599Y25251D01*
X85641Y25251D01*
X85641Y23416D01*
X85468Y22769D01*
X85133Y22190D01*
X84660Y21717D01*
X84081Y21382D01*
X83434Y21209D01*
X78599Y21209D01*
G37*
%LPD*%
%LPC*%
G36*
X70766Y21209D02*
X70766Y21209D01*
X70119Y21382D01*
X69540Y21717D01*
X69067Y22190D01*
X68732Y22769D01*
X68559Y23416D01*
X68559Y25251D01*
X75601Y25251D01*
X75601Y21209D01*
X70766Y21209D01*
G37*
%LPD*%
%LPC*%
G36*
X54423Y244577D02*
X54423Y244577D01*
X59941Y244577D01*
X59941Y241765D01*
X59768Y241119D01*
X59433Y240540D01*
X58960Y240067D01*
X58381Y239732D01*
X57734Y239559D01*
X54423Y239559D01*
X54423Y244577D01*
G37*
%LPD*%
%LPC*%
G36*
X54299Y310459D02*
X54299Y310459D01*
X54299Y314501D01*
X59841Y314501D01*
X59841Y312666D01*
X59668Y312019D01*
X59333Y311440D01*
X58860Y310967D01*
X58281Y310632D01*
X57634Y310459D01*
X54299Y310459D01*
G37*
%LPD*%
%LPC*%
G36*
X47966Y310459D02*
X47966Y310459D01*
X47319Y310632D01*
X46740Y310967D01*
X46267Y311440D01*
X45932Y312019D01*
X45759Y312666D01*
X45759Y314501D01*
X51301Y314501D01*
X51301Y310459D01*
X47966Y310459D01*
G37*
%LPD*%
%LPC*%
G36*
X160399Y304599D02*
X160399Y304599D01*
X160399Y304601D01*
X160401Y304601D01*
X160401Y304599D01*
X160399Y304599D01*
G37*
%LPD*%
%LPC*%
G36*
X24629Y223199D02*
X24629Y223199D01*
X24629Y223201D01*
X24631Y223201D01*
X24631Y223199D01*
X24629Y223199D01*
G37*
%LPD*%
%LPC*%
G36*
X180799Y107299D02*
X180799Y107299D01*
X180799Y107301D01*
X180801Y107301D01*
X180801Y107299D01*
X180799Y107299D01*
G37*
%LPD*%
%LPC*%
G36*
X265999Y157599D02*
X265999Y157599D01*
X265999Y157601D01*
X266001Y157601D01*
X266001Y157599D01*
X265999Y157599D01*
G37*
%LPD*%
%LPC*%
G36*
X332399Y279599D02*
X332399Y279599D01*
X332399Y279601D01*
X332401Y279601D01*
X332401Y279599D01*
X332399Y279599D01*
G37*
%LPD*%
D10*
X266000Y140600D03*
X266000Y157600D03*
D11*
X119500Y48500D03*
X102500Y48500D03*
D10*
X318500Y70400D03*
X318500Y87400D03*
D11*
X70700Y143500D03*
X53700Y143500D03*
D10*
X34800Y293700D03*
X34800Y310700D03*
X15200Y311900D03*
X15200Y294900D03*
D12*
X236600Y304600D03*
X211200Y304600D03*
X185800Y304600D03*
X160400Y304600D03*
D13*
X38670Y226700D02*
X38670Y219700D01*
X38670Y226700D02*
X45670Y226700D01*
X45670Y219700D01*
X38670Y219700D01*
X38670Y222550D02*
X45670Y222550D01*
X45670Y225400D02*
X38670Y225400D01*
X21130Y226700D02*
X21130Y219700D01*
X21130Y226700D02*
X28130Y226700D01*
X28130Y219700D01*
X21130Y219700D01*
X21130Y222550D02*
X28130Y222550D01*
X28130Y225400D02*
X21130Y225400D01*
X289630Y310700D02*
X289630Y317700D01*
X289630Y310700D02*
X282630Y310700D01*
X282630Y317700D01*
X289630Y317700D01*
X289630Y313550D02*
X282630Y313550D01*
X282630Y316400D02*
X289630Y316400D01*
X307170Y317700D02*
X307170Y310700D01*
X300170Y310700D01*
X300170Y317700D01*
X307170Y317700D01*
X307170Y313550D02*
X300170Y313550D01*
X300170Y316400D02*
X307170Y316400D01*
D14*
X52800Y316000D03*
X52800Y297000D03*
X80800Y306500D03*
D15*
X258200Y24100D03*
X237200Y24100D03*
X197300Y23600D03*
X218300Y23600D03*
D16*
X338800Y29700D03*
X324200Y29700D03*
X309600Y29700D03*
X353500Y29700D03*
D17*
X52900Y265100D03*
X52900Y246100D03*
X73900Y255600D03*
D10*
X88500Y142000D03*
X88500Y159000D03*
D11*
X332400Y279600D03*
X349400Y279600D03*
X340300Y84600D03*
X357300Y84600D03*
X336200Y177100D03*
X353200Y177100D03*
X274500Y24100D03*
X291500Y24100D03*
X180600Y19900D03*
X163600Y19900D03*
X130300Y107700D03*
X147300Y107700D03*
D10*
X33500Y134400D03*
X33500Y151400D03*
D11*
X180800Y107300D03*
X163800Y107300D03*
X68900Y204800D03*
X51900Y204800D03*
D10*
X259800Y290500D03*
X259800Y307500D03*
X37800Y172400D03*
X37800Y189400D03*
X21300Y171800D03*
X21300Y188800D03*
X15400Y134100D03*
X15400Y151100D03*
X267900Y183500D03*
X267900Y200500D03*
X24600Y264500D03*
X24600Y247500D03*
D18*
X379700Y275100D03*
X379700Y212100D03*
X380700Y92800D03*
X380700Y29800D03*
X380700Y180700D03*
X380700Y117700D03*
D19*
X170962Y172726D03*
X170962Y167646D03*
X170962Y162820D03*
X170962Y157740D03*
X170962Y152660D03*
X170962Y147580D03*
X170962Y142754D03*
X170962Y137674D03*
D20*
X178074Y130562D03*
X183154Y130562D03*
X187980Y130562D03*
X193060Y130562D03*
X198140Y130562D03*
X203220Y130562D03*
X208046Y130562D03*
X213126Y130562D03*
D19*
X220238Y137674D03*
X220238Y142754D03*
X220238Y147580D03*
X220238Y152660D03*
X220238Y157740D03*
X220238Y162820D03*
X220238Y167646D03*
X220238Y172726D03*
D20*
X213126Y179838D03*
X208046Y179838D03*
X203220Y179838D03*
X198140Y179838D03*
X193060Y179838D03*
X187980Y179838D03*
X183154Y179838D03*
X178074Y179838D03*
D21*
X195600Y155200D03*
D22*
X77100Y26750D03*
X77100Y39450D03*
X77100Y52150D03*
X77100Y64850D03*
X77100Y77550D03*
X77100Y90250D03*
X77100Y102950D03*
X77100Y115650D03*
X21100Y115650D03*
X21100Y102950D03*
X21100Y90250D03*
X21100Y77550D03*
X21100Y64850D03*
X21100Y52150D03*
X21100Y39450D03*
X21100Y26750D03*
D23*
X105600Y139225D02*
X105600Y153775D01*
X117600Y153775D02*
X117600Y139225D01*
X129600Y139225D02*
X129600Y153775D01*
D24*
X105600Y156660D02*
X105600Y146500D01*
X105600Y136340D01*
X129600Y146500D02*
X129600Y156660D01*
X129600Y146500D02*
X129600Y136340D01*
X117600Y146500D02*
X117600Y156660D01*
X117600Y146500D02*
X117600Y136340D01*
D25*
X253940Y152660D02*
X266000Y140600D01*
X253940Y152660D02*
X220238Y152660D01*
X163400Y107700D02*
X147300Y107700D01*
X163400Y107700D02*
X163800Y107300D01*
D26*
X249000Y109000D03*
X225000Y56000D03*
D25*
X147300Y82700D02*
X147300Y107700D01*
X222000Y53000D02*
X225000Y56000D01*
X177000Y53000D02*
X147300Y82700D01*
X177000Y53000D02*
X222000Y53000D01*
X220238Y167646D02*
X254646Y167646D01*
X257000Y170000D02*
X284000Y170000D01*
X284000Y122000D01*
X271000Y109000D01*
X249000Y109000D01*
X254646Y167646D02*
X257000Y170000D01*
X203220Y271220D02*
X236600Y304600D01*
X203220Y271220D02*
X203220Y179838D01*
X198140Y291540D02*
X211200Y304600D01*
X198140Y291540D02*
X198140Y179838D01*
X193060Y179838D02*
X192500Y180398D01*
X267900Y183500D02*
X291500Y183500D01*
X317000Y158000D01*
D26*
X317000Y110000D03*
X302500Y70500D03*
D25*
X317000Y110000D02*
X317000Y158000D01*
D26*
X190000Y202500D03*
X210000Y210000D03*
D25*
X193060Y199440D02*
X193060Y179838D01*
X193060Y199440D02*
X190000Y202500D01*
X210000Y210000D02*
X220000Y200000D01*
X220000Y185000D01*
X221500Y183500D01*
X267900Y183500D01*
X317400Y71500D02*
X318500Y70400D01*
X318400Y70500D02*
X302500Y70500D01*
X318400Y70500D02*
X318500Y70400D01*
X327540Y66476D02*
X341524Y66476D01*
X323616Y70400D02*
X318500Y70400D01*
X323616Y70400D02*
X327540Y66476D01*
X347000Y61000D02*
X347000Y47000D01*
X348000Y46000D01*
X353000Y46000D01*
X353500Y45500D01*
X353500Y29700D01*
X347000Y61000D02*
X341524Y66476D01*
X187980Y179838D02*
X187980Y194520D01*
X187500Y195000D01*
X106000Y195000D01*
X49000Y195000D01*
X40400Y172400D02*
X40000Y172400D01*
D26*
X45000Y255000D03*
D25*
X40000Y172400D02*
X37800Y172400D01*
X45000Y255000D02*
X60000Y255000D01*
X106000Y209000D02*
X106000Y195000D01*
X106000Y209000D02*
X60000Y255000D01*
X49000Y181000D02*
X40400Y172400D01*
X49000Y181000D02*
X49000Y195000D01*
X33500Y165900D02*
X33500Y151400D01*
X33500Y165900D02*
X40000Y172400D01*
X183154Y179838D02*
X183154Y190000D01*
X21300Y171800D02*
X21300Y170500D01*
X21300Y157000D01*
X15400Y151100D01*
X16400Y151100D01*
X53000Y190000D02*
X183154Y190000D01*
X53000Y190000D02*
X53000Y160500D01*
X42500Y150000D01*
X42500Y142500D02*
X25000Y142500D01*
X16400Y151100D01*
D26*
X115000Y286000D03*
D25*
X42500Y150000D02*
X42500Y142500D01*
X97000Y268000D02*
X115000Y286000D01*
X64000Y268000D02*
X53000Y279000D01*
X14000Y279000D01*
X13000Y278000D01*
X13000Y172000D01*
X14500Y170500D01*
X21300Y170500D01*
X64000Y268000D02*
X97000Y268000D01*
X349400Y260000D02*
X349400Y279600D01*
X349400Y260000D02*
X349400Y223100D01*
X360400Y212100D02*
X379700Y212100D01*
X360400Y212100D02*
X349400Y223100D01*
X178074Y179838D02*
X160162Y179838D01*
X160000Y180000D01*
D26*
X152500Y180000D03*
D25*
X152662Y179838D02*
X160162Y179838D01*
X152662Y179838D02*
X152500Y180000D01*
D26*
X260000Y232500D03*
D25*
X287500Y260000D01*
X349400Y260000D01*
X357300Y84600D02*
X357300Y64200D01*
X380700Y40800D01*
X380700Y29800D01*
X170962Y172726D02*
X144774Y172726D01*
D26*
X137500Y180000D03*
D25*
X144774Y172726D01*
D26*
X230000Y210000D03*
D25*
X310000Y210000D01*
X325000Y195000D01*
X325000Y134000D01*
X357300Y101700D01*
X357300Y84600D01*
X353200Y124300D02*
X353200Y177100D01*
X353200Y124300D02*
X355000Y122500D01*
X375900Y122500D01*
X380700Y117700D01*
D26*
X145500Y165500D03*
X245000Y220000D03*
D25*
X353200Y194300D02*
X353200Y177100D01*
X353200Y194300D02*
X327500Y220000D01*
X245000Y220000D01*
X170962Y167646D02*
X147646Y167646D01*
X145500Y165500D01*
D26*
X157500Y122500D03*
D25*
X170012Y122500D02*
X178074Y130562D01*
X170012Y122500D02*
X157500Y122500D01*
X182500Y129908D02*
X183154Y130562D01*
D26*
X165000Y80000D03*
D25*
X183154Y121846D02*
X183154Y130562D01*
X183154Y121846D02*
X192500Y112500D01*
D26*
X235000Y240000D03*
D25*
X192500Y112500D02*
X195000Y110000D01*
X235000Y240000D02*
X259800Y264800D01*
X259800Y290500D01*
X195000Y110000D02*
X200000Y105000D01*
X200000Y80000D01*
X165000Y80000D01*
D26*
X212000Y61500D03*
D25*
X188000Y130542D02*
X187980Y130562D01*
X188000Y130542D02*
X188000Y123000D01*
X212500Y98500D02*
X212000Y61500D01*
X212500Y98500D02*
X188000Y123000D01*
D26*
X103000Y112500D03*
X70500Y223500D03*
D25*
X193060Y130562D02*
X193060Y124440D01*
X110607Y112500D02*
X103000Y112500D01*
X193060Y124440D02*
X250000Y67500D01*
X110607Y103393D02*
X110607Y112500D01*
X110607Y103393D02*
X143000Y71000D01*
X143000Y47000D01*
X250000Y47000D01*
X250000Y67500D01*
X70500Y223500D02*
X59500Y223500D01*
X35500Y247500D02*
X24600Y247500D01*
X35500Y247500D02*
X59500Y223500D01*
X208046Y130562D02*
X208046Y119454D01*
X278500Y49000D01*
X309000Y49000D01*
X309600Y48400D01*
X309600Y29700D01*
X213126Y121874D02*
X213126Y130562D01*
X213126Y121874D02*
X279000Y56000D01*
X324000Y56000D01*
X324200Y55800D01*
X324200Y29700D01*
X338800Y29700D02*
X339350Y30250D01*
X220238Y122762D02*
X220238Y137674D01*
X220238Y122762D02*
X282000Y61000D01*
X338000Y61000D01*
X339350Y59650D01*
X339350Y30250D01*
X170962Y142754D02*
X147754Y142754D01*
X135000Y130000D02*
X130000Y130000D01*
X129600Y130400D01*
X129600Y146500D01*
X135000Y130000D02*
X147754Y142754D01*
X129600Y146500D02*
X129600Y165400D01*
X127500Y167500D01*
X97000Y167500D01*
X88500Y159000D01*
X150174Y137674D02*
X170962Y137674D01*
X150174Y137674D02*
X138000Y125500D01*
X105000Y125500D01*
X105000Y130500D01*
X105000Y145900D01*
X105600Y146500D01*
X105000Y130500D02*
X88500Y130500D01*
X88500Y142000D01*
X157740Y157740D02*
X170962Y157740D01*
X157740Y157740D02*
X147500Y147500D01*
X170882Y147500D01*
X170962Y147580D01*
X227000Y200500D02*
X267900Y200500D01*
X227000Y200500D02*
X220000Y207500D01*
X220000Y230000D01*
X240000Y230000D01*
X375000Y315000D02*
X380000Y310000D01*
X380000Y275400D01*
X379700Y275100D01*
X245000Y235000D02*
X240000Y230000D01*
X245000Y235000D02*
X325000Y315000D01*
X375000Y315000D01*
X255000Y225000D02*
X245000Y235000D01*
X255000Y225000D02*
X267500Y225000D01*
X297500Y255000D02*
X325000Y255000D01*
X297500Y255000D02*
X267500Y225000D01*
X325000Y255000D02*
X340000Y240000D01*
D26*
X340000Y130000D03*
D25*
X377200Y92800D02*
X380700Y92800D01*
X377200Y92800D02*
X340000Y130000D01*
D26*
X60000Y167500D03*
D25*
X70700Y156800D02*
X70700Y143500D01*
X70700Y156800D02*
X70700Y158000D01*
X70700Y156800D02*
X60000Y167500D01*
D26*
X70000Y277500D03*
X239000Y125000D03*
D25*
X239000Y143000D01*
X220484Y143000D01*
X220238Y142754D01*
X378300Y180700D02*
X380700Y180700D01*
X340000Y212484D02*
X340000Y240000D01*
X340000Y212484D02*
X356484Y196000D01*
X363000Y196000D01*
D26*
X366000Y184000D03*
D25*
X366000Y193000D02*
X378300Y180700D01*
X366000Y184000D02*
X366000Y193000D01*
X363000Y196000D01*
D26*
X98000Y22000D03*
D25*
X140260Y157740D02*
X157740Y157740D01*
X136000Y162000D02*
X136000Y171000D01*
X133000Y174000D01*
X86700Y174000D02*
X70700Y158000D01*
X136000Y162000D02*
X140260Y157740D01*
X133000Y174000D02*
X86700Y174000D01*
X70700Y143500D02*
X80000Y134200D01*
X80000Y134000D01*
X94000Y120000D01*
X118000Y120000D02*
X130300Y107700D01*
X118000Y120000D02*
X94000Y120000D01*
D26*
X160000Y55000D03*
D25*
X130300Y88700D02*
X130300Y107700D01*
X160000Y59000D02*
X160000Y55000D01*
X160000Y59000D02*
X130300Y88700D01*
X70000Y277500D02*
X80800Y288300D01*
X80800Y306500D01*
X166100Y284900D02*
X185800Y304600D01*
X199200Y318000D01*
X241000Y318000D01*
X250000Y309000D01*
X250000Y270000D01*
X220000Y240000D01*
X220000Y230000D01*
X94300Y293000D02*
X80800Y306500D01*
X94300Y293000D02*
X125000Y293000D01*
X137000Y281000D01*
X137000Y274000D01*
X160000Y274000D01*
X166100Y280100D01*
X166100Y284900D01*
X40250Y26750D02*
X21100Y26750D01*
X40250Y26750D02*
X50000Y17000D01*
X93000Y17000D01*
X98000Y22000D01*
D26*
X340000Y109000D03*
D25*
X329000Y109000D01*
X318000Y98000D01*
X318000Y87900D01*
X318500Y87400D01*
X21100Y64850D02*
X16850Y64850D01*
X12000Y60000D01*
X12000Y17000D01*
X17000Y12000D01*
X361000Y12000D01*
X367000Y18000D01*
X321600Y87400D02*
X318500Y87400D01*
X329000Y70000D02*
X329000Y109000D01*
X329000Y70000D02*
X349000Y70000D01*
X351000Y68000D01*
X351000Y50000D01*
X362000Y50000D01*
X367000Y45000D01*
X367000Y18000D01*
X97650Y64850D02*
X77100Y64850D01*
X97650Y64850D02*
X102500Y60000D01*
X102500Y48500D01*
D26*
X107500Y77500D03*
D25*
X107450Y77550D01*
X77100Y77550D01*
D26*
X107500Y67500D03*
D25*
X117500Y67500D01*
X117500Y80000D01*
X107250Y90250D01*
X77100Y90250D01*
X36000Y113500D02*
X15400Y134100D01*
X36000Y113500D02*
X36000Y71500D01*
X40000Y67500D01*
X61750Y67500D02*
X77100Y52150D01*
X61750Y67500D02*
X40000Y67500D01*
X33500Y134400D02*
X71600Y134400D01*
X135000Y71000D02*
X135000Y38500D01*
X78050Y38500D01*
X77100Y39450D01*
X135000Y71000D02*
X71600Y134400D01*
X33600Y294900D02*
X15200Y294900D01*
X33600Y294900D02*
X34800Y293700D01*
X49500Y293700D01*
X52800Y297000D01*
D26*
X155000Y285000D03*
D25*
X66000Y297000D02*
X52800Y297000D01*
X71000Y302000D02*
X71000Y316000D01*
X71000Y302000D02*
X66000Y297000D01*
X71000Y316000D02*
X117000Y316000D01*
X148000Y285000D02*
X155000Y285000D01*
X148000Y285000D02*
X117000Y316000D01*
D26*
X100000Y250000D03*
D25*
X94400Y255600D01*
X73900Y255600D01*
X52300Y264500D02*
X24600Y264500D01*
X52300Y264500D02*
X52900Y265100D01*
D26*
X132500Y20500D03*
D25*
X163200Y19500D02*
X163600Y19900D01*
X163000Y20500D02*
X132500Y20500D01*
X163000Y20500D02*
X163600Y19900D01*
X195000Y25900D02*
X197300Y23600D01*
X184300Y23600D02*
X180600Y19900D01*
X184300Y23600D02*
X197300Y23600D01*
D26*
X114500Y24000D03*
D25*
X127500Y32500D01*
X160000Y32500D02*
X169000Y41500D01*
X160000Y32500D02*
X127500Y32500D01*
X274100Y41500D02*
X291500Y24100D01*
X274100Y41500D02*
X169000Y41500D01*
X272500Y26100D02*
X274300Y24300D01*
X274500Y24100D01*
X274100Y24100D02*
X258200Y24100D01*
X274100Y24100D02*
X274300Y24300D01*
X222800Y19100D02*
X218300Y23600D01*
D26*
X97500Y31500D03*
X170000Y30000D03*
D25*
X167500Y27500D01*
X127500Y27500D01*
X110000Y16000D02*
X106000Y20000D01*
X110000Y16000D02*
X116000Y16000D01*
X127500Y27500D01*
X106000Y26000D02*
X106000Y20000D01*
X106000Y26000D02*
X100500Y31500D01*
X97500Y31500D01*
X218300Y23600D02*
X236700Y23600D01*
X237200Y24100D01*
X176000Y36000D02*
X170000Y30000D01*
X176000Y36000D02*
X215000Y36000D01*
X218300Y32700D01*
X218300Y23600D01*
X51900Y213470D02*
X42170Y223200D01*
X51900Y213470D02*
X51900Y204800D01*
D27*
X95000Y205000D03*
D25*
X69100Y205000D01*
X68900Y204800D01*
X259800Y307500D02*
X279430Y307500D01*
X286130Y314200D01*
D26*
X35000Y210000D03*
D25*
X34800Y209800D01*
X35000Y210000D02*
X37800Y207200D01*
X37800Y189400D01*
D26*
X20000Y210000D03*
D25*
X21300Y208700D01*
X21300Y188800D01*
M02*
