G04 EAGLE Gerber RS-274X export*
G75*
%MOMM*%
%FSLAX34Y34*%
%LPD*%
%INBottom Copper*%
%IPPOS*%
%AMOC8*
5,1,8,0,0,1.08239X$1,22.5*%
G01*
%ADD10R,1.270000X2.540000*%
%ADD11R,2.540000X1.270000*%
%ADD12R,1.100000X1.000000*%
%ADD13R,2.400000X2.000000*%
%ADD14R,2.308000X0.500000*%
%ADD15C,1.778000*%
%ADD16R,2.200000X0.600000*%
%ADD17R,1.000000X1.000000*%
%ADD18R,0.650000X1.200000*%
%ADD19R,0.700000X1.525000*%
%ADD20R,3.402000X2.513000*%
%ADD21R,2.500000X3.200000*%
%ADD22R,1.000000X0.800000*%
%ADD23R,0.420000X0.420000*%
%ADD24R,1.000000X1.100000*%
%ADD25C,0.716400*%
%ADD26C,0.200000*%
%ADD27C,0.152400*%
%ADD28C,0.756400*%

G36*
X217534Y72928D02*
X217534Y72928D01*
X217553Y72926D01*
X217655Y72948D01*
X217757Y72964D01*
X217774Y72974D01*
X217794Y72978D01*
X217883Y73031D01*
X217974Y73080D01*
X217988Y73094D01*
X218005Y73104D01*
X218072Y73183D01*
X218144Y73258D01*
X218152Y73276D01*
X218165Y73291D01*
X218204Y73387D01*
X218247Y73481D01*
X218249Y73501D01*
X218257Y73519D01*
X218275Y73686D01*
X218275Y76532D01*
X219168Y77425D01*
X230432Y77425D01*
X231364Y76492D01*
X231364Y76490D01*
X231398Y76427D01*
X231423Y76360D01*
X231455Y76319D01*
X231480Y76273D01*
X231532Y76224D01*
X231576Y76168D01*
X231620Y76139D01*
X231658Y76104D01*
X231723Y76073D01*
X231783Y76035D01*
X231834Y76022D01*
X231881Y76000D01*
X231952Y75992D01*
X232022Y75975D01*
X232074Y75979D01*
X232125Y75973D01*
X232196Y75988D01*
X232267Y75994D01*
X232315Y76014D01*
X232366Y76025D01*
X232427Y76062D01*
X232493Y76090D01*
X232549Y76135D01*
X232577Y76151D01*
X232592Y76169D01*
X232624Y76195D01*
X246252Y89823D01*
X246305Y89897D01*
X246365Y89966D01*
X246377Y89996D01*
X246396Y90023D01*
X246423Y90110D01*
X246457Y90194D01*
X246461Y90235D01*
X246468Y90258D01*
X246467Y90290D01*
X246475Y90361D01*
X246475Y103987D01*
X246461Y104078D01*
X246453Y104168D01*
X246441Y104198D01*
X246436Y104230D01*
X246393Y104311D01*
X246357Y104395D01*
X246331Y104427D01*
X246320Y104448D01*
X246297Y104470D01*
X246252Y104526D01*
X243893Y106885D01*
X243893Y111115D01*
X246885Y114107D01*
X251115Y114107D01*
X254107Y111115D01*
X254107Y106885D01*
X251748Y104526D01*
X251695Y104452D01*
X251635Y104382D01*
X251623Y104352D01*
X251604Y104326D01*
X251577Y104239D01*
X251543Y104154D01*
X251539Y104113D01*
X251532Y104091D01*
X251533Y104059D01*
X251525Y103987D01*
X251525Y88636D01*
X251528Y88616D01*
X251526Y88597D01*
X251548Y88495D01*
X251564Y88393D01*
X251574Y88376D01*
X251578Y88356D01*
X251631Y88267D01*
X251680Y88176D01*
X251694Y88162D01*
X251704Y88145D01*
X251783Y88078D01*
X251858Y88006D01*
X251876Y87998D01*
X251891Y87985D01*
X251987Y87946D01*
X252081Y87903D01*
X252101Y87901D01*
X252119Y87893D01*
X252286Y87875D01*
X261714Y87875D01*
X261734Y87878D01*
X261753Y87876D01*
X261855Y87898D01*
X261957Y87914D01*
X261974Y87924D01*
X261994Y87928D01*
X262083Y87981D01*
X262174Y88030D01*
X262188Y88044D01*
X262205Y88054D01*
X262272Y88133D01*
X262344Y88208D01*
X262352Y88226D01*
X262365Y88241D01*
X262404Y88337D01*
X262447Y88431D01*
X262449Y88451D01*
X262457Y88469D01*
X262475Y88636D01*
X262475Y106639D01*
X262461Y106729D01*
X262453Y106820D01*
X262441Y106850D01*
X262436Y106882D01*
X262393Y106962D01*
X262357Y107046D01*
X262331Y107078D01*
X262320Y107099D01*
X262297Y107121D01*
X262252Y107177D01*
X247177Y122252D01*
X247103Y122305D01*
X247034Y122365D01*
X247004Y122377D01*
X246977Y122396D01*
X246890Y122423D01*
X246806Y122457D01*
X246765Y122461D01*
X246742Y122468D01*
X246710Y122467D01*
X246639Y122475D01*
X244013Y122475D01*
X243923Y122461D01*
X243832Y122453D01*
X243802Y122441D01*
X243770Y122436D01*
X243689Y122393D01*
X243605Y122357D01*
X243573Y122331D01*
X243552Y122320D01*
X243530Y122297D01*
X243474Y122252D01*
X241115Y119893D01*
X237779Y119893D01*
X237689Y119879D01*
X237598Y119871D01*
X237568Y119859D01*
X237536Y119854D01*
X237456Y119811D01*
X237372Y119775D01*
X237340Y119749D01*
X237319Y119738D01*
X237297Y119715D01*
X237241Y119670D01*
X235146Y117575D01*
X232086Y117575D01*
X232066Y117572D01*
X232047Y117574D01*
X231945Y117552D01*
X231843Y117536D01*
X231826Y117526D01*
X231806Y117522D01*
X231717Y117469D01*
X231626Y117420D01*
X231612Y117406D01*
X231595Y117396D01*
X231528Y117317D01*
X231456Y117242D01*
X231448Y117224D01*
X231435Y117209D01*
X231396Y117113D01*
X231353Y117019D01*
X231351Y116999D01*
X231343Y116981D01*
X231325Y116814D01*
X231325Y113968D01*
X230432Y113075D01*
X219168Y113075D01*
X218275Y113968D01*
X218275Y126232D01*
X219168Y127125D01*
X230432Y127125D01*
X231325Y126232D01*
X231325Y123386D01*
X231328Y123366D01*
X231326Y123347D01*
X231348Y123245D01*
X231364Y123143D01*
X231374Y123126D01*
X231378Y123106D01*
X231431Y123017D01*
X231480Y122926D01*
X231494Y122912D01*
X231504Y122895D01*
X231583Y122828D01*
X231658Y122756D01*
X231676Y122748D01*
X231691Y122735D01*
X231787Y122696D01*
X231881Y122653D01*
X231901Y122651D01*
X231919Y122643D01*
X232086Y122625D01*
X232739Y122625D01*
X232829Y122639D01*
X232920Y122647D01*
X232950Y122659D01*
X232982Y122664D01*
X233062Y122707D01*
X233146Y122743D01*
X233178Y122769D01*
X233199Y122780D01*
X233221Y122803D01*
X233277Y122848D01*
X233670Y123241D01*
X233723Y123315D01*
X233783Y123384D01*
X233795Y123414D01*
X233814Y123441D01*
X233841Y123528D01*
X233875Y123612D01*
X233879Y123653D01*
X233886Y123676D01*
X233885Y123708D01*
X233893Y123779D01*
X233893Y127115D01*
X235454Y128676D01*
X235496Y128734D01*
X235545Y128786D01*
X235567Y128833D01*
X235597Y128875D01*
X235618Y128944D01*
X235649Y129009D01*
X235654Y129061D01*
X235670Y129111D01*
X235668Y129182D01*
X235676Y129253D01*
X235665Y129304D01*
X235663Y129356D01*
X235639Y129424D01*
X235623Y129494D01*
X235597Y129539D01*
X235579Y129587D01*
X235534Y129643D01*
X235497Y129705D01*
X235458Y129739D01*
X235425Y129779D01*
X235365Y129818D01*
X235310Y129865D01*
X235262Y129884D01*
X235218Y129912D01*
X235149Y129930D01*
X235082Y129957D01*
X235011Y129965D01*
X234980Y129973D01*
X234956Y129971D01*
X234915Y129975D01*
X160786Y129975D01*
X160766Y129972D01*
X160747Y129974D01*
X160645Y129952D01*
X160543Y129936D01*
X160526Y129926D01*
X160506Y129922D01*
X160417Y129869D01*
X160326Y129820D01*
X160312Y129806D01*
X160295Y129796D01*
X160228Y129717D01*
X160156Y129642D01*
X160148Y129624D01*
X160135Y129609D01*
X160096Y129513D01*
X160053Y129419D01*
X160051Y129399D01*
X160043Y129381D01*
X160025Y129214D01*
X160025Y127513D01*
X160039Y127422D01*
X160047Y127332D01*
X160059Y127302D01*
X160064Y127270D01*
X160107Y127189D01*
X160143Y127105D01*
X160169Y127073D01*
X160180Y127052D01*
X160203Y127030D01*
X160248Y126974D01*
X162607Y124615D01*
X162607Y120385D01*
X159615Y117393D01*
X155385Y117393D01*
X152393Y120385D01*
X152393Y124615D01*
X154752Y126974D01*
X154805Y127048D01*
X154865Y127118D01*
X154877Y127148D01*
X154896Y127174D01*
X154923Y127261D01*
X154957Y127346D01*
X154961Y127387D01*
X154968Y127409D01*
X154967Y127441D01*
X154975Y127513D01*
X154975Y133546D01*
X156454Y135025D01*
X258197Y135025D01*
X258244Y135032D01*
X258292Y135031D01*
X258365Y135052D01*
X258440Y135064D01*
X258482Y135087D01*
X258528Y135101D01*
X258590Y135144D01*
X258657Y135180D01*
X258690Y135214D01*
X258729Y135242D01*
X258774Y135303D01*
X258826Y135358D01*
X258847Y135402D01*
X258875Y135440D01*
X258898Y135512D01*
X258930Y135581D01*
X258935Y135629D01*
X258950Y135674D01*
X258949Y135750D01*
X258957Y135825D01*
X258947Y135872D01*
X258946Y135920D01*
X258921Y135992D01*
X258905Y136066D01*
X258880Y136107D01*
X258864Y136152D01*
X258818Y136212D01*
X258779Y136277D01*
X258742Y136308D01*
X258713Y136346D01*
X258609Y136422D01*
X258592Y136437D01*
X258586Y136439D01*
X258577Y136445D01*
X258540Y136467D01*
X258067Y136940D01*
X257695Y137584D01*
X257620Y137676D01*
X257546Y137769D01*
X257542Y137771D01*
X257539Y137774D01*
X257439Y137837D01*
X257339Y137902D01*
X257335Y137903D01*
X257331Y137905D01*
X257216Y137932D01*
X257100Y137962D01*
X257096Y137961D01*
X257092Y137962D01*
X256973Y137952D01*
X256855Y137943D01*
X256851Y137941D01*
X256847Y137941D01*
X256737Y137892D01*
X256629Y137846D01*
X256625Y137843D01*
X256622Y137842D01*
X256611Y137832D01*
X256498Y137741D01*
X255732Y136975D01*
X244468Y136975D01*
X243575Y137868D01*
X243575Y149132D01*
X244468Y150025D01*
X255732Y150025D01*
X256498Y149259D01*
X256594Y149190D01*
X256690Y149119D01*
X256694Y149117D01*
X256697Y149115D01*
X256810Y149080D01*
X256924Y149044D01*
X256929Y149044D01*
X256933Y149043D01*
X257051Y149046D01*
X257170Y149048D01*
X257174Y149049D01*
X257178Y149049D01*
X257291Y149090D01*
X257402Y149130D01*
X257405Y149132D01*
X257409Y149134D01*
X257503Y149208D01*
X257596Y149281D01*
X257599Y149285D01*
X257601Y149287D01*
X257609Y149299D01*
X257695Y149416D01*
X258067Y150060D01*
X258540Y150533D01*
X259119Y150868D01*
X259766Y151041D01*
X263577Y151041D01*
X263577Y144262D01*
X263580Y144242D01*
X263578Y144223D01*
X263600Y144121D01*
X263617Y144019D01*
X263626Y144002D01*
X263630Y143982D01*
X263683Y143893D01*
X263732Y143802D01*
X263746Y143788D01*
X263756Y143771D01*
X263835Y143704D01*
X263910Y143633D01*
X263928Y143624D01*
X263943Y143611D01*
X264039Y143572D01*
X264133Y143529D01*
X264153Y143527D01*
X264171Y143519D01*
X264338Y143501D01*
X265101Y143501D01*
X265101Y142738D01*
X265104Y142718D01*
X265102Y142699D01*
X265124Y142597D01*
X265141Y142495D01*
X265150Y142478D01*
X265154Y142458D01*
X265207Y142369D01*
X265256Y142278D01*
X265270Y142264D01*
X265280Y142247D01*
X265359Y142180D01*
X265434Y142109D01*
X265452Y142100D01*
X265467Y142087D01*
X265563Y142048D01*
X265657Y142005D01*
X265677Y142003D01*
X265695Y141995D01*
X265862Y141977D01*
X272641Y141977D01*
X272641Y138166D01*
X272468Y137519D01*
X272133Y136940D01*
X271660Y136467D01*
X271623Y136445D01*
X271585Y136415D01*
X271543Y136392D01*
X271491Y136338D01*
X271432Y136290D01*
X271407Y136249D01*
X271374Y136214D01*
X271342Y136145D01*
X271301Y136081D01*
X271290Y136035D01*
X271270Y135991D01*
X271262Y135916D01*
X271244Y135842D01*
X271248Y135794D01*
X271243Y135747D01*
X271259Y135673D01*
X271266Y135597D01*
X271285Y135553D01*
X271295Y135506D01*
X271334Y135441D01*
X271364Y135372D01*
X271397Y135336D01*
X271421Y135295D01*
X271479Y135246D01*
X271530Y135190D01*
X271572Y135166D01*
X271608Y135135D01*
X271679Y135107D01*
X271745Y135070D01*
X271792Y135061D01*
X271836Y135043D01*
X271964Y135029D01*
X271986Y135025D01*
X271993Y135026D01*
X272003Y135025D01*
X276139Y135025D01*
X276229Y135039D01*
X276320Y135047D01*
X276350Y135059D01*
X276382Y135064D01*
X276462Y135107D01*
X276546Y135143D01*
X276578Y135169D01*
X276599Y135180D01*
X276621Y135203D01*
X276677Y135248D01*
X311852Y170423D01*
X311905Y170497D01*
X311965Y170566D01*
X311977Y170596D01*
X311996Y170623D01*
X312023Y170710D01*
X312057Y170794D01*
X312061Y170835D01*
X312068Y170858D01*
X312067Y170890D01*
X312075Y170961D01*
X312075Y177814D01*
X312072Y177834D01*
X312074Y177853D01*
X312052Y177955D01*
X312036Y178057D01*
X312026Y178074D01*
X312022Y178094D01*
X311969Y178183D01*
X311920Y178274D01*
X311906Y178288D01*
X311896Y178305D01*
X311817Y178372D01*
X311742Y178444D01*
X311724Y178452D01*
X311709Y178465D01*
X311613Y178504D01*
X311519Y178547D01*
X311499Y178549D01*
X311481Y178557D01*
X311314Y178575D01*
X308968Y178575D01*
X308075Y179468D01*
X308075Y191732D01*
X308968Y192625D01*
X320232Y192625D01*
X321125Y191732D01*
X321125Y179468D01*
X320232Y178575D01*
X317886Y178575D01*
X317866Y178572D01*
X317847Y178574D01*
X317745Y178552D01*
X317643Y178536D01*
X317626Y178526D01*
X317606Y178522D01*
X317517Y178469D01*
X317426Y178420D01*
X317412Y178406D01*
X317395Y178396D01*
X317328Y178317D01*
X317256Y178242D01*
X317248Y178224D01*
X317235Y178209D01*
X317196Y178113D01*
X317153Y178019D01*
X317151Y177999D01*
X317143Y177981D01*
X317125Y177814D01*
X317125Y170833D01*
X317136Y170762D01*
X317138Y170691D01*
X317156Y170642D01*
X317164Y170590D01*
X317198Y170527D01*
X317223Y170460D01*
X317255Y170419D01*
X317280Y170373D01*
X317331Y170324D01*
X317376Y170268D01*
X317420Y170239D01*
X317458Y170204D01*
X317523Y170173D01*
X317583Y170135D01*
X317634Y170122D01*
X317681Y170100D01*
X317752Y170092D01*
X317822Y170075D01*
X317874Y170079D01*
X317925Y170073D01*
X317996Y170088D01*
X318067Y170094D01*
X318115Y170114D01*
X318166Y170125D01*
X318227Y170162D01*
X318293Y170190D01*
X318349Y170235D01*
X318377Y170251D01*
X318392Y170269D01*
X318424Y170295D01*
X318554Y170425D01*
X324214Y170425D01*
X324234Y170428D01*
X324253Y170426D01*
X324355Y170448D01*
X324457Y170464D01*
X324474Y170474D01*
X324494Y170478D01*
X324583Y170531D01*
X324674Y170580D01*
X324688Y170594D01*
X324705Y170604D01*
X324772Y170683D01*
X324844Y170758D01*
X324852Y170776D01*
X324865Y170791D01*
X324904Y170887D01*
X324947Y170981D01*
X324949Y171001D01*
X324957Y171019D01*
X324975Y171186D01*
X324975Y201046D01*
X326454Y202525D01*
X326514Y202525D01*
X326534Y202528D01*
X326553Y202526D01*
X326655Y202548D01*
X326757Y202564D01*
X326774Y202574D01*
X326794Y202578D01*
X326883Y202631D01*
X326974Y202680D01*
X326988Y202694D01*
X327005Y202704D01*
X327072Y202783D01*
X327144Y202858D01*
X327152Y202876D01*
X327165Y202891D01*
X327204Y202987D01*
X327247Y203081D01*
X327249Y203101D01*
X327257Y203119D01*
X327275Y203286D01*
X327275Y209867D01*
X327264Y209938D01*
X327262Y210009D01*
X327244Y210058D01*
X327236Y210110D01*
X327202Y210173D01*
X327177Y210240D01*
X327145Y210281D01*
X327120Y210327D01*
X327068Y210376D01*
X327024Y210432D01*
X326980Y210461D01*
X326942Y210496D01*
X326877Y210527D01*
X326817Y210565D01*
X326766Y210578D01*
X326719Y210600D01*
X326648Y210608D01*
X326578Y210625D01*
X326526Y210621D01*
X326475Y210627D01*
X326404Y210612D01*
X326333Y210606D01*
X326285Y210586D01*
X326234Y210575D01*
X326173Y210538D01*
X326107Y210510D01*
X326051Y210465D01*
X326023Y210449D01*
X326008Y210431D01*
X325976Y210405D01*
X321348Y205777D01*
X321295Y205703D01*
X321235Y205634D01*
X321223Y205604D01*
X321204Y205577D01*
X321177Y205490D01*
X321143Y205406D01*
X321139Y205365D01*
X321132Y205342D01*
X321133Y205310D01*
X321125Y205239D01*
X321125Y196468D01*
X320232Y195575D01*
X308968Y195575D01*
X308075Y196468D01*
X308075Y208732D01*
X308968Y209625D01*
X317739Y209625D01*
X317829Y209639D01*
X317920Y209647D01*
X317950Y209659D01*
X317982Y209664D01*
X318062Y209707D01*
X318146Y209743D01*
X318178Y209769D01*
X318199Y209780D01*
X318221Y209803D01*
X318277Y209848D01*
X327052Y218623D01*
X327105Y218697D01*
X327165Y218766D01*
X327177Y218796D01*
X327196Y218823D01*
X327223Y218910D01*
X327257Y218994D01*
X327261Y219035D01*
X327268Y219058D01*
X327267Y219090D01*
X327275Y219161D01*
X327275Y236132D01*
X328168Y237025D01*
X354214Y237025D01*
X354234Y237028D01*
X354253Y237026D01*
X354355Y237048D01*
X354457Y237064D01*
X354474Y237074D01*
X354494Y237078D01*
X354583Y237131D01*
X354674Y237180D01*
X354688Y237194D01*
X354705Y237204D01*
X354772Y237283D01*
X354844Y237358D01*
X354852Y237376D01*
X354865Y237391D01*
X354904Y237487D01*
X354947Y237581D01*
X354949Y237601D01*
X354957Y237619D01*
X354975Y237786D01*
X354975Y248639D01*
X354961Y248729D01*
X354953Y248820D01*
X354941Y248850D01*
X354936Y248882D01*
X354893Y248962D01*
X354857Y249046D01*
X354831Y249078D01*
X354820Y249099D01*
X354797Y249121D01*
X354752Y249177D01*
X352677Y251252D01*
X352603Y251305D01*
X352534Y251365D01*
X352504Y251377D01*
X352477Y251396D01*
X352390Y251423D01*
X352306Y251457D01*
X352265Y251461D01*
X352242Y251468D01*
X352210Y251467D01*
X352139Y251475D01*
X308184Y251475D01*
X308088Y251460D01*
X307991Y251450D01*
X307967Y251440D01*
X307942Y251436D01*
X307856Y251390D01*
X307767Y251350D01*
X307747Y251333D01*
X307724Y251320D01*
X307657Y251250D01*
X307586Y251184D01*
X307573Y251161D01*
X307555Y251142D01*
X307514Y251054D01*
X307467Y250968D01*
X307462Y250943D01*
X307451Y250919D01*
X307441Y250822D01*
X307423Y250726D01*
X307427Y250700D01*
X307424Y250675D01*
X307445Y250579D01*
X307459Y250483D01*
X307471Y250460D01*
X307476Y250434D01*
X307526Y250351D01*
X307571Y250264D01*
X307589Y250245D01*
X307603Y250223D01*
X307677Y250160D01*
X307746Y250092D01*
X307775Y250076D01*
X307790Y250063D01*
X307820Y250051D01*
X307893Y250011D01*
X310321Y249005D01*
X314305Y245021D01*
X316461Y239817D01*
X316461Y234183D01*
X314305Y228979D01*
X310321Y224995D01*
X305117Y222839D01*
X299483Y222839D01*
X294279Y224995D01*
X290295Y228979D01*
X288089Y234304D01*
X288038Y234387D01*
X287992Y234473D01*
X287973Y234491D01*
X287960Y234513D01*
X287885Y234575D01*
X287814Y234642D01*
X287790Y234653D01*
X287770Y234670D01*
X287679Y234705D01*
X287591Y234746D01*
X287565Y234749D01*
X287541Y234758D01*
X287443Y234762D01*
X287347Y234773D01*
X287321Y234767D01*
X287295Y234768D01*
X287201Y234741D01*
X287106Y234721D01*
X287084Y234707D01*
X287059Y234700D01*
X286979Y234644D01*
X286895Y234594D01*
X286878Y234575D01*
X286857Y234560D01*
X286798Y234481D01*
X286735Y234408D01*
X286725Y234383D01*
X286710Y234362D01*
X286680Y234270D01*
X286643Y234179D01*
X286640Y234147D01*
X286634Y234128D01*
X286634Y234095D01*
X286625Y234013D01*
X286625Y225368D01*
X285732Y224475D01*
X274468Y224475D01*
X273575Y225368D01*
X273575Y236632D01*
X274468Y237525D01*
X285732Y237525D01*
X286840Y236417D01*
X286898Y236375D01*
X286950Y236325D01*
X286997Y236303D01*
X287039Y236273D01*
X287108Y236252D01*
X287173Y236222D01*
X287225Y236216D01*
X287275Y236201D01*
X287346Y236203D01*
X287417Y236195D01*
X287468Y236206D01*
X287520Y236207D01*
X287588Y236232D01*
X287658Y236247D01*
X287703Y236274D01*
X287751Y236291D01*
X287807Y236336D01*
X287869Y236373D01*
X287903Y236413D01*
X287943Y236445D01*
X287982Y236505D01*
X288029Y236560D01*
X288048Y236608D01*
X288076Y236652D01*
X288094Y236722D01*
X288121Y236788D01*
X288129Y236859D01*
X288137Y236891D01*
X288135Y236914D01*
X288139Y236955D01*
X288139Y239817D01*
X290295Y245021D01*
X294279Y249005D01*
X296707Y250011D01*
X296790Y250062D01*
X296876Y250108D01*
X296894Y250126D01*
X296916Y250140D01*
X296978Y250216D01*
X297045Y250286D01*
X297056Y250310D01*
X297073Y250330D01*
X297108Y250421D01*
X297149Y250509D01*
X297152Y250535D01*
X297161Y250559D01*
X297165Y250657D01*
X297176Y250753D01*
X297170Y250779D01*
X297171Y250805D01*
X297144Y250899D01*
X297124Y250994D01*
X297110Y251016D01*
X297103Y251041D01*
X297047Y251121D01*
X296997Y251205D01*
X296978Y251222D01*
X296963Y251243D01*
X296884Y251302D01*
X296810Y251365D01*
X296786Y251375D01*
X296765Y251390D01*
X296673Y251420D01*
X296582Y251457D01*
X296550Y251460D01*
X296531Y251466D01*
X296498Y251466D01*
X296416Y251475D01*
X295954Y251475D01*
X294475Y252954D01*
X294475Y277639D01*
X294461Y277729D01*
X294453Y277820D01*
X294441Y277850D01*
X294436Y277882D01*
X294393Y277962D01*
X294357Y278046D01*
X294331Y278078D01*
X294320Y278099D01*
X294297Y278121D01*
X294252Y278177D01*
X285177Y287252D01*
X285103Y287305D01*
X285034Y287365D01*
X285004Y287377D01*
X284977Y287396D01*
X284890Y287423D01*
X284806Y287457D01*
X284765Y287461D01*
X284742Y287468D01*
X284710Y287467D01*
X284639Y287475D01*
X252933Y287475D01*
X252862Y287464D01*
X252791Y287462D01*
X252742Y287444D01*
X252690Y287436D01*
X252627Y287402D01*
X252560Y287377D01*
X252519Y287345D01*
X252473Y287320D01*
X252424Y287269D01*
X252368Y287224D01*
X252339Y287180D01*
X252304Y287142D01*
X252273Y287077D01*
X252235Y287017D01*
X252222Y286966D01*
X252200Y286919D01*
X252192Y286848D01*
X252175Y286778D01*
X252179Y286726D01*
X252173Y286675D01*
X252188Y286604D01*
X252194Y286533D01*
X252214Y286485D01*
X252225Y286434D01*
X252262Y286373D01*
X252290Y286307D01*
X252335Y286251D01*
X252351Y286223D01*
X252369Y286208D01*
X252395Y286176D01*
X252525Y286046D01*
X252525Y280786D01*
X252528Y280766D01*
X252526Y280747D01*
X252548Y280645D01*
X252564Y280543D01*
X252574Y280526D01*
X252578Y280506D01*
X252631Y280417D01*
X252680Y280326D01*
X252694Y280312D01*
X252704Y280295D01*
X252783Y280228D01*
X252858Y280156D01*
X252876Y280148D01*
X252891Y280135D01*
X252987Y280096D01*
X253081Y280053D01*
X253101Y280051D01*
X253119Y280043D01*
X253286Y280025D01*
X255732Y280025D01*
X256625Y279132D01*
X256625Y267868D01*
X255732Y266975D01*
X244468Y266975D01*
X243575Y267868D01*
X243575Y279132D01*
X244468Y280025D01*
X246714Y280025D01*
X246734Y280028D01*
X246753Y280026D01*
X246855Y280048D01*
X246957Y280064D01*
X246974Y280074D01*
X246994Y280078D01*
X247083Y280131D01*
X247174Y280180D01*
X247188Y280194D01*
X247205Y280204D01*
X247272Y280283D01*
X247344Y280358D01*
X247352Y280376D01*
X247365Y280391D01*
X247404Y280487D01*
X247447Y280581D01*
X247449Y280601D01*
X247457Y280619D01*
X247475Y280786D01*
X247475Y281714D01*
X247472Y281734D01*
X247474Y281753D01*
X247452Y281855D01*
X247436Y281957D01*
X247426Y281974D01*
X247422Y281994D01*
X247369Y282083D01*
X247320Y282174D01*
X247306Y282188D01*
X247296Y282205D01*
X247217Y282272D01*
X247142Y282344D01*
X247124Y282352D01*
X247109Y282365D01*
X247013Y282404D01*
X246919Y282447D01*
X246899Y282449D01*
X246881Y282457D01*
X246714Y282475D01*
X160013Y282475D01*
X159923Y282461D01*
X159832Y282453D01*
X159802Y282441D01*
X159770Y282436D01*
X159689Y282393D01*
X159605Y282357D01*
X159573Y282331D01*
X159552Y282320D01*
X159530Y282297D01*
X159474Y282252D01*
X158546Y281324D01*
X158504Y281266D01*
X158455Y281214D01*
X158433Y281167D01*
X158403Y281125D01*
X158382Y281056D01*
X158351Y280991D01*
X158346Y280939D01*
X158330Y280889D01*
X158332Y280818D01*
X158324Y280747D01*
X158335Y280696D01*
X158337Y280644D01*
X158361Y280576D01*
X158377Y280506D01*
X158403Y280461D01*
X158421Y280413D01*
X158466Y280357D01*
X158503Y280295D01*
X158542Y280261D01*
X158575Y280221D01*
X158635Y280182D01*
X158690Y280135D01*
X158738Y280116D01*
X158782Y280088D01*
X158851Y280070D01*
X158918Y280043D01*
X158989Y280035D01*
X159020Y280027D01*
X159044Y280029D01*
X159085Y280025D01*
X165732Y280025D01*
X166625Y279132D01*
X166625Y267868D01*
X165732Y266975D01*
X154468Y266975D01*
X153575Y267868D01*
X153575Y279132D01*
X153572Y279152D01*
X153574Y279171D01*
X153552Y279273D01*
X153536Y279375D01*
X153526Y279392D01*
X153522Y279412D01*
X153469Y279501D01*
X153420Y279592D01*
X153406Y279606D01*
X153396Y279623D01*
X153317Y279690D01*
X153242Y279762D01*
X153224Y279770D01*
X153209Y279783D01*
X153113Y279822D01*
X153019Y279865D01*
X152999Y279867D01*
X152981Y279875D01*
X152879Y279886D01*
X152866Y279896D01*
X152814Y279945D01*
X152767Y279967D01*
X152725Y279997D01*
X152656Y280018D01*
X152591Y280049D01*
X152539Y280054D01*
X152490Y280070D01*
X152418Y280068D01*
X152347Y280076D01*
X152296Y280065D01*
X152244Y280063D01*
X152176Y280039D01*
X152106Y280023D01*
X152061Y279997D01*
X152013Y279979D01*
X151957Y279934D01*
X151895Y279897D01*
X151861Y279858D01*
X151821Y279825D01*
X151782Y279765D01*
X151735Y279710D01*
X151716Y279662D01*
X151688Y279618D01*
X151670Y279549D01*
X151643Y279482D01*
X151635Y279411D01*
X151627Y279380D01*
X151629Y279356D01*
X151625Y279315D01*
X151625Y267868D01*
X150732Y266975D01*
X139468Y266975D01*
X138575Y267868D01*
X138575Y279132D01*
X139468Y280025D01*
X150915Y280025D01*
X150986Y280036D01*
X151058Y280038D01*
X151107Y280056D01*
X151158Y280064D01*
X151222Y280098D01*
X151289Y280123D01*
X151330Y280155D01*
X151376Y280180D01*
X151425Y280232D01*
X151481Y280276D01*
X151509Y280320D01*
X151545Y280358D01*
X151575Y280423D01*
X151614Y280483D01*
X151627Y280534D01*
X151649Y280581D01*
X151656Y280652D01*
X151674Y280722D01*
X151670Y280774D01*
X151676Y280825D01*
X151660Y280895D01*
X151655Y280967D01*
X151635Y281015D01*
X151623Y281066D01*
X151587Y281127D01*
X151559Y281193D01*
X151514Y281249D01*
X151497Y281277D01*
X151479Y281292D01*
X151454Y281324D01*
X149893Y282885D01*
X149893Y287115D01*
X152885Y290107D01*
X157115Y290107D01*
X159474Y287748D01*
X159548Y287695D01*
X159618Y287635D01*
X159648Y287623D01*
X159674Y287604D01*
X159761Y287577D01*
X159846Y287543D01*
X159887Y287539D01*
X159909Y287532D01*
X159941Y287533D01*
X160013Y287525D01*
X208267Y287525D01*
X208338Y287536D01*
X208409Y287538D01*
X208458Y287556D01*
X208510Y287564D01*
X208573Y287598D01*
X208640Y287623D01*
X208681Y287655D01*
X208727Y287680D01*
X208776Y287731D01*
X208832Y287776D01*
X208861Y287820D01*
X208896Y287858D01*
X208927Y287923D01*
X208965Y287983D01*
X208978Y288034D01*
X209000Y288081D01*
X209008Y288152D01*
X209025Y288222D01*
X209021Y288274D01*
X209027Y288325D01*
X209012Y288396D01*
X209006Y288467D01*
X208986Y288515D01*
X208975Y288566D01*
X208938Y288627D01*
X208910Y288693D01*
X208865Y288749D01*
X208849Y288777D01*
X208831Y288792D01*
X208805Y288824D01*
X208675Y288954D01*
X208675Y293864D01*
X208656Y293979D01*
X208639Y294095D01*
X208637Y294101D01*
X208636Y294107D01*
X208581Y294210D01*
X208528Y294314D01*
X208523Y294319D01*
X208520Y294324D01*
X208436Y294404D01*
X208352Y294487D01*
X208346Y294490D01*
X208342Y294494D01*
X208325Y294502D01*
X208205Y294568D01*
X205300Y295771D01*
X202371Y298700D01*
X200785Y302528D01*
X200785Y306672D01*
X202371Y310500D01*
X205300Y313429D01*
X206704Y314011D01*
X206787Y314062D01*
X206873Y314108D01*
X206891Y314126D01*
X206914Y314140D01*
X206976Y314216D01*
X207043Y314286D01*
X207054Y314310D01*
X207070Y314330D01*
X207105Y314421D01*
X207146Y314509D01*
X207149Y314535D01*
X207159Y314559D01*
X207163Y314657D01*
X207173Y314753D01*
X207168Y314779D01*
X207169Y314805D01*
X207142Y314899D01*
X207121Y314994D01*
X207108Y315016D01*
X207100Y315041D01*
X207045Y315121D01*
X206995Y315205D01*
X206975Y315222D01*
X206960Y315243D01*
X206882Y315302D01*
X206808Y315365D01*
X206784Y315375D01*
X206763Y315390D01*
X206670Y315420D01*
X206580Y315457D01*
X206547Y315460D01*
X206529Y315466D01*
X206496Y315466D01*
X206413Y315475D01*
X190587Y315475D01*
X190491Y315460D01*
X190394Y315450D01*
X190370Y315440D01*
X190344Y315436D01*
X190258Y315390D01*
X190169Y315350D01*
X190150Y315333D01*
X190127Y315320D01*
X190060Y315250D01*
X189988Y315184D01*
X189975Y315161D01*
X189957Y315142D01*
X189916Y315054D01*
X189869Y314968D01*
X189865Y314943D01*
X189854Y314919D01*
X189843Y314822D01*
X189826Y314726D01*
X189829Y314700D01*
X189827Y314675D01*
X189847Y314579D01*
X189861Y314483D01*
X189873Y314460D01*
X189879Y314434D01*
X189929Y314351D01*
X189973Y314264D01*
X189992Y314245D01*
X190005Y314223D01*
X190079Y314160D01*
X190149Y314092D01*
X190177Y314076D01*
X190192Y314063D01*
X190223Y314051D01*
X190296Y314011D01*
X191700Y313429D01*
X194629Y310500D01*
X196215Y306672D01*
X196215Y302528D01*
X194629Y298700D01*
X191700Y295771D01*
X187872Y294185D01*
X183728Y294185D01*
X179900Y295771D01*
X176971Y298700D01*
X175385Y302528D01*
X175385Y306672D01*
X176971Y310500D01*
X179900Y313429D01*
X181304Y314011D01*
X181387Y314062D01*
X181473Y314108D01*
X181491Y314126D01*
X181514Y314140D01*
X181576Y314216D01*
X181643Y314286D01*
X181654Y314310D01*
X181670Y314330D01*
X181705Y314421D01*
X181746Y314509D01*
X181749Y314535D01*
X181759Y314559D01*
X181763Y314657D01*
X181773Y314753D01*
X181768Y314779D01*
X181769Y314805D01*
X181742Y314899D01*
X181721Y314994D01*
X181708Y315016D01*
X181700Y315041D01*
X181645Y315121D01*
X181595Y315205D01*
X181575Y315222D01*
X181560Y315243D01*
X181482Y315302D01*
X181408Y315365D01*
X181384Y315375D01*
X181363Y315390D01*
X181270Y315420D01*
X181180Y315457D01*
X181147Y315460D01*
X181129Y315466D01*
X181096Y315466D01*
X181013Y315475D01*
X167221Y315475D01*
X167214Y315474D01*
X167206Y315475D01*
X167092Y315454D01*
X166979Y315436D01*
X166972Y315432D01*
X166964Y315430D01*
X166863Y315374D01*
X166761Y315320D01*
X166756Y315315D01*
X166749Y315311D01*
X166671Y315225D01*
X166592Y315142D01*
X166589Y315135D01*
X166583Y315129D01*
X166537Y315023D01*
X166488Y314919D01*
X166487Y314911D01*
X166484Y314904D01*
X166474Y314789D01*
X166461Y314675D01*
X166463Y314667D01*
X166462Y314659D01*
X166489Y314547D01*
X166513Y314434D01*
X166518Y314427D01*
X166519Y314420D01*
X166581Y314322D01*
X166640Y314223D01*
X166646Y314218D01*
X166650Y314211D01*
X166774Y314098D01*
X167847Y313319D01*
X169119Y312047D01*
X170176Y310591D01*
X170993Y308988D01*
X171549Y307277D01*
X171732Y306123D01*
X161162Y306123D01*
X161142Y306120D01*
X161123Y306122D01*
X161021Y306100D01*
X160919Y306083D01*
X160902Y306074D01*
X160882Y306070D01*
X160793Y306017D01*
X160702Y305968D01*
X160688Y305954D01*
X160671Y305944D01*
X160604Y305865D01*
X160533Y305790D01*
X160524Y305772D01*
X160511Y305757D01*
X160473Y305661D01*
X160429Y305567D01*
X160427Y305547D01*
X160419Y305529D01*
X160401Y305362D01*
X160401Y304599D01*
X160399Y304599D01*
X160399Y305362D01*
X160396Y305382D01*
X160398Y305401D01*
X160376Y305503D01*
X160359Y305605D01*
X160350Y305622D01*
X160346Y305642D01*
X160293Y305731D01*
X160244Y305822D01*
X160230Y305836D01*
X160220Y305853D01*
X160141Y305920D01*
X160066Y305991D01*
X160048Y306000D01*
X160033Y306013D01*
X159937Y306052D01*
X159843Y306095D01*
X159823Y306097D01*
X159805Y306105D01*
X159638Y306123D01*
X149068Y306123D01*
X149251Y307277D01*
X149807Y308988D01*
X150624Y310591D01*
X151681Y312047D01*
X152953Y313319D01*
X154026Y314098D01*
X154032Y314104D01*
X154039Y314108D01*
X154118Y314191D01*
X154199Y314273D01*
X154203Y314280D01*
X154208Y314286D01*
X154256Y314390D01*
X154307Y314494D01*
X154308Y314502D01*
X154312Y314509D01*
X154324Y314623D01*
X154339Y314738D01*
X154338Y314746D01*
X154339Y314753D01*
X154314Y314866D01*
X154292Y314979D01*
X154288Y314986D01*
X154287Y314994D01*
X154228Y315092D01*
X154170Y315193D01*
X154164Y315198D01*
X154160Y315205D01*
X154073Y315279D01*
X153987Y315357D01*
X153980Y315360D01*
X153973Y315365D01*
X153866Y315408D01*
X153761Y315453D01*
X153753Y315454D01*
X153745Y315457D01*
X153579Y315475D01*
X142561Y315475D01*
X142471Y315461D01*
X142380Y315453D01*
X142350Y315441D01*
X142318Y315436D01*
X142238Y315393D01*
X142154Y315357D01*
X142122Y315331D01*
X142101Y315320D01*
X142079Y315297D01*
X142023Y315252D01*
X137898Y311127D01*
X137844Y311053D01*
X137785Y310984D01*
X137773Y310954D01*
X137754Y310927D01*
X137727Y310840D01*
X137693Y310756D01*
X137689Y310715D01*
X137682Y310692D01*
X137683Y310660D01*
X137675Y310589D01*
X137675Y293268D01*
X136782Y292375D01*
X122818Y292375D01*
X122538Y292655D01*
X122522Y292667D01*
X122510Y292683D01*
X122423Y292739D01*
X122339Y292799D01*
X122320Y292805D01*
X122303Y292816D01*
X122202Y292841D01*
X122104Y292871D01*
X122084Y292871D01*
X122064Y292876D01*
X121961Y292868D01*
X121858Y292865D01*
X121839Y292858D01*
X121819Y292857D01*
X121724Y292816D01*
X121627Y292781D01*
X121611Y292768D01*
X121593Y292760D01*
X121462Y292655D01*
X121182Y292375D01*
X117685Y292375D01*
X117614Y292364D01*
X117542Y292362D01*
X117493Y292344D01*
X117442Y292336D01*
X117378Y292302D01*
X117311Y292277D01*
X117270Y292245D01*
X117224Y292220D01*
X117175Y292168D01*
X117119Y292124D01*
X117091Y292080D01*
X117055Y292042D01*
X117025Y291977D01*
X116986Y291917D01*
X116973Y291866D01*
X116951Y291819D01*
X116944Y291748D01*
X116926Y291678D01*
X116930Y291626D01*
X116924Y291575D01*
X116940Y291504D01*
X116945Y291433D01*
X116965Y291385D01*
X116977Y291334D01*
X117013Y291273D01*
X117041Y291207D01*
X117086Y291151D01*
X117103Y291123D01*
X117121Y291108D01*
X117146Y291076D01*
X120107Y288115D01*
X120107Y283885D01*
X117546Y281324D01*
X117504Y281266D01*
X117455Y281214D01*
X117433Y281167D01*
X117403Y281125D01*
X117382Y281056D01*
X117351Y280991D01*
X117346Y280939D01*
X117330Y280889D01*
X117332Y280818D01*
X117324Y280747D01*
X117335Y280696D01*
X117337Y280644D01*
X117361Y280576D01*
X117377Y280506D01*
X117403Y280461D01*
X117421Y280413D01*
X117466Y280357D01*
X117503Y280295D01*
X117542Y280261D01*
X117575Y280221D01*
X117635Y280182D01*
X117690Y280135D01*
X117738Y280116D01*
X117782Y280088D01*
X117851Y280070D01*
X117918Y280043D01*
X117989Y280035D01*
X118020Y280027D01*
X118044Y280029D01*
X118085Y280025D01*
X120732Y280025D01*
X121625Y279132D01*
X121625Y267868D01*
X120732Y266975D01*
X109468Y266975D01*
X108575Y267868D01*
X108575Y279132D01*
X109468Y280025D01*
X111915Y280025D01*
X111986Y280036D01*
X112058Y280038D01*
X112107Y280056D01*
X112158Y280064D01*
X112222Y280098D01*
X112289Y280123D01*
X112330Y280155D01*
X112376Y280180D01*
X112425Y280232D01*
X112481Y280276D01*
X112509Y280320D01*
X112545Y280358D01*
X112575Y280423D01*
X112614Y280483D01*
X112627Y280534D01*
X112649Y280581D01*
X112656Y280652D01*
X112674Y280722D01*
X112670Y280774D01*
X112676Y280825D01*
X112660Y280895D01*
X112655Y280967D01*
X112635Y281015D01*
X112623Y281066D01*
X112587Y281127D01*
X112559Y281193D01*
X112514Y281249D01*
X112497Y281277D01*
X112479Y281292D01*
X112454Y281324D01*
X109893Y283885D01*
X109893Y288115D01*
X111452Y289674D01*
X111505Y289748D01*
X111565Y289818D01*
X111577Y289848D01*
X111596Y289874D01*
X111623Y289961D01*
X111657Y290046D01*
X111661Y290087D01*
X111668Y290109D01*
X111667Y290141D01*
X111675Y290213D01*
X111675Y291614D01*
X111672Y291634D01*
X111674Y291653D01*
X111652Y291755D01*
X111636Y291857D01*
X111626Y291874D01*
X111622Y291894D01*
X111569Y291983D01*
X111520Y292074D01*
X111506Y292088D01*
X111496Y292105D01*
X111417Y292172D01*
X111342Y292244D01*
X111324Y292252D01*
X111309Y292265D01*
X111213Y292304D01*
X111119Y292347D01*
X111099Y292349D01*
X111081Y292357D01*
X110914Y292375D01*
X107218Y292375D01*
X106938Y292655D01*
X106922Y292667D01*
X106910Y292683D01*
X106823Y292739D01*
X106739Y292799D01*
X106720Y292805D01*
X106703Y292816D01*
X106602Y292841D01*
X106504Y292871D01*
X106484Y292871D01*
X106464Y292876D01*
X106361Y292868D01*
X106258Y292865D01*
X106239Y292858D01*
X106219Y292857D01*
X106124Y292816D01*
X106027Y292781D01*
X106011Y292768D01*
X105993Y292760D01*
X105862Y292655D01*
X105582Y292375D01*
X101886Y292375D01*
X101866Y292372D01*
X101847Y292374D01*
X101745Y292352D01*
X101643Y292336D01*
X101626Y292326D01*
X101606Y292322D01*
X101517Y292269D01*
X101426Y292220D01*
X101412Y292206D01*
X101395Y292196D01*
X101328Y292117D01*
X101256Y292042D01*
X101248Y292024D01*
X101235Y292009D01*
X101196Y291913D01*
X101153Y291819D01*
X101151Y291799D01*
X101143Y291781D01*
X101125Y291614D01*
X101125Y287554D01*
X94895Y281324D01*
X94853Y281266D01*
X94804Y281214D01*
X94782Y281167D01*
X94751Y281125D01*
X94730Y281056D01*
X94700Y280991D01*
X94694Y280939D01*
X94679Y280889D01*
X94681Y280818D01*
X94673Y280747D01*
X94684Y280696D01*
X94685Y280644D01*
X94710Y280576D01*
X94725Y280506D01*
X94752Y280461D01*
X94770Y280413D01*
X94815Y280357D01*
X94851Y280295D01*
X94891Y280261D01*
X94923Y280221D01*
X94984Y280182D01*
X95038Y280135D01*
X95087Y280116D01*
X95130Y280088D01*
X95200Y280070D01*
X95266Y280043D01*
X95338Y280035D01*
X95369Y280027D01*
X95392Y280029D01*
X95433Y280025D01*
X105732Y280025D01*
X106625Y279132D01*
X106625Y267868D01*
X105732Y266975D01*
X103386Y266975D01*
X103366Y266972D01*
X103347Y266974D01*
X103245Y266952D01*
X103143Y266936D01*
X103126Y266926D01*
X103106Y266922D01*
X103017Y266869D01*
X102926Y266820D01*
X102912Y266806D01*
X102895Y266796D01*
X102828Y266717D01*
X102756Y266642D01*
X102748Y266624D01*
X102735Y266609D01*
X102696Y266513D01*
X102653Y266419D01*
X102651Y266399D01*
X102643Y266381D01*
X102625Y266214D01*
X102625Y261554D01*
X97477Y256406D01*
X97435Y256348D01*
X97386Y256296D01*
X97364Y256249D01*
X97333Y256207D01*
X97312Y256138D01*
X97282Y256073D01*
X97276Y256021D01*
X97261Y255971D01*
X97263Y255900D01*
X97255Y255829D01*
X97266Y255778D01*
X97267Y255726D01*
X97292Y255658D01*
X97307Y255588D01*
X97334Y255543D01*
X97352Y255495D01*
X97397Y255439D01*
X97433Y255377D01*
X97473Y255343D01*
X97505Y255303D01*
X97566Y255264D01*
X97620Y255217D01*
X97669Y255198D01*
X97712Y255170D01*
X97782Y255152D01*
X97848Y255125D01*
X97920Y255117D01*
X97951Y255109D01*
X97974Y255111D01*
X98015Y255107D01*
X102115Y255107D01*
X104474Y252748D01*
X104548Y252695D01*
X104618Y252635D01*
X104648Y252623D01*
X104674Y252604D01*
X104761Y252577D01*
X104846Y252543D01*
X104887Y252539D01*
X104909Y252532D01*
X104941Y252533D01*
X105013Y252525D01*
X251139Y252525D01*
X251229Y252539D01*
X251320Y252547D01*
X251350Y252559D01*
X251382Y252564D01*
X251462Y252607D01*
X251546Y252643D01*
X251578Y252669D01*
X251599Y252680D01*
X251621Y252703D01*
X251677Y252748D01*
X262352Y263423D01*
X262405Y263497D01*
X262465Y263566D01*
X262477Y263596D01*
X262496Y263623D01*
X262523Y263710D01*
X262557Y263794D01*
X262561Y263835D01*
X262568Y263858D01*
X262567Y263890D01*
X262575Y263961D01*
X262575Y266214D01*
X262572Y266234D01*
X262574Y266253D01*
X262552Y266355D01*
X262536Y266457D01*
X262526Y266474D01*
X262522Y266494D01*
X262469Y266583D01*
X262420Y266674D01*
X262406Y266688D01*
X262396Y266705D01*
X262317Y266772D01*
X262242Y266844D01*
X262224Y266852D01*
X262209Y266865D01*
X262113Y266904D01*
X262019Y266947D01*
X261999Y266949D01*
X261981Y266957D01*
X261814Y266975D01*
X259468Y266975D01*
X258575Y267868D01*
X258575Y279132D01*
X259468Y280025D01*
X270732Y280025D01*
X271625Y279132D01*
X271625Y267868D01*
X270732Y266975D01*
X268386Y266975D01*
X268366Y266972D01*
X268347Y266974D01*
X268245Y266952D01*
X268143Y266936D01*
X268126Y266926D01*
X268106Y266922D01*
X268017Y266869D01*
X267926Y266820D01*
X267912Y266806D01*
X267895Y266796D01*
X267828Y266717D01*
X267756Y266642D01*
X267748Y266624D01*
X267735Y266609D01*
X267696Y266513D01*
X267653Y266419D01*
X267651Y266399D01*
X267643Y266381D01*
X267625Y266214D01*
X267625Y261554D01*
X253546Y247475D01*
X105013Y247475D01*
X104923Y247461D01*
X104832Y247453D01*
X104802Y247441D01*
X104770Y247436D01*
X104689Y247393D01*
X104605Y247357D01*
X104573Y247331D01*
X104552Y247320D01*
X104530Y247297D01*
X104474Y247252D01*
X102115Y244893D01*
X97885Y244893D01*
X94893Y247885D01*
X94893Y251985D01*
X94882Y252056D01*
X94880Y252127D01*
X94862Y252176D01*
X94854Y252228D01*
X94820Y252291D01*
X94795Y252358D01*
X94763Y252399D01*
X94738Y252445D01*
X94687Y252494D01*
X94642Y252550D01*
X94598Y252579D01*
X94560Y252614D01*
X94495Y252645D01*
X94435Y252683D01*
X94384Y252696D01*
X94337Y252718D01*
X94266Y252726D01*
X94196Y252743D01*
X94144Y252739D01*
X94093Y252745D01*
X94022Y252730D01*
X93951Y252724D01*
X93903Y252704D01*
X93852Y252693D01*
X93791Y252656D01*
X93725Y252628D01*
X93669Y252583D01*
X93641Y252567D01*
X93626Y252549D01*
X93594Y252523D01*
X70977Y229906D01*
X70935Y229848D01*
X70886Y229796D01*
X70864Y229749D01*
X70833Y229707D01*
X70812Y229638D01*
X70782Y229573D01*
X70776Y229521D01*
X70761Y229471D01*
X70763Y229400D01*
X70755Y229329D01*
X70766Y229278D01*
X70767Y229226D01*
X70792Y229158D01*
X70807Y229088D01*
X70834Y229044D01*
X70852Y228995D01*
X70897Y228939D01*
X70933Y228877D01*
X70973Y228843D01*
X71005Y228803D01*
X71066Y228764D01*
X71120Y228717D01*
X71169Y228698D01*
X71212Y228670D01*
X71282Y228652D01*
X71348Y228625D01*
X71420Y228617D01*
X71451Y228609D01*
X71474Y228611D01*
X71515Y228607D01*
X72615Y228607D01*
X75607Y225615D01*
X75607Y221385D01*
X73248Y219026D01*
X73195Y218952D01*
X73135Y218882D01*
X73123Y218852D01*
X73104Y218826D01*
X73077Y218739D01*
X73043Y218654D01*
X73039Y218613D01*
X73032Y218591D01*
X73033Y218559D01*
X73025Y218487D01*
X73025Y218433D01*
X73036Y218362D01*
X73038Y218291D01*
X73056Y218242D01*
X73064Y218190D01*
X73098Y218127D01*
X73123Y218060D01*
X73155Y218019D01*
X73180Y217973D01*
X73232Y217924D01*
X73276Y217868D01*
X73320Y217839D01*
X73358Y217804D01*
X73423Y217773D01*
X73483Y217735D01*
X73534Y217722D01*
X73581Y217700D01*
X73652Y217692D01*
X73722Y217675D01*
X73774Y217679D01*
X73825Y217673D01*
X73896Y217688D01*
X73967Y217694D01*
X74015Y217714D01*
X74066Y217725D01*
X74127Y217762D01*
X74193Y217790D01*
X74249Y217835D01*
X74277Y217851D01*
X74292Y217869D01*
X74324Y217895D01*
X97252Y240823D01*
X98954Y242525D01*
X229987Y242525D01*
X230078Y242539D01*
X230168Y242547D01*
X230198Y242559D01*
X230230Y242564D01*
X230311Y242607D01*
X230395Y242643D01*
X230427Y242669D01*
X230448Y242680D01*
X230470Y242703D01*
X230526Y242748D01*
X232885Y245107D01*
X237115Y245107D01*
X240107Y242115D01*
X240107Y237885D01*
X238546Y236324D01*
X238504Y236266D01*
X238455Y236214D01*
X238433Y236167D01*
X238403Y236125D01*
X238382Y236056D01*
X238351Y235991D01*
X238346Y235939D01*
X238330Y235889D01*
X238332Y235818D01*
X238324Y235747D01*
X238335Y235696D01*
X238337Y235644D01*
X238361Y235576D01*
X238377Y235506D01*
X238403Y235461D01*
X238421Y235413D01*
X238466Y235357D01*
X238503Y235295D01*
X238542Y235261D01*
X238575Y235221D01*
X238635Y235182D01*
X238690Y235135D01*
X238738Y235116D01*
X238782Y235088D01*
X238851Y235070D01*
X238918Y235043D01*
X238989Y235035D01*
X239020Y235027D01*
X239044Y235029D01*
X239085Y235025D01*
X254987Y235025D01*
X255077Y235039D01*
X255168Y235047D01*
X255198Y235059D01*
X255230Y235064D01*
X255311Y235107D01*
X255395Y235143D01*
X255427Y235169D01*
X255448Y235180D01*
X255470Y235203D01*
X255526Y235248D01*
X257885Y237607D01*
X262115Y237607D01*
X265107Y234615D01*
X265107Y230385D01*
X262115Y227393D01*
X257885Y227393D01*
X255526Y229752D01*
X255452Y229805D01*
X255382Y229865D01*
X255352Y229877D01*
X255326Y229896D01*
X255239Y229923D01*
X255154Y229957D01*
X255113Y229961D01*
X255091Y229968D01*
X255059Y229967D01*
X254987Y229975D01*
X206361Y229975D01*
X206271Y229961D01*
X206180Y229953D01*
X206150Y229941D01*
X206118Y229936D01*
X206038Y229893D01*
X205954Y229857D01*
X205922Y229831D01*
X205901Y229820D01*
X205879Y229797D01*
X205823Y229752D01*
X157830Y181759D01*
X157777Y181685D01*
X157717Y181616D01*
X157705Y181586D01*
X157686Y181559D01*
X157659Y181472D01*
X157625Y181388D01*
X157621Y181347D01*
X157614Y181324D01*
X157615Y181292D01*
X157607Y181221D01*
X157607Y177885D01*
X156046Y176324D01*
X156004Y176266D01*
X155955Y176214D01*
X155933Y176167D01*
X155903Y176125D01*
X155882Y176056D01*
X155851Y175991D01*
X155846Y175939D01*
X155830Y175889D01*
X155832Y175818D01*
X155824Y175747D01*
X155835Y175696D01*
X155837Y175644D01*
X155861Y175576D01*
X155877Y175506D01*
X155903Y175461D01*
X155921Y175413D01*
X155966Y175357D01*
X156003Y175295D01*
X156042Y175261D01*
X156075Y175221D01*
X156135Y175182D01*
X156190Y175135D01*
X156238Y175116D01*
X156282Y175088D01*
X156351Y175070D01*
X156418Y175043D01*
X156489Y175035D01*
X156520Y175027D01*
X156544Y175029D01*
X156585Y175025D01*
X191139Y175025D01*
X191229Y175039D01*
X191320Y175047D01*
X191350Y175059D01*
X191382Y175064D01*
X191462Y175107D01*
X191546Y175143D01*
X191578Y175169D01*
X191599Y175180D01*
X191621Y175203D01*
X191677Y175248D01*
X224670Y208241D01*
X224723Y208315D01*
X224783Y208384D01*
X224795Y208414D01*
X224814Y208441D01*
X224841Y208527D01*
X224875Y208612D01*
X224879Y208653D01*
X224886Y208676D01*
X224885Y208708D01*
X224893Y208779D01*
X224893Y212115D01*
X227885Y215107D01*
X232115Y215107D01*
X235107Y212115D01*
X235107Y207885D01*
X232115Y204893D01*
X228779Y204893D01*
X228689Y204879D01*
X228598Y204871D01*
X228568Y204859D01*
X228536Y204854D01*
X228456Y204811D01*
X228372Y204775D01*
X228340Y204749D01*
X228319Y204738D01*
X228297Y204715D01*
X228241Y204670D01*
X195248Y171677D01*
X193546Y169975D01*
X150085Y169975D01*
X150014Y169964D01*
X149942Y169962D01*
X149893Y169944D01*
X149842Y169936D01*
X149779Y169902D01*
X149711Y169877D01*
X149670Y169845D01*
X149624Y169820D01*
X149575Y169769D01*
X149519Y169724D01*
X149491Y169680D01*
X149455Y169642D01*
X149425Y169577D01*
X149386Y169517D01*
X149373Y169466D01*
X149351Y169419D01*
X149344Y169348D01*
X149326Y169278D01*
X149330Y169226D01*
X149324Y169175D01*
X149340Y169104D01*
X149345Y169033D01*
X149365Y168985D01*
X149377Y168934D01*
X149413Y168873D01*
X149441Y168807D01*
X149486Y168751D01*
X149503Y168723D01*
X149521Y168708D01*
X149546Y168676D01*
X149974Y168248D01*
X150048Y168195D01*
X150118Y168135D01*
X150148Y168123D01*
X150174Y168104D01*
X150261Y168077D01*
X150346Y168043D01*
X150387Y168039D01*
X150409Y168032D01*
X150441Y168033D01*
X150513Y168025D01*
X206639Y168025D01*
X206729Y168039D01*
X206820Y168047D01*
X206850Y168059D01*
X206882Y168064D01*
X206962Y168107D01*
X207046Y168143D01*
X207078Y168169D01*
X207099Y168180D01*
X207121Y168203D01*
X207177Y168248D01*
X242252Y203323D01*
X242305Y203397D01*
X242365Y203466D01*
X242377Y203496D01*
X242396Y203523D01*
X242423Y203610D01*
X242457Y203694D01*
X242461Y203735D01*
X242468Y203758D01*
X242467Y203790D01*
X242475Y203861D01*
X242475Y214987D01*
X242461Y215078D01*
X242453Y215168D01*
X242441Y215198D01*
X242436Y215230D01*
X242393Y215311D01*
X242357Y215395D01*
X242331Y215427D01*
X242320Y215448D01*
X242297Y215470D01*
X242252Y215526D01*
X239893Y217885D01*
X239893Y222115D01*
X242885Y225107D01*
X247115Y225107D01*
X250107Y222115D01*
X250107Y217885D01*
X247748Y215526D01*
X247695Y215452D01*
X247635Y215382D01*
X247623Y215352D01*
X247604Y215326D01*
X247577Y215239D01*
X247543Y215154D01*
X247539Y215113D01*
X247532Y215091D01*
X247533Y215059D01*
X247525Y214987D01*
X247525Y201454D01*
X209046Y162975D01*
X150513Y162975D01*
X150422Y162961D01*
X150332Y162953D01*
X150302Y162941D01*
X150270Y162936D01*
X150189Y162893D01*
X150105Y162857D01*
X150073Y162831D01*
X150052Y162820D01*
X150030Y162797D01*
X149974Y162752D01*
X147615Y160393D01*
X143385Y160393D01*
X140393Y163385D01*
X140393Y167615D01*
X142815Y170037D01*
X142827Y170054D01*
X142843Y170066D01*
X142899Y170153D01*
X142959Y170237D01*
X142965Y170256D01*
X142976Y170273D01*
X143001Y170373D01*
X143031Y170472D01*
X143031Y170492D01*
X143036Y170512D01*
X143028Y170614D01*
X143025Y170718D01*
X143018Y170737D01*
X143017Y170757D01*
X142976Y170852D01*
X142941Y170949D01*
X142928Y170965D01*
X142920Y170983D01*
X142815Y171114D01*
X139259Y174670D01*
X139185Y174723D01*
X139116Y174783D01*
X139086Y174795D01*
X139059Y174814D01*
X138972Y174841D01*
X138888Y174875D01*
X138847Y174879D01*
X138824Y174886D01*
X138792Y174885D01*
X138721Y174893D01*
X135385Y174893D01*
X132393Y177885D01*
X132393Y182115D01*
X135385Y185107D01*
X139615Y185107D01*
X142607Y182115D01*
X142607Y178779D01*
X142621Y178689D01*
X142629Y178598D01*
X142641Y178568D01*
X142646Y178536D01*
X142689Y178456D01*
X142725Y178372D01*
X142751Y178340D01*
X142762Y178319D01*
X142785Y178297D01*
X142830Y178241D01*
X145823Y175248D01*
X145897Y175195D01*
X145966Y175135D01*
X145996Y175123D01*
X146023Y175104D01*
X146110Y175077D01*
X146194Y175043D01*
X146235Y175039D01*
X146258Y175032D01*
X146290Y175033D01*
X146361Y175025D01*
X148415Y175025D01*
X148486Y175036D01*
X148558Y175038D01*
X148607Y175056D01*
X148658Y175064D01*
X148722Y175098D01*
X148789Y175123D01*
X148830Y175155D01*
X148876Y175180D01*
X148925Y175232D01*
X148981Y175276D01*
X149009Y175320D01*
X149045Y175358D01*
X149075Y175423D01*
X149114Y175483D01*
X149127Y175534D01*
X149149Y175581D01*
X149156Y175652D01*
X149174Y175722D01*
X149170Y175774D01*
X149176Y175825D01*
X149160Y175896D01*
X149155Y175967D01*
X149135Y176015D01*
X149123Y176066D01*
X149087Y176127D01*
X149059Y176193D01*
X149014Y176249D01*
X148997Y176277D01*
X148979Y176292D01*
X148954Y176324D01*
X147393Y177885D01*
X147393Y182115D01*
X150385Y185107D01*
X153721Y185107D01*
X153811Y185121D01*
X153902Y185129D01*
X153932Y185141D01*
X153964Y185146D01*
X154044Y185189D01*
X154128Y185225D01*
X154160Y185251D01*
X154181Y185262D01*
X154203Y185285D01*
X154259Y185330D01*
X203954Y235025D01*
X230915Y235025D01*
X230986Y235036D01*
X231058Y235038D01*
X231107Y235056D01*
X231158Y235064D01*
X231221Y235098D01*
X231289Y235123D01*
X231330Y235155D01*
X231376Y235180D01*
X231425Y235231D01*
X231481Y235276D01*
X231509Y235320D01*
X231545Y235358D01*
X231575Y235423D01*
X231614Y235483D01*
X231627Y235534D01*
X231649Y235581D01*
X231656Y235652D01*
X231674Y235722D01*
X231670Y235774D01*
X231676Y235825D01*
X231660Y235896D01*
X231655Y235967D01*
X231635Y236015D01*
X231623Y236066D01*
X231587Y236127D01*
X231559Y236193D01*
X231514Y236249D01*
X231497Y236277D01*
X231479Y236292D01*
X231454Y236324D01*
X230526Y237252D01*
X230452Y237305D01*
X230382Y237365D01*
X230352Y237377D01*
X230326Y237396D01*
X230239Y237423D01*
X230154Y237457D01*
X230113Y237461D01*
X230091Y237468D01*
X230059Y237467D01*
X229987Y237475D01*
X101361Y237475D01*
X101271Y237461D01*
X101180Y237453D01*
X101150Y237441D01*
X101118Y237436D01*
X101038Y237393D01*
X100954Y237357D01*
X100922Y237331D01*
X100901Y237320D01*
X100879Y237297D01*
X100823Y237252D01*
X77748Y214177D01*
X77695Y214103D01*
X77635Y214034D01*
X77623Y214004D01*
X77604Y213977D01*
X77577Y213890D01*
X77543Y213806D01*
X77539Y213765D01*
X77532Y213742D01*
X77533Y213710D01*
X77525Y213639D01*
X77525Y149919D01*
X77536Y149848D01*
X77538Y149776D01*
X77556Y149727D01*
X77564Y149676D01*
X77598Y149613D01*
X77623Y149545D01*
X77655Y149505D01*
X77680Y149459D01*
X77732Y149409D01*
X77776Y149353D01*
X77820Y149325D01*
X77858Y149289D01*
X77923Y149259D01*
X77983Y149220D01*
X78034Y149208D01*
X78081Y149186D01*
X78152Y149178D01*
X78222Y149160D01*
X78274Y149164D01*
X78325Y149159D01*
X78396Y149174D01*
X78467Y149179D01*
X78515Y149200D01*
X78566Y149211D01*
X78627Y149248D01*
X78693Y149276D01*
X78749Y149321D01*
X78777Y149337D01*
X78792Y149355D01*
X78824Y149381D01*
X79468Y150025D01*
X90732Y150025D01*
X91625Y149132D01*
X91625Y138286D01*
X91628Y138266D01*
X91626Y138247D01*
X91648Y138145D01*
X91664Y138043D01*
X91674Y138026D01*
X91678Y138006D01*
X91731Y137917D01*
X91780Y137826D01*
X91794Y137812D01*
X91804Y137795D01*
X91883Y137728D01*
X91958Y137656D01*
X91976Y137648D01*
X91991Y137635D01*
X92087Y137596D01*
X92181Y137553D01*
X92201Y137551D01*
X92219Y137543D01*
X92386Y137525D01*
X92814Y137525D01*
X92834Y137528D01*
X92853Y137526D01*
X92955Y137548D01*
X93057Y137564D01*
X93074Y137574D01*
X93094Y137578D01*
X93183Y137631D01*
X93274Y137680D01*
X93288Y137694D01*
X93305Y137704D01*
X93372Y137783D01*
X93444Y137858D01*
X93452Y137876D01*
X93465Y137891D01*
X93504Y137987D01*
X93547Y138081D01*
X93549Y138101D01*
X93557Y138119D01*
X93575Y138286D01*
X93575Y149132D01*
X94468Y150025D01*
X105732Y150025D01*
X106625Y149132D01*
X106625Y137868D01*
X105732Y136975D01*
X95933Y136975D01*
X95862Y136964D01*
X95791Y136962D01*
X95742Y136944D01*
X95690Y136936D01*
X95627Y136902D01*
X95560Y136877D01*
X95519Y136845D01*
X95473Y136820D01*
X95424Y136769D01*
X95368Y136724D01*
X95339Y136680D01*
X95304Y136642D01*
X95273Y136577D01*
X95235Y136517D01*
X95222Y136466D01*
X95200Y136419D01*
X95192Y136348D01*
X95175Y136278D01*
X95179Y136226D01*
X95173Y136175D01*
X95188Y136104D01*
X95194Y136033D01*
X95214Y135985D01*
X95225Y135934D01*
X95262Y135873D01*
X95290Y135807D01*
X95335Y135751D01*
X95351Y135723D01*
X95369Y135708D01*
X95395Y135676D01*
X95823Y135248D01*
X95897Y135194D01*
X95966Y135135D01*
X95996Y135123D01*
X96023Y135104D01*
X96110Y135077D01*
X96194Y135043D01*
X96235Y135039D01*
X96258Y135032D01*
X96290Y135033D01*
X96361Y135025D01*
X146046Y135025D01*
X150025Y131046D01*
X150025Y115786D01*
X150028Y115766D01*
X150026Y115747D01*
X150048Y115645D01*
X150064Y115543D01*
X150074Y115526D01*
X150078Y115506D01*
X150131Y115417D01*
X150180Y115326D01*
X150194Y115312D01*
X150204Y115295D01*
X150283Y115228D01*
X150358Y115156D01*
X150376Y115148D01*
X150391Y115135D01*
X150487Y115096D01*
X150581Y115053D01*
X150601Y115051D01*
X150619Y115043D01*
X150786Y115025D01*
X161046Y115025D01*
X162748Y113323D01*
X163476Y112595D01*
X163534Y112553D01*
X163586Y112504D01*
X163633Y112482D01*
X163675Y112451D01*
X163744Y112430D01*
X163809Y112400D01*
X163861Y112394D01*
X163911Y112379D01*
X163982Y112381D01*
X164053Y112373D01*
X164104Y112384D01*
X164156Y112385D01*
X164224Y112410D01*
X164294Y112425D01*
X164339Y112452D01*
X164387Y112470D01*
X164443Y112515D01*
X164505Y112551D01*
X164539Y112591D01*
X164579Y112623D01*
X164618Y112684D01*
X164665Y112738D01*
X164684Y112787D01*
X164712Y112830D01*
X164730Y112900D01*
X164757Y112966D01*
X164765Y113038D01*
X164773Y113069D01*
X164771Y113092D01*
X164775Y113133D01*
X164775Y122132D01*
X165668Y123025D01*
X166714Y123025D01*
X166734Y123028D01*
X166753Y123026D01*
X166855Y123048D01*
X166957Y123064D01*
X166974Y123074D01*
X166994Y123078D01*
X167083Y123131D01*
X167174Y123180D01*
X167188Y123194D01*
X167205Y123204D01*
X167272Y123283D01*
X167344Y123358D01*
X167352Y123376D01*
X167365Y123391D01*
X167404Y123487D01*
X167447Y123581D01*
X167449Y123601D01*
X167457Y123619D01*
X167475Y123786D01*
X167475Y126046D01*
X168954Y127525D01*
X206046Y127525D01*
X215525Y118046D01*
X215525Y105286D01*
X215526Y105279D01*
X215526Y105278D01*
X215527Y105271D01*
X215528Y105266D01*
X215526Y105247D01*
X215548Y105145D01*
X215564Y105043D01*
X215574Y105026D01*
X215578Y105006D01*
X215631Y104917D01*
X215680Y104826D01*
X215694Y104812D01*
X215704Y104795D01*
X215783Y104728D01*
X215858Y104656D01*
X215876Y104648D01*
X215891Y104635D01*
X215987Y104596D01*
X216081Y104553D01*
X216101Y104551D01*
X216119Y104543D01*
X216286Y104525D01*
X217514Y104525D01*
X217534Y104528D01*
X217553Y104526D01*
X217655Y104548D01*
X217757Y104564D01*
X217774Y104574D01*
X217794Y104578D01*
X217883Y104631D01*
X217974Y104680D01*
X217988Y104694D01*
X218005Y104704D01*
X218072Y104783D01*
X218144Y104858D01*
X218152Y104876D01*
X218165Y104891D01*
X218204Y104987D01*
X218247Y105081D01*
X218249Y105101D01*
X218257Y105119D01*
X218275Y105286D01*
X218275Y109232D01*
X219168Y110125D01*
X230432Y110125D01*
X231325Y109232D01*
X231325Y96968D01*
X230749Y96392D01*
X230680Y96296D01*
X230609Y96200D01*
X230608Y96196D01*
X230605Y96193D01*
X230571Y96080D01*
X230534Y95966D01*
X230534Y95962D01*
X230533Y95958D01*
X230536Y95839D01*
X230538Y95720D01*
X230539Y95716D01*
X230539Y95712D01*
X230580Y95600D01*
X230620Y95488D01*
X230622Y95485D01*
X230624Y95481D01*
X230698Y95388D01*
X230771Y95294D01*
X230775Y95291D01*
X230777Y95289D01*
X230789Y95281D01*
X230906Y95195D01*
X231360Y94933D01*
X231833Y94460D01*
X232168Y93881D01*
X232341Y93234D01*
X232341Y88923D01*
X225562Y88923D01*
X225542Y88920D01*
X225523Y88922D01*
X225421Y88900D01*
X225319Y88883D01*
X225302Y88874D01*
X225282Y88870D01*
X225193Y88817D01*
X225102Y88768D01*
X225088Y88754D01*
X225071Y88744D01*
X225004Y88665D01*
X224933Y88590D01*
X224924Y88572D01*
X224911Y88557D01*
X224872Y88461D01*
X224829Y88367D01*
X224827Y88347D01*
X224819Y88329D01*
X224801Y88162D01*
X224801Y87399D01*
X224799Y87399D01*
X224799Y88162D01*
X224796Y88182D01*
X224798Y88201D01*
X224776Y88303D01*
X224759Y88405D01*
X224750Y88422D01*
X224746Y88442D01*
X224693Y88531D01*
X224644Y88622D01*
X224630Y88636D01*
X224620Y88653D01*
X224541Y88720D01*
X224466Y88791D01*
X224448Y88800D01*
X224433Y88813D01*
X224337Y88852D01*
X224243Y88895D01*
X224223Y88897D01*
X224205Y88905D01*
X224038Y88923D01*
X217259Y88923D01*
X217259Y93234D01*
X217432Y93881D01*
X217767Y94460D01*
X218240Y94933D01*
X218694Y95195D01*
X218785Y95270D01*
X218878Y95345D01*
X218881Y95348D01*
X218884Y95351D01*
X218946Y95450D01*
X219011Y95551D01*
X219012Y95556D01*
X219015Y95559D01*
X219042Y95674D01*
X219071Y95790D01*
X219071Y95794D01*
X219072Y95798D01*
X219062Y95917D01*
X219052Y96035D01*
X219051Y96039D01*
X219050Y96043D01*
X219002Y96153D01*
X218956Y96262D01*
X218953Y96265D01*
X218952Y96268D01*
X218942Y96279D01*
X218851Y96392D01*
X218275Y96968D01*
X218275Y98714D01*
X218272Y98734D01*
X218274Y98753D01*
X218252Y98855D01*
X218236Y98957D01*
X218226Y98974D01*
X218222Y98994D01*
X218169Y99083D01*
X218120Y99174D01*
X218106Y99188D01*
X218096Y99205D01*
X218017Y99272D01*
X217942Y99344D01*
X217924Y99352D01*
X217909Y99365D01*
X217813Y99404D01*
X217719Y99447D01*
X217699Y99449D01*
X217681Y99457D01*
X217514Y99475D01*
X211954Y99475D01*
X210475Y100954D01*
X210475Y115639D01*
X210461Y115729D01*
X210453Y115820D01*
X210441Y115850D01*
X210436Y115882D01*
X210393Y115962D01*
X210357Y116046D01*
X210331Y116078D01*
X210320Y116099D01*
X210297Y116121D01*
X210252Y116177D01*
X204177Y122252D01*
X204103Y122305D01*
X204034Y122365D01*
X204004Y122377D01*
X203977Y122396D01*
X203890Y122423D01*
X203806Y122457D01*
X203765Y122461D01*
X203742Y122468D01*
X203710Y122467D01*
X203639Y122475D01*
X196586Y122475D01*
X196566Y122472D01*
X196547Y122474D01*
X196445Y122452D01*
X196343Y122436D01*
X196326Y122426D01*
X196306Y122422D01*
X196217Y122369D01*
X196126Y122320D01*
X196112Y122306D01*
X196095Y122296D01*
X196028Y122217D01*
X195956Y122142D01*
X195948Y122124D01*
X195935Y122109D01*
X195896Y122013D01*
X195853Y121919D01*
X195851Y121899D01*
X195843Y121881D01*
X195825Y121714D01*
X195825Y119786D01*
X195828Y119766D01*
X195826Y119747D01*
X195848Y119645D01*
X195864Y119543D01*
X195874Y119526D01*
X195878Y119506D01*
X195931Y119417D01*
X195980Y119326D01*
X195994Y119312D01*
X196004Y119295D01*
X196083Y119228D01*
X196158Y119156D01*
X196176Y119148D01*
X196191Y119135D01*
X196287Y119096D01*
X196381Y119053D01*
X196401Y119051D01*
X196419Y119043D01*
X196586Y119025D01*
X202046Y119025D01*
X207525Y113546D01*
X207525Y86361D01*
X207539Y86271D01*
X207547Y86180D01*
X207559Y86150D01*
X207564Y86118D01*
X207607Y86038D01*
X207643Y85954D01*
X207669Y85922D01*
X207680Y85901D01*
X207703Y85879D01*
X207748Y85823D01*
X212525Y81046D01*
X212525Y73686D01*
X212528Y73666D01*
X212526Y73647D01*
X212548Y73545D01*
X212564Y73443D01*
X212574Y73426D01*
X212578Y73406D01*
X212631Y73317D01*
X212680Y73226D01*
X212694Y73212D01*
X212704Y73195D01*
X212783Y73128D01*
X212858Y73056D01*
X212876Y73048D01*
X212891Y73035D01*
X212987Y72996D01*
X213081Y72953D01*
X213101Y72951D01*
X213119Y72943D01*
X213286Y72925D01*
X217514Y72925D01*
X217534Y72928D01*
G37*
G36*
X389098Y10164D02*
X389098Y10164D01*
X389117Y10162D01*
X389219Y10184D01*
X389321Y10200D01*
X389338Y10210D01*
X389358Y10214D01*
X389447Y10267D01*
X389538Y10316D01*
X389552Y10330D01*
X389569Y10340D01*
X389636Y10419D01*
X389708Y10494D01*
X389716Y10512D01*
X389729Y10527D01*
X389768Y10623D01*
X389811Y10717D01*
X389813Y10737D01*
X389821Y10755D01*
X389839Y10922D01*
X389839Y17580D01*
X389835Y17606D01*
X389837Y17632D01*
X389832Y17656D01*
X389832Y17671D01*
X389815Y17730D01*
X389800Y17822D01*
X389787Y17846D01*
X389781Y17871D01*
X389765Y17897D01*
X389762Y17907D01*
X389735Y17946D01*
X389730Y17954D01*
X389684Y18040D01*
X389665Y18058D01*
X389651Y18080D01*
X389625Y18102D01*
X389621Y18108D01*
X389593Y18128D01*
X389577Y18142D01*
X389506Y18209D01*
X389482Y18220D01*
X389462Y18237D01*
X389428Y18250D01*
X389423Y18254D01*
X389396Y18262D01*
X389371Y18272D01*
X389283Y18313D01*
X389257Y18316D01*
X389232Y18325D01*
X389195Y18327D01*
X389189Y18329D01*
X389159Y18328D01*
X389135Y18329D01*
X389039Y18340D01*
X389013Y18334D01*
X388986Y18335D01*
X388951Y18325D01*
X388943Y18325D01*
X388907Y18312D01*
X388893Y18308D01*
X388798Y18288D01*
X388776Y18274D01*
X388750Y18267D01*
X388722Y18247D01*
X388711Y18243D01*
X388670Y18211D01*
X388587Y18161D01*
X388570Y18141D01*
X388548Y18126D01*
X388530Y18101D01*
X388517Y18091D01*
X388456Y18008D01*
X388427Y17974D01*
X388422Y17962D01*
X388418Y17956D01*
X388403Y17931D01*
X388402Y17929D01*
X388401Y17927D01*
X388033Y17290D01*
X387560Y16817D01*
X386981Y16482D01*
X386334Y16309D01*
X376499Y16309D01*
X376499Y21112D01*
X376496Y21131D01*
X376498Y21151D01*
X376476Y21253D01*
X376460Y21355D01*
X376450Y21372D01*
X376446Y21392D01*
X376393Y21481D01*
X376344Y21572D01*
X376330Y21586D01*
X376320Y21603D01*
X376241Y21670D01*
X376166Y21741D01*
X376148Y21750D01*
X376133Y21763D01*
X376037Y21801D01*
X375943Y21845D01*
X375923Y21847D01*
X375905Y21854D01*
X375981Y21867D01*
X375998Y21876D01*
X376018Y21880D01*
X376107Y21933D01*
X376198Y21982D01*
X376212Y21996D01*
X376229Y22006D01*
X376296Y22085D01*
X376368Y22160D01*
X376376Y22178D01*
X376389Y22193D01*
X376428Y22290D01*
X376471Y22383D01*
X376473Y22403D01*
X376481Y22421D01*
X376499Y22588D01*
X376499Y27391D01*
X386334Y27391D01*
X386981Y27218D01*
X387560Y26883D01*
X388033Y26410D01*
X388418Y25744D01*
X388430Y25729D01*
X388441Y25703D01*
X388459Y25684D01*
X388472Y25660D01*
X388537Y25599D01*
X388573Y25554D01*
X388586Y25546D01*
X388608Y25522D01*
X388631Y25509D01*
X388650Y25491D01*
X388738Y25450D01*
X388741Y25448D01*
X388782Y25423D01*
X388792Y25420D01*
X388823Y25403D01*
X388849Y25398D01*
X388873Y25387D01*
X388969Y25377D01*
X388988Y25373D01*
X389021Y25365D01*
X389028Y25366D01*
X389065Y25359D01*
X389091Y25363D01*
X389117Y25360D01*
X389212Y25381D01*
X389238Y25385D01*
X389266Y25387D01*
X389271Y25390D01*
X389309Y25395D01*
X389332Y25407D01*
X389358Y25412D01*
X389441Y25462D01*
X389464Y25474D01*
X389491Y25486D01*
X389496Y25490D01*
X389528Y25506D01*
X389546Y25525D01*
X389569Y25539D01*
X389632Y25612D01*
X389645Y25626D01*
X389673Y25651D01*
X389677Y25658D01*
X389700Y25682D01*
X389712Y25706D01*
X389729Y25726D01*
X389765Y25816D01*
X389767Y25819D01*
X389793Y25866D01*
X389795Y25877D01*
X389808Y25903D01*
X389811Y25929D01*
X389821Y25954D01*
X389838Y26106D01*
X389838Y26108D01*
X389839Y26120D01*
X389839Y30280D01*
X389835Y30306D01*
X389837Y30332D01*
X389832Y30356D01*
X389832Y30371D01*
X389815Y30430D01*
X389800Y30522D01*
X389787Y30546D01*
X389781Y30571D01*
X389765Y30597D01*
X389762Y30607D01*
X389735Y30646D01*
X389730Y30654D01*
X389684Y30740D01*
X389665Y30758D01*
X389651Y30780D01*
X389625Y30802D01*
X389621Y30808D01*
X389593Y30828D01*
X389577Y30842D01*
X389506Y30909D01*
X389482Y30920D01*
X389462Y30937D01*
X389428Y30950D01*
X389423Y30954D01*
X389396Y30962D01*
X389371Y30972D01*
X389283Y31013D01*
X389257Y31016D01*
X389232Y31025D01*
X389195Y31027D01*
X389189Y31029D01*
X389159Y31028D01*
X389135Y31029D01*
X389039Y31040D01*
X389013Y31034D01*
X388986Y31035D01*
X388951Y31025D01*
X388943Y31025D01*
X388907Y31012D01*
X388893Y31008D01*
X388798Y30988D01*
X388776Y30974D01*
X388750Y30967D01*
X388722Y30947D01*
X388711Y30943D01*
X388670Y30911D01*
X388587Y30861D01*
X388570Y30841D01*
X388548Y30826D01*
X388530Y30801D01*
X388517Y30791D01*
X388456Y30708D01*
X388427Y30674D01*
X388422Y30662D01*
X388418Y30656D01*
X388403Y30631D01*
X388402Y30629D01*
X388401Y30627D01*
X388033Y29990D01*
X387560Y29517D01*
X386981Y29182D01*
X386334Y29009D01*
X376499Y29009D01*
X376499Y33812D01*
X376496Y33831D01*
X376498Y33851D01*
X376476Y33953D01*
X376460Y34055D01*
X376450Y34072D01*
X376446Y34092D01*
X376393Y34181D01*
X376344Y34272D01*
X376330Y34286D01*
X376320Y34303D01*
X376241Y34370D01*
X376166Y34441D01*
X376148Y34450D01*
X376133Y34463D01*
X376037Y34501D01*
X375943Y34545D01*
X375923Y34547D01*
X375905Y34554D01*
X375981Y34567D01*
X375998Y34576D01*
X376018Y34580D01*
X376107Y34633D01*
X376198Y34682D01*
X376212Y34696D01*
X376229Y34706D01*
X376296Y34785D01*
X376368Y34860D01*
X376376Y34878D01*
X376389Y34893D01*
X376428Y34990D01*
X376471Y35083D01*
X376473Y35103D01*
X376481Y35121D01*
X376499Y35288D01*
X376499Y40091D01*
X386334Y40091D01*
X386981Y39918D01*
X387560Y39583D01*
X388033Y39110D01*
X388418Y38444D01*
X388430Y38429D01*
X388441Y38403D01*
X388459Y38384D01*
X388472Y38360D01*
X388537Y38299D01*
X388573Y38254D01*
X388586Y38246D01*
X388608Y38222D01*
X388631Y38209D01*
X388650Y38191D01*
X388738Y38150D01*
X388741Y38148D01*
X388782Y38123D01*
X388792Y38120D01*
X388823Y38103D01*
X388849Y38098D01*
X388873Y38087D01*
X388969Y38077D01*
X388988Y38073D01*
X389021Y38065D01*
X389028Y38066D01*
X389065Y38059D01*
X389091Y38063D01*
X389117Y38060D01*
X389212Y38081D01*
X389238Y38085D01*
X389266Y38087D01*
X389271Y38090D01*
X389309Y38095D01*
X389332Y38107D01*
X389358Y38112D01*
X389441Y38162D01*
X389464Y38174D01*
X389491Y38186D01*
X389496Y38190D01*
X389528Y38206D01*
X389546Y38225D01*
X389569Y38239D01*
X389632Y38312D01*
X389645Y38326D01*
X389673Y38351D01*
X389677Y38358D01*
X389700Y38382D01*
X389712Y38406D01*
X389729Y38426D01*
X389765Y38516D01*
X389767Y38519D01*
X389793Y38566D01*
X389795Y38577D01*
X389808Y38603D01*
X389811Y38629D01*
X389821Y38654D01*
X389838Y38806D01*
X389838Y38808D01*
X389839Y38820D01*
X389839Y42980D01*
X389835Y43006D01*
X389837Y43033D01*
X389832Y43057D01*
X389832Y43071D01*
X389815Y43130D01*
X389800Y43222D01*
X389787Y43246D01*
X389781Y43273D01*
X389765Y43297D01*
X389762Y43307D01*
X389736Y43345D01*
X389730Y43355D01*
X389684Y43440D01*
X389665Y43458D01*
X389650Y43481D01*
X389625Y43502D01*
X389621Y43508D01*
X389595Y43527D01*
X389576Y43543D01*
X389506Y43609D01*
X389482Y43620D01*
X389461Y43638D01*
X389427Y43650D01*
X389423Y43654D01*
X389398Y43662D01*
X389371Y43672D01*
X389283Y43713D01*
X389256Y43716D01*
X389231Y43725D01*
X389194Y43727D01*
X389189Y43729D01*
X389161Y43728D01*
X389134Y43729D01*
X389039Y43740D01*
X389012Y43734D01*
X388985Y43735D01*
X388950Y43725D01*
X388943Y43725D01*
X388909Y43713D01*
X388892Y43708D01*
X388798Y43688D01*
X388775Y43674D01*
X388749Y43666D01*
X388721Y43646D01*
X388711Y43643D01*
X388670Y43611D01*
X388587Y43561D01*
X388569Y43541D01*
X388547Y43525D01*
X388529Y43501D01*
X388517Y43491D01*
X388456Y43408D01*
X388427Y43374D01*
X388422Y43362D01*
X388418Y43356D01*
X388402Y43329D01*
X388401Y43328D01*
X388400Y43326D01*
X388033Y42690D01*
X387560Y42217D01*
X386981Y41882D01*
X386334Y41709D01*
X376499Y41709D01*
X376499Y46512D01*
X376496Y46531D01*
X376498Y46551D01*
X376476Y46653D01*
X376460Y46755D01*
X376450Y46772D01*
X376446Y46792D01*
X376393Y46881D01*
X376344Y46972D01*
X376330Y46986D01*
X376320Y47003D01*
X376241Y47070D01*
X376166Y47141D01*
X376148Y47150D01*
X376133Y47163D01*
X376037Y47201D01*
X375943Y47245D01*
X375923Y47247D01*
X375905Y47254D01*
X375981Y47267D01*
X375998Y47276D01*
X376018Y47280D01*
X376107Y47333D01*
X376198Y47382D01*
X376212Y47396D01*
X376229Y47406D01*
X376296Y47485D01*
X376368Y47560D01*
X376376Y47578D01*
X376389Y47593D01*
X376428Y47690D01*
X376471Y47783D01*
X376473Y47803D01*
X376481Y47821D01*
X376499Y47988D01*
X376499Y52791D01*
X386334Y52791D01*
X386981Y52618D01*
X387560Y52283D01*
X388033Y51810D01*
X388418Y51144D01*
X388429Y51130D01*
X388441Y51104D01*
X388459Y51084D01*
X388472Y51060D01*
X388537Y50998D01*
X388573Y50954D01*
X388585Y50946D01*
X388607Y50923D01*
X388630Y50910D01*
X388650Y50891D01*
X388737Y50850D01*
X388742Y50848D01*
X388782Y50823D01*
X388791Y50821D01*
X388822Y50804D01*
X388848Y50799D01*
X388873Y50787D01*
X388969Y50777D01*
X388990Y50773D01*
X389021Y50765D01*
X389028Y50766D01*
X389064Y50759D01*
X389091Y50763D01*
X389117Y50760D01*
X389212Y50781D01*
X389241Y50785D01*
X389266Y50787D01*
X389271Y50789D01*
X389307Y50794D01*
X389331Y50807D01*
X389358Y50812D01*
X389441Y50862D01*
X389466Y50875D01*
X389491Y50886D01*
X389495Y50890D01*
X389527Y50905D01*
X389546Y50925D01*
X389569Y50939D01*
X389632Y51012D01*
X389646Y51027D01*
X389673Y51051D01*
X389677Y51058D01*
X389699Y51081D01*
X389711Y51105D01*
X389729Y51126D01*
X389765Y51215D01*
X389768Y51220D01*
X389793Y51266D01*
X389795Y51277D01*
X389807Y51302D01*
X389811Y51329D01*
X389821Y51354D01*
X389838Y51506D01*
X389838Y51508D01*
X389839Y51520D01*
X389839Y55680D01*
X389835Y55706D01*
X389837Y55732D01*
X389832Y55756D01*
X389832Y55771D01*
X389815Y55830D01*
X389800Y55922D01*
X389787Y55946D01*
X389781Y55971D01*
X389765Y55997D01*
X389762Y56007D01*
X389735Y56046D01*
X389730Y56054D01*
X389684Y56140D01*
X389665Y56158D01*
X389651Y56180D01*
X389625Y56202D01*
X389621Y56208D01*
X389593Y56228D01*
X389577Y56242D01*
X389506Y56309D01*
X389482Y56320D01*
X389462Y56337D01*
X389428Y56350D01*
X389423Y56354D01*
X389396Y56362D01*
X389371Y56372D01*
X389283Y56413D01*
X389257Y56416D01*
X389232Y56425D01*
X389195Y56427D01*
X389189Y56429D01*
X389159Y56428D01*
X389135Y56429D01*
X389039Y56440D01*
X389013Y56434D01*
X388986Y56435D01*
X388951Y56425D01*
X388943Y56425D01*
X388907Y56412D01*
X388893Y56408D01*
X388798Y56388D01*
X388776Y56374D01*
X388750Y56367D01*
X388722Y56347D01*
X388711Y56343D01*
X388670Y56311D01*
X388587Y56261D01*
X388570Y56241D01*
X388548Y56226D01*
X388530Y56201D01*
X388517Y56191D01*
X388456Y56108D01*
X388427Y56074D01*
X388422Y56062D01*
X388418Y56056D01*
X388403Y56031D01*
X388402Y56029D01*
X388401Y56027D01*
X388033Y55390D01*
X387560Y54917D01*
X386981Y54582D01*
X386334Y54409D01*
X376499Y54409D01*
X376499Y59212D01*
X376496Y59231D01*
X376498Y59251D01*
X376476Y59353D01*
X376460Y59455D01*
X376450Y59472D01*
X376446Y59492D01*
X376393Y59581D01*
X376344Y59672D01*
X376330Y59686D01*
X376320Y59703D01*
X376241Y59770D01*
X376166Y59841D01*
X376148Y59850D01*
X376133Y59863D01*
X376037Y59901D01*
X375943Y59945D01*
X375923Y59947D01*
X375905Y59954D01*
X375981Y59967D01*
X375998Y59976D01*
X376018Y59980D01*
X376107Y60033D01*
X376198Y60082D01*
X376212Y60096D01*
X376229Y60106D01*
X376296Y60185D01*
X376368Y60260D01*
X376376Y60278D01*
X376389Y60293D01*
X376428Y60390D01*
X376471Y60483D01*
X376473Y60503D01*
X376481Y60521D01*
X376499Y60688D01*
X376499Y65491D01*
X386334Y65491D01*
X386981Y65318D01*
X387560Y64983D01*
X388033Y64510D01*
X388418Y63844D01*
X388429Y63830D01*
X388441Y63804D01*
X388459Y63784D01*
X388472Y63760D01*
X388537Y63698D01*
X388573Y63654D01*
X388585Y63646D01*
X388607Y63623D01*
X388630Y63610D01*
X388650Y63591D01*
X388737Y63550D01*
X388742Y63548D01*
X388782Y63523D01*
X388791Y63521D01*
X388822Y63504D01*
X388848Y63499D01*
X388873Y63487D01*
X388969Y63477D01*
X388990Y63473D01*
X389021Y63465D01*
X389028Y63466D01*
X389064Y63459D01*
X389091Y63463D01*
X389117Y63460D01*
X389212Y63481D01*
X389241Y63485D01*
X389266Y63487D01*
X389271Y63489D01*
X389307Y63494D01*
X389331Y63507D01*
X389358Y63512D01*
X389441Y63562D01*
X389466Y63575D01*
X389491Y63586D01*
X389495Y63590D01*
X389527Y63605D01*
X389546Y63625D01*
X389569Y63639D01*
X389632Y63712D01*
X389646Y63727D01*
X389673Y63751D01*
X389677Y63758D01*
X389699Y63781D01*
X389711Y63805D01*
X389729Y63826D01*
X389765Y63915D01*
X389768Y63920D01*
X389793Y63966D01*
X389795Y63977D01*
X389807Y64002D01*
X389811Y64029D01*
X389821Y64054D01*
X389838Y64206D01*
X389838Y64208D01*
X389839Y64220D01*
X389839Y319078D01*
X389836Y319098D01*
X389838Y319117D01*
X389816Y319219D01*
X389800Y319321D01*
X389790Y319338D01*
X389786Y319358D01*
X389733Y319447D01*
X389684Y319538D01*
X389670Y319552D01*
X389660Y319569D01*
X389581Y319636D01*
X389506Y319708D01*
X389488Y319716D01*
X389473Y319729D01*
X389377Y319768D01*
X389283Y319811D01*
X389263Y319813D01*
X389245Y319821D01*
X389078Y319839D01*
X308569Y319839D01*
X308498Y319828D01*
X308427Y319826D01*
X308378Y319808D01*
X308326Y319800D01*
X308263Y319766D01*
X308196Y319741D01*
X308155Y319709D01*
X308109Y319684D01*
X308060Y319632D01*
X308004Y319588D01*
X307975Y319544D01*
X307940Y319506D01*
X307909Y319441D01*
X307871Y319381D01*
X307858Y319330D01*
X307836Y319283D01*
X307828Y319212D01*
X307811Y319142D01*
X307815Y319090D01*
X307809Y319039D01*
X307824Y318968D01*
X307830Y318897D01*
X307850Y318849D01*
X307861Y318798D01*
X307898Y318737D01*
X307926Y318671D01*
X307971Y318615D01*
X307987Y318587D01*
X308005Y318572D01*
X308031Y318540D01*
X322525Y304046D01*
X322525Y284361D01*
X322539Y284271D01*
X322547Y284180D01*
X322559Y284150D01*
X322564Y284118D01*
X322607Y284038D01*
X322643Y283954D01*
X322669Y283922D01*
X322680Y283901D01*
X322703Y283879D01*
X322748Y283823D01*
X325597Y280974D01*
X325616Y280960D01*
X325631Y280941D01*
X325716Y280888D01*
X325796Y280830D01*
X325819Y280823D01*
X325840Y280811D01*
X325937Y280787D01*
X326031Y280758D01*
X326055Y280759D01*
X326062Y280757D01*
X326063Y280701D01*
X326071Y280678D01*
X326073Y280654D01*
X326112Y280563D01*
X326145Y280469D01*
X326160Y280450D01*
X326169Y280428D01*
X326274Y280297D01*
X333823Y272748D01*
X333897Y272695D01*
X333966Y272635D01*
X333996Y272623D01*
X334023Y272604D01*
X334110Y272577D01*
X334194Y272543D01*
X334235Y272539D01*
X334258Y272532D01*
X334290Y272533D01*
X334361Y272525D01*
X381046Y272525D01*
X382525Y271046D01*
X382525Y138954D01*
X358145Y114574D01*
X358103Y114516D01*
X358054Y114464D01*
X358032Y114417D01*
X358001Y114375D01*
X357980Y114306D01*
X357950Y114241D01*
X357944Y114189D01*
X357929Y114139D01*
X357931Y114068D01*
X357923Y113997D01*
X357934Y113946D01*
X357935Y113894D01*
X357960Y113826D01*
X357975Y113756D01*
X358002Y113711D01*
X358020Y113663D01*
X358065Y113607D01*
X358101Y113545D01*
X358141Y113511D01*
X358173Y113471D01*
X358234Y113432D01*
X358288Y113385D01*
X358337Y113366D01*
X358380Y113338D01*
X358450Y113320D01*
X358516Y113293D01*
X358588Y113285D01*
X358619Y113277D01*
X358642Y113279D01*
X358683Y113275D01*
X361714Y113275D01*
X361734Y113278D01*
X361753Y113276D01*
X361855Y113298D01*
X361957Y113314D01*
X361974Y113324D01*
X361994Y113328D01*
X362083Y113381D01*
X362174Y113430D01*
X362188Y113444D01*
X362205Y113454D01*
X362272Y113533D01*
X362344Y113608D01*
X362352Y113626D01*
X362365Y113641D01*
X362404Y113737D01*
X362447Y113831D01*
X362449Y113851D01*
X362457Y113869D01*
X362475Y114036D01*
X362475Y114382D01*
X363368Y115275D01*
X386632Y115275D01*
X387525Y114382D01*
X387525Y107118D01*
X386632Y106225D01*
X363368Y106225D01*
X362475Y107118D01*
X362475Y107464D01*
X362472Y107484D01*
X362474Y107503D01*
X362452Y107605D01*
X362436Y107707D01*
X362426Y107724D01*
X362422Y107744D01*
X362369Y107833D01*
X362320Y107924D01*
X362306Y107938D01*
X362296Y107955D01*
X362217Y108022D01*
X362142Y108094D01*
X362124Y108102D01*
X362109Y108115D01*
X362013Y108154D01*
X361919Y108197D01*
X361899Y108199D01*
X361881Y108207D01*
X361714Y108225D01*
X360286Y108225D01*
X360266Y108222D01*
X360247Y108224D01*
X360145Y108202D01*
X360043Y108186D01*
X360026Y108176D01*
X360006Y108172D01*
X359917Y108119D01*
X359826Y108070D01*
X359812Y108056D01*
X359795Y108046D01*
X359728Y107967D01*
X359656Y107892D01*
X359648Y107874D01*
X359635Y107859D01*
X359596Y107763D01*
X359553Y107669D01*
X359551Y107649D01*
X359543Y107631D01*
X359525Y107464D01*
X359525Y104954D01*
X357823Y103252D01*
X353395Y98824D01*
X353353Y98766D01*
X353304Y98714D01*
X353282Y98667D01*
X353251Y98625D01*
X353230Y98556D01*
X353200Y98491D01*
X353194Y98439D01*
X353179Y98389D01*
X353181Y98318D01*
X353173Y98247D01*
X353184Y98196D01*
X353185Y98144D01*
X353210Y98076D01*
X353225Y98006D01*
X353252Y97961D01*
X353270Y97913D01*
X353315Y97857D01*
X353351Y97795D01*
X353391Y97761D01*
X353423Y97721D01*
X353484Y97682D01*
X353538Y97635D01*
X353587Y97616D01*
X353630Y97588D01*
X353700Y97570D01*
X353766Y97543D01*
X353838Y97535D01*
X353869Y97527D01*
X353892Y97529D01*
X353933Y97525D01*
X355639Y97525D01*
X355729Y97539D01*
X355820Y97547D01*
X355850Y97559D01*
X355882Y97564D01*
X355962Y97607D01*
X356046Y97643D01*
X356078Y97669D01*
X356099Y97680D01*
X356121Y97703D01*
X356177Y97748D01*
X359004Y100575D01*
X361714Y100575D01*
X361734Y100578D01*
X361753Y100576D01*
X361855Y100598D01*
X361957Y100614D01*
X361974Y100624D01*
X361994Y100628D01*
X362083Y100681D01*
X362174Y100730D01*
X362188Y100744D01*
X362205Y100754D01*
X362272Y100833D01*
X362344Y100908D01*
X362352Y100926D01*
X362365Y100941D01*
X362404Y101037D01*
X362447Y101131D01*
X362449Y101151D01*
X362457Y101169D01*
X362475Y101336D01*
X362475Y101682D01*
X363368Y102575D01*
X386632Y102575D01*
X387525Y101682D01*
X387525Y94418D01*
X386632Y93525D01*
X363368Y93525D01*
X362475Y94418D01*
X362475Y94764D01*
X362472Y94784D01*
X362474Y94803D01*
X362452Y94905D01*
X362436Y95007D01*
X362426Y95024D01*
X362422Y95044D01*
X362369Y95133D01*
X362320Y95224D01*
X362306Y95238D01*
X362296Y95255D01*
X362217Y95322D01*
X362142Y95394D01*
X362124Y95402D01*
X362109Y95415D01*
X362013Y95454D01*
X361919Y95497D01*
X361899Y95499D01*
X361881Y95507D01*
X361714Y95525D01*
X361411Y95525D01*
X361321Y95511D01*
X361230Y95503D01*
X361200Y95491D01*
X361168Y95486D01*
X361088Y95443D01*
X361004Y95407D01*
X360972Y95381D01*
X360951Y95370D01*
X360929Y95347D01*
X360873Y95302D01*
X358046Y92475D01*
X323954Y92475D01*
X322475Y93954D01*
X322475Y106415D01*
X322464Y106486D01*
X322462Y106558D01*
X322444Y106607D01*
X322436Y106658D01*
X322402Y106722D01*
X322377Y106789D01*
X322345Y106830D01*
X322320Y106876D01*
X322268Y106925D01*
X322224Y106981D01*
X322180Y107009D01*
X322142Y107045D01*
X322077Y107075D01*
X322017Y107114D01*
X321966Y107127D01*
X321919Y107149D01*
X321848Y107156D01*
X321778Y107174D01*
X321726Y107170D01*
X321675Y107176D01*
X321604Y107160D01*
X321533Y107155D01*
X321485Y107135D01*
X321434Y107123D01*
X321373Y107087D01*
X321307Y107059D01*
X321251Y107014D01*
X321223Y106997D01*
X321208Y106979D01*
X321176Y106954D01*
X319748Y105526D01*
X319695Y105452D01*
X319635Y105382D01*
X319623Y105352D01*
X319604Y105326D01*
X319577Y105239D01*
X319543Y105154D01*
X319539Y105113D01*
X319532Y105091D01*
X319533Y105059D01*
X319525Y104987D01*
X319525Y77703D01*
X319537Y77627D01*
X319540Y77551D01*
X319560Y77490D01*
X319564Y77460D01*
X319577Y77437D01*
X319591Y77391D01*
X319732Y77078D01*
X319575Y76666D01*
X319565Y76622D01*
X319553Y76594D01*
X319552Y76583D01*
X319543Y76562D01*
X319531Y76454D01*
X319525Y76425D01*
X319527Y76414D01*
X319525Y76395D01*
X319525Y75954D01*
X319282Y75712D01*
X319238Y75650D01*
X319186Y75594D01*
X319157Y75537D01*
X319139Y75512D01*
X319131Y75487D01*
X319109Y75444D01*
X318987Y75124D01*
X318585Y74944D01*
X318539Y74913D01*
X318489Y74892D01*
X318404Y74824D01*
X318379Y74808D01*
X318372Y74799D01*
X318358Y74787D01*
X318046Y74475D01*
X317703Y74475D01*
X317627Y74463D01*
X317551Y74460D01*
X317490Y74440D01*
X317460Y74436D01*
X317437Y74423D01*
X317391Y74409D01*
X308057Y70224D01*
X307972Y70168D01*
X307928Y70145D01*
X307920Y70137D01*
X307877Y70111D01*
X307866Y70098D01*
X307851Y70089D01*
X307786Y70005D01*
X307717Y69924D01*
X307711Y69908D01*
X307700Y69895D01*
X307665Y69795D01*
X307625Y69696D01*
X307623Y69675D01*
X307618Y69663D01*
X307618Y69631D01*
X307607Y69529D01*
X307607Y68385D01*
X304615Y65393D01*
X300385Y65393D01*
X297340Y68438D01*
X297245Y68506D01*
X297148Y68577D01*
X297144Y68579D01*
X297141Y68581D01*
X297028Y68616D01*
X296914Y68652D01*
X296909Y68652D01*
X296906Y68654D01*
X296787Y68650D01*
X296668Y68649D01*
X296664Y68647D01*
X296660Y68647D01*
X296547Y68606D01*
X296436Y68567D01*
X296433Y68564D01*
X296429Y68563D01*
X296336Y68488D01*
X296242Y68415D01*
X296239Y68411D01*
X296237Y68409D01*
X296229Y68398D01*
X296143Y68280D01*
X296033Y68090D01*
X295560Y67617D01*
X294981Y67282D01*
X294334Y67109D01*
X284499Y67109D01*
X284499Y71912D01*
X284496Y71931D01*
X284498Y71951D01*
X284476Y72053D01*
X284460Y72155D01*
X284450Y72172D01*
X284446Y72192D01*
X284393Y72281D01*
X284344Y72372D01*
X284330Y72386D01*
X284320Y72403D01*
X284241Y72470D01*
X284166Y72541D01*
X284148Y72550D01*
X284133Y72563D01*
X284037Y72601D01*
X283943Y72645D01*
X283923Y72647D01*
X283905Y72654D01*
X283981Y72667D01*
X283998Y72676D01*
X284018Y72680D01*
X284107Y72733D01*
X284198Y72782D01*
X284212Y72796D01*
X284229Y72806D01*
X284296Y72885D01*
X284368Y72960D01*
X284376Y72978D01*
X284389Y72993D01*
X284428Y73090D01*
X284471Y73183D01*
X284473Y73203D01*
X284481Y73221D01*
X284499Y73388D01*
X284499Y78191D01*
X294334Y78191D01*
X294981Y78018D01*
X295560Y77683D01*
X296033Y77210D01*
X296368Y76631D01*
X296541Y75984D01*
X296541Y73601D01*
X296552Y73530D01*
X296554Y73458D01*
X296572Y73409D01*
X296580Y73358D01*
X296614Y73294D01*
X296639Y73227D01*
X296671Y73186D01*
X296696Y73140D01*
X296748Y73091D01*
X296792Y73035D01*
X296836Y73007D01*
X296874Y72971D01*
X296939Y72941D01*
X296999Y72902D01*
X297050Y72889D01*
X297097Y72867D01*
X297168Y72860D01*
X297238Y72842D01*
X297290Y72846D01*
X297341Y72840D01*
X297412Y72856D01*
X297483Y72861D01*
X297531Y72881D01*
X297582Y72893D01*
X297643Y72929D01*
X297709Y72957D01*
X297765Y73002D01*
X297793Y73019D01*
X297808Y73037D01*
X297840Y73062D01*
X300385Y75607D01*
X304615Y75607D01*
X305205Y75017D01*
X305209Y75014D01*
X305212Y75010D01*
X305310Y74941D01*
X305405Y74873D01*
X305410Y74872D01*
X305413Y74869D01*
X305527Y74836D01*
X305640Y74801D01*
X305645Y74801D01*
X305649Y74800D01*
X305767Y74804D01*
X305886Y74807D01*
X305891Y74809D01*
X305895Y74809D01*
X306055Y74860D01*
X314025Y78433D01*
X314114Y78492D01*
X314205Y78546D01*
X314216Y78559D01*
X314231Y78569D01*
X314296Y78652D01*
X314365Y78733D01*
X314371Y78749D01*
X314382Y78763D01*
X314417Y78863D01*
X314457Y78961D01*
X314459Y78982D01*
X314464Y78995D01*
X314464Y79026D01*
X314475Y79128D01*
X314475Y104987D01*
X314461Y105077D01*
X314453Y105168D01*
X314441Y105198D01*
X314436Y105230D01*
X314393Y105311D01*
X314357Y105395D01*
X314331Y105427D01*
X314320Y105448D01*
X314297Y105470D01*
X314252Y105526D01*
X313824Y105954D01*
X313766Y105996D01*
X313714Y106045D01*
X313667Y106067D01*
X313625Y106097D01*
X313556Y106118D01*
X313491Y106149D01*
X313439Y106154D01*
X313389Y106170D01*
X313318Y106168D01*
X313247Y106176D01*
X313196Y106165D01*
X313144Y106163D01*
X313076Y106139D01*
X313006Y106123D01*
X312961Y106097D01*
X312913Y106079D01*
X312857Y106034D01*
X312795Y105997D01*
X312761Y105958D01*
X312721Y105925D01*
X312682Y105865D01*
X312635Y105810D01*
X312616Y105762D01*
X312588Y105718D01*
X312570Y105649D01*
X312543Y105582D01*
X312535Y105511D01*
X312527Y105480D01*
X312529Y105456D01*
X312525Y105415D01*
X312525Y88954D01*
X306396Y82825D01*
X296286Y82825D01*
X296266Y82822D01*
X296247Y82824D01*
X296145Y82802D01*
X296043Y82786D01*
X296026Y82776D01*
X296006Y82772D01*
X295917Y82719D01*
X295826Y82670D01*
X295812Y82656D01*
X295795Y82646D01*
X295728Y82567D01*
X295656Y82492D01*
X295648Y82474D01*
X295635Y82459D01*
X295596Y82363D01*
X295553Y82269D01*
X295551Y82249D01*
X295543Y82231D01*
X295525Y82064D01*
X295525Y81718D01*
X294632Y80825D01*
X271368Y80825D01*
X270475Y81718D01*
X270475Y82064D01*
X270472Y82084D01*
X270474Y82103D01*
X270452Y82205D01*
X270436Y82307D01*
X270426Y82324D01*
X270422Y82344D01*
X270369Y82433D01*
X270320Y82524D01*
X270306Y82538D01*
X270296Y82555D01*
X270217Y82622D01*
X270142Y82694D01*
X270124Y82702D01*
X270109Y82715D01*
X270013Y82754D01*
X269919Y82797D01*
X269899Y82799D01*
X269881Y82807D01*
X269714Y82825D01*
X254211Y82825D01*
X254121Y82811D01*
X254030Y82803D01*
X254000Y82791D01*
X253968Y82786D01*
X253888Y82743D01*
X253804Y82707D01*
X253772Y82681D01*
X253751Y82670D01*
X253729Y82647D01*
X253673Y82602D01*
X251848Y80777D01*
X251795Y80703D01*
X251735Y80634D01*
X251723Y80604D01*
X251704Y80577D01*
X251677Y80490D01*
X251643Y80406D01*
X251639Y80365D01*
X251632Y80342D01*
X251633Y80310D01*
X251625Y80239D01*
X251625Y67436D01*
X251628Y67416D01*
X251626Y67397D01*
X251648Y67295D01*
X251664Y67193D01*
X251674Y67176D01*
X251678Y67156D01*
X251731Y67067D01*
X251780Y66976D01*
X251794Y66962D01*
X251804Y66945D01*
X251883Y66878D01*
X251958Y66806D01*
X251976Y66798D01*
X251991Y66785D01*
X252087Y66746D01*
X252181Y66703D01*
X252201Y66701D01*
X252219Y66693D01*
X252386Y66675D01*
X262432Y66675D01*
X263325Y65782D01*
X263325Y51818D01*
X262831Y51324D01*
X262789Y51266D01*
X262739Y51214D01*
X262717Y51167D01*
X262687Y51125D01*
X262666Y51056D01*
X262636Y50991D01*
X262630Y50939D01*
X262615Y50889D01*
X262617Y50818D01*
X262609Y50747D01*
X262620Y50696D01*
X262621Y50644D01*
X262646Y50576D01*
X262661Y50506D01*
X262688Y50461D01*
X262705Y50413D01*
X262750Y50357D01*
X262787Y50295D01*
X262827Y50261D01*
X262859Y50221D01*
X262919Y50182D01*
X262974Y50135D01*
X263022Y50116D01*
X263066Y50088D01*
X263136Y50070D01*
X263202Y50043D01*
X263273Y50035D01*
X263305Y50027D01*
X263328Y50029D01*
X263369Y50025D01*
X266046Y50025D01*
X267525Y48546D01*
X267525Y15786D01*
X267528Y15766D01*
X267526Y15747D01*
X267548Y15645D01*
X267564Y15543D01*
X267574Y15526D01*
X267578Y15506D01*
X267631Y15417D01*
X267680Y15326D01*
X267694Y15312D01*
X267704Y15295D01*
X267783Y15228D01*
X267858Y15156D01*
X267876Y15148D01*
X267891Y15135D01*
X267987Y15096D01*
X268081Y15053D01*
X268101Y15051D01*
X268119Y15043D01*
X268286Y15025D01*
X270703Y15025D01*
X270750Y15032D01*
X270798Y15031D01*
X270871Y15052D01*
X270946Y15064D01*
X270988Y15087D01*
X271034Y15101D01*
X271096Y15144D01*
X271163Y15180D01*
X271196Y15214D01*
X271236Y15242D01*
X271280Y15303D01*
X271333Y15358D01*
X271353Y15401D01*
X271381Y15440D01*
X271404Y15512D01*
X271436Y15581D01*
X271442Y15629D01*
X271456Y15674D01*
X271455Y15750D01*
X271463Y15825D01*
X271453Y15872D01*
X271452Y15920D01*
X271427Y15992D01*
X271411Y16066D01*
X271386Y16107D01*
X271370Y16152D01*
X271324Y16212D01*
X271285Y16277D01*
X271248Y16308D01*
X271219Y16346D01*
X271115Y16422D01*
X271098Y16437D01*
X271092Y16439D01*
X271084Y16445D01*
X270440Y16817D01*
X269967Y17290D01*
X269632Y17869D01*
X269459Y18516D01*
X269459Y20351D01*
X282262Y20351D01*
X282281Y20354D01*
X282301Y20352D01*
X282403Y20374D01*
X282505Y20390D01*
X282522Y20400D01*
X282542Y20404D01*
X282631Y20457D01*
X282722Y20506D01*
X282736Y20520D01*
X282753Y20530D01*
X282820Y20609D01*
X282891Y20684D01*
X282900Y20702D01*
X282913Y20717D01*
X282951Y20813D01*
X282995Y20907D01*
X282997Y20927D01*
X283004Y20945D01*
X283017Y20869D01*
X283026Y20852D01*
X283030Y20832D01*
X283083Y20743D01*
X283132Y20652D01*
X283146Y20638D01*
X283156Y20621D01*
X283235Y20554D01*
X283310Y20482D01*
X283328Y20474D01*
X283343Y20461D01*
X283440Y20422D01*
X283533Y20379D01*
X283553Y20377D01*
X283571Y20369D01*
X283738Y20351D01*
X296541Y20351D01*
X296541Y18516D01*
X296368Y17869D01*
X296033Y17290D01*
X295560Y16817D01*
X294916Y16445D01*
X294879Y16415D01*
X294837Y16392D01*
X294785Y16338D01*
X294726Y16289D01*
X294700Y16249D01*
X294667Y16214D01*
X294635Y16145D01*
X294595Y16081D01*
X294584Y16035D01*
X294564Y15991D01*
X294555Y15916D01*
X294538Y15842D01*
X294542Y15794D01*
X294537Y15747D01*
X294553Y15672D01*
X294559Y15597D01*
X294579Y15553D01*
X294589Y15506D01*
X294628Y15441D01*
X294658Y15372D01*
X294691Y15336D01*
X294715Y15295D01*
X294773Y15246D01*
X294824Y15190D01*
X294865Y15166D01*
X294902Y15135D01*
X294972Y15107D01*
X295039Y15070D01*
X295086Y15061D01*
X295130Y15043D01*
X295258Y15029D01*
X295280Y15025D01*
X295287Y15026D01*
X295297Y15025D01*
X298639Y15025D01*
X298729Y15039D01*
X298820Y15047D01*
X298850Y15059D01*
X298882Y15064D01*
X298962Y15107D01*
X299046Y15143D01*
X299078Y15169D01*
X299099Y15180D01*
X299121Y15203D01*
X299177Y15248D01*
X344752Y60823D01*
X344805Y60897D01*
X344865Y60966D01*
X344877Y60996D01*
X344896Y61023D01*
X344923Y61110D01*
X344957Y61194D01*
X344961Y61235D01*
X344968Y61258D01*
X344967Y61290D01*
X344975Y61361D01*
X344975Y86046D01*
X346804Y87875D01*
X361714Y87875D01*
X361734Y87878D01*
X361753Y87876D01*
X361855Y87898D01*
X361957Y87914D01*
X361974Y87924D01*
X361994Y87928D01*
X362083Y87981D01*
X362174Y88030D01*
X362188Y88044D01*
X362205Y88054D01*
X362272Y88133D01*
X362344Y88208D01*
X362352Y88226D01*
X362365Y88241D01*
X362404Y88337D01*
X362447Y88431D01*
X362449Y88451D01*
X362457Y88469D01*
X362475Y88636D01*
X362475Y88982D01*
X363368Y89875D01*
X386632Y89875D01*
X387525Y88982D01*
X387525Y81718D01*
X386632Y80825D01*
X363368Y80825D01*
X362475Y81718D01*
X362475Y82064D01*
X362472Y82084D01*
X362474Y82103D01*
X362452Y82205D01*
X362436Y82307D01*
X362426Y82324D01*
X362422Y82344D01*
X362369Y82433D01*
X362320Y82524D01*
X362306Y82538D01*
X362296Y82555D01*
X362217Y82622D01*
X362142Y82694D01*
X362124Y82702D01*
X362109Y82715D01*
X362013Y82754D01*
X361919Y82797D01*
X361899Y82799D01*
X361881Y82807D01*
X361714Y82825D01*
X350786Y82825D01*
X350766Y82822D01*
X350747Y82824D01*
X350645Y82802D01*
X350543Y82786D01*
X350526Y82776D01*
X350506Y82772D01*
X350417Y82719D01*
X350326Y82670D01*
X350312Y82656D01*
X350295Y82646D01*
X350228Y82567D01*
X350156Y82492D01*
X350148Y82474D01*
X350135Y82459D01*
X350096Y82363D01*
X350053Y82269D01*
X350051Y82249D01*
X350043Y82231D01*
X350025Y82064D01*
X350025Y58954D01*
X348323Y57252D01*
X302531Y11460D01*
X302489Y11402D01*
X302440Y11350D01*
X302418Y11303D01*
X302387Y11261D01*
X302366Y11192D01*
X302336Y11127D01*
X302330Y11075D01*
X302315Y11025D01*
X302317Y10954D01*
X302309Y10883D01*
X302320Y10832D01*
X302321Y10780D01*
X302346Y10712D01*
X302361Y10642D01*
X302388Y10597D01*
X302406Y10549D01*
X302451Y10493D01*
X302487Y10431D01*
X302527Y10397D01*
X302559Y10357D01*
X302620Y10318D01*
X302674Y10271D01*
X302723Y10252D01*
X302766Y10224D01*
X302836Y10206D01*
X302902Y10179D01*
X302974Y10171D01*
X303005Y10163D01*
X303028Y10165D01*
X303069Y10161D01*
X389078Y10161D01*
X389098Y10164D01*
G37*
G36*
X63834Y10164D02*
X63834Y10164D01*
X63853Y10162D01*
X63955Y10184D01*
X64057Y10200D01*
X64074Y10210D01*
X64094Y10214D01*
X64183Y10267D01*
X64274Y10316D01*
X64288Y10330D01*
X64305Y10340D01*
X64372Y10419D01*
X64444Y10494D01*
X64452Y10512D01*
X64465Y10527D01*
X64504Y10623D01*
X64547Y10717D01*
X64549Y10737D01*
X64557Y10755D01*
X64575Y10922D01*
X64575Y30697D01*
X64564Y30768D01*
X64562Y30839D01*
X64544Y30888D01*
X64536Y30940D01*
X64502Y31003D01*
X64477Y31070D01*
X64445Y31111D01*
X64420Y31157D01*
X64368Y31206D01*
X64324Y31262D01*
X64280Y31291D01*
X64242Y31326D01*
X64177Y31357D01*
X64117Y31395D01*
X64066Y31408D01*
X64019Y31430D01*
X63948Y31438D01*
X63878Y31455D01*
X63826Y31451D01*
X63775Y31457D01*
X63704Y31442D01*
X63633Y31436D01*
X63585Y31416D01*
X63534Y31405D01*
X63473Y31368D01*
X63407Y31340D01*
X63351Y31295D01*
X63323Y31279D01*
X63308Y31261D01*
X63276Y31235D01*
X61688Y29647D01*
X56116Y27339D01*
X50084Y27339D01*
X44512Y29647D01*
X40247Y33912D01*
X37939Y39484D01*
X37939Y45516D01*
X40247Y51088D01*
X44512Y55353D01*
X50084Y57661D01*
X56116Y57661D01*
X61688Y55353D01*
X65953Y51088D01*
X68261Y45516D01*
X68261Y39484D01*
X65953Y33912D01*
X65365Y33324D01*
X65323Y33266D01*
X65274Y33214D01*
X65252Y33167D01*
X65221Y33125D01*
X65200Y33056D01*
X65170Y32991D01*
X65164Y32939D01*
X65149Y32889D01*
X65151Y32818D01*
X65143Y32747D01*
X65154Y32696D01*
X65155Y32644D01*
X65180Y32576D01*
X65195Y32506D01*
X65222Y32461D01*
X65240Y32413D01*
X65285Y32357D01*
X65321Y32295D01*
X65361Y32261D01*
X65393Y32221D01*
X65454Y32182D01*
X65508Y32135D01*
X65557Y32116D01*
X65600Y32088D01*
X65670Y32070D01*
X65736Y32043D01*
X65808Y32035D01*
X65839Y32027D01*
X65862Y32029D01*
X65903Y32025D01*
X90732Y32025D01*
X91094Y31663D01*
X91152Y31621D01*
X91204Y31571D01*
X91251Y31549D01*
X91293Y31519D01*
X91362Y31498D01*
X91427Y31468D01*
X91479Y31462D01*
X91529Y31447D01*
X91600Y31449D01*
X91671Y31441D01*
X91722Y31452D01*
X91774Y31453D01*
X91842Y31478D01*
X91912Y31493D01*
X91957Y31520D01*
X92005Y31537D01*
X92061Y31582D01*
X92123Y31619D01*
X92157Y31659D01*
X92197Y31691D01*
X92236Y31751D01*
X92283Y31806D01*
X92302Y31854D01*
X92330Y31898D01*
X92348Y31967D01*
X92375Y32034D01*
X92383Y32105D01*
X92391Y32137D01*
X92389Y32160D01*
X92393Y32201D01*
X92393Y33615D01*
X95385Y36607D01*
X98721Y36607D01*
X98811Y36621D01*
X98902Y36629D01*
X98932Y36641D01*
X98964Y36646D01*
X99044Y36689D01*
X99128Y36725D01*
X99160Y36751D01*
X99181Y36762D01*
X99203Y36785D01*
X99259Y36830D01*
X104954Y42525D01*
X107964Y42525D01*
X107984Y42528D01*
X108003Y42526D01*
X108105Y42548D01*
X108207Y42564D01*
X108224Y42574D01*
X108244Y42578D01*
X108333Y42631D01*
X108424Y42680D01*
X108438Y42694D01*
X108455Y42704D01*
X108522Y42783D01*
X108594Y42858D01*
X108602Y42876D01*
X108615Y42891D01*
X108654Y42987D01*
X108697Y43081D01*
X108699Y43101D01*
X108707Y43119D01*
X108725Y43286D01*
X108725Y46714D01*
X108723Y46728D01*
X108724Y46740D01*
X108723Y46745D01*
X108724Y46753D01*
X108702Y46855D01*
X108686Y46957D01*
X108676Y46974D01*
X108672Y46994D01*
X108619Y47083D01*
X108570Y47174D01*
X108556Y47188D01*
X108546Y47205D01*
X108467Y47272D01*
X108392Y47344D01*
X108374Y47352D01*
X108359Y47365D01*
X108263Y47404D01*
X108169Y47447D01*
X108149Y47449D01*
X108131Y47457D01*
X107964Y47475D01*
X97566Y47475D01*
X97546Y47472D01*
X97527Y47474D01*
X97425Y47452D01*
X97323Y47436D01*
X97306Y47426D01*
X97286Y47422D01*
X97197Y47369D01*
X97106Y47320D01*
X97092Y47306D01*
X97075Y47296D01*
X97008Y47217D01*
X96936Y47142D01*
X96928Y47124D01*
X96915Y47109D01*
X96876Y47013D01*
X96833Y46919D01*
X96831Y46899D01*
X96823Y46881D01*
X96805Y46714D01*
X96805Y45368D01*
X95912Y44475D01*
X71568Y44475D01*
X70675Y45368D01*
X70675Y51632D01*
X71005Y51962D01*
X71017Y51978D01*
X71033Y51990D01*
X71089Y52077D01*
X71149Y52161D01*
X71155Y52180D01*
X71166Y52197D01*
X71191Y52298D01*
X71221Y52397D01*
X71221Y52416D01*
X71226Y52436D01*
X71218Y52539D01*
X71215Y52642D01*
X71208Y52661D01*
X71207Y52681D01*
X71166Y52776D01*
X71131Y52873D01*
X71118Y52889D01*
X71110Y52907D01*
X71005Y53038D01*
X70675Y53368D01*
X70675Y59632D01*
X71005Y59962D01*
X71017Y59978D01*
X71033Y59990D01*
X71089Y60077D01*
X71149Y60161D01*
X71155Y60180D01*
X71166Y60197D01*
X71191Y60298D01*
X71221Y60397D01*
X71221Y60416D01*
X71226Y60436D01*
X71218Y60539D01*
X71215Y60642D01*
X71208Y60661D01*
X71207Y60681D01*
X71166Y60776D01*
X71131Y60873D01*
X71118Y60889D01*
X71110Y60907D01*
X71005Y61038D01*
X70675Y61368D01*
X70675Y67632D01*
X71005Y67962D01*
X71017Y67978D01*
X71033Y67990D01*
X71089Y68077D01*
X71149Y68161D01*
X71155Y68180D01*
X71166Y68197D01*
X71191Y68298D01*
X71221Y68397D01*
X71221Y68416D01*
X71226Y68436D01*
X71218Y68539D01*
X71215Y68642D01*
X71208Y68661D01*
X71207Y68681D01*
X71166Y68776D01*
X71131Y68873D01*
X71118Y68889D01*
X71110Y68907D01*
X71005Y69038D01*
X70675Y69368D01*
X70675Y75616D01*
X70661Y75706D01*
X70653Y75797D01*
X70641Y75827D01*
X70636Y75859D01*
X70610Y75907D01*
X70610Y75908D01*
X70606Y75914D01*
X70593Y75940D01*
X70557Y76024D01*
X70531Y76056D01*
X70520Y76076D01*
X70497Y76099D01*
X70493Y76103D01*
X70484Y76119D01*
X70474Y76128D01*
X70452Y76155D01*
X70167Y76440D01*
X69832Y77019D01*
X69659Y77666D01*
X69659Y79251D01*
X83252Y79251D01*
X83271Y79254D01*
X83291Y79252D01*
X83393Y79274D01*
X83495Y79290D01*
X83512Y79300D01*
X83532Y79304D01*
X83621Y79357D01*
X83712Y79406D01*
X83726Y79420D01*
X83743Y79430D01*
X83746Y79434D01*
X83800Y79382D01*
X83818Y79374D01*
X83833Y79361D01*
X83930Y79322D01*
X84023Y79279D01*
X84043Y79277D01*
X84061Y79269D01*
X84228Y79251D01*
X97821Y79251D01*
X97821Y77666D01*
X97648Y77019D01*
X97313Y76440D01*
X97028Y76155D01*
X96984Y76094D01*
X96948Y76056D01*
X96942Y76043D01*
X96915Y76011D01*
X96903Y75981D01*
X96884Y75955D01*
X96857Y75868D01*
X96823Y75783D01*
X96819Y75742D01*
X96812Y75720D01*
X96813Y75688D01*
X96805Y75616D01*
X96805Y74713D01*
X96816Y74642D01*
X96818Y74571D01*
X96836Y74522D01*
X96844Y74470D01*
X96878Y74407D01*
X96903Y74340D01*
X96935Y74299D01*
X96960Y74253D01*
X97012Y74204D01*
X97056Y74148D01*
X97100Y74119D01*
X97138Y74084D01*
X97203Y74053D01*
X97263Y74015D01*
X97314Y74002D01*
X97361Y73980D01*
X97432Y73972D01*
X97502Y73955D01*
X97554Y73959D01*
X97605Y73953D01*
X97676Y73968D01*
X97747Y73974D01*
X97795Y73994D01*
X97846Y74005D01*
X97907Y74042D01*
X97973Y74070D01*
X98029Y74115D01*
X98057Y74131D01*
X98072Y74149D01*
X98104Y74175D01*
X102170Y78241D01*
X102223Y78315D01*
X102283Y78384D01*
X102295Y78414D01*
X102314Y78441D01*
X102341Y78528D01*
X102375Y78612D01*
X102379Y78653D01*
X102386Y78676D01*
X102385Y78708D01*
X102393Y78779D01*
X102393Y79615D01*
X105385Y82607D01*
X107608Y82607D01*
X107702Y82622D01*
X107797Y82631D01*
X107822Y82642D01*
X107850Y82646D01*
X107934Y82691D01*
X108022Y82729D01*
X108043Y82748D01*
X108068Y82762D01*
X108133Y82831D01*
X108204Y82895D01*
X108218Y82919D01*
X108237Y82940D01*
X108277Y83026D01*
X108324Y83110D01*
X108329Y83137D01*
X108341Y83163D01*
X108351Y83258D01*
X108369Y83351D01*
X108365Y83379D01*
X108368Y83407D01*
X108347Y83501D01*
X108334Y83595D01*
X108320Y83627D01*
X108315Y83648D01*
X108299Y83676D01*
X108267Y83749D01*
X107882Y84414D01*
X107709Y85061D01*
X107709Y91497D01*
X112227Y91497D01*
X112227Y82854D01*
X111206Y82854D01*
X111135Y82843D01*
X111063Y82841D01*
X111014Y82823D01*
X110963Y82815D01*
X110899Y82781D01*
X110832Y82756D01*
X110791Y82724D01*
X110745Y82699D01*
X110696Y82647D01*
X110640Y82603D01*
X110612Y82559D01*
X110576Y82521D01*
X110546Y82456D01*
X110507Y82396D01*
X110494Y82345D01*
X110472Y82298D01*
X110465Y82227D01*
X110447Y82157D01*
X110451Y82105D01*
X110445Y82054D01*
X110461Y81983D01*
X110466Y81912D01*
X110486Y81864D01*
X110498Y81813D01*
X110534Y81752D01*
X110562Y81686D01*
X110607Y81630D01*
X110624Y81602D01*
X110642Y81587D01*
X110667Y81555D01*
X112607Y79615D01*
X112607Y75385D01*
X110260Y73038D01*
X110249Y73022D01*
X110233Y73010D01*
X110177Y72922D01*
X110117Y72839D01*
X110111Y72820D01*
X110100Y72803D01*
X110075Y72702D01*
X110044Y72603D01*
X110045Y72584D01*
X110040Y72564D01*
X110048Y72461D01*
X110051Y72358D01*
X110058Y72339D01*
X110059Y72319D01*
X110100Y72224D01*
X110135Y72127D01*
X110148Y72111D01*
X110155Y72093D01*
X110260Y71962D01*
X112607Y69615D01*
X112607Y65385D01*
X110248Y63026D01*
X110195Y62952D01*
X110135Y62882D01*
X110123Y62852D01*
X110104Y62826D01*
X110077Y62739D01*
X110043Y62654D01*
X110039Y62613D01*
X110032Y62591D01*
X110033Y62559D01*
X110025Y62487D01*
X110025Y58954D01*
X108323Y57252D01*
X104895Y53824D01*
X104853Y53766D01*
X104804Y53714D01*
X104782Y53667D01*
X104751Y53625D01*
X104730Y53556D01*
X104700Y53491D01*
X104694Y53439D01*
X104679Y53389D01*
X104681Y53318D01*
X104673Y53247D01*
X104684Y53196D01*
X104685Y53144D01*
X104710Y53076D01*
X104725Y53006D01*
X104752Y52961D01*
X104770Y52913D01*
X104815Y52857D01*
X104851Y52795D01*
X104891Y52761D01*
X104923Y52721D01*
X104984Y52682D01*
X105038Y52635D01*
X105087Y52616D01*
X105130Y52588D01*
X105200Y52570D01*
X105266Y52543D01*
X105338Y52535D01*
X105369Y52527D01*
X105392Y52529D01*
X105433Y52525D01*
X113064Y52525D01*
X113076Y52514D01*
X113123Y52492D01*
X113165Y52461D01*
X113234Y52440D01*
X113299Y52410D01*
X113351Y52404D01*
X113400Y52389D01*
X113472Y52391D01*
X113543Y52383D01*
X113594Y52394D01*
X113646Y52395D01*
X113714Y52420D01*
X113784Y52435D01*
X113829Y52462D01*
X113877Y52480D01*
X113933Y52525D01*
X113995Y52561D01*
X114029Y52601D01*
X114069Y52633D01*
X114108Y52694D01*
X114155Y52748D01*
X114174Y52796D01*
X114202Y52840D01*
X114220Y52910D01*
X114247Y52976D01*
X114255Y53048D01*
X114263Y53079D01*
X114261Y53102D01*
X114265Y53143D01*
X114265Y79097D01*
X115158Y79990D01*
X149602Y79990D01*
X149673Y80001D01*
X149744Y80003D01*
X149793Y80021D01*
X149845Y80029D01*
X149908Y80063D01*
X149975Y80088D01*
X150016Y80120D01*
X150062Y80145D01*
X150111Y80197D01*
X150167Y80241D01*
X150196Y80285D01*
X150231Y80323D01*
X150262Y80388D01*
X150300Y80448D01*
X150313Y80499D01*
X150335Y80546D01*
X150343Y80617D01*
X150360Y80687D01*
X150356Y80739D01*
X150362Y80790D01*
X150347Y80861D01*
X150341Y80932D01*
X150321Y80980D01*
X150310Y81031D01*
X150273Y81092D01*
X150245Y81158D01*
X150200Y81214D01*
X150184Y81242D01*
X150166Y81257D01*
X150140Y81289D01*
X149325Y82104D01*
X149325Y83109D01*
X149322Y83129D01*
X149324Y83148D01*
X149302Y83249D01*
X149286Y83352D01*
X149276Y83369D01*
X149272Y83389D01*
X149219Y83478D01*
X149170Y83569D01*
X149156Y83583D01*
X149146Y83600D01*
X149067Y83667D01*
X148992Y83739D01*
X148974Y83747D01*
X148959Y83760D01*
X148863Y83799D01*
X148769Y83842D01*
X148749Y83844D01*
X148731Y83852D01*
X148564Y83870D01*
X147718Y83870D01*
X146825Y84763D01*
X146825Y101277D01*
X147718Y102170D01*
X148952Y102170D01*
X148972Y102173D01*
X148991Y102171D01*
X149093Y102193D01*
X149195Y102209D01*
X149212Y102219D01*
X149232Y102223D01*
X149321Y102276D01*
X149412Y102325D01*
X149426Y102339D01*
X149443Y102349D01*
X149510Y102428D01*
X149582Y102503D01*
X149590Y102521D01*
X149603Y102536D01*
X149642Y102632D01*
X149685Y102726D01*
X149687Y102746D01*
X149695Y102764D01*
X149713Y102931D01*
X149713Y102952D01*
X149711Y102963D01*
X149712Y102970D01*
X149711Y102978D01*
X149712Y102991D01*
X149690Y103093D01*
X149674Y103195D01*
X149664Y103212D01*
X149660Y103232D01*
X149607Y103321D01*
X149558Y103412D01*
X149544Y103426D01*
X149534Y103443D01*
X149455Y103510D01*
X149380Y103582D01*
X149362Y103590D01*
X149347Y103603D01*
X149251Y103642D01*
X149157Y103685D01*
X149137Y103687D01*
X149119Y103695D01*
X148952Y103713D01*
X145013Y103713D01*
X144942Y103702D01*
X144870Y103700D01*
X144821Y103682D01*
X144770Y103674D01*
X144707Y103640D01*
X144639Y103615D01*
X144599Y103583D01*
X144553Y103558D01*
X144503Y103507D01*
X144447Y103462D01*
X144419Y103418D01*
X144383Y103380D01*
X144353Y103315D01*
X144314Y103255D01*
X144301Y103204D01*
X144280Y103157D01*
X144272Y103086D01*
X144254Y103016D01*
X144258Y102964D01*
X144252Y102913D01*
X144268Y102842D01*
X144273Y102771D01*
X144294Y102723D01*
X144305Y102672D01*
X144342Y102611D01*
X144370Y102545D01*
X144414Y102489D01*
X144431Y102461D01*
X144449Y102446D01*
X144474Y102414D01*
X144683Y102205D01*
X145018Y101626D01*
X145191Y100979D01*
X145191Y94543D01*
X139912Y94543D01*
X139892Y94540D01*
X139873Y94542D01*
X139771Y94520D01*
X139669Y94503D01*
X139652Y94494D01*
X139632Y94490D01*
X139543Y94437D01*
X139452Y94388D01*
X139438Y94374D01*
X139421Y94364D01*
X139354Y94285D01*
X139283Y94210D01*
X139274Y94192D01*
X139261Y94177D01*
X139222Y94081D01*
X139179Y93987D01*
X139177Y93967D01*
X139169Y93949D01*
X139151Y93782D01*
X139151Y93019D01*
X139149Y93019D01*
X139149Y93782D01*
X139146Y93802D01*
X139148Y93821D01*
X139126Y93923D01*
X139109Y94025D01*
X139100Y94042D01*
X139096Y94062D01*
X139043Y94151D01*
X138994Y94242D01*
X138980Y94256D01*
X138970Y94273D01*
X138891Y94340D01*
X138816Y94411D01*
X138798Y94420D01*
X138783Y94433D01*
X138687Y94472D01*
X138593Y94515D01*
X138573Y94517D01*
X138555Y94525D01*
X138388Y94543D01*
X133109Y94543D01*
X133109Y100979D01*
X133282Y101626D01*
X133617Y102205D01*
X134090Y102678D01*
X134497Y102913D01*
X134590Y102989D01*
X134682Y103063D01*
X134685Y103066D01*
X134688Y103069D01*
X134751Y103170D01*
X134815Y103270D01*
X134816Y103274D01*
X134819Y103277D01*
X134846Y103393D01*
X134875Y103508D01*
X134875Y103513D01*
X134876Y103517D01*
X134866Y103636D01*
X134856Y103754D01*
X134855Y103757D01*
X134854Y103762D01*
X134806Y103871D01*
X134760Y103980D01*
X134757Y103984D01*
X134756Y103987D01*
X134746Y103997D01*
X134655Y104111D01*
X133490Y105276D01*
X132713Y106053D01*
X132713Y110414D01*
X132710Y110434D01*
X132712Y110453D01*
X132690Y110555D01*
X132674Y110657D01*
X132664Y110674D01*
X132660Y110694D01*
X132607Y110783D01*
X132558Y110874D01*
X132544Y110888D01*
X132534Y110905D01*
X132455Y110972D01*
X132380Y111044D01*
X132362Y111052D01*
X132347Y111065D01*
X132251Y111104D01*
X132157Y111147D01*
X132137Y111149D01*
X132119Y111157D01*
X131952Y111175D01*
X128868Y111175D01*
X127975Y112068D01*
X127975Y123332D01*
X128868Y124225D01*
X141132Y124225D01*
X142025Y123332D01*
X142025Y112068D01*
X141132Y111175D01*
X138048Y111175D01*
X138028Y111172D01*
X138009Y111174D01*
X137907Y111152D01*
X137805Y111136D01*
X137788Y111126D01*
X137768Y111122D01*
X137679Y111069D01*
X137588Y111020D01*
X137574Y111006D01*
X137557Y110996D01*
X137490Y110917D01*
X137418Y110842D01*
X137410Y110824D01*
X137397Y110809D01*
X137358Y110713D01*
X137315Y110619D01*
X137313Y110599D01*
X137305Y110581D01*
X137287Y110414D01*
X137287Y109048D01*
X137290Y109028D01*
X137288Y109009D01*
X137310Y108907D01*
X137326Y108805D01*
X137336Y108788D01*
X137340Y108768D01*
X137393Y108679D01*
X137442Y108588D01*
X137456Y108574D01*
X137466Y108557D01*
X137545Y108490D01*
X137620Y108418D01*
X137638Y108410D01*
X137653Y108397D01*
X137749Y108358D01*
X137843Y108315D01*
X137863Y108313D01*
X137881Y108305D01*
X138048Y108287D01*
X152947Y108287D01*
X154287Y106947D01*
X154287Y102931D01*
X154290Y102911D01*
X154288Y102892D01*
X154310Y102790D01*
X154326Y102688D01*
X154336Y102671D01*
X154340Y102651D01*
X154393Y102562D01*
X154442Y102471D01*
X154456Y102457D01*
X154466Y102440D01*
X154545Y102373D01*
X154620Y102301D01*
X154638Y102293D01*
X154653Y102280D01*
X154749Y102241D01*
X154843Y102198D01*
X154863Y102196D01*
X154881Y102188D01*
X155048Y102170D01*
X155982Y102170D01*
X156875Y101277D01*
X156875Y84763D01*
X155879Y83768D01*
X155868Y83752D01*
X155852Y83739D01*
X155823Y83694D01*
X155799Y83669D01*
X155783Y83634D01*
X155736Y83568D01*
X155730Y83549D01*
X155719Y83532D01*
X155699Y83454D01*
X155695Y83446D01*
X155694Y83434D01*
X155694Y83432D01*
X155663Y83333D01*
X155664Y83313D01*
X155659Y83294D01*
X155667Y83191D01*
X155670Y83087D01*
X155677Y83068D01*
X155678Y83049D01*
X155718Y82954D01*
X155754Y82856D01*
X155767Y82841D01*
X155774Y82822D01*
X155879Y82691D01*
X158594Y79977D01*
X158652Y79935D01*
X158704Y79886D01*
X158751Y79864D01*
X158793Y79833D01*
X158862Y79812D01*
X158927Y79782D01*
X158979Y79776D01*
X159029Y79761D01*
X159100Y79763D01*
X159171Y79755D01*
X159222Y79766D01*
X159274Y79767D01*
X159342Y79792D01*
X159412Y79807D01*
X159456Y79834D01*
X159505Y79852D01*
X159561Y79897D01*
X159623Y79933D01*
X159657Y79973D01*
X159697Y80005D01*
X159736Y80066D01*
X159783Y80120D01*
X159802Y80169D01*
X159830Y80212D01*
X159848Y80282D01*
X159875Y80348D01*
X159883Y80420D01*
X159891Y80451D01*
X159889Y80474D01*
X159893Y80515D01*
X159893Y82115D01*
X162252Y84474D01*
X162305Y84548D01*
X162365Y84618D01*
X162377Y84648D01*
X162396Y84674D01*
X162423Y84761D01*
X162457Y84846D01*
X162461Y84887D01*
X162468Y84909D01*
X162467Y84941D01*
X162475Y85013D01*
X162475Y106139D01*
X162461Y106229D01*
X162453Y106320D01*
X162441Y106350D01*
X162436Y106382D01*
X162393Y106462D01*
X162357Y106546D01*
X162331Y106578D01*
X162320Y106599D01*
X162297Y106621D01*
X162252Y106677D01*
X159177Y109752D01*
X159103Y109805D01*
X159034Y109865D01*
X159004Y109877D01*
X158977Y109896D01*
X158890Y109923D01*
X158806Y109957D01*
X158765Y109961D01*
X158742Y109968D01*
X158710Y109967D01*
X158639Y109975D01*
X146454Y109975D01*
X144975Y111454D01*
X144975Y128639D01*
X144961Y128729D01*
X144953Y128820D01*
X144941Y128850D01*
X144936Y128882D01*
X144893Y128962D01*
X144857Y129046D01*
X144831Y129078D01*
X144820Y129099D01*
X144797Y129121D01*
X144752Y129177D01*
X144177Y129752D01*
X144103Y129805D01*
X144034Y129865D01*
X144004Y129877D01*
X143977Y129896D01*
X143890Y129923D01*
X143806Y129957D01*
X143765Y129961D01*
X143742Y129968D01*
X143710Y129967D01*
X143639Y129975D01*
X95433Y129975D01*
X95362Y129964D01*
X95291Y129962D01*
X95242Y129944D01*
X95190Y129936D01*
X95127Y129902D01*
X95060Y129877D01*
X95019Y129845D01*
X94973Y129820D01*
X94924Y129769D01*
X94868Y129724D01*
X94839Y129680D01*
X94804Y129642D01*
X94773Y129577D01*
X94735Y129517D01*
X94722Y129466D01*
X94700Y129419D01*
X94692Y129348D01*
X94675Y129278D01*
X94679Y129226D01*
X94673Y129175D01*
X94688Y129104D01*
X94694Y129033D01*
X94714Y128985D01*
X94725Y128934D01*
X94762Y128873D01*
X94790Y128807D01*
X94835Y128751D01*
X94851Y128723D01*
X94869Y128708D01*
X94895Y128676D01*
X104488Y119082D01*
X104524Y119057D01*
X104554Y119024D01*
X104623Y118985D01*
X104688Y118939D01*
X104730Y118926D01*
X104769Y118904D01*
X104842Y118887D01*
X105367Y118212D01*
X105390Y118191D01*
X105430Y118141D01*
X106030Y117541D01*
X106030Y117540D01*
X106052Y117463D01*
X106064Y117385D01*
X106085Y117346D01*
X106097Y117303D01*
X106137Y117239D01*
X106110Y117027D01*
X106111Y117012D01*
X106107Y116997D01*
X106115Y116890D01*
X106120Y116782D01*
X106125Y116767D01*
X106126Y116752D01*
X106168Y116653D01*
X106207Y116552D01*
X106217Y116540D01*
X106223Y116526D01*
X106327Y116395D01*
X108107Y114615D01*
X108107Y110385D01*
X107546Y109824D01*
X107504Y109766D01*
X107455Y109714D01*
X107433Y109667D01*
X107403Y109625D01*
X107382Y109556D01*
X107351Y109491D01*
X107346Y109439D01*
X107330Y109389D01*
X107332Y109318D01*
X107324Y109247D01*
X107335Y109196D01*
X107337Y109144D01*
X107361Y109076D01*
X107377Y109006D01*
X107403Y108961D01*
X107421Y108913D01*
X107466Y108857D01*
X107503Y108795D01*
X107542Y108761D01*
X107575Y108721D01*
X107635Y108682D01*
X107690Y108635D01*
X107738Y108616D01*
X107782Y108588D01*
X107851Y108570D01*
X107918Y108543D01*
X107989Y108535D01*
X108020Y108527D01*
X108044Y108529D01*
X108085Y108525D01*
X127496Y108525D01*
X128975Y107046D01*
X128975Y102931D01*
X128978Y102911D01*
X128976Y102892D01*
X128998Y102790D01*
X129014Y102688D01*
X129024Y102671D01*
X129028Y102651D01*
X129081Y102562D01*
X129130Y102471D01*
X129144Y102457D01*
X129154Y102440D01*
X129233Y102373D01*
X129308Y102301D01*
X129326Y102293D01*
X129341Y102280D01*
X129437Y102241D01*
X129531Y102198D01*
X129551Y102196D01*
X129569Y102188D01*
X129736Y102170D01*
X130582Y102170D01*
X131475Y101277D01*
X131475Y84763D01*
X130582Y83870D01*
X122318Y83870D01*
X121425Y84763D01*
X121425Y101277D01*
X122324Y102176D01*
X122366Y102234D01*
X122416Y102286D01*
X122438Y102333D01*
X122468Y102375D01*
X122489Y102444D01*
X122519Y102509D01*
X122525Y102561D01*
X122540Y102611D01*
X122538Y102682D01*
X122546Y102753D01*
X122535Y102804D01*
X122534Y102856D01*
X122509Y102924D01*
X122494Y102994D01*
X122467Y103039D01*
X122450Y103087D01*
X122405Y103143D01*
X122368Y103205D01*
X122328Y103239D01*
X122296Y103279D01*
X122236Y103318D01*
X122181Y103365D01*
X122133Y103384D01*
X122089Y103412D01*
X122019Y103430D01*
X121953Y103457D01*
X121882Y103465D01*
X121850Y103473D01*
X121827Y103471D01*
X121786Y103475D01*
X119851Y103475D01*
X119780Y103464D01*
X119708Y103462D01*
X119659Y103444D01*
X119608Y103436D01*
X119544Y103402D01*
X119477Y103377D01*
X119436Y103345D01*
X119391Y103320D01*
X119341Y103268D01*
X119285Y103223D01*
X119257Y103180D01*
X119221Y103142D01*
X119191Y103077D01*
X119152Y103016D01*
X119139Y102966D01*
X119118Y102919D01*
X119110Y102848D01*
X119092Y102778D01*
X119096Y102726D01*
X119090Y102675D01*
X119106Y102604D01*
X119111Y102533D01*
X119132Y102485D01*
X119143Y102434D01*
X119180Y102373D01*
X119208Y102306D01*
X119252Y102251D01*
X119269Y102223D01*
X119276Y102217D01*
X119618Y101626D01*
X119791Y100979D01*
X119791Y94543D01*
X114512Y94543D01*
X114492Y94540D01*
X114473Y94542D01*
X114371Y94520D01*
X114269Y94503D01*
X114252Y94494D01*
X114232Y94490D01*
X114143Y94437D01*
X114052Y94388D01*
X114038Y94374D01*
X114021Y94364D01*
X113954Y94285D01*
X113883Y94210D01*
X113874Y94192D01*
X113861Y94177D01*
X113822Y94081D01*
X113779Y93987D01*
X113777Y93967D01*
X113769Y93949D01*
X113751Y93782D01*
X113751Y93019D01*
X113749Y93019D01*
X113749Y93782D01*
X113746Y93802D01*
X113748Y93821D01*
X113726Y93923D01*
X113709Y94025D01*
X113700Y94042D01*
X113696Y94062D01*
X113643Y94151D01*
X113594Y94242D01*
X113580Y94256D01*
X113570Y94273D01*
X113491Y94340D01*
X113416Y94411D01*
X113398Y94420D01*
X113383Y94433D01*
X113287Y94472D01*
X113193Y94515D01*
X113173Y94517D01*
X113155Y94525D01*
X112988Y94543D01*
X107709Y94543D01*
X107709Y100979D01*
X107882Y101626D01*
X108240Y102245D01*
X108279Y102286D01*
X108301Y102333D01*
X108331Y102375D01*
X108352Y102444D01*
X108382Y102509D01*
X108388Y102561D01*
X108403Y102610D01*
X108402Y102682D01*
X108410Y102753D01*
X108399Y102804D01*
X108397Y102856D01*
X108373Y102924D01*
X108357Y102994D01*
X108331Y103038D01*
X108313Y103087D01*
X108268Y103143D01*
X108231Y103205D01*
X108192Y103239D01*
X108159Y103279D01*
X108099Y103318D01*
X108044Y103365D01*
X107996Y103384D01*
X107952Y103412D01*
X107883Y103430D01*
X107816Y103457D01*
X107745Y103465D01*
X107714Y103473D01*
X107690Y103471D01*
X107649Y103475D01*
X93954Y103475D01*
X92924Y104505D01*
X92866Y104547D01*
X92814Y104596D01*
X92767Y104618D01*
X92725Y104649D01*
X92656Y104670D01*
X92591Y104700D01*
X92539Y104706D01*
X92489Y104721D01*
X92418Y104719D01*
X92347Y104727D01*
X92296Y104716D01*
X92244Y104715D01*
X92176Y104690D01*
X92106Y104675D01*
X92061Y104648D01*
X92013Y104630D01*
X91957Y104585D01*
X91895Y104549D01*
X91861Y104509D01*
X91821Y104477D01*
X91782Y104416D01*
X91735Y104362D01*
X91716Y104313D01*
X91688Y104270D01*
X91670Y104200D01*
X91643Y104134D01*
X91635Y104062D01*
X91627Y104031D01*
X91629Y104008D01*
X91625Y103967D01*
X91625Y97868D01*
X90732Y96975D01*
X65903Y96975D01*
X65832Y96964D01*
X65761Y96962D01*
X65712Y96944D01*
X65660Y96936D01*
X65597Y96902D01*
X65530Y96877D01*
X65489Y96845D01*
X65443Y96820D01*
X65394Y96768D01*
X65338Y96724D01*
X65309Y96680D01*
X65274Y96642D01*
X65243Y96577D01*
X65205Y96517D01*
X65192Y96466D01*
X65170Y96419D01*
X65162Y96348D01*
X65145Y96278D01*
X65149Y96226D01*
X65143Y96175D01*
X65158Y96104D01*
X65164Y96033D01*
X65184Y95985D01*
X65195Y95934D01*
X65232Y95873D01*
X65260Y95807D01*
X65305Y95751D01*
X65321Y95723D01*
X65339Y95708D01*
X65365Y95676D01*
X65953Y95088D01*
X68261Y89516D01*
X68261Y83897D01*
X68265Y83874D01*
X68262Y83850D01*
X68284Y83753D01*
X68300Y83655D01*
X68312Y83633D01*
X68317Y83610D01*
X68353Y83552D01*
X68344Y83542D01*
X68276Y83472D01*
X68260Y83443D01*
X68247Y83429D01*
X68235Y83398D01*
X68195Y83325D01*
X65953Y77912D01*
X61688Y73647D01*
X56116Y71339D01*
X50084Y71339D01*
X44512Y73647D01*
X40247Y77912D01*
X37939Y83484D01*
X37939Y89516D01*
X40247Y95088D01*
X44512Y99353D01*
X50084Y101661D01*
X56116Y101661D01*
X61688Y99353D01*
X63276Y97765D01*
X63334Y97723D01*
X63386Y97674D01*
X63433Y97652D01*
X63475Y97621D01*
X63544Y97600D01*
X63609Y97570D01*
X63661Y97564D01*
X63711Y97549D01*
X63782Y97551D01*
X63853Y97543D01*
X63904Y97554D01*
X63956Y97555D01*
X64024Y97580D01*
X64094Y97595D01*
X64139Y97622D01*
X64187Y97640D01*
X64243Y97685D01*
X64305Y97721D01*
X64339Y97761D01*
X64379Y97793D01*
X64418Y97854D01*
X64465Y97908D01*
X64484Y97957D01*
X64512Y98000D01*
X64530Y98070D01*
X64557Y98136D01*
X64565Y98208D01*
X64573Y98239D01*
X64571Y98262D01*
X64575Y98303D01*
X64575Y119132D01*
X65468Y120025D01*
X87567Y120025D01*
X87638Y120036D01*
X87709Y120038D01*
X87758Y120056D01*
X87810Y120064D01*
X87873Y120098D01*
X87940Y120123D01*
X87981Y120155D01*
X88027Y120180D01*
X88076Y120232D01*
X88132Y120276D01*
X88161Y120320D01*
X88196Y120358D01*
X88227Y120423D01*
X88265Y120483D01*
X88278Y120534D01*
X88300Y120581D01*
X88308Y120652D01*
X88325Y120722D01*
X88321Y120774D01*
X88327Y120825D01*
X88312Y120896D01*
X88306Y120967D01*
X88286Y121015D01*
X88275Y121066D01*
X88238Y121127D01*
X88210Y121193D01*
X88165Y121249D01*
X88149Y121277D01*
X88131Y121292D01*
X88105Y121324D01*
X87177Y122252D01*
X87103Y122305D01*
X87034Y122365D01*
X87004Y122377D01*
X86977Y122396D01*
X86890Y122423D01*
X86806Y122457D01*
X86765Y122461D01*
X86742Y122468D01*
X86710Y122467D01*
X86639Y122475D01*
X54654Y122475D01*
X52952Y124177D01*
X36540Y140589D01*
X36482Y140631D01*
X36430Y140680D01*
X36383Y140702D01*
X36341Y140733D01*
X36272Y140754D01*
X36207Y140784D01*
X36155Y140790D01*
X36105Y140805D01*
X36034Y140803D01*
X35963Y140811D01*
X35912Y140800D01*
X35860Y140799D01*
X35792Y140774D01*
X35722Y140759D01*
X35677Y140732D01*
X35629Y140714D01*
X35573Y140669D01*
X35511Y140633D01*
X35477Y140593D01*
X35437Y140561D01*
X35398Y140500D01*
X35351Y140446D01*
X35332Y140397D01*
X35304Y140354D01*
X35286Y140284D01*
X35259Y140218D01*
X35251Y140146D01*
X35243Y140115D01*
X35245Y140092D01*
X35241Y140051D01*
X35241Y137523D01*
X29223Y137523D01*
X29223Y144041D01*
X31251Y144041D01*
X31322Y144052D01*
X31393Y144054D01*
X31442Y144072D01*
X31494Y144080D01*
X31557Y144114D01*
X31624Y144139D01*
X31665Y144171D01*
X31711Y144196D01*
X31760Y144247D01*
X31816Y144292D01*
X31845Y144336D01*
X31880Y144374D01*
X31911Y144439D01*
X31949Y144499D01*
X31962Y144550D01*
X31984Y144597D01*
X31992Y144668D01*
X32009Y144738D01*
X32005Y144790D01*
X32011Y144841D01*
X31996Y144912D01*
X31990Y144983D01*
X31970Y145031D01*
X31959Y145082D01*
X31922Y145143D01*
X31894Y145209D01*
X31849Y145265D01*
X31833Y145293D01*
X31815Y145308D01*
X31789Y145340D01*
X31377Y145752D01*
X31303Y145805D01*
X31234Y145865D01*
X31204Y145877D01*
X31177Y145896D01*
X31090Y145923D01*
X31006Y145957D01*
X30965Y145961D01*
X30942Y145968D01*
X30910Y145967D01*
X30839Y145975D01*
X22068Y145975D01*
X21175Y146868D01*
X21175Y159132D01*
X22068Y160025D01*
X33332Y160025D01*
X34225Y159132D01*
X34225Y150361D01*
X34239Y150271D01*
X34247Y150180D01*
X34259Y150150D01*
X34264Y150118D01*
X34307Y150038D01*
X34343Y149954D01*
X34369Y149922D01*
X34380Y149901D01*
X34403Y149879D01*
X34448Y149823D01*
X56523Y127748D01*
X56597Y127695D01*
X56666Y127635D01*
X56696Y127623D01*
X56723Y127604D01*
X56810Y127577D01*
X56894Y127543D01*
X56935Y127539D01*
X56958Y127532D01*
X56990Y127533D01*
X57061Y127525D01*
X67567Y127525D01*
X67638Y127536D01*
X67709Y127538D01*
X67758Y127556D01*
X67810Y127564D01*
X67873Y127598D01*
X67940Y127623D01*
X67981Y127655D01*
X68027Y127680D01*
X68076Y127731D01*
X68132Y127776D01*
X68161Y127820D01*
X68196Y127858D01*
X68227Y127923D01*
X68265Y127983D01*
X68278Y128034D01*
X68300Y128081D01*
X68308Y128152D01*
X68325Y128222D01*
X68321Y128274D01*
X68327Y128325D01*
X68312Y128396D01*
X68306Y128467D01*
X68286Y128515D01*
X68275Y128566D01*
X68238Y128627D01*
X68210Y128693D01*
X68165Y128749D01*
X68149Y128777D01*
X68131Y128792D01*
X68105Y128824D01*
X67975Y128954D01*
X67975Y218487D01*
X67961Y218577D01*
X67953Y218668D01*
X67941Y218698D01*
X67936Y218730D01*
X67893Y218811D01*
X67857Y218895D01*
X67831Y218927D01*
X67820Y218948D01*
X67797Y218970D01*
X67752Y219026D01*
X65393Y221385D01*
X65393Y222485D01*
X65382Y222556D01*
X65380Y222627D01*
X65362Y222676D01*
X65354Y222728D01*
X65320Y222791D01*
X65295Y222858D01*
X65263Y222899D01*
X65238Y222945D01*
X65186Y222994D01*
X65142Y223050D01*
X65098Y223079D01*
X65060Y223114D01*
X64995Y223145D01*
X64935Y223183D01*
X64884Y223196D01*
X64837Y223218D01*
X64766Y223226D01*
X64696Y223243D01*
X64644Y223239D01*
X64593Y223245D01*
X64522Y223230D01*
X64451Y223224D01*
X64403Y223204D01*
X64352Y223193D01*
X64291Y223156D01*
X64225Y223128D01*
X64169Y223083D01*
X64141Y223067D01*
X64126Y223049D01*
X64094Y223023D01*
X47748Y206677D01*
X47695Y206603D01*
X47635Y206534D01*
X47623Y206504D01*
X47604Y206477D01*
X47577Y206390D01*
X47543Y206306D01*
X47539Y206265D01*
X47532Y206242D01*
X47533Y206210D01*
X47525Y206139D01*
X47525Y201454D01*
X46046Y199975D01*
X26454Y199975D01*
X21759Y204670D01*
X21685Y204723D01*
X21616Y204783D01*
X21586Y204795D01*
X21559Y204814D01*
X21472Y204841D01*
X21388Y204875D01*
X21347Y204879D01*
X21324Y204886D01*
X21292Y204885D01*
X21221Y204893D01*
X17885Y204893D01*
X16324Y206454D01*
X16266Y206496D01*
X16214Y206545D01*
X16167Y206567D01*
X16125Y206597D01*
X16056Y206618D01*
X15991Y206649D01*
X15939Y206654D01*
X15889Y206670D01*
X15818Y206668D01*
X15747Y206676D01*
X15696Y206665D01*
X15644Y206663D01*
X15576Y206639D01*
X15506Y206623D01*
X15461Y206597D01*
X15413Y206579D01*
X15357Y206534D01*
X15295Y206497D01*
X15261Y206458D01*
X15221Y206425D01*
X15182Y206365D01*
X15135Y206310D01*
X15116Y206262D01*
X15088Y206218D01*
X15070Y206149D01*
X15043Y206082D01*
X15035Y206011D01*
X15027Y205980D01*
X15029Y205956D01*
X15025Y205915D01*
X15025Y185786D01*
X15028Y185766D01*
X15026Y185747D01*
X15048Y185645D01*
X15064Y185543D01*
X15074Y185526D01*
X15078Y185506D01*
X15131Y185417D01*
X15180Y185326D01*
X15194Y185312D01*
X15204Y185295D01*
X15283Y185228D01*
X15358Y185156D01*
X15376Y185148D01*
X15391Y185135D01*
X15487Y185096D01*
X15581Y185053D01*
X15601Y185051D01*
X15619Y185043D01*
X15786Y185025D01*
X46046Y185025D01*
X58241Y172830D01*
X58315Y172777D01*
X58384Y172717D01*
X58414Y172705D01*
X58441Y172686D01*
X58528Y172659D01*
X58612Y172625D01*
X58653Y172621D01*
X58676Y172614D01*
X58708Y172615D01*
X58779Y172607D01*
X62115Y172607D01*
X65107Y169615D01*
X65107Y165385D01*
X62115Y162393D01*
X57885Y162393D01*
X54893Y165385D01*
X54893Y168721D01*
X54879Y168811D01*
X54871Y168902D01*
X54859Y168932D01*
X54854Y168964D01*
X54811Y169044D01*
X54775Y169128D01*
X54749Y169160D01*
X54738Y169181D01*
X54715Y169203D01*
X54670Y169259D01*
X44177Y179752D01*
X44103Y179805D01*
X44034Y179865D01*
X44004Y179877D01*
X43977Y179896D01*
X43890Y179923D01*
X43806Y179957D01*
X43765Y179961D01*
X43742Y179968D01*
X43710Y179967D01*
X43639Y179975D01*
X11452Y179975D01*
X11402Y180011D01*
X11350Y180060D01*
X11303Y180082D01*
X11261Y180113D01*
X11192Y180134D01*
X11127Y180164D01*
X11075Y180170D01*
X11026Y180185D01*
X10954Y180183D01*
X10883Y180191D01*
X10832Y180180D01*
X10780Y180179D01*
X10712Y180154D01*
X10642Y180139D01*
X10597Y180112D01*
X10549Y180094D01*
X10493Y180050D01*
X10431Y180013D01*
X10397Y179973D01*
X10357Y179941D01*
X10318Y179880D01*
X10271Y179826D01*
X10252Y179777D01*
X10224Y179734D01*
X10206Y179664D01*
X10179Y179598D01*
X10171Y179526D01*
X10163Y179495D01*
X10165Y179472D01*
X10161Y179431D01*
X10161Y120786D01*
X10164Y120766D01*
X10162Y120747D01*
X10184Y120645D01*
X10200Y120543D01*
X10210Y120526D01*
X10214Y120506D01*
X10267Y120417D01*
X10316Y120326D01*
X10330Y120312D01*
X10340Y120295D01*
X10419Y120228D01*
X10494Y120156D01*
X10512Y120148D01*
X10527Y120135D01*
X10623Y120096D01*
X10717Y120053D01*
X10737Y120051D01*
X10755Y120043D01*
X10922Y120025D01*
X35732Y120025D01*
X36625Y119132D01*
X36625Y97868D01*
X35732Y96975D01*
X10922Y96975D01*
X10902Y96972D01*
X10883Y96974D01*
X10781Y96952D01*
X10679Y96936D01*
X10662Y96926D01*
X10642Y96922D01*
X10553Y96869D01*
X10462Y96820D01*
X10448Y96806D01*
X10431Y96796D01*
X10364Y96717D01*
X10292Y96642D01*
X10284Y96624D01*
X10271Y96609D01*
X10232Y96513D01*
X10189Y96419D01*
X10187Y96399D01*
X10179Y96381D01*
X10161Y96214D01*
X10161Y32786D01*
X10164Y32766D01*
X10162Y32747D01*
X10184Y32645D01*
X10200Y32543D01*
X10210Y32526D01*
X10214Y32506D01*
X10267Y32417D01*
X10316Y32326D01*
X10330Y32312D01*
X10340Y32295D01*
X10419Y32228D01*
X10494Y32156D01*
X10512Y32148D01*
X10527Y32135D01*
X10623Y32096D01*
X10717Y32053D01*
X10737Y32051D01*
X10755Y32043D01*
X10922Y32025D01*
X35732Y32025D01*
X36625Y31132D01*
X36625Y10922D01*
X36628Y10902D01*
X36626Y10883D01*
X36648Y10781D01*
X36664Y10679D01*
X36674Y10662D01*
X36678Y10642D01*
X36731Y10553D01*
X36780Y10462D01*
X36794Y10448D01*
X36804Y10431D01*
X36883Y10364D01*
X36958Y10292D01*
X36976Y10284D01*
X36991Y10271D01*
X37087Y10232D01*
X37181Y10189D01*
X37201Y10187D01*
X37219Y10179D01*
X37386Y10161D01*
X63814Y10161D01*
X63834Y10164D01*
G37*
G36*
X11032Y237324D02*
X11032Y237324D01*
X11103Y237330D01*
X11151Y237350D01*
X11202Y237361D01*
X11263Y237398D01*
X11329Y237426D01*
X11385Y237471D01*
X11413Y237487D01*
X11428Y237505D01*
X11460Y237531D01*
X56002Y282073D01*
X57927Y283998D01*
X65005Y291076D01*
X65047Y291134D01*
X65096Y291186D01*
X65118Y291233D01*
X65149Y291275D01*
X65170Y291344D01*
X65200Y291409D01*
X65206Y291461D01*
X65221Y291511D01*
X65219Y291582D01*
X65227Y291653D01*
X65216Y291704D01*
X65215Y291756D01*
X65190Y291824D01*
X65175Y291894D01*
X65148Y291939D01*
X65130Y291987D01*
X65085Y292043D01*
X65049Y292105D01*
X65009Y292139D01*
X64977Y292179D01*
X64916Y292218D01*
X64862Y292265D01*
X64813Y292284D01*
X64770Y292312D01*
X64700Y292330D01*
X64634Y292357D01*
X64562Y292365D01*
X64531Y292373D01*
X64508Y292371D01*
X64467Y292375D01*
X60534Y292375D01*
X60444Y292361D01*
X60353Y292353D01*
X60323Y292341D01*
X60291Y292336D01*
X60210Y292293D01*
X60126Y292257D01*
X60094Y292231D01*
X60074Y292220D01*
X60051Y292197D01*
X59995Y292152D01*
X59710Y291867D01*
X59131Y291532D01*
X58484Y291359D01*
X53323Y291359D01*
X53323Y305838D01*
X53320Y305858D01*
X53322Y305877D01*
X53300Y305979D01*
X53283Y306081D01*
X53274Y306098D01*
X53270Y306118D01*
X53217Y306207D01*
X53168Y306298D01*
X53154Y306312D01*
X53144Y306329D01*
X53065Y306396D01*
X52990Y306467D01*
X52972Y306476D01*
X52957Y306489D01*
X52861Y306528D01*
X52767Y306571D01*
X52747Y306573D01*
X52729Y306581D01*
X52562Y306599D01*
X51799Y306599D01*
X51799Y307362D01*
X51796Y307382D01*
X51798Y307401D01*
X51776Y307503D01*
X51759Y307605D01*
X51750Y307622D01*
X51746Y307642D01*
X51693Y307731D01*
X51644Y307822D01*
X51630Y307836D01*
X51620Y307853D01*
X51541Y307920D01*
X51466Y307991D01*
X51448Y308000D01*
X51433Y308013D01*
X51337Y308052D01*
X51243Y308095D01*
X51223Y308097D01*
X51205Y308105D01*
X51038Y308123D01*
X42909Y308123D01*
X42909Y319078D01*
X42906Y319098D01*
X42908Y319117D01*
X42886Y319219D01*
X42870Y319321D01*
X42860Y319338D01*
X42856Y319358D01*
X42803Y319447D01*
X42754Y319538D01*
X42740Y319552D01*
X42730Y319569D01*
X42651Y319636D01*
X42576Y319708D01*
X42558Y319716D01*
X42543Y319729D01*
X42447Y319768D01*
X42353Y319811D01*
X42333Y319813D01*
X42315Y319821D01*
X42148Y319839D01*
X10922Y319839D01*
X10902Y319836D01*
X10883Y319838D01*
X10781Y319816D01*
X10679Y319800D01*
X10662Y319790D01*
X10642Y319786D01*
X10553Y319733D01*
X10462Y319684D01*
X10448Y319670D01*
X10431Y319660D01*
X10364Y319581D01*
X10292Y319506D01*
X10284Y319488D01*
X10271Y319473D01*
X10232Y319377D01*
X10189Y319283D01*
X10187Y319263D01*
X10179Y319245D01*
X10161Y319078D01*
X10161Y238069D01*
X10172Y237998D01*
X10174Y237927D01*
X10192Y237878D01*
X10200Y237826D01*
X10234Y237763D01*
X10259Y237696D01*
X10291Y237655D01*
X10316Y237609D01*
X10368Y237560D01*
X10412Y237504D01*
X10456Y237475D01*
X10494Y237440D01*
X10559Y237409D01*
X10619Y237371D01*
X10670Y237358D01*
X10717Y237336D01*
X10788Y237328D01*
X10858Y237311D01*
X10910Y237315D01*
X10961Y237309D01*
X11032Y237324D01*
G37*
%LPC*%
G36*
X124468Y136975D02*
X124468Y136975D01*
X123575Y137868D01*
X123575Y149132D01*
X124468Y150025D01*
X126814Y150025D01*
X126834Y150028D01*
X126853Y150026D01*
X126955Y150048D01*
X127057Y150064D01*
X127074Y150074D01*
X127094Y150078D01*
X127183Y150131D01*
X127274Y150180D01*
X127288Y150194D01*
X127305Y150204D01*
X127372Y150283D01*
X127444Y150358D01*
X127452Y150376D01*
X127465Y150391D01*
X127504Y150487D01*
X127547Y150581D01*
X127549Y150601D01*
X127557Y150619D01*
X127575Y150786D01*
X127575Y151239D01*
X127561Y151329D01*
X127553Y151420D01*
X127541Y151450D01*
X127536Y151482D01*
X127493Y151562D01*
X127457Y151646D01*
X127431Y151678D01*
X127420Y151699D01*
X127397Y151721D01*
X127352Y151777D01*
X92475Y186654D01*
X92475Y199705D01*
X92461Y199795D01*
X92453Y199886D01*
X92441Y199915D01*
X92436Y199947D01*
X92416Y199984D01*
X92415Y199992D01*
X92393Y200029D01*
X92357Y200112D01*
X92331Y200144D01*
X92320Y200165D01*
X92299Y200185D01*
X92288Y200203D01*
X92275Y200214D01*
X92252Y200243D01*
X89693Y202802D01*
X89693Y207198D01*
X92802Y210307D01*
X97198Y210307D01*
X100307Y207198D01*
X100307Y202802D01*
X97748Y200243D01*
X97705Y200183D01*
X97664Y200140D01*
X97657Y200125D01*
X97635Y200099D01*
X97623Y200069D01*
X97604Y200043D01*
X97577Y199956D01*
X97570Y199939D01*
X97560Y199917D01*
X97560Y199912D01*
X97543Y199871D01*
X97539Y199830D01*
X97532Y199808D01*
X97533Y199776D01*
X97525Y199705D01*
X97525Y189061D01*
X97539Y188971D01*
X97547Y188880D01*
X97559Y188850D01*
X97564Y188818D01*
X97583Y188784D01*
X97585Y188775D01*
X97608Y188735D01*
X97643Y188654D01*
X97669Y188622D01*
X97680Y188601D01*
X97700Y188581D01*
X97711Y188564D01*
X97724Y188552D01*
X97748Y188523D01*
X129562Y156709D01*
X129578Y156697D01*
X129590Y156682D01*
X129678Y156626D01*
X129761Y156565D01*
X129780Y156559D01*
X129797Y156549D01*
X129898Y156523D01*
X129997Y156493D01*
X130016Y156493D01*
X130036Y156489D01*
X130139Y156497D01*
X130242Y156499D01*
X130261Y156506D01*
X130281Y156508D01*
X130376Y156548D01*
X130473Y156584D01*
X130489Y156596D01*
X130507Y156604D01*
X130638Y156709D01*
X131454Y157525D01*
X233546Y157525D01*
X237625Y153446D01*
X237625Y150786D01*
X237628Y150766D01*
X237626Y150747D01*
X237648Y150645D01*
X237664Y150543D01*
X237674Y150526D01*
X237678Y150506D01*
X237731Y150417D01*
X237780Y150326D01*
X237794Y150312D01*
X237804Y150295D01*
X237883Y150228D01*
X237958Y150156D01*
X237976Y150148D01*
X237991Y150135D01*
X238087Y150096D01*
X238181Y150053D01*
X238201Y150051D01*
X238219Y150043D01*
X238386Y150025D01*
X240732Y150025D01*
X241625Y149132D01*
X241625Y137868D01*
X240732Y136975D01*
X229468Y136975D01*
X228575Y137868D01*
X228575Y149132D01*
X229468Y150025D01*
X231814Y150025D01*
X231834Y150028D01*
X231853Y150026D01*
X231955Y150048D01*
X232057Y150064D01*
X232074Y150074D01*
X232094Y150078D01*
X232183Y150131D01*
X232274Y150180D01*
X232288Y150194D01*
X232305Y150204D01*
X232372Y150283D01*
X232444Y150358D01*
X232452Y150376D01*
X232465Y150391D01*
X232504Y150487D01*
X232547Y150581D01*
X232549Y150601D01*
X232557Y150619D01*
X232575Y150786D01*
X232575Y151039D01*
X232561Y151129D01*
X232553Y151220D01*
X232541Y151250D01*
X232536Y151282D01*
X232493Y151362D01*
X232457Y151446D01*
X232431Y151478D01*
X232420Y151499D01*
X232397Y151521D01*
X232352Y151577D01*
X231677Y152252D01*
X231603Y152305D01*
X231534Y152365D01*
X231504Y152377D01*
X231477Y152396D01*
X231390Y152423D01*
X231306Y152457D01*
X231265Y152461D01*
X231242Y152468D01*
X231210Y152467D01*
X231139Y152475D01*
X133861Y152475D01*
X133771Y152461D01*
X133680Y152453D01*
X133650Y152441D01*
X133618Y152436D01*
X133538Y152393D01*
X133454Y152357D01*
X133422Y152331D01*
X133401Y152320D01*
X133379Y152297D01*
X133323Y152252D01*
X132848Y151777D01*
X132795Y151703D01*
X132735Y151634D01*
X132723Y151604D01*
X132704Y151577D01*
X132677Y151490D01*
X132643Y151406D01*
X132639Y151365D01*
X132632Y151342D01*
X132633Y151310D01*
X132625Y151239D01*
X132625Y150786D01*
X132628Y150766D01*
X132626Y150747D01*
X132648Y150645D01*
X132664Y150543D01*
X132674Y150526D01*
X132678Y150506D01*
X132731Y150417D01*
X132780Y150326D01*
X132794Y150312D01*
X132804Y150295D01*
X132883Y150228D01*
X132958Y150156D01*
X132976Y150148D01*
X132991Y150135D01*
X133087Y150096D01*
X133181Y150053D01*
X133201Y150051D01*
X133219Y150043D01*
X133386Y150025D01*
X135732Y150025D01*
X136625Y149132D01*
X136625Y137868D01*
X135732Y136975D01*
X124468Y136975D01*
G37*
%LPD*%
%LPC*%
G36*
X342823Y280959D02*
X342823Y280959D01*
X342823Y298738D01*
X342820Y298758D01*
X342822Y298777D01*
X342800Y298879D01*
X342783Y298981D01*
X342774Y298998D01*
X342770Y299018D01*
X342717Y299107D01*
X342668Y299198D01*
X342654Y299212D01*
X342644Y299229D01*
X342565Y299296D01*
X342490Y299367D01*
X342472Y299376D01*
X342457Y299389D01*
X342361Y299428D01*
X342267Y299471D01*
X342247Y299473D01*
X342229Y299481D01*
X342062Y299499D01*
X341299Y299499D01*
X341299Y299501D01*
X342062Y299501D01*
X342082Y299504D01*
X342101Y299502D01*
X342203Y299524D01*
X342305Y299541D01*
X342322Y299550D01*
X342342Y299554D01*
X342431Y299607D01*
X342522Y299656D01*
X342536Y299670D01*
X342553Y299680D01*
X342620Y299759D01*
X342691Y299834D01*
X342700Y299852D01*
X342713Y299867D01*
X342752Y299963D01*
X342795Y300057D01*
X342797Y300077D01*
X342805Y300095D01*
X342823Y300262D01*
X342823Y318041D01*
X354134Y318041D01*
X354781Y317868D01*
X355360Y317533D01*
X355833Y317060D01*
X356168Y316481D01*
X356341Y315834D01*
X356341Y311877D01*
X356348Y311832D01*
X356346Y311786D01*
X356368Y311711D01*
X356380Y311634D01*
X356402Y311594D01*
X356415Y311550D01*
X356459Y311486D01*
X356496Y311417D01*
X356529Y311385D01*
X356555Y311348D01*
X356618Y311301D01*
X356674Y311248D01*
X356716Y311228D01*
X356752Y311201D01*
X356826Y311177D01*
X356897Y311144D01*
X356943Y311139D01*
X356986Y311125D01*
X357064Y311125D01*
X357141Y311117D01*
X357186Y311127D01*
X357232Y311127D01*
X357364Y311165D01*
X357382Y311169D01*
X357386Y311172D01*
X357393Y311174D01*
X360983Y312661D01*
X366617Y312661D01*
X371821Y310505D01*
X375805Y306521D01*
X377961Y301317D01*
X377961Y295683D01*
X375805Y290479D01*
X371821Y286495D01*
X366617Y284339D01*
X360983Y284339D01*
X357393Y285826D01*
X357349Y285837D01*
X357307Y285856D01*
X357230Y285865D01*
X357154Y285882D01*
X357108Y285878D01*
X357063Y285883D01*
X356986Y285867D01*
X356909Y285859D01*
X356867Y285841D01*
X356822Y285831D01*
X356755Y285791D01*
X356684Y285759D01*
X356650Y285728D01*
X356611Y285705D01*
X356560Y285646D01*
X356503Y285593D01*
X356481Y285553D01*
X356451Y285518D01*
X356422Y285446D01*
X356385Y285377D01*
X356376Y285332D01*
X356359Y285290D01*
X356344Y285154D01*
X356341Y285135D01*
X356342Y285130D01*
X356341Y285123D01*
X356341Y283166D01*
X356168Y282519D01*
X355833Y281940D01*
X355360Y281467D01*
X354781Y281132D01*
X354134Y280959D01*
X342823Y280959D01*
G37*
%LPD*%
G36*
X195539Y17544D02*
X195539Y17544D01*
X195658Y17562D01*
X195661Y17564D01*
X195666Y17564D01*
X195770Y17620D01*
X195876Y17675D01*
X195879Y17678D01*
X195883Y17680D01*
X195964Y17765D01*
X196048Y17851D01*
X196049Y17855D01*
X196052Y17858D01*
X196102Y17965D01*
X196154Y18073D01*
X196154Y18077D01*
X196156Y18081D01*
X196169Y18199D01*
X196183Y18317D01*
X196183Y18322D01*
X196183Y18325D01*
X196180Y18339D01*
X196158Y18483D01*
X196109Y18666D01*
X196109Y20051D01*
X200462Y20051D01*
X200481Y20054D01*
X200501Y20052D01*
X200603Y20074D01*
X200705Y20090D01*
X200722Y20100D01*
X200742Y20104D01*
X200831Y20157D01*
X200922Y20206D01*
X200936Y20220D01*
X200953Y20230D01*
X201020Y20309D01*
X201091Y20384D01*
X201100Y20402D01*
X201113Y20417D01*
X201151Y20513D01*
X201195Y20607D01*
X201197Y20627D01*
X201205Y20645D01*
X201206Y20654D01*
X201281Y20667D01*
X201298Y20676D01*
X201318Y20680D01*
X201407Y20733D01*
X201498Y20782D01*
X201512Y20796D01*
X201529Y20806D01*
X201596Y20885D01*
X201668Y20960D01*
X201676Y20978D01*
X201689Y20993D01*
X201728Y21090D01*
X201771Y21183D01*
X201773Y21203D01*
X201781Y21221D01*
X201799Y21388D01*
X201799Y27312D01*
X201796Y27331D01*
X201798Y27351D01*
X201776Y27453D01*
X201760Y27555D01*
X201750Y27572D01*
X201746Y27592D01*
X201693Y27681D01*
X201644Y27772D01*
X201630Y27786D01*
X201620Y27803D01*
X201541Y27870D01*
X201466Y27941D01*
X201448Y27950D01*
X201433Y27963D01*
X201337Y28001D01*
X201243Y28045D01*
X201223Y28047D01*
X201205Y28055D01*
X201196Y28056D01*
X201183Y28131D01*
X201174Y28148D01*
X201170Y28168D01*
X201117Y28257D01*
X201068Y28348D01*
X201054Y28362D01*
X201044Y28379D01*
X200965Y28446D01*
X200890Y28518D01*
X200872Y28526D01*
X200857Y28539D01*
X200760Y28578D01*
X200667Y28621D01*
X200647Y28623D01*
X200629Y28631D01*
X200462Y28649D01*
X196109Y28649D01*
X196109Y30034D01*
X196282Y30681D01*
X196617Y31260D01*
X196902Y31545D01*
X196955Y31619D01*
X197015Y31689D01*
X197027Y31719D01*
X197046Y31745D01*
X197073Y31832D01*
X197107Y31917D01*
X197111Y31958D01*
X197118Y31980D01*
X197117Y32012D01*
X197125Y32084D01*
X197125Y36832D01*
X197252Y36959D01*
X197305Y37033D01*
X197365Y37102D01*
X197377Y37132D01*
X197396Y37158D01*
X197423Y37245D01*
X197457Y37330D01*
X197461Y37371D01*
X197468Y37393D01*
X197467Y37426D01*
X197475Y37497D01*
X197475Y49046D01*
X197705Y49276D01*
X197747Y49334D01*
X197796Y49386D01*
X197818Y49433D01*
X197849Y49475D01*
X197870Y49544D01*
X197900Y49609D01*
X197906Y49661D01*
X197921Y49711D01*
X197919Y49782D01*
X197927Y49853D01*
X197916Y49904D01*
X197915Y49956D01*
X197890Y50024D01*
X197875Y50094D01*
X197848Y50139D01*
X197830Y50187D01*
X197786Y50243D01*
X197749Y50305D01*
X197709Y50339D01*
X197677Y50379D01*
X197616Y50418D01*
X197562Y50465D01*
X197513Y50484D01*
X197470Y50512D01*
X197400Y50530D01*
X197334Y50557D01*
X197262Y50565D01*
X197231Y50573D01*
X197208Y50571D01*
X197167Y50575D01*
X197118Y50575D01*
X196788Y50905D01*
X196772Y50917D01*
X196760Y50933D01*
X196673Y50989D01*
X196589Y51049D01*
X196570Y51055D01*
X196553Y51066D01*
X196452Y51091D01*
X196353Y51121D01*
X196334Y51121D01*
X196314Y51126D01*
X196211Y51118D01*
X196108Y51115D01*
X196089Y51108D01*
X196069Y51107D01*
X195974Y51066D01*
X195877Y51031D01*
X195861Y51018D01*
X195843Y51010D01*
X195712Y50905D01*
X195382Y50575D01*
X187618Y50575D01*
X187288Y50905D01*
X187272Y50917D01*
X187260Y50933D01*
X187173Y50989D01*
X187089Y51049D01*
X187070Y51055D01*
X187053Y51066D01*
X186952Y51091D01*
X186853Y51121D01*
X186834Y51121D01*
X186814Y51126D01*
X186711Y51118D01*
X186608Y51115D01*
X186589Y51108D01*
X186569Y51107D01*
X186474Y51066D01*
X186377Y51031D01*
X186361Y51018D01*
X186343Y51010D01*
X186212Y50905D01*
X185882Y50575D01*
X185286Y50575D01*
X185266Y50572D01*
X185247Y50574D01*
X185145Y50552D01*
X185043Y50536D01*
X185026Y50526D01*
X185006Y50522D01*
X184917Y50469D01*
X184826Y50420D01*
X184812Y50406D01*
X184795Y50396D01*
X184728Y50317D01*
X184656Y50242D01*
X184648Y50224D01*
X184635Y50209D01*
X184596Y50113D01*
X184553Y50019D01*
X184551Y49999D01*
X184543Y49981D01*
X184525Y49814D01*
X184525Y44361D01*
X184539Y44271D01*
X184547Y44180D01*
X184559Y44150D01*
X184564Y44118D01*
X184607Y44038D01*
X184643Y43954D01*
X184669Y43922D01*
X184680Y43901D01*
X184703Y43879D01*
X184748Y43823D01*
X190025Y38546D01*
X190025Y18861D01*
X190039Y18771D01*
X190047Y18680D01*
X190059Y18650D01*
X190064Y18618D01*
X190107Y18538D01*
X190143Y18454D01*
X190169Y18422D01*
X190180Y18401D01*
X190203Y18379D01*
X190248Y18323D01*
X190823Y17748D01*
X190897Y17695D01*
X190966Y17635D01*
X190996Y17623D01*
X191023Y17604D01*
X191110Y17577D01*
X191194Y17543D01*
X191235Y17539D01*
X191258Y17532D01*
X191290Y17533D01*
X191361Y17525D01*
X195423Y17525D01*
X195539Y17544D01*
G37*
%LPC*%
G36*
X280099Y155999D02*
X280099Y155999D01*
X280099Y156762D01*
X280096Y156782D01*
X280098Y156801D01*
X280076Y156903D01*
X280059Y157005D01*
X280050Y157022D01*
X280046Y157042D01*
X279993Y157131D01*
X279944Y157222D01*
X279930Y157236D01*
X279920Y157253D01*
X279841Y157320D01*
X279766Y157391D01*
X279748Y157400D01*
X279733Y157413D01*
X279637Y157452D01*
X279543Y157495D01*
X279523Y157497D01*
X279505Y157505D01*
X279338Y157523D01*
X272559Y157523D01*
X272559Y161334D01*
X272732Y161981D01*
X273067Y162560D01*
X273540Y163033D01*
X274184Y163405D01*
X274276Y163480D01*
X274369Y163554D01*
X274371Y163558D01*
X274374Y163561D01*
X274437Y163661D01*
X274502Y163761D01*
X274503Y163765D01*
X274505Y163769D01*
X274532Y163884D01*
X274562Y164000D01*
X274561Y164004D01*
X274562Y164008D01*
X274552Y164127D01*
X274543Y164245D01*
X274541Y164249D01*
X274541Y164253D01*
X274493Y164361D01*
X274446Y164471D01*
X274443Y164475D01*
X274442Y164478D01*
X274432Y164489D01*
X274341Y164602D01*
X273575Y165368D01*
X273575Y176632D01*
X274468Y177525D01*
X285732Y177525D01*
X286625Y176632D01*
X286625Y165368D01*
X285859Y164602D01*
X285790Y164506D01*
X285719Y164410D01*
X285717Y164406D01*
X285715Y164403D01*
X285680Y164290D01*
X285644Y164176D01*
X285644Y164171D01*
X285643Y164167D01*
X285646Y164049D01*
X285648Y163930D01*
X285649Y163926D01*
X285649Y163922D01*
X285690Y163809D01*
X285730Y163698D01*
X285732Y163695D01*
X285734Y163691D01*
X285808Y163597D01*
X285881Y163504D01*
X285885Y163501D01*
X285887Y163499D01*
X285899Y163491D01*
X286016Y163405D01*
X286660Y163033D01*
X287133Y162560D01*
X287468Y161981D01*
X287641Y161334D01*
X287641Y157523D01*
X280862Y157523D01*
X280842Y157520D01*
X280823Y157522D01*
X280721Y157500D01*
X280619Y157483D01*
X280602Y157474D01*
X280582Y157470D01*
X280493Y157417D01*
X280402Y157368D01*
X280388Y157354D01*
X280371Y157344D01*
X280304Y157265D01*
X280233Y157190D01*
X280224Y157172D01*
X280211Y157157D01*
X280172Y157061D01*
X280129Y156967D01*
X280127Y156947D01*
X280119Y156929D01*
X280101Y156762D01*
X280101Y155999D01*
X280099Y155999D01*
G37*
%LPD*%
%LPC*%
G36*
X187885Y197393D02*
X187885Y197393D01*
X184893Y200385D01*
X184893Y204615D01*
X187885Y207607D01*
X191221Y207607D01*
X191311Y207621D01*
X191402Y207629D01*
X191432Y207641D01*
X191464Y207646D01*
X191544Y207689D01*
X191628Y207725D01*
X191660Y207751D01*
X191681Y207762D01*
X191703Y207785D01*
X191759Y207830D01*
X196454Y212525D01*
X204987Y212525D01*
X205077Y212539D01*
X205168Y212547D01*
X205198Y212559D01*
X205230Y212564D01*
X205311Y212607D01*
X205395Y212643D01*
X205427Y212669D01*
X205448Y212680D01*
X205470Y212703D01*
X205526Y212748D01*
X207885Y215107D01*
X212115Y215107D01*
X215107Y212115D01*
X215107Y207885D01*
X212115Y204893D01*
X207885Y204893D01*
X205526Y207252D01*
X205452Y207305D01*
X205382Y207365D01*
X205352Y207377D01*
X205326Y207396D01*
X205239Y207423D01*
X205154Y207457D01*
X205113Y207461D01*
X205091Y207468D01*
X205059Y207467D01*
X204987Y207475D01*
X198861Y207475D01*
X198771Y207461D01*
X198680Y207453D01*
X198650Y207441D01*
X198618Y207436D01*
X198538Y207393D01*
X198454Y207357D01*
X198422Y207331D01*
X198401Y207320D01*
X198379Y207297D01*
X198323Y207252D01*
X195330Y204259D01*
X195277Y204185D01*
X195217Y204116D01*
X195205Y204086D01*
X195186Y204059D01*
X195159Y203972D01*
X195125Y203888D01*
X195121Y203847D01*
X195114Y203824D01*
X195115Y203792D01*
X195107Y203721D01*
X195107Y200385D01*
X192115Y197393D01*
X187885Y197393D01*
G37*
%LPD*%
%LPC*%
G36*
X328466Y280959D02*
X328466Y280959D01*
X327819Y281132D01*
X327193Y281494D01*
X327170Y281503D01*
X327151Y281517D01*
X327056Y281546D01*
X326963Y281581D01*
X326939Y281582D01*
X326916Y281589D01*
X326883Y281588D01*
X326882Y281594D01*
X326874Y281693D01*
X326865Y281715D01*
X326861Y281739D01*
X326794Y281893D01*
X326432Y282519D01*
X326259Y283166D01*
X326259Y297977D01*
X339777Y297977D01*
X339777Y280959D01*
X328466Y280959D01*
G37*
%LPD*%
%LPC*%
G36*
X326259Y301023D02*
X326259Y301023D01*
X326259Y315834D01*
X326432Y316481D01*
X326767Y317060D01*
X327240Y317533D01*
X327819Y317868D01*
X328466Y318041D01*
X339777Y318041D01*
X339777Y301023D01*
X326259Y301023D01*
G37*
%LPD*%
%LPC*%
G36*
X363368Y68125D02*
X363368Y68125D01*
X362475Y69018D01*
X362475Y76282D01*
X363368Y77175D01*
X386632Y77175D01*
X387525Y76282D01*
X387525Y69018D01*
X386632Y68125D01*
X363368Y68125D01*
G37*
%LPD*%
%LPC*%
G36*
X124468Y266975D02*
X124468Y266975D01*
X123575Y267868D01*
X123575Y279132D01*
X124468Y280025D01*
X135732Y280025D01*
X136625Y279132D01*
X136625Y267868D01*
X135732Y266975D01*
X124468Y266975D01*
G37*
%LPD*%
%LPC*%
G36*
X169468Y266975D02*
X169468Y266975D01*
X168575Y267868D01*
X168575Y279132D01*
X169468Y280025D01*
X180732Y280025D01*
X181625Y279132D01*
X181625Y267868D01*
X180732Y266975D01*
X169468Y266975D01*
G37*
%LPD*%
%LPC*%
G36*
X184468Y266975D02*
X184468Y266975D01*
X183575Y267868D01*
X183575Y279132D01*
X184468Y280025D01*
X195732Y280025D01*
X196625Y279132D01*
X196625Y267868D01*
X195732Y266975D01*
X184468Y266975D01*
G37*
%LPD*%
%LPC*%
G36*
X229468Y266975D02*
X229468Y266975D01*
X228575Y267868D01*
X228575Y279132D01*
X229468Y280025D01*
X240732Y280025D01*
X241625Y279132D01*
X241625Y267868D01*
X240732Y266975D01*
X229468Y266975D01*
G37*
%LPD*%
%LPC*%
G36*
X214468Y266975D02*
X214468Y266975D01*
X213575Y267868D01*
X213575Y279132D01*
X214468Y280025D01*
X225732Y280025D01*
X226625Y279132D01*
X226625Y267868D01*
X225732Y266975D01*
X214468Y266975D01*
G37*
%LPD*%
%LPC*%
G36*
X199468Y266975D02*
X199468Y266975D01*
X198575Y267868D01*
X198575Y279132D01*
X199468Y280025D01*
X210732Y280025D01*
X211625Y279132D01*
X211625Y267868D01*
X210732Y266975D01*
X199468Y266975D01*
G37*
%LPD*%
%LPC*%
G36*
X274468Y209475D02*
X274468Y209475D01*
X273575Y210368D01*
X273575Y221632D01*
X274468Y222525D01*
X285732Y222525D01*
X286625Y221632D01*
X286625Y210368D01*
X285732Y209475D01*
X274468Y209475D01*
G37*
%LPD*%
%LPC*%
G36*
X274468Y194475D02*
X274468Y194475D01*
X273575Y195368D01*
X273575Y206632D01*
X274468Y207525D01*
X285732Y207525D01*
X286625Y206632D01*
X286625Y195368D01*
X285732Y194475D01*
X274468Y194475D01*
G37*
%LPD*%
%LPC*%
G36*
X274468Y179475D02*
X274468Y179475D01*
X273575Y180368D01*
X273575Y191632D01*
X274468Y192525D01*
X285732Y192525D01*
X286625Y191632D01*
X286625Y180368D01*
X285732Y179475D01*
X274468Y179475D01*
G37*
%LPD*%
%LPC*%
G36*
X274468Y239475D02*
X274468Y239475D01*
X273575Y240368D01*
X273575Y251632D01*
X274468Y252525D01*
X285732Y252525D01*
X286625Y251632D01*
X286625Y240368D01*
X285732Y239475D01*
X274468Y239475D01*
G37*
%LPD*%
%LPC*%
G36*
X109468Y136975D02*
X109468Y136975D01*
X108575Y137868D01*
X108575Y149132D01*
X109468Y150025D01*
X120732Y150025D01*
X121625Y149132D01*
X121625Y137868D01*
X120732Y136975D01*
X109468Y136975D01*
G37*
%LPD*%
%LPC*%
G36*
X139468Y136975D02*
X139468Y136975D01*
X138575Y137868D01*
X138575Y149132D01*
X139468Y150025D01*
X150732Y150025D01*
X151625Y149132D01*
X151625Y137868D01*
X150732Y136975D01*
X139468Y136975D01*
G37*
%LPD*%
%LPC*%
G36*
X154468Y136975D02*
X154468Y136975D01*
X153575Y137868D01*
X153575Y149132D01*
X154468Y150025D01*
X165732Y150025D01*
X166625Y149132D01*
X166625Y137868D01*
X165732Y136975D01*
X154468Y136975D01*
G37*
%LPD*%
%LPC*%
G36*
X169468Y136975D02*
X169468Y136975D01*
X168575Y137868D01*
X168575Y149132D01*
X169468Y150025D01*
X180732Y150025D01*
X181625Y149132D01*
X181625Y137868D01*
X180732Y136975D01*
X169468Y136975D01*
G37*
%LPD*%
%LPC*%
G36*
X184468Y136975D02*
X184468Y136975D01*
X183575Y137868D01*
X183575Y149132D01*
X184468Y150025D01*
X195732Y150025D01*
X196625Y149132D01*
X196625Y137868D01*
X195732Y136975D01*
X184468Y136975D01*
G37*
%LPD*%
%LPC*%
G36*
X199468Y136975D02*
X199468Y136975D01*
X198575Y137868D01*
X198575Y149132D01*
X199468Y150025D01*
X210732Y150025D01*
X211625Y149132D01*
X211625Y137868D01*
X210732Y136975D01*
X199468Y136975D01*
G37*
%LPD*%
%LPC*%
G36*
X214468Y136975D02*
X214468Y136975D01*
X213575Y137868D01*
X213575Y149132D01*
X214468Y150025D01*
X225732Y150025D01*
X226625Y149132D01*
X226625Y137868D01*
X225732Y136975D01*
X214468Y136975D01*
G37*
%LPD*%
%LPC*%
G36*
X274468Y254475D02*
X274468Y254475D01*
X273575Y255368D01*
X273575Y266632D01*
X274468Y267525D01*
X285732Y267525D01*
X286625Y266632D01*
X286625Y255368D01*
X285732Y254475D01*
X274468Y254475D01*
G37*
%LPD*%
%LPC*%
G36*
X45116Y291359D02*
X45116Y291359D01*
X44469Y291532D01*
X43890Y291867D01*
X43417Y292340D01*
X43082Y292919D01*
X42909Y293566D01*
X42909Y305077D01*
X50277Y305077D01*
X50277Y291359D01*
X45116Y291359D01*
G37*
%LPD*%
%LPC*%
G36*
X266623Y145023D02*
X266623Y145023D01*
X266623Y151041D01*
X270434Y151041D01*
X271081Y150868D01*
X271417Y150673D01*
X271507Y150639D01*
X271593Y150599D01*
X271621Y150596D01*
X271647Y150586D01*
X271743Y150583D01*
X271837Y150572D01*
X271865Y150578D01*
X271893Y150577D01*
X271985Y150604D01*
X272078Y150624D01*
X272102Y150639D01*
X272129Y150647D01*
X272207Y150702D01*
X272289Y150751D01*
X272307Y150772D01*
X272330Y150788D01*
X272387Y150865D01*
X272449Y150938D01*
X272459Y150964D01*
X272476Y150986D01*
X272505Y151077D01*
X272541Y151166D01*
X272545Y151201D01*
X272551Y151221D01*
X272551Y151254D01*
X272559Y151332D01*
X272559Y154477D01*
X278577Y154477D01*
X278577Y148459D01*
X274766Y148459D01*
X274119Y148632D01*
X273783Y148827D01*
X273693Y148861D01*
X273607Y148901D01*
X273579Y148904D01*
X273553Y148914D01*
X273457Y148917D01*
X273363Y148928D01*
X273335Y148922D01*
X273307Y148923D01*
X273215Y148896D01*
X273122Y148876D01*
X273098Y148861D01*
X273071Y148853D01*
X272993Y148798D01*
X272911Y148749D01*
X272893Y148728D01*
X272870Y148712D01*
X272813Y148635D01*
X272751Y148562D01*
X272741Y148536D01*
X272724Y148514D01*
X272695Y148423D01*
X272659Y148334D01*
X272655Y148299D01*
X272649Y148279D01*
X272649Y148246D01*
X272641Y148168D01*
X272641Y145023D01*
X266623Y145023D01*
G37*
%LPD*%
%LPC*%
G36*
X161923Y303077D02*
X161923Y303077D01*
X171732Y303077D01*
X171549Y301923D01*
X170993Y300212D01*
X170176Y298609D01*
X169119Y297153D01*
X167847Y295881D01*
X166391Y294824D01*
X164788Y294007D01*
X163077Y293451D01*
X161923Y293268D01*
X161923Y303077D01*
G37*
%LPD*%
%LPC*%
G36*
X157723Y293451D02*
X157723Y293451D01*
X156012Y294007D01*
X154409Y294824D01*
X152953Y295881D01*
X151681Y297153D01*
X150624Y298609D01*
X149807Y300212D01*
X149251Y301923D01*
X149068Y303077D01*
X158877Y303077D01*
X158877Y293268D01*
X157723Y293451D01*
G37*
%LPD*%
%LPC*%
G36*
X69659Y81749D02*
X69659Y81749D01*
X69659Y83034D01*
X69644Y83130D01*
X69634Y83227D01*
X69624Y83251D01*
X69620Y83276D01*
X69574Y83362D01*
X69569Y83374D01*
X69608Y83427D01*
X69673Y83502D01*
X69682Y83525D01*
X69696Y83544D01*
X69757Y83700D01*
X69832Y83981D01*
X70167Y84560D01*
X70640Y85033D01*
X71219Y85368D01*
X71866Y85541D01*
X82491Y85541D01*
X82491Y81749D01*
X69659Y81749D01*
G37*
%LPD*%
%LPC*%
G36*
X284499Y36049D02*
X284499Y36049D01*
X284499Y40091D01*
X294334Y40091D01*
X294981Y39918D01*
X295560Y39583D01*
X296033Y39110D01*
X296368Y38531D01*
X296541Y37884D01*
X296541Y36049D01*
X284499Y36049D01*
G37*
%LPD*%
%LPC*%
G36*
X284499Y48749D02*
X284499Y48749D01*
X284499Y52791D01*
X294334Y52791D01*
X294981Y52618D01*
X295560Y52283D01*
X296033Y51810D01*
X296368Y51231D01*
X296541Y50584D01*
X296541Y48749D01*
X284499Y48749D01*
G37*
%LPD*%
%LPC*%
G36*
X284499Y61449D02*
X284499Y61449D01*
X284499Y65491D01*
X294334Y65491D01*
X294981Y65318D01*
X295560Y64983D01*
X296033Y64510D01*
X296368Y63931D01*
X296541Y63284D01*
X296541Y61449D01*
X284499Y61449D01*
G37*
%LPD*%
%LPC*%
G36*
X284499Y23349D02*
X284499Y23349D01*
X284499Y27391D01*
X294334Y27391D01*
X294981Y27218D01*
X295560Y26883D01*
X296033Y26410D01*
X296368Y25831D01*
X296541Y25184D01*
X296541Y23349D01*
X284499Y23349D01*
G37*
%LPD*%
%LPC*%
G36*
X269459Y74149D02*
X269459Y74149D01*
X269459Y75984D01*
X269632Y76631D01*
X269967Y77210D01*
X270440Y77683D01*
X271019Y78018D01*
X271666Y78191D01*
X281501Y78191D01*
X281501Y74149D01*
X269459Y74149D01*
G37*
%LPD*%
%LPC*%
G36*
X269459Y61449D02*
X269459Y61449D01*
X269459Y63284D01*
X269632Y63931D01*
X269967Y64510D01*
X270440Y64983D01*
X271019Y65318D01*
X271666Y65491D01*
X281501Y65491D01*
X281501Y61449D01*
X269459Y61449D01*
G37*
%LPD*%
%LPC*%
G36*
X361459Y61449D02*
X361459Y61449D01*
X361459Y63284D01*
X361632Y63931D01*
X361967Y64510D01*
X362440Y64983D01*
X363019Y65318D01*
X363666Y65491D01*
X373501Y65491D01*
X373501Y61449D01*
X361459Y61449D01*
G37*
%LPD*%
%LPC*%
G36*
X361459Y48749D02*
X361459Y48749D01*
X361459Y50584D01*
X361632Y51231D01*
X361967Y51810D01*
X362440Y52283D01*
X363019Y52618D01*
X363666Y52791D01*
X373501Y52791D01*
X373501Y48749D01*
X361459Y48749D01*
G37*
%LPD*%
%LPC*%
G36*
X269459Y48749D02*
X269459Y48749D01*
X269459Y50584D01*
X269632Y51231D01*
X269967Y51810D01*
X270440Y52283D01*
X271019Y52618D01*
X271666Y52791D01*
X281501Y52791D01*
X281501Y48749D01*
X269459Y48749D01*
G37*
%LPD*%
%LPC*%
G36*
X361459Y36049D02*
X361459Y36049D01*
X361459Y37884D01*
X361632Y38531D01*
X361967Y39110D01*
X362440Y39583D01*
X363019Y39918D01*
X363666Y40091D01*
X373501Y40091D01*
X373501Y36049D01*
X361459Y36049D01*
G37*
%LPD*%
%LPC*%
G36*
X361459Y23349D02*
X361459Y23349D01*
X361459Y25184D01*
X361632Y25831D01*
X361967Y26410D01*
X362440Y26883D01*
X363019Y27218D01*
X363666Y27391D01*
X373501Y27391D01*
X373501Y23349D01*
X361459Y23349D01*
G37*
%LPD*%
%LPC*%
G36*
X269459Y36049D02*
X269459Y36049D01*
X269459Y37884D01*
X269632Y38531D01*
X269967Y39110D01*
X270440Y39583D01*
X271019Y39918D01*
X271666Y40091D01*
X281501Y40091D01*
X281501Y36049D01*
X269459Y36049D01*
G37*
%LPD*%
%LPC*%
G36*
X269459Y23349D02*
X269459Y23349D01*
X269459Y25184D01*
X269632Y25831D01*
X269967Y26410D01*
X270440Y26883D01*
X271019Y27218D01*
X271666Y27391D01*
X281501Y27391D01*
X281501Y23349D01*
X269459Y23349D01*
G37*
%LPD*%
%LPC*%
G36*
X284499Y58451D02*
X284499Y58451D01*
X296541Y58451D01*
X296541Y56615D01*
X296368Y55969D01*
X296033Y55390D01*
X295560Y54917D01*
X294981Y54582D01*
X294334Y54409D01*
X284499Y54409D01*
X284499Y58451D01*
G37*
%LPD*%
%LPC*%
G36*
X271666Y54409D02*
X271666Y54409D01*
X271019Y54582D01*
X270440Y54917D01*
X269967Y55390D01*
X269632Y55969D01*
X269459Y56615D01*
X269459Y58451D01*
X281501Y58451D01*
X281501Y54409D01*
X271666Y54409D01*
G37*
%LPD*%
%LPC*%
G36*
X363666Y54409D02*
X363666Y54409D01*
X363019Y54582D01*
X362440Y54917D01*
X361967Y55390D01*
X361632Y55969D01*
X361459Y56615D01*
X361459Y58451D01*
X373501Y58451D01*
X373501Y54409D01*
X363666Y54409D01*
G37*
%LPD*%
%LPC*%
G36*
X271666Y67109D02*
X271666Y67109D01*
X271019Y67282D01*
X270440Y67617D01*
X269967Y68090D01*
X269632Y68669D01*
X269459Y69316D01*
X269459Y71151D01*
X281501Y71151D01*
X281501Y67109D01*
X271666Y67109D01*
G37*
%LPD*%
%LPC*%
G36*
X271666Y41709D02*
X271666Y41709D01*
X271019Y41882D01*
X270440Y42217D01*
X269967Y42690D01*
X269632Y43269D01*
X269459Y43916D01*
X269459Y45751D01*
X281501Y45751D01*
X281501Y41709D01*
X271666Y41709D01*
G37*
%LPD*%
%LPC*%
G36*
X363666Y41709D02*
X363666Y41709D01*
X363019Y41882D01*
X362440Y42217D01*
X361967Y42690D01*
X361632Y43269D01*
X361459Y43916D01*
X361459Y45751D01*
X373501Y45751D01*
X373501Y41709D01*
X363666Y41709D01*
G37*
%LPD*%
%LPC*%
G36*
X363666Y29009D02*
X363666Y29009D01*
X363019Y29182D01*
X362440Y29517D01*
X361967Y29990D01*
X361632Y30569D01*
X361459Y31216D01*
X361459Y33051D01*
X373501Y33051D01*
X373501Y29009D01*
X363666Y29009D01*
G37*
%LPD*%
%LPC*%
G36*
X271666Y29009D02*
X271666Y29009D01*
X271019Y29182D01*
X270440Y29517D01*
X269967Y29990D01*
X269632Y30569D01*
X269459Y31216D01*
X269459Y33051D01*
X281501Y33051D01*
X281501Y29009D01*
X271666Y29009D01*
G37*
%LPD*%
%LPC*%
G36*
X363666Y16309D02*
X363666Y16309D01*
X363019Y16482D01*
X362440Y16817D01*
X361967Y17290D01*
X361632Y17869D01*
X361459Y18516D01*
X361459Y20351D01*
X373501Y20351D01*
X373501Y16309D01*
X363666Y16309D01*
G37*
%LPD*%
%LPC*%
G36*
X284499Y41709D02*
X284499Y41709D01*
X284499Y45751D01*
X296541Y45751D01*
X296541Y43916D01*
X296368Y43269D01*
X296033Y42690D01*
X295560Y42217D01*
X294981Y41882D01*
X294334Y41709D01*
X284499Y41709D01*
G37*
%LPD*%
%LPC*%
G36*
X284499Y29009D02*
X284499Y29009D01*
X284499Y33051D01*
X296541Y33051D01*
X296541Y31216D01*
X296368Y30569D01*
X296033Y29990D01*
X295560Y29517D01*
X294981Y29182D01*
X294334Y29009D01*
X284499Y29009D01*
G37*
%LPD*%
%LPC*%
G36*
X84989Y81749D02*
X84989Y81749D01*
X84989Y85541D01*
X95614Y85541D01*
X96261Y85368D01*
X96840Y85033D01*
X97313Y84560D01*
X97648Y83981D01*
X97821Y83334D01*
X97821Y81749D01*
X84989Y81749D01*
G37*
%LPD*%
G36*
X161634Y10164D02*
X161634Y10164D01*
X161653Y10162D01*
X161755Y10184D01*
X161857Y10200D01*
X161874Y10210D01*
X161894Y10214D01*
X161983Y10267D01*
X162074Y10316D01*
X162088Y10330D01*
X162105Y10340D01*
X162172Y10419D01*
X162244Y10494D01*
X162252Y10512D01*
X162265Y10527D01*
X162304Y10623D01*
X162347Y10717D01*
X162349Y10737D01*
X162357Y10755D01*
X162375Y10922D01*
X162375Y19639D01*
X162361Y19729D01*
X162353Y19820D01*
X162341Y19850D01*
X162336Y19882D01*
X162293Y19962D01*
X162257Y20046D01*
X162231Y20078D01*
X162220Y20099D01*
X162197Y20121D01*
X162152Y20177D01*
X161740Y20589D01*
X161682Y20631D01*
X161630Y20680D01*
X161583Y20702D01*
X161541Y20733D01*
X161472Y20754D01*
X161407Y20784D01*
X161355Y20790D01*
X161305Y20805D01*
X161234Y20803D01*
X161163Y20811D01*
X161112Y20800D01*
X161060Y20799D01*
X160992Y20774D01*
X160922Y20759D01*
X160877Y20732D01*
X160829Y20714D01*
X160773Y20670D01*
X160711Y20633D01*
X160677Y20593D01*
X160637Y20561D01*
X160598Y20500D01*
X160551Y20446D01*
X160532Y20397D01*
X160504Y20354D01*
X160486Y20284D01*
X160459Y20218D01*
X160451Y20146D01*
X160443Y20115D01*
X160445Y20092D01*
X160441Y20051D01*
X160441Y18023D01*
X153162Y18023D01*
X153142Y18020D01*
X153123Y18022D01*
X153021Y18000D01*
X152919Y17983D01*
X152902Y17974D01*
X152882Y17970D01*
X152793Y17917D01*
X152702Y17868D01*
X152688Y17854D01*
X152671Y17844D01*
X152604Y17765D01*
X152533Y17690D01*
X152524Y17672D01*
X152511Y17657D01*
X152472Y17561D01*
X152429Y17467D01*
X152427Y17447D01*
X152419Y17429D01*
X152401Y17262D01*
X152401Y15738D01*
X152404Y15718D01*
X152402Y15699D01*
X152424Y15597D01*
X152441Y15495D01*
X152450Y15478D01*
X152454Y15458D01*
X152507Y15369D01*
X152556Y15278D01*
X152570Y15264D01*
X152580Y15247D01*
X152659Y15180D01*
X152734Y15109D01*
X152752Y15100D01*
X152767Y15087D01*
X152863Y15048D01*
X152957Y15005D01*
X152977Y15003D01*
X152995Y14995D01*
X153162Y14977D01*
X160441Y14977D01*
X160441Y11165D01*
X160428Y11119D01*
X160417Y11001D01*
X160403Y10883D01*
X160404Y10878D01*
X160404Y10874D01*
X160430Y10759D01*
X160456Y10642D01*
X160458Y10639D01*
X160459Y10635D01*
X160521Y10532D01*
X160582Y10431D01*
X160585Y10428D01*
X160587Y10425D01*
X160678Y10349D01*
X160769Y10271D01*
X160773Y10270D01*
X160776Y10267D01*
X160886Y10224D01*
X160997Y10179D01*
X161002Y10179D01*
X161005Y10177D01*
X161019Y10177D01*
X161164Y10161D01*
X161614Y10161D01*
X161634Y10164D01*
G37*
%LPC*%
G36*
X119523Y119223D02*
X119523Y119223D01*
X119523Y125241D01*
X123834Y125241D01*
X124481Y125068D01*
X125060Y124733D01*
X125533Y124260D01*
X125868Y123681D01*
X126041Y123034D01*
X126041Y119223D01*
X119523Y119223D01*
G37*
%LPD*%
%LPC*%
G36*
X109959Y119223D02*
X109959Y119223D01*
X109959Y123034D01*
X110132Y123681D01*
X110467Y124260D01*
X110940Y124733D01*
X111519Y125068D01*
X112166Y125241D01*
X116477Y125241D01*
X116477Y119223D01*
X109959Y119223D01*
G37*
%LPD*%
%LPC*%
G36*
X29223Y127959D02*
X29223Y127959D01*
X29223Y134477D01*
X35241Y134477D01*
X35241Y130166D01*
X35068Y129519D01*
X34733Y128940D01*
X34260Y128467D01*
X33681Y128132D01*
X33034Y127959D01*
X29223Y127959D01*
G37*
%LPD*%
%LPC*%
G36*
X226323Y79359D02*
X226323Y79359D01*
X226323Y85877D01*
X232341Y85877D01*
X232341Y81566D01*
X232168Y80919D01*
X231833Y80340D01*
X231360Y79867D01*
X230781Y79532D01*
X230134Y79359D01*
X226323Y79359D01*
G37*
%LPD*%
%LPC*%
G36*
X20159Y137523D02*
X20159Y137523D01*
X20159Y141834D01*
X20332Y142481D01*
X20667Y143060D01*
X21140Y143533D01*
X21719Y143868D01*
X22366Y144041D01*
X26177Y144041D01*
X26177Y137523D01*
X20159Y137523D01*
G37*
%LPD*%
%LPC*%
G36*
X119523Y110159D02*
X119523Y110159D01*
X119523Y116177D01*
X126041Y116177D01*
X126041Y112365D01*
X125868Y111719D01*
X125533Y111140D01*
X125060Y110667D01*
X124481Y110332D01*
X123834Y110159D01*
X119523Y110159D01*
G37*
%LPD*%
%LPC*%
G36*
X22366Y127959D02*
X22366Y127959D01*
X21719Y128132D01*
X21140Y128467D01*
X20667Y128940D01*
X20332Y129519D01*
X20159Y130166D01*
X20159Y134477D01*
X26177Y134477D01*
X26177Y127959D01*
X22366Y127959D01*
G37*
%LPD*%
%LPC*%
G36*
X112166Y110159D02*
X112166Y110159D01*
X111519Y110332D01*
X110940Y110667D01*
X110467Y111140D01*
X110132Y111719D01*
X109959Y112366D01*
X109959Y116177D01*
X116477Y116177D01*
X116477Y110159D01*
X112166Y110159D01*
G37*
%LPD*%
%LPC*%
G36*
X219466Y79359D02*
X219466Y79359D01*
X218819Y79532D01*
X218240Y79867D01*
X217767Y80340D01*
X217432Y80919D01*
X217259Y81566D01*
X217259Y85877D01*
X223277Y85877D01*
X223277Y79359D01*
X219466Y79359D01*
G37*
%LPD*%
%LPC*%
G36*
X115273Y82854D02*
X115273Y82854D01*
X115273Y91497D01*
X119791Y91497D01*
X119791Y85061D01*
X119618Y84414D01*
X119283Y83835D01*
X118810Y83362D01*
X118231Y83027D01*
X117584Y82854D01*
X115273Y82854D01*
G37*
%LPD*%
%LPC*%
G36*
X140673Y82854D02*
X140673Y82854D01*
X140673Y91497D01*
X145191Y91497D01*
X145191Y85061D01*
X145018Y84414D01*
X144683Y83835D01*
X144210Y83362D01*
X143631Y83027D01*
X142984Y82854D01*
X140673Y82854D01*
G37*
%LPD*%
%LPC*%
G36*
X135316Y82854D02*
X135316Y82854D01*
X134669Y83027D01*
X134090Y83362D01*
X133617Y83835D01*
X133282Y84414D01*
X133109Y85061D01*
X133109Y91497D01*
X137627Y91497D01*
X137627Y82854D01*
X135316Y82854D01*
G37*
%LPD*%
%LPC*%
G36*
X281623Y148459D02*
X281623Y148459D01*
X281623Y154477D01*
X287641Y154477D01*
X287641Y150666D01*
X287468Y150019D01*
X287133Y149440D01*
X286660Y148967D01*
X286081Y148632D01*
X285434Y148459D01*
X281623Y148459D01*
G37*
%LPD*%
%LPC*%
G36*
X196109Y22149D02*
X196109Y22149D01*
X196109Y23534D01*
X196275Y24153D01*
X196286Y24268D01*
X196300Y24381D01*
X196299Y24391D01*
X196299Y24398D01*
X196294Y24419D01*
X196275Y24547D01*
X196109Y25166D01*
X196109Y26551D01*
X199701Y26551D01*
X199701Y22149D01*
X196109Y22149D01*
G37*
%LPD*%
%LPC*%
G36*
X117999Y117699D02*
X117999Y117699D01*
X117999Y117701D01*
X118001Y117701D01*
X118001Y117699D01*
X117999Y117699D01*
G37*
%LPD*%
%LPC*%
G36*
X27699Y135999D02*
X27699Y135999D01*
X27699Y136001D01*
X27701Y136001D01*
X27701Y135999D01*
X27699Y135999D01*
G37*
%LPD*%
D10*
X51800Y306600D03*
X129800Y306600D03*
X114200Y306600D03*
X98600Y306600D03*
X83000Y306600D03*
X67400Y306600D03*
D11*
X249100Y58800D03*
X248400Y38100D03*
D12*
X135000Y117700D03*
X118000Y117700D03*
X188800Y116500D03*
X171800Y116500D03*
X169400Y16500D03*
X152400Y16500D03*
D13*
X78100Y20500D03*
D14*
X83740Y48500D03*
X83740Y56500D03*
X83740Y64500D03*
X83740Y72500D03*
X83740Y80500D03*
D13*
X23100Y20500D03*
X78100Y108500D03*
X23100Y108500D03*
D15*
X236600Y304600D03*
X211200Y304600D03*
X185800Y304600D03*
X160400Y304600D03*
D16*
X375000Y98050D03*
X283000Y72650D03*
X375000Y110750D03*
X375000Y85350D03*
X375000Y72650D03*
X283000Y85350D03*
X283000Y59950D03*
X283000Y47250D03*
X375000Y47250D03*
X283000Y21850D03*
X375000Y59950D03*
X375000Y34550D03*
X283000Y34550D03*
X375000Y21850D03*
X283000Y98050D03*
X283000Y110750D03*
D17*
X85100Y273500D03*
X100100Y273500D03*
X115100Y273500D03*
X130100Y273500D03*
X145100Y273500D03*
X160100Y273500D03*
X175100Y273500D03*
X190100Y273500D03*
X205100Y273500D03*
X220100Y273500D03*
X235100Y273500D03*
X250100Y273500D03*
X265100Y273500D03*
X280100Y261000D03*
X280100Y246000D03*
X280100Y231000D03*
X280100Y216000D03*
X280100Y201000D03*
X280100Y186000D03*
X280100Y171000D03*
X280100Y156000D03*
X265100Y143500D03*
X250100Y143500D03*
X235100Y143500D03*
X220100Y143500D03*
X205100Y143500D03*
X190100Y143500D03*
X175100Y143500D03*
X160100Y143500D03*
X145100Y143500D03*
X130100Y143500D03*
X115100Y143500D03*
X100100Y143500D03*
X85100Y143500D03*
D18*
X201000Y58100D03*
X191500Y58100D03*
X182000Y58100D03*
X182000Y83100D03*
X191500Y83100D03*
X201000Y83100D03*
D19*
X113750Y93020D03*
X126450Y93020D03*
X139150Y93020D03*
X151850Y93020D03*
X151850Y38780D03*
X139150Y38780D03*
X126450Y38780D03*
X113750Y38780D03*
D20*
X132800Y65900D03*
D21*
X341300Y299500D03*
X341300Y219500D03*
D22*
X209900Y22600D03*
X209900Y32600D03*
D23*
X219050Y21100D03*
X219050Y27600D03*
X219050Y34100D03*
X200750Y34100D03*
X200750Y27600D03*
X200750Y21100D03*
D24*
X314600Y185600D03*
X314600Y202600D03*
X224800Y87400D03*
X224800Y70400D03*
X27700Y136000D03*
X27700Y153000D03*
X224800Y120100D03*
X224800Y103100D03*
D12*
X357100Y146600D03*
X340100Y146600D03*
X304800Y130400D03*
X321800Y130400D03*
X339200Y167900D03*
X356200Y167900D03*
X336600Y185400D03*
X353600Y185400D03*
D25*
X249000Y109000D03*
X225000Y56000D03*
D26*
X249000Y89000D02*
X249000Y109000D01*
X233000Y73000D02*
X233000Y58000D01*
X231000Y56000D01*
X225000Y56000D01*
X233000Y73000D02*
X249000Y89000D01*
X320000Y260000D02*
X362500Y260000D01*
X362500Y197500D01*
X317500Y160000D02*
X295000Y137500D01*
X295000Y120000D02*
X305000Y110000D01*
X305000Y100000D01*
X303050Y98050D01*
X283000Y98050D01*
X295000Y120000D02*
X295000Y137500D01*
X336600Y189100D02*
X342500Y195000D01*
X336600Y189100D02*
X336600Y185400D01*
X360000Y195000D02*
X362500Y197500D01*
X360000Y195000D02*
X342500Y195000D01*
X342500Y193500D01*
X345576Y190424D01*
X345576Y176424D02*
X348000Y174000D01*
X348000Y160500D01*
X345576Y176424D02*
X345576Y190424D01*
X348000Y160500D02*
X347500Y160000D01*
X317500Y160000D01*
X287000Y304600D02*
X236600Y304600D01*
X287000Y304600D02*
X320000Y271600D01*
X320000Y260000D01*
X327500Y167900D02*
X339200Y167900D01*
X327500Y167900D02*
X319600Y167900D01*
X290000Y138300D01*
X290000Y130000D02*
X282500Y130000D01*
X282500Y111250D01*
X283000Y110750D01*
X290000Y130000D02*
X290000Y138300D01*
X357500Y200000D02*
X357500Y250000D01*
X357500Y200000D02*
X327500Y200000D01*
X327500Y167900D01*
X211200Y290000D02*
X211200Y304600D01*
X211200Y290000D02*
X286000Y290000D01*
X297000Y279000D01*
X297000Y254000D01*
X353500Y254000D02*
X357500Y250000D01*
X353500Y254000D02*
X297000Y254000D01*
D25*
X317000Y110000D03*
X302500Y70500D03*
D26*
X317000Y77000D02*
X317000Y110000D01*
X317000Y77000D02*
X302500Y70500D01*
D25*
X190000Y202500D03*
X210000Y210000D03*
D26*
X197500Y210000D02*
X190000Y202500D01*
X197500Y210000D02*
X210000Y210000D01*
D25*
X45000Y255000D03*
D26*
X98600Y288600D02*
X98600Y306600D01*
X92500Y282500D02*
X77500Y282500D01*
X92500Y282500D02*
X98600Y288600D01*
X77500Y282500D02*
X77000Y282000D01*
X77000Y269000D01*
X63000Y255000D01*
X45000Y255000D01*
D25*
X115000Y286000D03*
D26*
X114200Y286800D02*
X114200Y306600D01*
X114200Y286800D02*
X115000Y286000D01*
D25*
X152500Y180000D03*
X260000Y232500D03*
D26*
X205000Y232500D02*
X152500Y180000D01*
X205000Y232500D02*
X260000Y232500D01*
D25*
X137500Y180000D03*
X230000Y210000D03*
D26*
X145000Y172500D02*
X137500Y180000D01*
X192500Y172500D02*
X230000Y210000D01*
X192500Y172500D02*
X145000Y172500D01*
D25*
X145500Y165500D03*
X245000Y220000D03*
D26*
X208000Y165500D02*
X145500Y165500D01*
X208000Y165500D02*
X245000Y202500D01*
X245000Y220000D01*
D25*
X157500Y122500D03*
D26*
X157500Y132500D02*
X277500Y132500D01*
X314600Y169600D01*
X314600Y185600D01*
X157500Y132500D02*
X157500Y122500D01*
D25*
X165000Y80000D03*
X235000Y240000D03*
D26*
X165000Y107500D02*
X165000Y80000D01*
X165000Y107500D02*
X160000Y112500D01*
X147500Y112500D01*
X147500Y130000D01*
X145000Y132500D01*
X95000Y132500D02*
X92500Y135000D01*
X75000Y135000D01*
X75000Y215000D01*
X100000Y240000D01*
X235000Y240000D01*
X145000Y132500D02*
X95000Y132500D01*
D25*
X212000Y61500D03*
D26*
X212500Y47500D01*
X265000Y47500D01*
X265000Y12500D01*
X300000Y12500D01*
X347500Y60000D01*
X347500Y85000D01*
X347850Y85350D01*
X375000Y85350D01*
D25*
X103000Y112500D03*
X70500Y223500D03*
D26*
X103500Y116500D02*
X103000Y112500D01*
X103500Y116500D02*
X90000Y130000D01*
X70500Y130000D01*
X70500Y223500D01*
X304800Y130400D02*
X321000Y146600D01*
X340100Y146600D01*
X304800Y130400D02*
X304800Y120200D01*
X310000Y115000D01*
X310000Y90000D01*
X305350Y85350D01*
X283000Y85350D01*
X265000Y85350D01*
D25*
X340000Y130000D03*
D26*
X265000Y85350D02*
X252850Y85350D01*
X340000Y146500D02*
X340100Y146600D01*
X340000Y146500D02*
X340000Y130000D01*
X151850Y38780D02*
X151850Y34050D01*
X158450Y27450D01*
X169400Y16500D01*
X353600Y185400D02*
X356200Y182800D01*
X356200Y167900D01*
X355000Y166700D01*
D25*
X60000Y167500D03*
D26*
X45000Y182500D01*
X12500Y182500D01*
X67500Y290000D02*
X80000Y290000D01*
X83000Y293000D01*
X83000Y306600D01*
X12500Y235000D02*
X12500Y182500D01*
X12500Y235000D02*
X58750Y281250D01*
D25*
X70000Y277500D03*
D26*
X58750Y281250D02*
X67500Y290000D01*
X66250Y281250D02*
X58750Y281250D01*
X66250Y281250D02*
X70000Y277500D01*
D25*
X239000Y125000D03*
D26*
X237700Y125000D01*
X356200Y157200D02*
X356200Y167900D01*
X355000Y156000D02*
X341000Y156000D01*
X340000Y155000D01*
X340000Y146500D01*
X355000Y156000D02*
X356200Y157200D01*
D25*
X366000Y184000D03*
D26*
X364600Y185400D02*
X353600Y185400D01*
X364600Y185400D02*
X366000Y184000D01*
D25*
X98000Y22000D03*
D26*
X103000Y12000D02*
X136000Y12000D01*
X141000Y17000D01*
X141000Y23000D01*
X145450Y27450D01*
X158450Y27450D01*
D25*
X160000Y55000D03*
D26*
X160000Y46930D02*
X151850Y38780D01*
X160000Y46930D02*
X160000Y55000D01*
X239000Y125000D02*
X248000Y125000D01*
X252850Y85350D02*
X249100Y81600D01*
X249100Y58800D01*
X265000Y108000D02*
X248000Y125000D01*
X265000Y108000D02*
X265000Y85350D01*
X234100Y120100D02*
X224800Y120100D01*
X234100Y120100D02*
X239000Y125000D01*
X103000Y12000D02*
X98000Y17000D01*
X98000Y22000D01*
X129800Y306600D02*
X141200Y318000D01*
X305000Y318000D01*
X320000Y303000D02*
X320000Y283000D01*
X333000Y270000D01*
X320000Y303000D02*
X305000Y318000D01*
X333000Y270000D02*
X380000Y270000D01*
X380000Y140000D01*
D25*
X340000Y109000D03*
D26*
X349000Y109000D02*
X380000Y140000D01*
X349000Y109000D02*
X340000Y109000D01*
D25*
X107500Y77500D03*
D26*
X99500Y64500D02*
X83740Y64500D01*
X99500Y64500D02*
X100000Y65000D01*
X100000Y72500D01*
X105000Y77500D01*
X107500Y77500D01*
D25*
X107500Y67500D03*
D26*
X104000Y56500D02*
X83740Y56500D01*
X104000Y56500D02*
X107500Y60000D01*
X107500Y67500D01*
X357100Y135100D02*
X357100Y146600D01*
X357100Y135100D02*
X340000Y118000D01*
X331000Y118000D01*
X331000Y101000D01*
X352000Y101000D01*
X357000Y106000D01*
X357000Y110000D01*
X357750Y110750D01*
X375000Y110750D01*
X321800Y119200D02*
X321800Y130400D01*
X321800Y119200D02*
X325000Y116000D01*
X325000Y95000D01*
X360050Y98050D02*
X375000Y98050D01*
X357000Y95000D02*
X325000Y95000D01*
X357000Y95000D02*
X360050Y98050D01*
D25*
X155000Y285000D03*
D26*
X250000Y273600D02*
X250100Y273500D01*
X250000Y273600D02*
X250000Y285000D01*
X155000Y285000D01*
D25*
X100000Y250000D03*
D26*
X265100Y262600D02*
X265100Y273500D01*
X265100Y262600D02*
X252500Y250000D01*
X100000Y250000D01*
X314600Y202600D02*
X331500Y219500D01*
X341300Y219500D01*
D25*
X132500Y20500D03*
D26*
X139150Y29150D02*
X139150Y38780D01*
X139150Y29150D02*
X132500Y20500D01*
D25*
X114500Y24000D03*
D26*
X126450Y31450D02*
X126450Y38780D01*
X126450Y31450D02*
X114500Y24000D01*
D25*
X97500Y31500D03*
X170000Y30000D03*
D26*
X151850Y83150D02*
X151850Y93020D01*
X151850Y83150D02*
X169500Y65500D01*
X169500Y30500D02*
X170000Y30000D01*
X169500Y30500D02*
X169500Y65500D01*
X85240Y50000D02*
X83740Y48500D01*
X85240Y50000D02*
X112000Y50000D01*
X113750Y48250D01*
X113750Y40000D01*
X113750Y38780D01*
X106000Y40000D02*
X97500Y31500D01*
X106000Y40000D02*
X113750Y40000D01*
D27*
X135000Y107000D02*
X135000Y117700D01*
X135000Y107000D02*
X136000Y106000D01*
X152000Y106000D01*
X152000Y93170D01*
X151850Y93020D01*
D26*
X55700Y125000D02*
X27700Y153000D01*
X95000Y118000D02*
X95000Y106000D01*
X126450Y106000D01*
X126450Y93020D01*
X88000Y125000D02*
X55700Y125000D01*
X88000Y125000D02*
X95000Y118000D01*
X209900Y22600D02*
X211250Y21250D01*
X211400Y21100D01*
X219050Y21100D01*
X182000Y43000D02*
X182000Y58100D01*
X182000Y43000D02*
X187500Y37500D01*
X187500Y17500D01*
X190000Y15000D01*
X210000Y15000D01*
X211250Y16250D01*
X211250Y21250D01*
X191500Y58100D02*
X191500Y69500D01*
X192400Y70400D02*
X224800Y70400D01*
X192400Y70400D02*
X191500Y69500D01*
X171800Y98200D02*
X171800Y116500D01*
X175000Y95000D02*
X187500Y95000D01*
X191500Y91000D01*
X191500Y83100D01*
X175000Y95000D02*
X171800Y98200D01*
X171800Y116500D02*
X170000Y118300D01*
X170000Y125000D01*
X205000Y125000D01*
X210000Y120000D01*
X212500Y117500D01*
X213000Y117000D01*
X213000Y102000D01*
X223700Y102000D01*
X224800Y103100D01*
X190300Y115000D02*
X188800Y116500D01*
X201000Y116500D01*
X205000Y112500D01*
X205000Y87100D01*
X201000Y83100D01*
X219050Y27600D02*
X219150Y27500D01*
X219050Y34100D02*
X224100Y34100D01*
X228100Y38100D02*
X230000Y38100D01*
X248400Y38100D01*
X228100Y38100D02*
X224100Y34100D01*
X219050Y27600D02*
X229900Y27600D01*
X230000Y27500D01*
X230000Y38100D01*
X206900Y83100D02*
X201000Y83100D01*
X206900Y83100D02*
X210000Y80000D01*
X210000Y75000D01*
X209500Y74500D01*
X174000Y74500D01*
X174000Y43500D01*
X182500Y35000D02*
X182500Y11160D01*
X230000Y11160D01*
X230000Y27500D01*
X182500Y35000D02*
X174000Y43500D01*
X200000Y34850D02*
X200750Y34100D01*
X201000Y49000D02*
X201000Y58100D01*
X209900Y40100D02*
X209900Y32600D01*
X209900Y40100D02*
X201000Y49000D01*
X200000Y48000D01*
X200000Y34850D01*
X130100Y143500D02*
X130100Y152600D01*
X132500Y155000D01*
X232500Y155000D01*
X235100Y152400D01*
X235100Y143500D01*
D28*
X95000Y205000D03*
D26*
X95000Y187700D02*
X130100Y152600D01*
X95000Y187700D02*
X95000Y205000D01*
D25*
X35000Y210000D03*
D26*
X42000Y210000D01*
X85100Y253100D02*
X85100Y273500D01*
X85100Y253100D02*
X42000Y210000D01*
D25*
X20000Y210000D03*
D26*
X100100Y262600D02*
X100100Y273500D01*
X45000Y207500D02*
X45000Y202500D01*
X27500Y202500D02*
X20000Y210000D01*
X45000Y207500D02*
X100100Y262600D01*
X45000Y202500D02*
X27500Y202500D01*
M02*
