G04 EAGLE Gerber RS-274X export*
G75*
%MOMM*%
%FSLAX34Y34*%
%LPD*%
%IN*%
%IPPOS*%
%AMOC8*
5,1,8,0,0,1.08239X$1,22.5*%
G01*
%ADD10C,0.254000*%


D10*
X0Y0D02*
X400000Y0D01*
X400000Y330000D01*
X0Y330000D01*
X0Y0D01*
X52819Y47500D02*
X52261Y47437D01*
X51714Y47312D01*
X51184Y47127D01*
X50678Y46883D01*
X50202Y46584D01*
X49763Y46234D01*
X49366Y45837D01*
X49016Y45398D01*
X48717Y44922D01*
X48473Y44416D01*
X48288Y43886D01*
X48163Y43339D01*
X48100Y42781D01*
X48100Y42219D01*
X48163Y41661D01*
X48288Y41114D01*
X48473Y40584D01*
X48717Y40078D01*
X49016Y39602D01*
X49366Y39163D01*
X49763Y38766D01*
X50202Y38416D01*
X50678Y38117D01*
X51184Y37873D01*
X51714Y37688D01*
X52261Y37563D01*
X52819Y37500D01*
X53381Y37500D01*
X53939Y37563D01*
X54486Y37688D01*
X55016Y37873D01*
X55522Y38117D01*
X55998Y38416D01*
X56437Y38766D01*
X56834Y39163D01*
X57184Y39602D01*
X57483Y40078D01*
X57727Y40584D01*
X57912Y41114D01*
X58037Y41661D01*
X58100Y42219D01*
X58100Y42781D01*
X58037Y43339D01*
X57912Y43886D01*
X57727Y44416D01*
X57483Y44922D01*
X57184Y45398D01*
X56834Y45837D01*
X56437Y46234D01*
X55998Y46584D01*
X55522Y46883D01*
X55016Y47127D01*
X54486Y47312D01*
X53939Y47437D01*
X53381Y47500D01*
X52819Y47500D01*
X52819Y91500D02*
X52261Y91437D01*
X51714Y91312D01*
X51184Y91127D01*
X50678Y90883D01*
X50202Y90584D01*
X49763Y90234D01*
X49366Y89837D01*
X49016Y89398D01*
X48717Y88922D01*
X48473Y88416D01*
X48288Y87886D01*
X48163Y87339D01*
X48100Y86781D01*
X48100Y86219D01*
X48163Y85661D01*
X48288Y85114D01*
X48473Y84584D01*
X48717Y84078D01*
X49016Y83602D01*
X49366Y83163D01*
X49763Y82766D01*
X50202Y82416D01*
X50678Y82117D01*
X51184Y81873D01*
X51714Y81688D01*
X52261Y81563D01*
X52819Y81500D01*
X53381Y81500D01*
X53939Y81563D01*
X54486Y81688D01*
X55016Y81873D01*
X55522Y82117D01*
X55998Y82416D01*
X56437Y82766D01*
X56834Y83163D01*
X57184Y83602D01*
X57483Y84078D01*
X57727Y84584D01*
X57912Y85114D01*
X58037Y85661D01*
X58100Y86219D01*
X58100Y86781D01*
X58037Y87339D01*
X57912Y87886D01*
X57727Y88416D01*
X57483Y88922D01*
X57184Y89398D01*
X56834Y89837D01*
X56437Y90234D01*
X55998Y90584D01*
X55522Y90883D01*
X55016Y91127D01*
X54486Y91312D01*
X53939Y91437D01*
X53381Y91500D01*
X52819Y91500D01*
X364062Y294500D02*
X364582Y294568D01*
X365089Y294704D01*
X365573Y294905D01*
X366027Y295167D01*
X366443Y295486D01*
X366814Y295857D01*
X367133Y296273D01*
X367395Y296727D01*
X367596Y297211D01*
X367732Y297718D01*
X367800Y298238D01*
X367800Y298762D01*
X367732Y299282D01*
X367596Y299789D01*
X367395Y300273D01*
X367133Y300727D01*
X366814Y301143D01*
X366443Y301514D01*
X366027Y301833D01*
X365573Y302095D01*
X365089Y302296D01*
X364582Y302432D01*
X364062Y302500D01*
X363538Y302500D01*
X363018Y302432D01*
X362511Y302296D01*
X362027Y302095D01*
X361573Y301833D01*
X361157Y301514D01*
X360786Y301143D01*
X360467Y300727D01*
X360205Y300273D01*
X360004Y299789D01*
X359868Y299282D01*
X359800Y298762D01*
X359800Y298238D01*
X359868Y297718D01*
X360004Y297211D01*
X360205Y296727D01*
X360467Y296273D01*
X360786Y295857D01*
X361157Y295486D01*
X361573Y295167D01*
X362027Y294905D01*
X362511Y294704D01*
X363018Y294568D01*
X363538Y294500D01*
X364062Y294500D01*
X302562Y233000D02*
X303082Y233068D01*
X303589Y233204D01*
X304073Y233405D01*
X304527Y233667D01*
X304943Y233986D01*
X305314Y234357D01*
X305633Y234773D01*
X305895Y235227D01*
X306096Y235711D01*
X306232Y236218D01*
X306300Y236738D01*
X306300Y237262D01*
X306232Y237782D01*
X306096Y238289D01*
X305895Y238773D01*
X305633Y239227D01*
X305314Y239643D01*
X304943Y240014D01*
X304527Y240333D01*
X304073Y240595D01*
X303589Y240796D01*
X303082Y240932D01*
X302562Y241000D01*
X302038Y241000D01*
X301518Y240932D01*
X301011Y240796D01*
X300527Y240595D01*
X300073Y240333D01*
X299657Y240014D01*
X299286Y239643D01*
X298967Y239227D01*
X298705Y238773D01*
X298504Y238289D01*
X298368Y237782D01*
X298300Y237262D01*
X298300Y236738D01*
X298368Y236218D01*
X298504Y235711D01*
X298705Y235227D01*
X298967Y234773D01*
X299286Y234357D01*
X299657Y233986D01*
X300073Y233667D01*
X300527Y233405D01*
X301011Y233204D01*
X301518Y233068D01*
X302038Y233000D01*
X302562Y233000D01*
M02*
