G04 EAGLE Gerber RS-274X export*
G75*
%MOMM*%
%FSLAX34Y34*%
%LPD*%
%INSilkscreen Bottom*%
%IPPOS*%
%AMOC8*
5,1,8,0,0,1.08239X$1,22.5*%
G01*
%ADD10C,0.101600*%
%ADD11C,0.127000*%
%ADD12C,0.100000*%
%ADD13C,0.200000*%
%ADD14C,0.200000*%
%ADD15C,0.203200*%
%ADD16C,0.177800*%


D10*
X40696Y312171D02*
X43292Y315416D01*
X31608Y315416D01*
X31608Y312171D02*
X31608Y318662D01*
X37450Y323601D02*
X37680Y323604D01*
X37910Y323612D01*
X38139Y323626D01*
X38368Y323645D01*
X38597Y323670D01*
X38824Y323700D01*
X39052Y323735D01*
X39278Y323776D01*
X39503Y323822D01*
X39727Y323874D01*
X39949Y323931D01*
X40171Y323993D01*
X40390Y324061D01*
X40608Y324134D01*
X40825Y324212D01*
X41039Y324295D01*
X41251Y324383D01*
X41461Y324476D01*
X41669Y324575D01*
X41669Y324574D02*
X41759Y324607D01*
X41848Y324643D01*
X41936Y324683D01*
X42021Y324727D01*
X42105Y324774D01*
X42187Y324824D01*
X42267Y324878D01*
X42344Y324934D01*
X42420Y324994D01*
X42493Y325057D01*
X42563Y325122D01*
X42631Y325191D01*
X42695Y325262D01*
X42757Y325335D01*
X42816Y325411D01*
X42872Y325489D01*
X42925Y325570D01*
X42974Y325652D01*
X43020Y325736D01*
X43063Y325823D01*
X43102Y325910D01*
X43138Y326000D01*
X43170Y326090D01*
X43198Y326182D01*
X43223Y326275D01*
X43244Y326369D01*
X43261Y326463D01*
X43275Y326558D01*
X43284Y326654D01*
X43290Y326750D01*
X43292Y326846D01*
X43290Y326942D01*
X43284Y327038D01*
X43275Y327134D01*
X43261Y327229D01*
X43244Y327323D01*
X43223Y327417D01*
X43198Y327510D01*
X43170Y327602D01*
X43138Y327692D01*
X43102Y327782D01*
X43063Y327869D01*
X43020Y327956D01*
X42974Y328040D01*
X42925Y328122D01*
X42872Y328203D01*
X42816Y328281D01*
X42757Y328357D01*
X42695Y328430D01*
X42631Y328501D01*
X42563Y328570D01*
X42493Y328635D01*
X42420Y328698D01*
X42344Y328758D01*
X42267Y328814D01*
X42187Y328868D01*
X42105Y328918D01*
X42021Y328965D01*
X41936Y329009D01*
X41848Y329049D01*
X41759Y329085D01*
X41669Y329118D01*
X41669Y329119D02*
X41462Y329218D01*
X41252Y329311D01*
X41039Y329399D01*
X40825Y329482D01*
X40609Y329560D01*
X40391Y329633D01*
X40171Y329701D01*
X39950Y329763D01*
X39727Y329820D01*
X39503Y329872D01*
X39278Y329918D01*
X39052Y329959D01*
X38825Y329994D01*
X38597Y330024D01*
X38368Y330049D01*
X38139Y330068D01*
X37910Y330082D01*
X37680Y330090D01*
X37450Y330093D01*
X37450Y323601D02*
X37220Y323604D01*
X36990Y323612D01*
X36761Y323626D01*
X36532Y323645D01*
X36303Y323670D01*
X36075Y323700D01*
X35848Y323735D01*
X35622Y323776D01*
X35397Y323822D01*
X35173Y323874D01*
X34950Y323931D01*
X34729Y323993D01*
X34509Y324061D01*
X34291Y324134D01*
X34075Y324212D01*
X33861Y324295D01*
X33649Y324383D01*
X33438Y324476D01*
X33231Y324575D01*
X33231Y324574D02*
X33141Y324607D01*
X33052Y324643D01*
X32964Y324684D01*
X32879Y324727D01*
X32795Y324774D01*
X32713Y324824D01*
X32633Y324878D01*
X32556Y324934D01*
X32480Y324994D01*
X32407Y325057D01*
X32337Y325122D01*
X32269Y325191D01*
X32205Y325262D01*
X32143Y325335D01*
X32084Y325411D01*
X32028Y325489D01*
X31975Y325570D01*
X31926Y325652D01*
X31880Y325736D01*
X31837Y325823D01*
X31798Y325910D01*
X31762Y326000D01*
X31730Y326090D01*
X31702Y326182D01*
X31677Y326275D01*
X31656Y326369D01*
X31639Y326463D01*
X31625Y326558D01*
X31616Y326654D01*
X31610Y326750D01*
X31608Y326846D01*
X33231Y329118D02*
X33438Y329217D01*
X33649Y329310D01*
X33861Y329398D01*
X34075Y329481D01*
X34291Y329559D01*
X34509Y329632D01*
X34729Y329700D01*
X34950Y329762D01*
X35173Y329819D01*
X35397Y329871D01*
X35622Y329917D01*
X35848Y329958D01*
X36075Y329993D01*
X36303Y330023D01*
X36532Y330048D01*
X36761Y330067D01*
X36990Y330081D01*
X37220Y330089D01*
X37450Y330092D01*
X33231Y329118D02*
X33141Y329085D01*
X33052Y329049D01*
X32964Y329009D01*
X32879Y328965D01*
X32795Y328918D01*
X32713Y328868D01*
X32633Y328814D01*
X32556Y328758D01*
X32480Y328698D01*
X32407Y328635D01*
X32337Y328570D01*
X32269Y328501D01*
X32205Y328430D01*
X32143Y328357D01*
X32084Y328281D01*
X32028Y328203D01*
X31975Y328122D01*
X31926Y328040D01*
X31880Y327956D01*
X31837Y327869D01*
X31798Y327782D01*
X31762Y327692D01*
X31730Y327602D01*
X31702Y327510D01*
X31677Y327417D01*
X31656Y327323D01*
X31639Y327229D01*
X31625Y327134D01*
X31616Y327038D01*
X31610Y326942D01*
X31608Y326846D01*
X34204Y324250D02*
X40696Y329443D01*
X109608Y327496D02*
X109608Y323601D01*
X109608Y327496D02*
X109610Y327595D01*
X109616Y327695D01*
X109625Y327794D01*
X109638Y327892D01*
X109655Y327990D01*
X109676Y328088D01*
X109701Y328184D01*
X109729Y328279D01*
X109761Y328373D01*
X109796Y328466D01*
X109835Y328558D01*
X109878Y328648D01*
X109923Y328736D01*
X109973Y328823D01*
X110025Y328907D01*
X110081Y328990D01*
X110139Y329070D01*
X110201Y329148D01*
X110266Y329223D01*
X110334Y329296D01*
X110404Y329366D01*
X110477Y329434D01*
X110552Y329499D01*
X110630Y329561D01*
X110710Y329619D01*
X110793Y329675D01*
X110877Y329727D01*
X110964Y329777D01*
X111052Y329822D01*
X111142Y329865D01*
X111234Y329904D01*
X111327Y329939D01*
X111421Y329971D01*
X111516Y329999D01*
X111612Y330024D01*
X111710Y330045D01*
X111808Y330062D01*
X111906Y330075D01*
X112005Y330084D01*
X112105Y330090D01*
X112204Y330092D01*
X113503Y330092D01*
X113602Y330090D01*
X113702Y330084D01*
X113801Y330075D01*
X113899Y330062D01*
X113997Y330045D01*
X114095Y330024D01*
X114191Y329999D01*
X114286Y329971D01*
X114380Y329939D01*
X114473Y329904D01*
X114565Y329865D01*
X114655Y329822D01*
X114743Y329777D01*
X114830Y329727D01*
X114914Y329675D01*
X114997Y329619D01*
X115077Y329561D01*
X115155Y329499D01*
X115230Y329434D01*
X115303Y329366D01*
X115373Y329296D01*
X115441Y329223D01*
X115506Y329148D01*
X115568Y329070D01*
X115626Y328990D01*
X115682Y328907D01*
X115734Y328823D01*
X115784Y328736D01*
X115829Y328648D01*
X115872Y328558D01*
X115911Y328466D01*
X115946Y328373D01*
X115978Y328279D01*
X116006Y328184D01*
X116031Y328088D01*
X116052Y327990D01*
X116069Y327892D01*
X116082Y327794D01*
X116091Y327695D01*
X116097Y327595D01*
X116099Y327496D01*
X116099Y323601D01*
X121292Y323601D01*
X121292Y330092D01*
X100499Y327496D02*
X100499Y323601D01*
X100499Y327496D02*
X100497Y327595D01*
X100491Y327695D01*
X100482Y327794D01*
X100469Y327892D01*
X100452Y327990D01*
X100431Y328088D01*
X100406Y328184D01*
X100378Y328279D01*
X100346Y328373D01*
X100311Y328466D01*
X100272Y328558D01*
X100229Y328648D01*
X100184Y328736D01*
X100134Y328823D01*
X100082Y328907D01*
X100026Y328990D01*
X99968Y329070D01*
X99906Y329148D01*
X99841Y329223D01*
X99773Y329296D01*
X99703Y329366D01*
X99630Y329434D01*
X99555Y329499D01*
X99477Y329561D01*
X99397Y329619D01*
X99314Y329675D01*
X99230Y329727D01*
X99143Y329777D01*
X99055Y329822D01*
X98965Y329865D01*
X98873Y329904D01*
X98780Y329939D01*
X98686Y329971D01*
X98591Y329999D01*
X98495Y330024D01*
X98397Y330045D01*
X98299Y330062D01*
X98201Y330075D01*
X98102Y330084D01*
X98002Y330090D01*
X97903Y330092D01*
X97254Y330092D01*
X97141Y330090D01*
X97028Y330084D01*
X96915Y330074D01*
X96802Y330060D01*
X96690Y330043D01*
X96579Y330021D01*
X96469Y329996D01*
X96359Y329966D01*
X96251Y329933D01*
X96144Y329896D01*
X96038Y329856D01*
X95934Y329811D01*
X95831Y329763D01*
X95730Y329712D01*
X95631Y329657D01*
X95534Y329599D01*
X95439Y329537D01*
X95346Y329472D01*
X95256Y329404D01*
X95168Y329333D01*
X95082Y329258D01*
X94999Y329181D01*
X94919Y329101D01*
X94842Y329018D01*
X94767Y328932D01*
X94696Y328844D01*
X94628Y328754D01*
X94563Y328661D01*
X94501Y328566D01*
X94443Y328469D01*
X94388Y328370D01*
X94337Y328269D01*
X94289Y328166D01*
X94244Y328062D01*
X94204Y327956D01*
X94167Y327849D01*
X94134Y327741D01*
X94104Y327631D01*
X94079Y327521D01*
X94057Y327410D01*
X94040Y327298D01*
X94026Y327185D01*
X94016Y327072D01*
X94010Y326959D01*
X94008Y326846D01*
X94010Y326733D01*
X94016Y326620D01*
X94026Y326507D01*
X94040Y326394D01*
X94057Y326282D01*
X94079Y326171D01*
X94104Y326061D01*
X94134Y325951D01*
X94167Y325843D01*
X94204Y325736D01*
X94244Y325630D01*
X94289Y325526D01*
X94337Y325423D01*
X94388Y325322D01*
X94443Y325223D01*
X94501Y325126D01*
X94563Y325031D01*
X94628Y324938D01*
X94696Y324848D01*
X94767Y324760D01*
X94842Y324674D01*
X94919Y324591D01*
X94999Y324511D01*
X95082Y324434D01*
X95168Y324359D01*
X95256Y324288D01*
X95346Y324220D01*
X95439Y324155D01*
X95534Y324093D01*
X95631Y324035D01*
X95730Y323980D01*
X95831Y323929D01*
X95934Y323881D01*
X96038Y323836D01*
X96144Y323796D01*
X96251Y323759D01*
X96359Y323726D01*
X96469Y323696D01*
X96579Y323671D01*
X96690Y323649D01*
X96802Y323632D01*
X96915Y323618D01*
X97028Y323608D01*
X97141Y323602D01*
X97254Y323600D01*
X97254Y323601D02*
X100499Y323601D01*
X100642Y323603D01*
X100785Y323609D01*
X100928Y323619D01*
X101070Y323633D01*
X101212Y323650D01*
X101354Y323672D01*
X101495Y323697D01*
X101635Y323727D01*
X101774Y323760D01*
X101912Y323797D01*
X102049Y323838D01*
X102185Y323882D01*
X102320Y323931D01*
X102453Y323983D01*
X102585Y324038D01*
X102715Y324098D01*
X102844Y324161D01*
X102971Y324227D01*
X103095Y324297D01*
X103218Y324370D01*
X103339Y324447D01*
X103458Y324527D01*
X103574Y324610D01*
X103689Y324696D01*
X103800Y324785D01*
X103910Y324878D01*
X104016Y324973D01*
X104120Y325072D01*
X104221Y325173D01*
X104320Y325277D01*
X104415Y325383D01*
X104508Y325493D01*
X104597Y325604D01*
X104683Y325719D01*
X104766Y325835D01*
X104846Y325954D01*
X104923Y326075D01*
X104996Y326197D01*
X105066Y326322D01*
X105132Y326449D01*
X105195Y326578D01*
X105255Y326708D01*
X105310Y326840D01*
X105362Y326973D01*
X105411Y327108D01*
X105455Y327244D01*
X105496Y327381D01*
X105533Y327519D01*
X105566Y327658D01*
X105596Y327798D01*
X105621Y327939D01*
X105643Y328081D01*
X105660Y328223D01*
X105674Y328365D01*
X105684Y328508D01*
X105690Y328651D01*
X105692Y328794D01*
X90092Y323601D02*
X88794Y323601D01*
X90092Y323601D02*
X90092Y330092D01*
X78408Y326846D01*
X66054Y323600D02*
X66167Y323602D01*
X66280Y323608D01*
X66393Y323618D01*
X66506Y323632D01*
X66618Y323649D01*
X66729Y323671D01*
X66839Y323696D01*
X66949Y323726D01*
X67057Y323759D01*
X67164Y323796D01*
X67270Y323836D01*
X67374Y323881D01*
X67477Y323929D01*
X67578Y323980D01*
X67677Y324035D01*
X67774Y324093D01*
X67869Y324155D01*
X67962Y324220D01*
X68052Y324288D01*
X68140Y324359D01*
X68226Y324434D01*
X68309Y324511D01*
X68389Y324591D01*
X68466Y324674D01*
X68541Y324760D01*
X68612Y324848D01*
X68680Y324938D01*
X68745Y325031D01*
X68807Y325126D01*
X68865Y325223D01*
X68920Y325322D01*
X68971Y325423D01*
X69019Y325526D01*
X69064Y325630D01*
X69104Y325736D01*
X69141Y325843D01*
X69174Y325951D01*
X69204Y326061D01*
X69229Y326171D01*
X69251Y326282D01*
X69268Y326394D01*
X69282Y326507D01*
X69292Y326620D01*
X69298Y326733D01*
X69300Y326846D01*
X69298Y326959D01*
X69292Y327072D01*
X69282Y327185D01*
X69268Y327298D01*
X69251Y327410D01*
X69229Y327521D01*
X69204Y327631D01*
X69174Y327741D01*
X69141Y327849D01*
X69104Y327956D01*
X69064Y328062D01*
X69019Y328166D01*
X68971Y328269D01*
X68920Y328370D01*
X68865Y328469D01*
X68807Y328566D01*
X68745Y328661D01*
X68680Y328754D01*
X68612Y328844D01*
X68541Y328932D01*
X68466Y329018D01*
X68389Y329101D01*
X68309Y329181D01*
X68226Y329258D01*
X68140Y329333D01*
X68052Y329404D01*
X67962Y329472D01*
X67869Y329537D01*
X67774Y329599D01*
X67677Y329657D01*
X67578Y329712D01*
X67477Y329763D01*
X67374Y329811D01*
X67270Y329856D01*
X67164Y329896D01*
X67057Y329933D01*
X66949Y329966D01*
X66839Y329996D01*
X66729Y330021D01*
X66618Y330043D01*
X66506Y330060D01*
X66393Y330074D01*
X66280Y330084D01*
X66167Y330090D01*
X66054Y330092D01*
X65941Y330090D01*
X65828Y330084D01*
X65715Y330074D01*
X65602Y330060D01*
X65490Y330043D01*
X65379Y330021D01*
X65269Y329996D01*
X65159Y329966D01*
X65051Y329933D01*
X64944Y329896D01*
X64838Y329856D01*
X64734Y329811D01*
X64631Y329763D01*
X64530Y329712D01*
X64431Y329657D01*
X64334Y329599D01*
X64239Y329537D01*
X64146Y329472D01*
X64056Y329404D01*
X63968Y329333D01*
X63882Y329258D01*
X63799Y329181D01*
X63719Y329101D01*
X63642Y329018D01*
X63567Y328932D01*
X63496Y328844D01*
X63428Y328754D01*
X63363Y328661D01*
X63301Y328566D01*
X63243Y328469D01*
X63188Y328370D01*
X63137Y328269D01*
X63089Y328166D01*
X63044Y328062D01*
X63004Y327956D01*
X62967Y327849D01*
X62934Y327741D01*
X62904Y327631D01*
X62879Y327521D01*
X62857Y327410D01*
X62840Y327298D01*
X62826Y327185D01*
X62816Y327072D01*
X62810Y326959D01*
X62808Y326846D01*
X62810Y326733D01*
X62816Y326620D01*
X62826Y326507D01*
X62840Y326394D01*
X62857Y326282D01*
X62879Y326171D01*
X62904Y326061D01*
X62934Y325951D01*
X62967Y325843D01*
X63004Y325736D01*
X63044Y325630D01*
X63089Y325526D01*
X63137Y325423D01*
X63188Y325322D01*
X63243Y325223D01*
X63301Y325126D01*
X63363Y325031D01*
X63428Y324938D01*
X63496Y324848D01*
X63567Y324760D01*
X63642Y324674D01*
X63719Y324591D01*
X63799Y324511D01*
X63882Y324434D01*
X63968Y324359D01*
X64056Y324288D01*
X64146Y324220D01*
X64239Y324155D01*
X64334Y324093D01*
X64431Y324035D01*
X64530Y323980D01*
X64631Y323929D01*
X64734Y323881D01*
X64838Y323836D01*
X64944Y323796D01*
X65051Y323759D01*
X65159Y323726D01*
X65269Y323696D01*
X65379Y323671D01*
X65490Y323649D01*
X65602Y323632D01*
X65715Y323618D01*
X65828Y323608D01*
X65941Y323602D01*
X66054Y323600D01*
X71896Y324250D02*
X71997Y324252D01*
X72097Y324258D01*
X72197Y324268D01*
X72297Y324281D01*
X72396Y324299D01*
X72495Y324320D01*
X72592Y324345D01*
X72689Y324374D01*
X72784Y324407D01*
X72878Y324443D01*
X72970Y324483D01*
X73061Y324526D01*
X73150Y324573D01*
X73237Y324623D01*
X73323Y324677D01*
X73406Y324734D01*
X73486Y324794D01*
X73565Y324857D01*
X73641Y324924D01*
X73714Y324993D01*
X73784Y325065D01*
X73852Y325139D01*
X73917Y325216D01*
X73978Y325296D01*
X74037Y325378D01*
X74092Y325462D01*
X74144Y325548D01*
X74193Y325636D01*
X74238Y325726D01*
X74280Y325818D01*
X74318Y325911D01*
X74352Y326006D01*
X74383Y326101D01*
X74410Y326198D01*
X74433Y326296D01*
X74453Y326395D01*
X74468Y326495D01*
X74480Y326595D01*
X74488Y326695D01*
X74492Y326796D01*
X74492Y326896D01*
X74488Y326997D01*
X74480Y327097D01*
X74468Y327197D01*
X74453Y327297D01*
X74433Y327396D01*
X74410Y327494D01*
X74383Y327591D01*
X74352Y327686D01*
X74318Y327781D01*
X74280Y327874D01*
X74238Y327966D01*
X74193Y328056D01*
X74144Y328144D01*
X74092Y328230D01*
X74037Y328314D01*
X73978Y328396D01*
X73917Y328476D01*
X73852Y328553D01*
X73784Y328627D01*
X73714Y328699D01*
X73641Y328768D01*
X73565Y328835D01*
X73486Y328898D01*
X73406Y328958D01*
X73323Y329015D01*
X73237Y329069D01*
X73150Y329119D01*
X73061Y329166D01*
X72970Y329209D01*
X72878Y329249D01*
X72784Y329285D01*
X72689Y329318D01*
X72592Y329347D01*
X72495Y329372D01*
X72396Y329393D01*
X72297Y329411D01*
X72197Y329424D01*
X72097Y329434D01*
X71997Y329440D01*
X71896Y329442D01*
X71795Y329440D01*
X71695Y329434D01*
X71595Y329424D01*
X71495Y329411D01*
X71396Y329393D01*
X71297Y329372D01*
X71200Y329347D01*
X71103Y329318D01*
X71008Y329285D01*
X70914Y329249D01*
X70822Y329209D01*
X70731Y329166D01*
X70642Y329119D01*
X70555Y329069D01*
X70469Y329015D01*
X70386Y328958D01*
X70306Y328898D01*
X70227Y328835D01*
X70151Y328768D01*
X70078Y328699D01*
X70008Y328627D01*
X69940Y328553D01*
X69875Y328476D01*
X69814Y328396D01*
X69755Y328314D01*
X69700Y328230D01*
X69648Y328144D01*
X69599Y328056D01*
X69554Y327966D01*
X69512Y327874D01*
X69474Y327781D01*
X69440Y327686D01*
X69409Y327591D01*
X69382Y327494D01*
X69359Y327396D01*
X69339Y327297D01*
X69324Y327197D01*
X69312Y327097D01*
X69304Y326997D01*
X69300Y326896D01*
X69300Y326796D01*
X69304Y326695D01*
X69312Y326595D01*
X69324Y326495D01*
X69339Y326395D01*
X69359Y326296D01*
X69382Y326198D01*
X69409Y326101D01*
X69440Y326006D01*
X69474Y325911D01*
X69512Y325818D01*
X69554Y325726D01*
X69599Y325636D01*
X69648Y325548D01*
X69700Y325462D01*
X69755Y325378D01*
X69814Y325296D01*
X69875Y325216D01*
X69940Y325139D01*
X70008Y325065D01*
X70078Y324993D01*
X70151Y324924D01*
X70227Y324857D01*
X70306Y324794D01*
X70386Y324734D01*
X70469Y324677D01*
X70555Y324623D01*
X70642Y324573D01*
X70731Y324526D01*
X70822Y324483D01*
X70914Y324443D01*
X71008Y324407D01*
X71103Y324374D01*
X71200Y324345D01*
X71297Y324320D01*
X71396Y324299D01*
X71495Y324281D01*
X71595Y324268D01*
X71695Y324258D01*
X71795Y324252D01*
X71896Y324250D01*
X52401Y326197D02*
X52401Y330092D01*
X52401Y326197D02*
X52403Y326098D01*
X52409Y325998D01*
X52418Y325899D01*
X52431Y325801D01*
X52448Y325703D01*
X52469Y325605D01*
X52494Y325509D01*
X52522Y325414D01*
X52554Y325320D01*
X52589Y325227D01*
X52628Y325135D01*
X52671Y325045D01*
X52716Y324957D01*
X52766Y324870D01*
X52818Y324786D01*
X52874Y324703D01*
X52932Y324623D01*
X52994Y324545D01*
X53059Y324470D01*
X53127Y324397D01*
X53197Y324327D01*
X53270Y324259D01*
X53345Y324194D01*
X53423Y324132D01*
X53503Y324074D01*
X53586Y324018D01*
X53670Y323966D01*
X53757Y323916D01*
X53845Y323871D01*
X53935Y323828D01*
X54027Y323789D01*
X54120Y323754D01*
X54214Y323722D01*
X54309Y323694D01*
X54405Y323669D01*
X54503Y323648D01*
X54601Y323631D01*
X54699Y323618D01*
X54798Y323609D01*
X54898Y323603D01*
X54997Y323601D01*
X55646Y323601D01*
X55646Y323600D02*
X55759Y323602D01*
X55872Y323608D01*
X55985Y323618D01*
X56098Y323632D01*
X56210Y323649D01*
X56321Y323671D01*
X56431Y323696D01*
X56541Y323726D01*
X56649Y323759D01*
X56756Y323796D01*
X56862Y323836D01*
X56966Y323881D01*
X57069Y323929D01*
X57170Y323980D01*
X57269Y324035D01*
X57366Y324093D01*
X57461Y324155D01*
X57554Y324220D01*
X57644Y324288D01*
X57732Y324359D01*
X57818Y324434D01*
X57901Y324511D01*
X57981Y324591D01*
X58058Y324674D01*
X58133Y324760D01*
X58204Y324848D01*
X58272Y324938D01*
X58337Y325031D01*
X58399Y325126D01*
X58457Y325223D01*
X58512Y325322D01*
X58563Y325423D01*
X58611Y325526D01*
X58656Y325630D01*
X58696Y325736D01*
X58733Y325843D01*
X58766Y325951D01*
X58796Y326061D01*
X58821Y326171D01*
X58843Y326282D01*
X58860Y326394D01*
X58874Y326507D01*
X58884Y326620D01*
X58890Y326733D01*
X58892Y326846D01*
X58890Y326959D01*
X58884Y327072D01*
X58874Y327185D01*
X58860Y327298D01*
X58843Y327410D01*
X58821Y327521D01*
X58796Y327631D01*
X58766Y327741D01*
X58733Y327849D01*
X58696Y327956D01*
X58656Y328062D01*
X58611Y328166D01*
X58563Y328269D01*
X58512Y328370D01*
X58457Y328469D01*
X58399Y328566D01*
X58337Y328661D01*
X58272Y328754D01*
X58204Y328844D01*
X58133Y328932D01*
X58058Y329018D01*
X57981Y329101D01*
X57901Y329181D01*
X57818Y329258D01*
X57732Y329333D01*
X57644Y329404D01*
X57554Y329472D01*
X57461Y329537D01*
X57366Y329599D01*
X57269Y329657D01*
X57170Y329712D01*
X57069Y329763D01*
X56966Y329811D01*
X56862Y329856D01*
X56756Y329896D01*
X56649Y329933D01*
X56541Y329966D01*
X56431Y329996D01*
X56321Y330021D01*
X56210Y330043D01*
X56098Y330060D01*
X55985Y330074D01*
X55872Y330084D01*
X55759Y330090D01*
X55646Y330092D01*
X52401Y330092D01*
X52258Y330090D01*
X52115Y330084D01*
X51972Y330074D01*
X51830Y330060D01*
X51688Y330043D01*
X51546Y330021D01*
X51405Y329996D01*
X51265Y329966D01*
X51126Y329933D01*
X50988Y329896D01*
X50851Y329855D01*
X50715Y329811D01*
X50580Y329762D01*
X50447Y329710D01*
X50315Y329655D01*
X50185Y329595D01*
X50056Y329532D01*
X49929Y329466D01*
X49805Y329396D01*
X49682Y329323D01*
X49561Y329246D01*
X49442Y329166D01*
X49326Y329083D01*
X49211Y328997D01*
X49100Y328908D01*
X48990Y328815D01*
X48884Y328720D01*
X48780Y328621D01*
X48679Y328520D01*
X48580Y328416D01*
X48485Y328310D01*
X48392Y328200D01*
X48303Y328089D01*
X48217Y327974D01*
X48134Y327858D01*
X48054Y327739D01*
X47977Y327618D01*
X47904Y327496D01*
X47834Y327371D01*
X47768Y327244D01*
X47705Y327115D01*
X47645Y326985D01*
X47590Y326853D01*
X47538Y326720D01*
X47489Y326585D01*
X47445Y326449D01*
X47404Y326312D01*
X47367Y326174D01*
X47334Y326035D01*
X47304Y325895D01*
X47279Y325754D01*
X47257Y325612D01*
X47240Y325470D01*
X47226Y325328D01*
X47216Y325185D01*
X47210Y325042D01*
X47208Y324899D01*
X269346Y73799D02*
X272592Y73799D01*
X269346Y73800D02*
X269233Y73798D01*
X269120Y73792D01*
X269007Y73782D01*
X268894Y73768D01*
X268782Y73751D01*
X268671Y73729D01*
X268561Y73704D01*
X268451Y73674D01*
X268343Y73641D01*
X268236Y73604D01*
X268130Y73564D01*
X268026Y73519D01*
X267923Y73471D01*
X267822Y73420D01*
X267723Y73365D01*
X267626Y73307D01*
X267531Y73245D01*
X267438Y73180D01*
X267348Y73112D01*
X267260Y73041D01*
X267174Y72966D01*
X267091Y72889D01*
X267011Y72809D01*
X266934Y72726D01*
X266859Y72640D01*
X266788Y72552D01*
X266720Y72462D01*
X266655Y72369D01*
X266593Y72274D01*
X266535Y72177D01*
X266480Y72078D01*
X266429Y71977D01*
X266381Y71874D01*
X266336Y71770D01*
X266296Y71664D01*
X266259Y71557D01*
X266226Y71449D01*
X266196Y71339D01*
X266171Y71229D01*
X266149Y71118D01*
X266132Y71006D01*
X266118Y70893D01*
X266108Y70780D01*
X266102Y70667D01*
X266100Y70554D01*
X266102Y70441D01*
X266108Y70328D01*
X266118Y70215D01*
X266132Y70102D01*
X266149Y69990D01*
X266171Y69879D01*
X266196Y69769D01*
X266226Y69659D01*
X266259Y69551D01*
X266296Y69444D01*
X266336Y69338D01*
X266381Y69234D01*
X266429Y69131D01*
X266480Y69030D01*
X266535Y68931D01*
X266593Y68834D01*
X266655Y68739D01*
X266720Y68646D01*
X266788Y68556D01*
X266859Y68468D01*
X266934Y68382D01*
X267011Y68299D01*
X267091Y68219D01*
X267174Y68142D01*
X267260Y68067D01*
X267348Y67996D01*
X267438Y67928D01*
X267531Y67863D01*
X267626Y67801D01*
X267723Y67743D01*
X267822Y67688D01*
X267923Y67637D01*
X268026Y67589D01*
X268130Y67544D01*
X268236Y67504D01*
X268343Y67467D01*
X268451Y67434D01*
X268561Y67404D01*
X268671Y67379D01*
X268782Y67357D01*
X268894Y67340D01*
X269007Y67326D01*
X269120Y67316D01*
X269233Y67310D01*
X269346Y67308D01*
X272592Y67308D01*
X272592Y78992D01*
X269346Y78992D01*
X269245Y78990D01*
X269145Y78984D01*
X269045Y78974D01*
X268945Y78961D01*
X268846Y78943D01*
X268747Y78922D01*
X268650Y78897D01*
X268553Y78868D01*
X268458Y78835D01*
X268364Y78799D01*
X268272Y78759D01*
X268181Y78716D01*
X268092Y78669D01*
X268005Y78619D01*
X267919Y78565D01*
X267836Y78508D01*
X267756Y78448D01*
X267677Y78385D01*
X267601Y78318D01*
X267528Y78249D01*
X267458Y78177D01*
X267390Y78103D01*
X267325Y78026D01*
X267264Y77946D01*
X267205Y77864D01*
X267150Y77780D01*
X267098Y77694D01*
X267049Y77606D01*
X267004Y77516D01*
X266962Y77424D01*
X266924Y77331D01*
X266890Y77236D01*
X266859Y77141D01*
X266832Y77044D01*
X266809Y76946D01*
X266789Y76847D01*
X266774Y76747D01*
X266762Y76647D01*
X266754Y76547D01*
X266750Y76446D01*
X266750Y76346D01*
X266754Y76245D01*
X266762Y76145D01*
X266774Y76045D01*
X266789Y75945D01*
X266809Y75846D01*
X266832Y75748D01*
X266859Y75651D01*
X266890Y75556D01*
X266924Y75461D01*
X266962Y75368D01*
X267004Y75276D01*
X267049Y75186D01*
X267098Y75098D01*
X267150Y75012D01*
X267205Y74928D01*
X267264Y74846D01*
X267325Y74766D01*
X267390Y74689D01*
X267458Y74615D01*
X267528Y74543D01*
X267601Y74474D01*
X267677Y74407D01*
X267756Y74344D01*
X267836Y74284D01*
X267919Y74227D01*
X268005Y74173D01*
X268092Y74123D01*
X268181Y74076D01*
X268272Y74033D01*
X268364Y73993D01*
X268458Y73957D01*
X268553Y73924D01*
X268650Y73895D01*
X268747Y73870D01*
X268846Y73849D01*
X268945Y73831D01*
X269045Y73818D01*
X269145Y73808D01*
X269245Y73802D01*
X269346Y73800D01*
X261599Y71852D02*
X253810Y71852D01*
X257705Y75746D02*
X257705Y67957D01*
X243690Y24399D02*
X240444Y24399D01*
X240444Y24400D02*
X240331Y24398D01*
X240218Y24392D01*
X240105Y24382D01*
X239992Y24368D01*
X239880Y24351D01*
X239769Y24329D01*
X239659Y24304D01*
X239549Y24274D01*
X239441Y24241D01*
X239334Y24204D01*
X239228Y24164D01*
X239124Y24119D01*
X239021Y24071D01*
X238920Y24020D01*
X238821Y23965D01*
X238724Y23907D01*
X238629Y23845D01*
X238536Y23780D01*
X238446Y23712D01*
X238358Y23641D01*
X238272Y23566D01*
X238189Y23489D01*
X238109Y23409D01*
X238032Y23326D01*
X237957Y23240D01*
X237886Y23152D01*
X237818Y23062D01*
X237753Y22969D01*
X237691Y22874D01*
X237633Y22777D01*
X237578Y22678D01*
X237527Y22577D01*
X237479Y22474D01*
X237434Y22370D01*
X237394Y22264D01*
X237357Y22157D01*
X237324Y22049D01*
X237294Y21939D01*
X237269Y21829D01*
X237247Y21718D01*
X237230Y21606D01*
X237216Y21493D01*
X237206Y21380D01*
X237200Y21267D01*
X237198Y21154D01*
X237200Y21041D01*
X237206Y20928D01*
X237216Y20815D01*
X237230Y20702D01*
X237247Y20590D01*
X237269Y20479D01*
X237294Y20369D01*
X237324Y20259D01*
X237357Y20151D01*
X237394Y20044D01*
X237434Y19938D01*
X237479Y19834D01*
X237527Y19731D01*
X237578Y19630D01*
X237633Y19531D01*
X237691Y19434D01*
X237753Y19339D01*
X237818Y19246D01*
X237886Y19156D01*
X237957Y19068D01*
X238032Y18982D01*
X238109Y18899D01*
X238189Y18819D01*
X238272Y18742D01*
X238358Y18667D01*
X238446Y18596D01*
X238536Y18528D01*
X238629Y18463D01*
X238724Y18401D01*
X238821Y18343D01*
X238920Y18288D01*
X239021Y18237D01*
X239124Y18189D01*
X239228Y18144D01*
X239334Y18104D01*
X239441Y18067D01*
X239549Y18034D01*
X239659Y18004D01*
X239769Y17979D01*
X239880Y17957D01*
X239992Y17940D01*
X240105Y17926D01*
X240218Y17916D01*
X240331Y17910D01*
X240444Y17908D01*
X243690Y17908D01*
X243690Y29592D01*
X240444Y29592D01*
X240343Y29590D01*
X240243Y29584D01*
X240143Y29574D01*
X240043Y29561D01*
X239944Y29543D01*
X239845Y29522D01*
X239748Y29497D01*
X239651Y29468D01*
X239556Y29435D01*
X239462Y29399D01*
X239370Y29359D01*
X239279Y29316D01*
X239190Y29269D01*
X239103Y29219D01*
X239017Y29165D01*
X238934Y29108D01*
X238854Y29048D01*
X238775Y28985D01*
X238699Y28918D01*
X238626Y28849D01*
X238556Y28777D01*
X238488Y28703D01*
X238423Y28626D01*
X238362Y28546D01*
X238303Y28464D01*
X238248Y28380D01*
X238196Y28294D01*
X238147Y28206D01*
X238102Y28116D01*
X238060Y28024D01*
X238022Y27931D01*
X237988Y27836D01*
X237957Y27741D01*
X237930Y27644D01*
X237907Y27546D01*
X237887Y27447D01*
X237872Y27347D01*
X237860Y27247D01*
X237852Y27147D01*
X237848Y27046D01*
X237848Y26946D01*
X237852Y26845D01*
X237860Y26745D01*
X237872Y26645D01*
X237887Y26545D01*
X237907Y26446D01*
X237930Y26348D01*
X237957Y26251D01*
X237988Y26156D01*
X238022Y26061D01*
X238060Y25968D01*
X238102Y25876D01*
X238147Y25786D01*
X238196Y25698D01*
X238248Y25612D01*
X238303Y25528D01*
X238362Y25446D01*
X238423Y25366D01*
X238488Y25289D01*
X238556Y25215D01*
X238626Y25143D01*
X238699Y25074D01*
X238775Y25007D01*
X238854Y24944D01*
X238934Y24884D01*
X239017Y24827D01*
X239103Y24773D01*
X239190Y24723D01*
X239279Y24676D01*
X239370Y24633D01*
X239462Y24593D01*
X239556Y24557D01*
X239651Y24524D01*
X239748Y24495D01*
X239845Y24470D01*
X239944Y24449D01*
X240043Y24431D01*
X240143Y24418D01*
X240243Y24408D01*
X240343Y24402D01*
X240444Y24400D01*
X232697Y22452D02*
X224908Y22452D01*
D11*
X129068Y125955D02*
X127996Y125955D01*
X129068Y125955D02*
X129133Y125957D01*
X129197Y125963D01*
X129261Y125973D01*
X129325Y125986D01*
X129387Y126004D01*
X129448Y126025D01*
X129508Y126049D01*
X129566Y126078D01*
X129623Y126110D01*
X129677Y126145D01*
X129729Y126183D01*
X129779Y126225D01*
X129826Y126269D01*
X129870Y126316D01*
X129912Y126366D01*
X129950Y126418D01*
X129985Y126472D01*
X130017Y126529D01*
X130046Y126587D01*
X130070Y126647D01*
X130091Y126708D01*
X130109Y126770D01*
X130122Y126834D01*
X130132Y126898D01*
X130138Y126962D01*
X130140Y127027D01*
X130141Y127027D02*
X130141Y129709D01*
X130140Y129709D02*
X130138Y129774D01*
X130132Y129838D01*
X130122Y129902D01*
X130109Y129966D01*
X130091Y130028D01*
X130070Y130089D01*
X130046Y130149D01*
X130017Y130207D01*
X129985Y130264D01*
X129950Y130318D01*
X129912Y130370D01*
X129870Y130420D01*
X129826Y130467D01*
X129779Y130511D01*
X129729Y130553D01*
X129677Y130591D01*
X129623Y130626D01*
X129566Y130658D01*
X129508Y130687D01*
X129448Y130711D01*
X129387Y130732D01*
X129325Y130750D01*
X129261Y130763D01*
X129197Y130773D01*
X129133Y130779D01*
X129068Y130781D01*
X127996Y130781D01*
X125540Y130781D02*
X125540Y130245D01*
X125540Y130781D02*
X122859Y130781D01*
X124200Y125955D01*
X181796Y124755D02*
X182868Y124755D01*
X182933Y124757D01*
X182997Y124763D01*
X183061Y124773D01*
X183125Y124786D01*
X183187Y124804D01*
X183248Y124825D01*
X183308Y124849D01*
X183366Y124878D01*
X183423Y124910D01*
X183477Y124945D01*
X183529Y124983D01*
X183579Y125025D01*
X183626Y125069D01*
X183670Y125116D01*
X183712Y125166D01*
X183750Y125218D01*
X183785Y125272D01*
X183817Y125329D01*
X183846Y125387D01*
X183870Y125447D01*
X183891Y125508D01*
X183909Y125570D01*
X183922Y125634D01*
X183932Y125698D01*
X183938Y125762D01*
X183940Y125827D01*
X183941Y125827D02*
X183941Y128509D01*
X183940Y128509D02*
X183938Y128574D01*
X183932Y128638D01*
X183922Y128702D01*
X183909Y128766D01*
X183891Y128828D01*
X183870Y128889D01*
X183846Y128949D01*
X183817Y129007D01*
X183785Y129064D01*
X183750Y129118D01*
X183712Y129170D01*
X183670Y129220D01*
X183626Y129267D01*
X183579Y129311D01*
X183529Y129353D01*
X183477Y129391D01*
X183423Y129426D01*
X183366Y129458D01*
X183308Y129487D01*
X183248Y129511D01*
X183187Y129532D01*
X183125Y129550D01*
X183061Y129563D01*
X182997Y129573D01*
X182933Y129579D01*
X182868Y129581D01*
X181796Y129581D01*
X179341Y126096D02*
X179339Y126167D01*
X179333Y126239D01*
X179324Y126309D01*
X179311Y126379D01*
X179294Y126449D01*
X179273Y126517D01*
X179249Y126584D01*
X179221Y126650D01*
X179190Y126714D01*
X179155Y126777D01*
X179117Y126837D01*
X179076Y126896D01*
X179032Y126952D01*
X178985Y127006D01*
X178936Y127057D01*
X178883Y127105D01*
X178828Y127151D01*
X178771Y127193D01*
X178711Y127233D01*
X178650Y127269D01*
X178586Y127302D01*
X178521Y127331D01*
X178455Y127357D01*
X178387Y127380D01*
X178318Y127399D01*
X178248Y127414D01*
X178178Y127425D01*
X178107Y127433D01*
X178036Y127437D01*
X177964Y127437D01*
X177893Y127433D01*
X177822Y127425D01*
X177752Y127414D01*
X177682Y127399D01*
X177613Y127380D01*
X177545Y127357D01*
X177479Y127331D01*
X177414Y127302D01*
X177350Y127269D01*
X177289Y127233D01*
X177229Y127193D01*
X177172Y127151D01*
X177117Y127105D01*
X177064Y127057D01*
X177015Y127006D01*
X176968Y126952D01*
X176924Y126896D01*
X176883Y126837D01*
X176845Y126777D01*
X176810Y126714D01*
X176779Y126650D01*
X176751Y126584D01*
X176727Y126517D01*
X176706Y126449D01*
X176689Y126379D01*
X176676Y126309D01*
X176667Y126239D01*
X176661Y126167D01*
X176659Y126096D01*
X176661Y126025D01*
X176667Y125953D01*
X176676Y125883D01*
X176689Y125813D01*
X176706Y125743D01*
X176727Y125675D01*
X176751Y125608D01*
X176779Y125542D01*
X176810Y125478D01*
X176845Y125415D01*
X176883Y125355D01*
X176924Y125296D01*
X176968Y125240D01*
X177015Y125186D01*
X177064Y125135D01*
X177117Y125087D01*
X177172Y125041D01*
X177229Y124999D01*
X177289Y124959D01*
X177350Y124923D01*
X177414Y124890D01*
X177479Y124861D01*
X177545Y124835D01*
X177613Y124812D01*
X177682Y124793D01*
X177752Y124778D01*
X177822Y124767D01*
X177893Y124759D01*
X177964Y124755D01*
X178036Y124755D01*
X178107Y124759D01*
X178178Y124767D01*
X178248Y124778D01*
X178318Y124793D01*
X178387Y124812D01*
X178455Y124835D01*
X178521Y124861D01*
X178586Y124890D01*
X178650Y124923D01*
X178711Y124959D01*
X178771Y124999D01*
X178828Y125041D01*
X178883Y125087D01*
X178936Y125135D01*
X178985Y125186D01*
X179032Y125240D01*
X179076Y125296D01*
X179117Y125355D01*
X179155Y125415D01*
X179190Y125478D01*
X179221Y125542D01*
X179249Y125608D01*
X179273Y125675D01*
X179294Y125743D01*
X179311Y125813D01*
X179324Y125883D01*
X179333Y125953D01*
X179339Y126025D01*
X179341Y126096D01*
X179072Y128509D02*
X179070Y128574D01*
X179064Y128638D01*
X179054Y128702D01*
X179041Y128766D01*
X179023Y128828D01*
X179002Y128889D01*
X178978Y128949D01*
X178949Y129007D01*
X178917Y129064D01*
X178882Y129118D01*
X178844Y129170D01*
X178802Y129220D01*
X178758Y129267D01*
X178711Y129311D01*
X178661Y129353D01*
X178609Y129391D01*
X178555Y129426D01*
X178498Y129458D01*
X178440Y129487D01*
X178380Y129511D01*
X178319Y129532D01*
X178257Y129550D01*
X178193Y129563D01*
X178129Y129573D01*
X178065Y129579D01*
X178000Y129581D01*
X177935Y129579D01*
X177871Y129573D01*
X177807Y129563D01*
X177743Y129550D01*
X177681Y129532D01*
X177620Y129511D01*
X177560Y129487D01*
X177502Y129458D01*
X177445Y129426D01*
X177391Y129391D01*
X177339Y129353D01*
X177289Y129311D01*
X177242Y129267D01*
X177198Y129220D01*
X177156Y129170D01*
X177118Y129118D01*
X177083Y129064D01*
X177051Y129007D01*
X177022Y128949D01*
X176998Y128889D01*
X176977Y128828D01*
X176959Y128766D01*
X176946Y128702D01*
X176936Y128638D01*
X176930Y128574D01*
X176928Y128509D01*
X176930Y128444D01*
X176936Y128380D01*
X176946Y128316D01*
X176959Y128252D01*
X176977Y128190D01*
X176998Y128129D01*
X177022Y128069D01*
X177051Y128011D01*
X177083Y127954D01*
X177118Y127900D01*
X177156Y127848D01*
X177198Y127798D01*
X177242Y127751D01*
X177289Y127707D01*
X177339Y127665D01*
X177391Y127627D01*
X177445Y127592D01*
X177502Y127560D01*
X177560Y127531D01*
X177620Y127507D01*
X177681Y127486D01*
X177743Y127468D01*
X177807Y127455D01*
X177871Y127445D01*
X177935Y127439D01*
X178000Y127437D01*
X178065Y127439D01*
X178129Y127445D01*
X178193Y127455D01*
X178257Y127468D01*
X178319Y127486D01*
X178380Y127507D01*
X178440Y127531D01*
X178498Y127560D01*
X178555Y127592D01*
X178609Y127627D01*
X178661Y127665D01*
X178711Y127707D01*
X178758Y127751D01*
X178802Y127798D01*
X178844Y127848D01*
X178882Y127900D01*
X178917Y127954D01*
X178949Y128011D01*
X178978Y128069D01*
X179002Y128129D01*
X179023Y128190D01*
X179041Y128252D01*
X179054Y128316D01*
X179064Y128380D01*
X179070Y128444D01*
X179072Y128509D01*
X163468Y24755D02*
X162396Y24755D01*
X163468Y24755D02*
X163533Y24757D01*
X163597Y24763D01*
X163661Y24773D01*
X163725Y24786D01*
X163787Y24804D01*
X163848Y24825D01*
X163908Y24849D01*
X163966Y24878D01*
X164023Y24910D01*
X164077Y24945D01*
X164129Y24983D01*
X164179Y25025D01*
X164226Y25069D01*
X164270Y25116D01*
X164312Y25166D01*
X164350Y25218D01*
X164385Y25272D01*
X164417Y25329D01*
X164446Y25387D01*
X164470Y25447D01*
X164491Y25508D01*
X164509Y25570D01*
X164522Y25634D01*
X164532Y25698D01*
X164538Y25762D01*
X164540Y25827D01*
X164541Y25827D02*
X164541Y28509D01*
X164540Y28509D02*
X164538Y28574D01*
X164532Y28638D01*
X164522Y28702D01*
X164509Y28766D01*
X164491Y28828D01*
X164470Y28889D01*
X164446Y28949D01*
X164417Y29007D01*
X164385Y29064D01*
X164350Y29118D01*
X164312Y29170D01*
X164270Y29220D01*
X164226Y29267D01*
X164179Y29311D01*
X164129Y29353D01*
X164077Y29391D01*
X164023Y29426D01*
X163966Y29458D01*
X163908Y29487D01*
X163848Y29511D01*
X163787Y29532D01*
X163725Y29550D01*
X163661Y29563D01*
X163597Y29573D01*
X163533Y29579D01*
X163468Y29581D01*
X162396Y29581D01*
X158868Y26900D02*
X157259Y26900D01*
X158868Y26900D02*
X158933Y26902D01*
X158997Y26908D01*
X159061Y26918D01*
X159125Y26931D01*
X159187Y26949D01*
X159248Y26970D01*
X159308Y26994D01*
X159366Y27023D01*
X159423Y27055D01*
X159477Y27090D01*
X159529Y27128D01*
X159579Y27170D01*
X159626Y27214D01*
X159670Y27261D01*
X159712Y27311D01*
X159750Y27363D01*
X159785Y27417D01*
X159817Y27474D01*
X159846Y27532D01*
X159870Y27592D01*
X159891Y27653D01*
X159909Y27715D01*
X159922Y27779D01*
X159932Y27843D01*
X159938Y27907D01*
X159940Y27972D01*
X159940Y28240D01*
X159941Y28240D02*
X159939Y28311D01*
X159933Y28383D01*
X159924Y28453D01*
X159911Y28523D01*
X159894Y28593D01*
X159873Y28661D01*
X159849Y28728D01*
X159821Y28794D01*
X159790Y28858D01*
X159755Y28921D01*
X159717Y28981D01*
X159676Y29040D01*
X159632Y29096D01*
X159585Y29150D01*
X159536Y29201D01*
X159483Y29249D01*
X159428Y29295D01*
X159371Y29337D01*
X159311Y29377D01*
X159250Y29413D01*
X159186Y29446D01*
X159121Y29475D01*
X159055Y29501D01*
X158987Y29524D01*
X158918Y29543D01*
X158848Y29558D01*
X158778Y29569D01*
X158707Y29577D01*
X158636Y29581D01*
X158564Y29581D01*
X158493Y29577D01*
X158422Y29569D01*
X158352Y29558D01*
X158282Y29543D01*
X158213Y29524D01*
X158145Y29501D01*
X158079Y29475D01*
X158014Y29446D01*
X157950Y29413D01*
X157889Y29377D01*
X157829Y29337D01*
X157772Y29295D01*
X157717Y29249D01*
X157664Y29201D01*
X157615Y29150D01*
X157568Y29096D01*
X157524Y29040D01*
X157483Y28981D01*
X157445Y28921D01*
X157410Y28858D01*
X157379Y28794D01*
X157351Y28728D01*
X157327Y28661D01*
X157306Y28593D01*
X157289Y28523D01*
X157276Y28453D01*
X157267Y28383D01*
X157261Y28311D01*
X157259Y28240D01*
X157259Y26900D01*
X157261Y26809D01*
X157267Y26718D01*
X157276Y26628D01*
X157290Y26537D01*
X157307Y26448D01*
X157328Y26360D01*
X157353Y26272D01*
X157382Y26185D01*
X157414Y26100D01*
X157449Y26016D01*
X157489Y25934D01*
X157531Y25854D01*
X157577Y25775D01*
X157627Y25699D01*
X157679Y25625D01*
X157735Y25552D01*
X157794Y25483D01*
X157855Y25416D01*
X157920Y25351D01*
X157987Y25290D01*
X158056Y25231D01*
X158129Y25175D01*
X158203Y25123D01*
X158279Y25073D01*
X158358Y25027D01*
X158438Y24985D01*
X158520Y24945D01*
X158604Y24910D01*
X158689Y24878D01*
X158776Y24849D01*
X158864Y24824D01*
X158952Y24803D01*
X159041Y24786D01*
X159132Y24772D01*
X159222Y24763D01*
X159313Y24757D01*
X159404Y24755D01*
X89100Y25500D02*
X89100Y103500D01*
X-2900Y103500D02*
X-2900Y25500D01*
X37100Y25500D02*
X64100Y25500D01*
X64100Y103500D02*
X37100Y103500D01*
X89100Y43500D02*
X89100Y32500D01*
X89100Y85500D02*
X89100Y96500D01*
D10*
X97108Y37101D02*
X97108Y34504D01*
X97110Y34405D01*
X97116Y34305D01*
X97125Y34206D01*
X97138Y34108D01*
X97155Y34010D01*
X97176Y33912D01*
X97201Y33816D01*
X97229Y33721D01*
X97261Y33627D01*
X97296Y33534D01*
X97335Y33442D01*
X97378Y33352D01*
X97423Y33264D01*
X97473Y33177D01*
X97525Y33093D01*
X97581Y33010D01*
X97639Y32930D01*
X97701Y32852D01*
X97766Y32777D01*
X97834Y32704D01*
X97904Y32634D01*
X97977Y32566D01*
X98052Y32501D01*
X98130Y32439D01*
X98210Y32381D01*
X98293Y32325D01*
X98377Y32273D01*
X98464Y32223D01*
X98552Y32178D01*
X98642Y32135D01*
X98734Y32096D01*
X98827Y32061D01*
X98921Y32029D01*
X99016Y32001D01*
X99112Y31976D01*
X99210Y31955D01*
X99308Y31938D01*
X99406Y31925D01*
X99505Y31916D01*
X99605Y31910D01*
X99704Y31908D01*
X106196Y31908D01*
X106295Y31910D01*
X106395Y31916D01*
X106494Y31925D01*
X106592Y31938D01*
X106690Y31955D01*
X106788Y31976D01*
X106884Y32001D01*
X106979Y32029D01*
X107073Y32061D01*
X107166Y32096D01*
X107258Y32135D01*
X107348Y32178D01*
X107436Y32223D01*
X107523Y32273D01*
X107607Y32325D01*
X107690Y32381D01*
X107770Y32439D01*
X107848Y32501D01*
X107923Y32566D01*
X107996Y32634D01*
X108066Y32704D01*
X108134Y32777D01*
X108199Y32852D01*
X108261Y32930D01*
X108319Y33010D01*
X108375Y33093D01*
X108427Y33177D01*
X108477Y33264D01*
X108522Y33352D01*
X108565Y33442D01*
X108604Y33534D01*
X108639Y33626D01*
X108671Y33721D01*
X108699Y33816D01*
X108724Y33912D01*
X108745Y34010D01*
X108762Y34108D01*
X108775Y34206D01*
X108784Y34305D01*
X108790Y34405D01*
X108792Y34504D01*
X108792Y37101D01*
X108792Y41847D02*
X97108Y41847D01*
X97108Y48338D02*
X108792Y41847D01*
X108792Y48338D02*
X97108Y48338D01*
X106196Y53658D02*
X108792Y56904D01*
X97108Y56904D01*
X97108Y60149D02*
X97108Y53658D01*
X304108Y88327D02*
X315792Y88327D01*
X304108Y87029D02*
X304108Y89626D01*
X315792Y89626D02*
X315792Y87029D01*
X304108Y96789D02*
X304108Y99386D01*
X304108Y96789D02*
X304110Y96690D01*
X304116Y96590D01*
X304125Y96491D01*
X304138Y96393D01*
X304155Y96295D01*
X304176Y96197D01*
X304201Y96101D01*
X304229Y96006D01*
X304261Y95912D01*
X304296Y95819D01*
X304335Y95727D01*
X304378Y95637D01*
X304423Y95549D01*
X304473Y95462D01*
X304525Y95378D01*
X304581Y95295D01*
X304639Y95215D01*
X304701Y95137D01*
X304766Y95062D01*
X304834Y94989D01*
X304904Y94919D01*
X304977Y94851D01*
X305052Y94786D01*
X305130Y94724D01*
X305210Y94666D01*
X305293Y94610D01*
X305377Y94558D01*
X305464Y94508D01*
X305552Y94463D01*
X305642Y94420D01*
X305734Y94381D01*
X305827Y94346D01*
X305921Y94314D01*
X306016Y94286D01*
X306112Y94261D01*
X306210Y94240D01*
X306308Y94223D01*
X306406Y94210D01*
X306505Y94201D01*
X306605Y94195D01*
X306704Y94193D01*
X313196Y94193D01*
X313295Y94195D01*
X313395Y94201D01*
X313494Y94210D01*
X313592Y94223D01*
X313690Y94240D01*
X313788Y94261D01*
X313884Y94286D01*
X313979Y94314D01*
X314073Y94346D01*
X314166Y94381D01*
X314258Y94420D01*
X314348Y94463D01*
X314436Y94508D01*
X314523Y94558D01*
X314607Y94610D01*
X314690Y94666D01*
X314770Y94724D01*
X314848Y94786D01*
X314923Y94851D01*
X314996Y94919D01*
X315066Y94989D01*
X315134Y95062D01*
X315199Y95137D01*
X315261Y95215D01*
X315319Y95295D01*
X315375Y95378D01*
X315427Y95462D01*
X315477Y95549D01*
X315522Y95637D01*
X315565Y95727D01*
X315604Y95819D01*
X315639Y95911D01*
X315671Y96006D01*
X315699Y96101D01*
X315724Y96197D01*
X315745Y96295D01*
X315762Y96393D01*
X315775Y96491D01*
X315784Y96590D01*
X315790Y96690D01*
X315792Y96789D01*
X315792Y99386D01*
X313196Y103751D02*
X315792Y106996D01*
X304108Y106996D01*
X304108Y103751D02*
X304108Y110242D01*
D12*
X280100Y273500D02*
X275100Y273500D01*
X280100Y273500D02*
X280100Y268500D01*
X280100Y148500D02*
X280100Y143500D01*
X275100Y143500D01*
X75100Y273500D02*
X10100Y273500D01*
X10100Y143500D01*
X75100Y143500D01*
D13*
X84100Y283500D03*
D14*
X84102Y283438D01*
X84108Y283377D01*
X84117Y283316D01*
X84130Y283256D01*
X84147Y283197D01*
X84168Y283139D01*
X84192Y283082D01*
X84219Y283027D01*
X84250Y282974D01*
X84284Y282922D01*
X84321Y282873D01*
X84361Y282826D01*
X84404Y282782D01*
X84449Y282741D01*
X84497Y282702D01*
X84548Y282666D01*
X84600Y282634D01*
X84654Y282605D01*
X84710Y282579D01*
X84768Y282557D01*
X84826Y282538D01*
X84886Y282523D01*
X84947Y282512D01*
X85008Y282504D01*
X85069Y282500D01*
X85131Y282500D01*
X85192Y282504D01*
X85253Y282512D01*
X85314Y282523D01*
X85374Y282538D01*
X85432Y282557D01*
X85490Y282579D01*
X85546Y282605D01*
X85600Y282634D01*
X85652Y282666D01*
X85703Y282702D01*
X85751Y282741D01*
X85796Y282782D01*
X85839Y282826D01*
X85879Y282873D01*
X85916Y282922D01*
X85950Y282974D01*
X85981Y283027D01*
X86008Y283082D01*
X86032Y283139D01*
X86053Y283197D01*
X86070Y283256D01*
X86083Y283316D01*
X86092Y283377D01*
X86098Y283438D01*
X86100Y283500D01*
D13*
X86100Y283500D03*
D14*
X86098Y283562D01*
X86092Y283623D01*
X86083Y283684D01*
X86070Y283744D01*
X86053Y283803D01*
X86032Y283861D01*
X86008Y283918D01*
X85981Y283973D01*
X85950Y284026D01*
X85916Y284078D01*
X85879Y284127D01*
X85839Y284174D01*
X85796Y284218D01*
X85751Y284259D01*
X85703Y284298D01*
X85652Y284334D01*
X85600Y284366D01*
X85546Y284395D01*
X85490Y284421D01*
X85432Y284443D01*
X85374Y284462D01*
X85314Y284477D01*
X85253Y284488D01*
X85192Y284496D01*
X85131Y284500D01*
X85069Y284500D01*
X85008Y284496D01*
X84947Y284488D01*
X84886Y284477D01*
X84826Y284462D01*
X84768Y284443D01*
X84710Y284421D01*
X84654Y284395D01*
X84600Y284366D01*
X84548Y284334D01*
X84497Y284298D01*
X84449Y284259D01*
X84404Y284218D01*
X84361Y284174D01*
X84321Y284127D01*
X84284Y284078D01*
X84250Y284026D01*
X84219Y283973D01*
X84192Y283918D01*
X84168Y283861D01*
X84147Y283803D01*
X84130Y283744D01*
X84117Y283684D01*
X84108Y283623D01*
X84102Y283562D01*
X84100Y283500D01*
D10*
X151758Y201192D02*
X163442Y201192D01*
X151758Y199894D02*
X151758Y202490D01*
X163442Y202490D02*
X163442Y199894D01*
X151758Y209654D02*
X151758Y212250D01*
X151758Y209654D02*
X151760Y209555D01*
X151766Y209455D01*
X151775Y209356D01*
X151788Y209258D01*
X151805Y209160D01*
X151826Y209062D01*
X151851Y208966D01*
X151879Y208871D01*
X151911Y208777D01*
X151946Y208684D01*
X151985Y208592D01*
X152028Y208502D01*
X152073Y208414D01*
X152123Y208327D01*
X152175Y208243D01*
X152231Y208160D01*
X152289Y208080D01*
X152351Y208002D01*
X152416Y207927D01*
X152484Y207854D01*
X152554Y207784D01*
X152627Y207716D01*
X152702Y207651D01*
X152780Y207589D01*
X152860Y207531D01*
X152943Y207475D01*
X153027Y207423D01*
X153114Y207373D01*
X153202Y207328D01*
X153292Y207285D01*
X153384Y207246D01*
X153477Y207211D01*
X153571Y207179D01*
X153666Y207151D01*
X153762Y207126D01*
X153860Y207105D01*
X153958Y207088D01*
X154056Y207075D01*
X154155Y207066D01*
X154255Y207060D01*
X154354Y207058D01*
X154354Y207057D02*
X160846Y207057D01*
X160846Y207058D02*
X160945Y207060D01*
X161045Y207066D01*
X161144Y207075D01*
X161242Y207088D01*
X161340Y207105D01*
X161438Y207126D01*
X161534Y207151D01*
X161629Y207179D01*
X161723Y207211D01*
X161816Y207246D01*
X161908Y207285D01*
X161998Y207328D01*
X162086Y207373D01*
X162173Y207423D01*
X162257Y207475D01*
X162340Y207531D01*
X162420Y207589D01*
X162498Y207651D01*
X162573Y207716D01*
X162646Y207784D01*
X162716Y207854D01*
X162784Y207927D01*
X162849Y208002D01*
X162911Y208080D01*
X162969Y208160D01*
X163025Y208243D01*
X163077Y208327D01*
X163127Y208414D01*
X163172Y208502D01*
X163215Y208592D01*
X163254Y208684D01*
X163289Y208776D01*
X163321Y208871D01*
X163349Y208966D01*
X163374Y209062D01*
X163395Y209160D01*
X163412Y209258D01*
X163425Y209356D01*
X163434Y209455D01*
X163440Y209555D01*
X163442Y209654D01*
X163442Y212250D01*
X163442Y220185D02*
X163440Y220292D01*
X163434Y220398D01*
X163424Y220504D01*
X163411Y220610D01*
X163393Y220716D01*
X163372Y220820D01*
X163347Y220924D01*
X163318Y221027D01*
X163286Y221128D01*
X163249Y221228D01*
X163209Y221327D01*
X163166Y221425D01*
X163119Y221521D01*
X163068Y221615D01*
X163014Y221707D01*
X162957Y221797D01*
X162897Y221885D01*
X162833Y221970D01*
X162766Y222053D01*
X162696Y222134D01*
X162624Y222212D01*
X162548Y222288D01*
X162470Y222360D01*
X162389Y222430D01*
X162306Y222497D01*
X162221Y222561D01*
X162133Y222621D01*
X162043Y222678D01*
X161951Y222732D01*
X161857Y222783D01*
X161761Y222830D01*
X161663Y222873D01*
X161564Y222913D01*
X161464Y222950D01*
X161363Y222982D01*
X161260Y223011D01*
X161156Y223036D01*
X161052Y223057D01*
X160946Y223075D01*
X160840Y223088D01*
X160734Y223098D01*
X160628Y223104D01*
X160521Y223106D01*
X163442Y220185D02*
X163440Y220064D01*
X163434Y219943D01*
X163424Y219823D01*
X163411Y219702D01*
X163393Y219583D01*
X163372Y219463D01*
X163347Y219345D01*
X163318Y219228D01*
X163285Y219111D01*
X163249Y218996D01*
X163208Y218882D01*
X163165Y218769D01*
X163117Y218657D01*
X163066Y218548D01*
X163011Y218440D01*
X162953Y218333D01*
X162892Y218229D01*
X162827Y218127D01*
X162759Y218027D01*
X162688Y217929D01*
X162614Y217833D01*
X162537Y217740D01*
X162456Y217650D01*
X162373Y217562D01*
X162287Y217477D01*
X162198Y217394D01*
X162107Y217315D01*
X162013Y217238D01*
X161917Y217165D01*
X161819Y217095D01*
X161718Y217028D01*
X161615Y216964D01*
X161510Y216904D01*
X161403Y216847D01*
X161295Y216793D01*
X161185Y216743D01*
X161073Y216697D01*
X160960Y216654D01*
X160845Y216615D01*
X158249Y222133D02*
X158326Y222212D01*
X158407Y222288D01*
X158490Y222361D01*
X158575Y222431D01*
X158663Y222498D01*
X158753Y222562D01*
X158845Y222622D01*
X158940Y222679D01*
X159036Y222733D01*
X159134Y222784D01*
X159234Y222831D01*
X159336Y222875D01*
X159439Y222915D01*
X159543Y222951D01*
X159649Y222983D01*
X159755Y223012D01*
X159863Y223037D01*
X159971Y223059D01*
X160081Y223076D01*
X160190Y223090D01*
X160300Y223099D01*
X160411Y223105D01*
X160521Y223107D01*
X158249Y222133D02*
X151758Y216615D01*
X151758Y223106D01*
D14*
X205750Y73600D02*
X205750Y67600D01*
X205750Y73600D02*
X177250Y73600D01*
X177250Y67600D01*
X205750Y67600D01*
X207750Y64100D02*
X207750Y52100D01*
D10*
X197342Y60292D02*
X185658Y60292D01*
X185658Y58994D02*
X185658Y61590D01*
X197342Y61590D02*
X197342Y58994D01*
X185658Y68754D02*
X185658Y71350D01*
X185658Y68754D02*
X185660Y68655D01*
X185666Y68555D01*
X185675Y68456D01*
X185688Y68358D01*
X185705Y68260D01*
X185726Y68162D01*
X185751Y68066D01*
X185779Y67971D01*
X185811Y67877D01*
X185846Y67784D01*
X185885Y67692D01*
X185928Y67602D01*
X185973Y67514D01*
X186023Y67427D01*
X186075Y67343D01*
X186131Y67260D01*
X186189Y67180D01*
X186251Y67102D01*
X186316Y67027D01*
X186384Y66954D01*
X186454Y66884D01*
X186527Y66816D01*
X186602Y66751D01*
X186680Y66689D01*
X186760Y66631D01*
X186843Y66575D01*
X186927Y66523D01*
X187014Y66473D01*
X187102Y66428D01*
X187192Y66385D01*
X187284Y66346D01*
X187377Y66311D01*
X187471Y66279D01*
X187566Y66251D01*
X187662Y66226D01*
X187760Y66205D01*
X187858Y66188D01*
X187956Y66175D01*
X188055Y66166D01*
X188155Y66160D01*
X188254Y66158D01*
X188254Y66157D02*
X194746Y66157D01*
X194746Y66158D02*
X194845Y66160D01*
X194945Y66166D01*
X195044Y66175D01*
X195142Y66188D01*
X195240Y66205D01*
X195338Y66226D01*
X195434Y66251D01*
X195529Y66279D01*
X195623Y66311D01*
X195716Y66346D01*
X195808Y66385D01*
X195898Y66428D01*
X195986Y66473D01*
X196073Y66523D01*
X196157Y66575D01*
X196240Y66631D01*
X196320Y66689D01*
X196398Y66751D01*
X196473Y66816D01*
X196546Y66884D01*
X196616Y66954D01*
X196684Y67027D01*
X196749Y67102D01*
X196811Y67180D01*
X196869Y67260D01*
X196925Y67343D01*
X196977Y67427D01*
X197027Y67514D01*
X197072Y67602D01*
X197115Y67692D01*
X197154Y67784D01*
X197189Y67876D01*
X197221Y67971D01*
X197249Y68066D01*
X197274Y68162D01*
X197295Y68260D01*
X197312Y68358D01*
X197325Y68456D01*
X197334Y68555D01*
X197340Y68655D01*
X197342Y68754D01*
X197342Y71350D01*
X197342Y78312D02*
X188254Y75715D01*
X188254Y82206D01*
X190851Y80259D02*
X185658Y80259D01*
D14*
X106750Y85400D02*
X106750Y100650D01*
D10*
X129554Y51965D02*
X138642Y51965D01*
X129554Y51965D02*
X129455Y51963D01*
X129355Y51957D01*
X129256Y51948D01*
X129158Y51935D01*
X129060Y51918D01*
X128962Y51897D01*
X128866Y51872D01*
X128771Y51844D01*
X128677Y51812D01*
X128584Y51777D01*
X128492Y51738D01*
X128402Y51695D01*
X128314Y51650D01*
X128227Y51600D01*
X128143Y51548D01*
X128060Y51492D01*
X127980Y51434D01*
X127902Y51372D01*
X127827Y51307D01*
X127754Y51239D01*
X127684Y51169D01*
X127616Y51096D01*
X127551Y51021D01*
X127489Y50943D01*
X127431Y50863D01*
X127375Y50780D01*
X127323Y50696D01*
X127273Y50609D01*
X127228Y50521D01*
X127185Y50431D01*
X127146Y50339D01*
X127111Y50246D01*
X127079Y50152D01*
X127051Y50057D01*
X127026Y49961D01*
X127005Y49863D01*
X126988Y49765D01*
X126975Y49667D01*
X126966Y49568D01*
X126960Y49468D01*
X126958Y49369D01*
X126958Y48070D01*
X136046Y57238D02*
X138642Y60484D01*
X126958Y60484D01*
X126958Y57238D02*
X126958Y63730D01*
D15*
X298120Y246799D02*
X297822Y247842D01*
X297549Y248892D01*
X297302Y249948D01*
X297080Y251009D01*
X296885Y252076D01*
X296715Y253147D01*
X296571Y254222D01*
X296453Y255300D01*
X296362Y256380D01*
X296297Y257463D01*
X296258Y258547D01*
X296245Y259631D01*
X296259Y260715D01*
X296299Y261799D01*
X296365Y262881D01*
X296457Y263962D01*
X296576Y265040D01*
X296720Y266115D01*
X296891Y267186D01*
X297088Y268252D01*
X297310Y269313D01*
X297558Y270369D01*
X297832Y271419D01*
X298131Y272461D01*
X298455Y273496D01*
X298804Y274523D01*
X299178Y275540D01*
X299576Y276549D01*
X299999Y277548D01*
X300446Y278536D01*
X300917Y279513D01*
X301411Y280478D01*
X301929Y281431D01*
X302469Y282371D01*
X303032Y283298D01*
X303618Y284211D01*
X304225Y285109D01*
X304854Y285992D01*
X305504Y286860D01*
X306176Y287712D01*
X306867Y288547D01*
X307579Y289366D01*
X308310Y290166D01*
X309060Y290949D01*
X309830Y291714D01*
X310617Y292459D01*
X311422Y293185D01*
X312245Y293892D01*
X313085Y294578D01*
X313941Y295244D01*
X314813Y295889D01*
X315700Y296512D01*
X316602Y297114D01*
X317519Y297694D01*
X318449Y298251D01*
X319392Y298786D01*
X320349Y299297D01*
X321317Y299786D01*
X322297Y300250D01*
X323288Y300691D01*
X324289Y301108D01*
X325300Y301500D01*
X308280Y229020D02*
X309009Y228242D01*
X309755Y227482D01*
X310520Y226739D01*
X311302Y226015D01*
X312100Y225310D01*
X312916Y224623D01*
X313747Y223956D01*
X314593Y223309D01*
X315455Y222681D01*
X316331Y222075D01*
X317222Y221489D01*
X318126Y220924D01*
X319043Y220381D01*
X319972Y219860D01*
X320914Y219361D01*
X321867Y218884D01*
X322831Y218430D01*
X323805Y217998D01*
X324790Y217590D01*
X357300Y217500D02*
X358376Y217939D01*
X359442Y218404D01*
X360496Y218894D01*
X361538Y219409D01*
X362567Y219950D01*
X363583Y220514D01*
X364586Y221103D01*
X365574Y221716D01*
X366547Y222352D01*
X367504Y223011D01*
X368445Y223694D01*
X369370Y224398D01*
X370278Y225125D01*
X371167Y225873D01*
X372039Y226642D01*
X372892Y227432D01*
X373726Y228242D01*
X374540Y229072D01*
X375334Y229921D01*
X376107Y230789D01*
X376860Y231675D01*
X377590Y232579D01*
X378299Y233500D01*
X377300Y285500D02*
X376821Y286256D01*
X376325Y287001D01*
X375812Y287734D01*
X375283Y288456D01*
X374738Y289166D01*
X374177Y289863D01*
X373600Y290547D01*
X373008Y291218D01*
X372401Y291876D01*
X371780Y292520D01*
X401300Y285500D02*
X401300Y233500D01*
X378300Y233500D01*
X377300Y285500D02*
X401300Y285500D01*
D11*
X358991Y253323D02*
X354165Y253323D01*
X354165Y255468D01*
X354165Y259301D02*
X354167Y259366D01*
X354173Y259430D01*
X354183Y259494D01*
X354196Y259558D01*
X354214Y259620D01*
X354235Y259681D01*
X354259Y259741D01*
X354288Y259799D01*
X354320Y259856D01*
X354355Y259910D01*
X354393Y259962D01*
X354435Y260012D01*
X354479Y260059D01*
X354526Y260103D01*
X354576Y260145D01*
X354628Y260183D01*
X354682Y260218D01*
X354739Y260250D01*
X354797Y260279D01*
X354857Y260303D01*
X354918Y260324D01*
X354980Y260342D01*
X355044Y260355D01*
X355108Y260365D01*
X355172Y260371D01*
X355237Y260373D01*
X354165Y259301D02*
X354167Y259207D01*
X354173Y259113D01*
X354183Y259019D01*
X354196Y258926D01*
X354214Y258834D01*
X354235Y258742D01*
X354260Y258651D01*
X354289Y258561D01*
X354322Y258473D01*
X354358Y258386D01*
X354398Y258301D01*
X354441Y258217D01*
X354488Y258136D01*
X354538Y258056D01*
X354591Y257978D01*
X354648Y257903D01*
X354707Y257830D01*
X354770Y257760D01*
X354835Y257692D01*
X357919Y257827D02*
X357984Y257829D01*
X358048Y257835D01*
X358112Y257845D01*
X358176Y257858D01*
X358238Y257876D01*
X358299Y257897D01*
X358359Y257921D01*
X358417Y257950D01*
X358474Y257982D01*
X358528Y258017D01*
X358580Y258055D01*
X358630Y258097D01*
X358677Y258141D01*
X358721Y258188D01*
X358763Y258238D01*
X358801Y258290D01*
X358836Y258344D01*
X358868Y258401D01*
X358897Y258459D01*
X358921Y258519D01*
X358942Y258580D01*
X358960Y258642D01*
X358973Y258706D01*
X358983Y258770D01*
X358989Y258834D01*
X358991Y258899D01*
X358989Y258985D01*
X358984Y259071D01*
X358974Y259157D01*
X358961Y259242D01*
X358945Y259327D01*
X358925Y259411D01*
X358901Y259494D01*
X358874Y259576D01*
X358843Y259656D01*
X358809Y259736D01*
X358771Y259813D01*
X358730Y259889D01*
X358686Y259963D01*
X358639Y260035D01*
X358589Y260106D01*
X356981Y258363D02*
X357014Y258310D01*
X357051Y258259D01*
X357090Y258210D01*
X357132Y258163D01*
X357177Y258119D01*
X357224Y258078D01*
X357273Y258039D01*
X357325Y258003D01*
X357379Y257970D01*
X357434Y257941D01*
X357491Y257915D01*
X357550Y257892D01*
X357609Y257872D01*
X357670Y257856D01*
X357731Y257843D01*
X357794Y257834D01*
X357856Y257829D01*
X357919Y257827D01*
X356175Y259837D02*
X356142Y259890D01*
X356105Y259941D01*
X356066Y259990D01*
X356024Y260037D01*
X355979Y260081D01*
X355932Y260122D01*
X355883Y260161D01*
X355831Y260197D01*
X355777Y260230D01*
X355722Y260259D01*
X355665Y260285D01*
X355606Y260308D01*
X355547Y260328D01*
X355486Y260344D01*
X355425Y260357D01*
X355362Y260366D01*
X355300Y260371D01*
X355237Y260373D01*
X356176Y259837D02*
X356980Y258363D01*
X357919Y262996D02*
X358991Y264337D01*
X354165Y264337D01*
X354165Y265677D02*
X354165Y262996D01*
D16*
X221584Y39030D02*
X221586Y39093D01*
X221592Y39156D01*
X221602Y39219D01*
X221615Y39280D01*
X221633Y39341D01*
X221654Y39400D01*
X221679Y39459D01*
X221707Y39515D01*
X221739Y39570D01*
X221774Y39622D01*
X221813Y39672D01*
X221854Y39720D01*
X221899Y39765D01*
X221946Y39807D01*
X221995Y39846D01*
X222047Y39882D01*
X222101Y39915D01*
X222157Y39944D01*
X222215Y39970D01*
X222274Y39992D01*
X222334Y40011D01*
X222396Y40025D01*
X222458Y40036D01*
X222521Y40043D01*
X222584Y40046D01*
X222647Y40045D01*
X222710Y40040D01*
X222773Y40031D01*
X222835Y40018D01*
X222896Y40002D01*
X222956Y39982D01*
X223014Y39958D01*
X223071Y39930D01*
X223126Y39899D01*
X223179Y39865D01*
X223230Y39827D01*
X223278Y39786D01*
X223324Y39743D01*
X223367Y39696D01*
X223407Y39647D01*
X223444Y39596D01*
X223477Y39543D01*
X223507Y39487D01*
X223534Y39430D01*
X223557Y39371D01*
X223576Y39311D01*
X223592Y39249D01*
X223604Y39187D01*
X223612Y39125D01*
X223616Y39062D01*
X223616Y38998D01*
X223612Y38935D01*
X223604Y38873D01*
X223592Y38811D01*
X223576Y38749D01*
X223557Y38689D01*
X223534Y38630D01*
X223507Y38573D01*
X223477Y38517D01*
X223444Y38464D01*
X223407Y38413D01*
X223367Y38364D01*
X223324Y38317D01*
X223278Y38274D01*
X223230Y38233D01*
X223179Y38195D01*
X223126Y38161D01*
X223071Y38130D01*
X223014Y38102D01*
X222956Y38078D01*
X222896Y38058D01*
X222835Y38042D01*
X222773Y38029D01*
X222710Y38020D01*
X222647Y38015D01*
X222584Y38014D01*
X222521Y38017D01*
X222458Y38024D01*
X222396Y38035D01*
X222334Y38049D01*
X222274Y38068D01*
X222215Y38090D01*
X222157Y38116D01*
X222101Y38145D01*
X222047Y38178D01*
X221995Y38214D01*
X221946Y38253D01*
X221899Y38295D01*
X221854Y38340D01*
X221813Y38388D01*
X221774Y38438D01*
X221739Y38490D01*
X221707Y38545D01*
X221679Y38601D01*
X221654Y38660D01*
X221633Y38719D01*
X221615Y38780D01*
X221602Y38841D01*
X221592Y38904D01*
X221586Y38967D01*
X221584Y39030D01*
D11*
X213787Y14194D02*
X213787Y12050D01*
X213787Y14194D02*
X213785Y14265D01*
X213779Y14337D01*
X213770Y14407D01*
X213757Y14477D01*
X213740Y14547D01*
X213719Y14615D01*
X213695Y14682D01*
X213667Y14748D01*
X213636Y14812D01*
X213601Y14875D01*
X213563Y14935D01*
X213522Y14994D01*
X213478Y15050D01*
X213431Y15104D01*
X213382Y15155D01*
X213329Y15203D01*
X213274Y15249D01*
X213217Y15291D01*
X213157Y15331D01*
X213096Y15367D01*
X213032Y15400D01*
X212967Y15429D01*
X212901Y15455D01*
X212833Y15478D01*
X212764Y15497D01*
X212694Y15512D01*
X212624Y15523D01*
X212553Y15531D01*
X212482Y15535D01*
X212410Y15535D01*
X212339Y15531D01*
X212268Y15523D01*
X212198Y15512D01*
X212128Y15497D01*
X212059Y15478D01*
X211991Y15455D01*
X211925Y15429D01*
X211860Y15400D01*
X211796Y15367D01*
X211735Y15331D01*
X211675Y15291D01*
X211618Y15249D01*
X211563Y15203D01*
X211510Y15155D01*
X211461Y15104D01*
X211414Y15050D01*
X211370Y14994D01*
X211329Y14935D01*
X211291Y14875D01*
X211256Y14812D01*
X211225Y14748D01*
X211197Y14682D01*
X211173Y14615D01*
X211152Y14547D01*
X211135Y14477D01*
X211122Y14407D01*
X211113Y14337D01*
X211107Y14265D01*
X211105Y14194D01*
X211106Y14194D02*
X211106Y12050D01*
X211105Y12050D02*
X211107Y11979D01*
X211113Y11907D01*
X211122Y11837D01*
X211135Y11767D01*
X211152Y11697D01*
X211173Y11629D01*
X211197Y11562D01*
X211225Y11496D01*
X211256Y11432D01*
X211291Y11369D01*
X211329Y11309D01*
X211370Y11250D01*
X211414Y11194D01*
X211461Y11140D01*
X211510Y11089D01*
X211563Y11041D01*
X211618Y10995D01*
X211675Y10953D01*
X211735Y10913D01*
X211796Y10877D01*
X211860Y10844D01*
X211925Y10815D01*
X211991Y10789D01*
X212059Y10766D01*
X212128Y10747D01*
X212198Y10732D01*
X212268Y10721D01*
X212339Y10713D01*
X212410Y10709D01*
X212482Y10709D01*
X212553Y10713D01*
X212624Y10721D01*
X212694Y10732D01*
X212764Y10747D01*
X212833Y10766D01*
X212901Y10789D01*
X212967Y10815D01*
X213032Y10844D01*
X213096Y10877D01*
X213157Y10913D01*
X213217Y10953D01*
X213274Y10995D01*
X213329Y11041D01*
X213382Y11089D01*
X213431Y11140D01*
X213478Y11194D01*
X213522Y11250D01*
X213563Y11309D01*
X213601Y11369D01*
X213636Y11432D01*
X213667Y11496D01*
X213695Y11562D01*
X213719Y11629D01*
X213740Y11697D01*
X213757Y11767D01*
X213770Y11837D01*
X213779Y11907D01*
X213785Y11979D01*
X213787Y12050D01*
X211642Y11781D02*
X210569Y10709D01*
X206013Y14328D02*
X206015Y14396D01*
X206021Y14463D01*
X206030Y14530D01*
X206043Y14597D01*
X206060Y14662D01*
X206081Y14727D01*
X206105Y14790D01*
X206133Y14852D01*
X206164Y14912D01*
X206198Y14970D01*
X206236Y15026D01*
X206276Y15081D01*
X206320Y15132D01*
X206367Y15181D01*
X206416Y15228D01*
X206467Y15272D01*
X206522Y15312D01*
X206578Y15350D01*
X206636Y15384D01*
X206696Y15415D01*
X206758Y15443D01*
X206821Y15467D01*
X206886Y15488D01*
X206951Y15505D01*
X207018Y15518D01*
X207085Y15527D01*
X207152Y15533D01*
X207220Y15535D01*
X207298Y15533D01*
X207376Y15527D01*
X207453Y15517D01*
X207530Y15504D01*
X207606Y15486D01*
X207681Y15465D01*
X207755Y15440D01*
X207827Y15411D01*
X207898Y15379D01*
X207967Y15343D01*
X208035Y15304D01*
X208100Y15261D01*
X208163Y15215D01*
X208224Y15166D01*
X208282Y15114D01*
X208337Y15059D01*
X208390Y15002D01*
X208439Y14942D01*
X208486Y14879D01*
X208529Y14814D01*
X208569Y14748D01*
X208606Y14679D01*
X208639Y14608D01*
X208669Y14536D01*
X208695Y14462D01*
X206415Y13390D02*
X206366Y13439D01*
X206319Y13491D01*
X206276Y13546D01*
X206235Y13603D01*
X206197Y13662D01*
X206163Y13723D01*
X206132Y13786D01*
X206104Y13850D01*
X206080Y13916D01*
X206060Y13982D01*
X206043Y14050D01*
X206030Y14119D01*
X206021Y14188D01*
X206015Y14258D01*
X206013Y14328D01*
X206416Y13390D02*
X208694Y10709D01*
X206013Y10709D01*
X322855Y187305D02*
X327681Y187305D01*
X327681Y188646D01*
X327679Y188717D01*
X327673Y188789D01*
X327664Y188859D01*
X327651Y188929D01*
X327634Y188999D01*
X327613Y189067D01*
X327589Y189134D01*
X327561Y189200D01*
X327530Y189264D01*
X327495Y189327D01*
X327457Y189387D01*
X327416Y189446D01*
X327372Y189502D01*
X327325Y189556D01*
X327276Y189607D01*
X327223Y189655D01*
X327168Y189701D01*
X327111Y189743D01*
X327051Y189783D01*
X326990Y189819D01*
X326926Y189852D01*
X326861Y189881D01*
X326795Y189907D01*
X326727Y189930D01*
X326658Y189949D01*
X326588Y189964D01*
X326518Y189975D01*
X326447Y189983D01*
X326376Y189987D01*
X326304Y189987D01*
X326233Y189983D01*
X326162Y189975D01*
X326092Y189964D01*
X326022Y189949D01*
X325953Y189930D01*
X325885Y189907D01*
X325819Y189881D01*
X325754Y189852D01*
X325690Y189819D01*
X325629Y189783D01*
X325569Y189743D01*
X325512Y189701D01*
X325457Y189655D01*
X325404Y189607D01*
X325355Y189556D01*
X325308Y189502D01*
X325264Y189446D01*
X325223Y189387D01*
X325185Y189327D01*
X325150Y189264D01*
X325119Y189200D01*
X325091Y189134D01*
X325067Y189067D01*
X325046Y188999D01*
X325029Y188929D01*
X325016Y188859D01*
X325007Y188789D01*
X325001Y188717D01*
X324999Y188646D01*
X325000Y188646D02*
X325000Y187305D01*
X325000Y188914D02*
X322855Y189986D01*
X326609Y192728D02*
X327681Y194068D01*
X322855Y194068D01*
X322855Y192728D02*
X322855Y195409D01*
X322855Y198214D02*
X322855Y199555D01*
X322857Y199626D01*
X322863Y199698D01*
X322872Y199768D01*
X322885Y199838D01*
X322902Y199908D01*
X322923Y199976D01*
X322947Y200043D01*
X322975Y200109D01*
X323006Y200173D01*
X323041Y200236D01*
X323079Y200296D01*
X323120Y200355D01*
X323164Y200411D01*
X323211Y200465D01*
X323260Y200516D01*
X323313Y200564D01*
X323368Y200610D01*
X323425Y200652D01*
X323485Y200692D01*
X323546Y200728D01*
X323610Y200761D01*
X323675Y200790D01*
X323741Y200816D01*
X323809Y200839D01*
X323878Y200858D01*
X323948Y200873D01*
X324018Y200884D01*
X324089Y200892D01*
X324160Y200896D01*
X324232Y200896D01*
X324303Y200892D01*
X324374Y200884D01*
X324444Y200873D01*
X324514Y200858D01*
X324583Y200839D01*
X324651Y200816D01*
X324717Y200790D01*
X324782Y200761D01*
X324846Y200728D01*
X324907Y200692D01*
X324967Y200652D01*
X325024Y200610D01*
X325079Y200564D01*
X325132Y200516D01*
X325181Y200465D01*
X325228Y200411D01*
X325272Y200355D01*
X325313Y200296D01*
X325351Y200236D01*
X325386Y200173D01*
X325417Y200109D01*
X325445Y200043D01*
X325469Y199976D01*
X325490Y199908D01*
X325507Y199838D01*
X325520Y199768D01*
X325529Y199698D01*
X325535Y199626D01*
X325537Y199555D01*
X327681Y199823D02*
X327681Y198214D01*
X327681Y199823D02*
X327679Y199888D01*
X327673Y199952D01*
X327663Y200016D01*
X327650Y200080D01*
X327632Y200142D01*
X327611Y200203D01*
X327587Y200263D01*
X327558Y200321D01*
X327526Y200378D01*
X327491Y200432D01*
X327453Y200484D01*
X327411Y200534D01*
X327367Y200581D01*
X327320Y200625D01*
X327270Y200667D01*
X327218Y200705D01*
X327164Y200740D01*
X327107Y200772D01*
X327049Y200801D01*
X326989Y200825D01*
X326928Y200846D01*
X326866Y200864D01*
X326802Y200877D01*
X326738Y200887D01*
X326674Y200893D01*
X326609Y200895D01*
X326544Y200893D01*
X326480Y200887D01*
X326416Y200877D01*
X326352Y200864D01*
X326290Y200846D01*
X326229Y200825D01*
X326169Y200801D01*
X326111Y200772D01*
X326054Y200740D01*
X326000Y200705D01*
X325948Y200667D01*
X325898Y200625D01*
X325851Y200581D01*
X325807Y200534D01*
X325765Y200484D01*
X325727Y200432D01*
X325692Y200378D01*
X325660Y200321D01*
X325631Y200263D01*
X325607Y200203D01*
X325586Y200142D01*
X325568Y200080D01*
X325555Y200016D01*
X325545Y199952D01*
X325539Y199888D01*
X325537Y199823D01*
X325536Y199823D02*
X325536Y198750D01*
X216545Y72105D02*
X211719Y72105D01*
X216545Y72105D02*
X216545Y73445D01*
X216543Y73516D01*
X216537Y73588D01*
X216528Y73658D01*
X216515Y73728D01*
X216498Y73798D01*
X216477Y73866D01*
X216453Y73933D01*
X216425Y73999D01*
X216394Y74063D01*
X216359Y74126D01*
X216321Y74186D01*
X216280Y74245D01*
X216236Y74301D01*
X216189Y74355D01*
X216140Y74406D01*
X216087Y74454D01*
X216032Y74500D01*
X215975Y74542D01*
X215915Y74582D01*
X215854Y74618D01*
X215790Y74651D01*
X215725Y74680D01*
X215659Y74706D01*
X215591Y74729D01*
X215522Y74748D01*
X215452Y74763D01*
X215382Y74774D01*
X215311Y74782D01*
X215240Y74786D01*
X215168Y74786D01*
X215097Y74782D01*
X215026Y74774D01*
X214956Y74763D01*
X214886Y74748D01*
X214817Y74729D01*
X214749Y74706D01*
X214683Y74680D01*
X214618Y74651D01*
X214554Y74618D01*
X214493Y74582D01*
X214433Y74542D01*
X214376Y74500D01*
X214321Y74454D01*
X214268Y74406D01*
X214219Y74355D01*
X214172Y74301D01*
X214128Y74245D01*
X214087Y74186D01*
X214049Y74126D01*
X214014Y74063D01*
X213983Y73999D01*
X213955Y73933D01*
X213931Y73866D01*
X213910Y73798D01*
X213893Y73728D01*
X213880Y73658D01*
X213871Y73588D01*
X213865Y73516D01*
X213863Y73445D01*
X213864Y73445D02*
X213864Y72105D01*
X213864Y73714D02*
X211719Y74786D01*
X215473Y77528D02*
X216545Y78868D01*
X211719Y78868D01*
X211719Y77528D02*
X211719Y80209D01*
X214400Y83014D02*
X214400Y84623D01*
X214398Y84688D01*
X214392Y84752D01*
X214382Y84816D01*
X214369Y84880D01*
X214351Y84942D01*
X214330Y85003D01*
X214306Y85063D01*
X214277Y85121D01*
X214245Y85178D01*
X214210Y85232D01*
X214172Y85284D01*
X214130Y85334D01*
X214086Y85381D01*
X214039Y85425D01*
X213989Y85467D01*
X213937Y85505D01*
X213883Y85540D01*
X213826Y85572D01*
X213768Y85601D01*
X213708Y85625D01*
X213647Y85646D01*
X213585Y85664D01*
X213521Y85677D01*
X213457Y85687D01*
X213393Y85693D01*
X213328Y85695D01*
X213060Y85695D01*
X212989Y85693D01*
X212917Y85687D01*
X212847Y85678D01*
X212777Y85665D01*
X212707Y85648D01*
X212639Y85627D01*
X212572Y85603D01*
X212506Y85575D01*
X212442Y85544D01*
X212379Y85509D01*
X212319Y85471D01*
X212260Y85430D01*
X212204Y85386D01*
X212150Y85339D01*
X212099Y85290D01*
X212051Y85237D01*
X212005Y85182D01*
X211963Y85125D01*
X211923Y85065D01*
X211887Y85004D01*
X211854Y84940D01*
X211825Y84875D01*
X211799Y84809D01*
X211776Y84741D01*
X211757Y84672D01*
X211742Y84602D01*
X211731Y84532D01*
X211723Y84461D01*
X211719Y84390D01*
X211719Y84318D01*
X211723Y84247D01*
X211731Y84176D01*
X211742Y84106D01*
X211757Y84036D01*
X211776Y83967D01*
X211799Y83899D01*
X211825Y83833D01*
X211854Y83768D01*
X211887Y83704D01*
X211923Y83643D01*
X211963Y83583D01*
X212005Y83526D01*
X212051Y83471D01*
X212099Y83418D01*
X212150Y83369D01*
X212204Y83322D01*
X212260Y83278D01*
X212319Y83237D01*
X212379Y83199D01*
X212442Y83164D01*
X212506Y83133D01*
X212572Y83105D01*
X212639Y83081D01*
X212707Y83060D01*
X212777Y83043D01*
X212847Y83030D01*
X212917Y83021D01*
X212989Y83015D01*
X213060Y83013D01*
X213060Y83014D02*
X214400Y83014D01*
X214491Y83016D01*
X214582Y83022D01*
X214672Y83031D01*
X214763Y83045D01*
X214852Y83062D01*
X214940Y83083D01*
X215028Y83108D01*
X215115Y83137D01*
X215200Y83169D01*
X215284Y83204D01*
X215366Y83244D01*
X215446Y83286D01*
X215525Y83332D01*
X215601Y83382D01*
X215675Y83434D01*
X215748Y83490D01*
X215817Y83549D01*
X215884Y83610D01*
X215949Y83675D01*
X216010Y83742D01*
X216069Y83811D01*
X216125Y83883D01*
X216177Y83958D01*
X216227Y84034D01*
X216273Y84113D01*
X216315Y84193D01*
X216355Y84275D01*
X216390Y84359D01*
X216422Y84444D01*
X216451Y84531D01*
X216476Y84618D01*
X216497Y84707D01*
X216514Y84796D01*
X216528Y84887D01*
X216537Y84977D01*
X216543Y85068D01*
X216545Y85159D01*
X40781Y137705D02*
X35955Y137705D01*
X40781Y137705D02*
X40781Y139046D01*
X40779Y139117D01*
X40773Y139189D01*
X40764Y139259D01*
X40751Y139329D01*
X40734Y139399D01*
X40713Y139467D01*
X40689Y139534D01*
X40661Y139600D01*
X40630Y139664D01*
X40595Y139727D01*
X40557Y139787D01*
X40516Y139846D01*
X40472Y139902D01*
X40425Y139956D01*
X40376Y140007D01*
X40323Y140055D01*
X40268Y140101D01*
X40211Y140143D01*
X40151Y140183D01*
X40090Y140219D01*
X40026Y140252D01*
X39961Y140281D01*
X39895Y140307D01*
X39827Y140330D01*
X39758Y140349D01*
X39688Y140364D01*
X39618Y140375D01*
X39547Y140383D01*
X39476Y140387D01*
X39404Y140387D01*
X39333Y140383D01*
X39262Y140375D01*
X39192Y140364D01*
X39122Y140349D01*
X39053Y140330D01*
X38985Y140307D01*
X38919Y140281D01*
X38854Y140252D01*
X38790Y140219D01*
X38729Y140183D01*
X38669Y140143D01*
X38612Y140101D01*
X38557Y140055D01*
X38504Y140007D01*
X38455Y139956D01*
X38408Y139902D01*
X38364Y139846D01*
X38323Y139787D01*
X38285Y139727D01*
X38250Y139664D01*
X38219Y139600D01*
X38191Y139534D01*
X38167Y139467D01*
X38146Y139399D01*
X38129Y139329D01*
X38116Y139259D01*
X38107Y139189D01*
X38101Y139117D01*
X38099Y139046D01*
X38100Y139046D02*
X38100Y137705D01*
X38100Y139314D02*
X35955Y140386D01*
X39709Y143128D02*
X40781Y144468D01*
X35955Y144468D01*
X35955Y143128D02*
X35955Y145809D01*
X40245Y148614D02*
X40781Y148614D01*
X40781Y151295D01*
X35955Y149955D01*
X211719Y104805D02*
X216545Y104805D01*
X216545Y106145D01*
X216543Y106216D01*
X216537Y106288D01*
X216528Y106358D01*
X216515Y106428D01*
X216498Y106498D01*
X216477Y106566D01*
X216453Y106633D01*
X216425Y106699D01*
X216394Y106763D01*
X216359Y106826D01*
X216321Y106886D01*
X216280Y106945D01*
X216236Y107001D01*
X216189Y107055D01*
X216140Y107106D01*
X216087Y107154D01*
X216032Y107200D01*
X215975Y107242D01*
X215915Y107282D01*
X215854Y107318D01*
X215790Y107351D01*
X215725Y107380D01*
X215659Y107406D01*
X215591Y107429D01*
X215522Y107448D01*
X215452Y107463D01*
X215382Y107474D01*
X215311Y107482D01*
X215240Y107486D01*
X215168Y107486D01*
X215097Y107482D01*
X215026Y107474D01*
X214956Y107463D01*
X214886Y107448D01*
X214817Y107429D01*
X214749Y107406D01*
X214683Y107380D01*
X214618Y107351D01*
X214554Y107318D01*
X214493Y107282D01*
X214433Y107242D01*
X214376Y107200D01*
X214321Y107154D01*
X214268Y107106D01*
X214219Y107055D01*
X214172Y107001D01*
X214128Y106945D01*
X214087Y106886D01*
X214049Y106826D01*
X214014Y106763D01*
X213983Y106699D01*
X213955Y106633D01*
X213931Y106566D01*
X213910Y106498D01*
X213893Y106428D01*
X213880Y106358D01*
X213871Y106288D01*
X213865Y106216D01*
X213863Y106145D01*
X213864Y106145D02*
X213864Y104805D01*
X213864Y106414D02*
X211719Y107486D01*
X215473Y110228D02*
X216545Y111568D01*
X211719Y111568D01*
X211719Y110228D02*
X211719Y112909D01*
X213060Y115713D02*
X213131Y115715D01*
X213203Y115721D01*
X213273Y115730D01*
X213343Y115743D01*
X213413Y115760D01*
X213481Y115781D01*
X213548Y115805D01*
X213614Y115833D01*
X213678Y115864D01*
X213741Y115899D01*
X213801Y115937D01*
X213860Y115978D01*
X213916Y116022D01*
X213970Y116069D01*
X214021Y116118D01*
X214069Y116171D01*
X214115Y116226D01*
X214157Y116283D01*
X214197Y116343D01*
X214233Y116404D01*
X214266Y116468D01*
X214295Y116533D01*
X214321Y116599D01*
X214344Y116667D01*
X214363Y116736D01*
X214378Y116806D01*
X214389Y116876D01*
X214397Y116947D01*
X214401Y117018D01*
X214401Y117090D01*
X214397Y117161D01*
X214389Y117232D01*
X214378Y117302D01*
X214363Y117372D01*
X214344Y117441D01*
X214321Y117509D01*
X214295Y117575D01*
X214266Y117640D01*
X214233Y117704D01*
X214197Y117765D01*
X214157Y117825D01*
X214115Y117882D01*
X214069Y117937D01*
X214021Y117990D01*
X213970Y118039D01*
X213916Y118086D01*
X213860Y118130D01*
X213801Y118171D01*
X213741Y118209D01*
X213678Y118244D01*
X213614Y118275D01*
X213548Y118303D01*
X213481Y118327D01*
X213413Y118348D01*
X213343Y118365D01*
X213273Y118378D01*
X213203Y118387D01*
X213131Y118393D01*
X213060Y118395D01*
X212989Y118393D01*
X212917Y118387D01*
X212847Y118378D01*
X212777Y118365D01*
X212707Y118348D01*
X212639Y118327D01*
X212572Y118303D01*
X212506Y118275D01*
X212442Y118244D01*
X212379Y118209D01*
X212319Y118171D01*
X212260Y118130D01*
X212204Y118086D01*
X212150Y118039D01*
X212099Y117990D01*
X212051Y117937D01*
X212005Y117882D01*
X211963Y117825D01*
X211923Y117765D01*
X211887Y117704D01*
X211854Y117640D01*
X211825Y117575D01*
X211799Y117509D01*
X211776Y117441D01*
X211757Y117372D01*
X211742Y117302D01*
X211731Y117232D01*
X211723Y117161D01*
X211719Y117090D01*
X211719Y117018D01*
X211723Y116947D01*
X211731Y116876D01*
X211742Y116806D01*
X211757Y116736D01*
X211776Y116667D01*
X211799Y116599D01*
X211825Y116533D01*
X211854Y116468D01*
X211887Y116404D01*
X211923Y116343D01*
X211963Y116283D01*
X212005Y116226D01*
X212051Y116171D01*
X212099Y116118D01*
X212150Y116069D01*
X212204Y116022D01*
X212260Y115978D01*
X212319Y115937D01*
X212379Y115899D01*
X212442Y115864D01*
X212506Y115833D01*
X212572Y115805D01*
X212639Y115781D01*
X212707Y115760D01*
X212777Y115743D01*
X212847Y115730D01*
X212917Y115721D01*
X212989Y115715D01*
X213060Y115713D01*
X215473Y115982D02*
X215538Y115984D01*
X215602Y115990D01*
X215666Y116000D01*
X215730Y116013D01*
X215792Y116031D01*
X215853Y116052D01*
X215913Y116076D01*
X215971Y116105D01*
X216028Y116137D01*
X216082Y116172D01*
X216134Y116210D01*
X216184Y116252D01*
X216231Y116296D01*
X216275Y116343D01*
X216317Y116393D01*
X216355Y116445D01*
X216390Y116499D01*
X216422Y116556D01*
X216451Y116614D01*
X216475Y116674D01*
X216496Y116735D01*
X216514Y116797D01*
X216527Y116861D01*
X216537Y116925D01*
X216543Y116989D01*
X216545Y117054D01*
X216543Y117119D01*
X216537Y117183D01*
X216527Y117247D01*
X216514Y117311D01*
X216496Y117373D01*
X216475Y117434D01*
X216451Y117494D01*
X216422Y117552D01*
X216390Y117609D01*
X216355Y117663D01*
X216317Y117715D01*
X216275Y117765D01*
X216231Y117812D01*
X216184Y117856D01*
X216134Y117898D01*
X216082Y117936D01*
X216028Y117971D01*
X215971Y118003D01*
X215913Y118032D01*
X215853Y118056D01*
X215792Y118077D01*
X215730Y118095D01*
X215666Y118108D01*
X215602Y118118D01*
X215538Y118124D01*
X215473Y118126D01*
X215408Y118124D01*
X215344Y118118D01*
X215280Y118108D01*
X215216Y118095D01*
X215154Y118077D01*
X215093Y118056D01*
X215033Y118032D01*
X214975Y118003D01*
X214918Y117971D01*
X214864Y117936D01*
X214812Y117898D01*
X214762Y117856D01*
X214715Y117812D01*
X214671Y117765D01*
X214629Y117715D01*
X214591Y117663D01*
X214556Y117609D01*
X214524Y117552D01*
X214495Y117494D01*
X214471Y117434D01*
X214450Y117373D01*
X214432Y117311D01*
X214419Y117247D01*
X214409Y117183D01*
X214403Y117119D01*
X214401Y117054D01*
X214403Y116989D01*
X214409Y116925D01*
X214419Y116861D01*
X214432Y116797D01*
X214450Y116735D01*
X214471Y116674D01*
X214495Y116614D01*
X214524Y116556D01*
X214556Y116499D01*
X214591Y116445D01*
X214629Y116393D01*
X214671Y116343D01*
X214715Y116296D01*
X214762Y116252D01*
X214812Y116210D01*
X214864Y116172D01*
X214918Y116137D01*
X214975Y116105D01*
X215033Y116076D01*
X215093Y116052D01*
X215154Y116031D01*
X215216Y116013D01*
X215280Y116000D01*
X215344Y115990D01*
X215408Y115984D01*
X215473Y115982D01*
X352652Y154855D02*
X352652Y159681D01*
X351311Y159681D01*
X351240Y159679D01*
X351168Y159673D01*
X351098Y159664D01*
X351028Y159651D01*
X350958Y159634D01*
X350890Y159613D01*
X350823Y159589D01*
X350757Y159561D01*
X350693Y159530D01*
X350630Y159495D01*
X350570Y159457D01*
X350511Y159416D01*
X350455Y159372D01*
X350401Y159325D01*
X350350Y159276D01*
X350302Y159223D01*
X350256Y159168D01*
X350214Y159111D01*
X350174Y159051D01*
X350138Y158990D01*
X350105Y158926D01*
X350076Y158861D01*
X350050Y158795D01*
X350027Y158727D01*
X350008Y158658D01*
X349993Y158588D01*
X349982Y158518D01*
X349974Y158447D01*
X349970Y158376D01*
X349970Y158304D01*
X349974Y158233D01*
X349982Y158162D01*
X349993Y158092D01*
X350008Y158022D01*
X350027Y157953D01*
X350050Y157885D01*
X350076Y157819D01*
X350105Y157754D01*
X350138Y157690D01*
X350174Y157629D01*
X350214Y157569D01*
X350256Y157512D01*
X350302Y157457D01*
X350350Y157404D01*
X350401Y157355D01*
X350455Y157308D01*
X350511Y157264D01*
X350570Y157223D01*
X350630Y157185D01*
X350693Y157150D01*
X350757Y157119D01*
X350823Y157091D01*
X350890Y157067D01*
X350958Y157046D01*
X351028Y157029D01*
X351098Y157016D01*
X351168Y157007D01*
X351240Y157001D01*
X351311Y156999D01*
X351311Y157000D02*
X352652Y157000D01*
X351043Y157000D02*
X349971Y154855D01*
X347229Y154855D02*
X345621Y154855D01*
X345556Y154857D01*
X345492Y154863D01*
X345428Y154873D01*
X345364Y154886D01*
X345302Y154904D01*
X345241Y154925D01*
X345181Y154949D01*
X345123Y154978D01*
X345066Y155010D01*
X345012Y155045D01*
X344960Y155083D01*
X344910Y155125D01*
X344863Y155169D01*
X344819Y155216D01*
X344777Y155266D01*
X344739Y155318D01*
X344704Y155372D01*
X344672Y155429D01*
X344643Y155487D01*
X344619Y155547D01*
X344598Y155608D01*
X344580Y155670D01*
X344567Y155734D01*
X344557Y155798D01*
X344551Y155862D01*
X344549Y155927D01*
X344548Y155927D02*
X344548Y156464D01*
X344549Y156464D02*
X344551Y156529D01*
X344557Y156593D01*
X344567Y156657D01*
X344580Y156721D01*
X344598Y156783D01*
X344619Y156844D01*
X344643Y156904D01*
X344672Y156962D01*
X344704Y157019D01*
X344739Y157073D01*
X344777Y157125D01*
X344819Y157175D01*
X344863Y157222D01*
X344910Y157266D01*
X344960Y157308D01*
X345012Y157346D01*
X345066Y157381D01*
X345123Y157413D01*
X345181Y157442D01*
X345241Y157466D01*
X345302Y157487D01*
X345364Y157505D01*
X345428Y157518D01*
X345492Y157528D01*
X345556Y157534D01*
X345621Y157536D01*
X347229Y157536D01*
X347229Y159681D01*
X344548Y159681D01*
X317352Y122145D02*
X317352Y117319D01*
X317352Y122145D02*
X316011Y122145D01*
X315940Y122143D01*
X315868Y122137D01*
X315798Y122128D01*
X315728Y122115D01*
X315658Y122098D01*
X315590Y122077D01*
X315523Y122053D01*
X315457Y122025D01*
X315393Y121994D01*
X315330Y121959D01*
X315270Y121921D01*
X315211Y121880D01*
X315155Y121836D01*
X315101Y121789D01*
X315050Y121740D01*
X315002Y121687D01*
X314956Y121632D01*
X314914Y121575D01*
X314874Y121515D01*
X314838Y121454D01*
X314805Y121390D01*
X314776Y121325D01*
X314750Y121259D01*
X314727Y121191D01*
X314708Y121122D01*
X314693Y121052D01*
X314682Y120982D01*
X314674Y120911D01*
X314670Y120840D01*
X314670Y120768D01*
X314674Y120697D01*
X314682Y120626D01*
X314693Y120556D01*
X314708Y120486D01*
X314727Y120417D01*
X314750Y120349D01*
X314776Y120283D01*
X314805Y120218D01*
X314838Y120154D01*
X314874Y120093D01*
X314914Y120033D01*
X314956Y119976D01*
X315002Y119921D01*
X315050Y119868D01*
X315101Y119819D01*
X315155Y119772D01*
X315211Y119728D01*
X315270Y119687D01*
X315330Y119649D01*
X315393Y119614D01*
X315457Y119583D01*
X315523Y119555D01*
X315590Y119531D01*
X315658Y119510D01*
X315728Y119493D01*
X315798Y119480D01*
X315868Y119471D01*
X315940Y119465D01*
X316011Y119463D01*
X316011Y119464D02*
X317352Y119464D01*
X315743Y119464D02*
X314671Y117319D01*
X311929Y120000D02*
X310321Y120000D01*
X310256Y119998D01*
X310192Y119992D01*
X310128Y119982D01*
X310064Y119969D01*
X310002Y119951D01*
X309941Y119930D01*
X309881Y119906D01*
X309823Y119877D01*
X309766Y119845D01*
X309712Y119810D01*
X309660Y119772D01*
X309610Y119730D01*
X309563Y119686D01*
X309519Y119639D01*
X309477Y119589D01*
X309439Y119537D01*
X309404Y119483D01*
X309372Y119426D01*
X309343Y119368D01*
X309319Y119308D01*
X309298Y119247D01*
X309280Y119185D01*
X309267Y119121D01*
X309257Y119057D01*
X309251Y118993D01*
X309249Y118928D01*
X309248Y118928D02*
X309248Y118660D01*
X309250Y118589D01*
X309256Y118517D01*
X309265Y118447D01*
X309278Y118377D01*
X309295Y118307D01*
X309316Y118239D01*
X309340Y118172D01*
X309368Y118106D01*
X309399Y118042D01*
X309434Y117979D01*
X309472Y117919D01*
X309513Y117860D01*
X309557Y117804D01*
X309604Y117750D01*
X309653Y117699D01*
X309706Y117651D01*
X309761Y117605D01*
X309818Y117563D01*
X309878Y117523D01*
X309939Y117487D01*
X310003Y117454D01*
X310068Y117425D01*
X310134Y117399D01*
X310202Y117376D01*
X310271Y117357D01*
X310341Y117342D01*
X310411Y117331D01*
X310482Y117323D01*
X310553Y117319D01*
X310625Y117319D01*
X310696Y117323D01*
X310767Y117331D01*
X310837Y117342D01*
X310907Y117357D01*
X310976Y117376D01*
X311044Y117399D01*
X311110Y117425D01*
X311175Y117454D01*
X311239Y117487D01*
X311300Y117523D01*
X311360Y117563D01*
X311417Y117605D01*
X311472Y117651D01*
X311525Y117699D01*
X311574Y117750D01*
X311621Y117804D01*
X311665Y117860D01*
X311706Y117919D01*
X311744Y117979D01*
X311779Y118042D01*
X311810Y118106D01*
X311838Y118172D01*
X311862Y118239D01*
X311883Y118307D01*
X311900Y118377D01*
X311913Y118447D01*
X311922Y118517D01*
X311928Y118589D01*
X311930Y118660D01*
X311929Y118660D02*
X311929Y120000D01*
X311927Y120091D01*
X311921Y120182D01*
X311912Y120272D01*
X311898Y120363D01*
X311881Y120452D01*
X311860Y120540D01*
X311835Y120628D01*
X311806Y120715D01*
X311774Y120800D01*
X311739Y120884D01*
X311699Y120966D01*
X311657Y121046D01*
X311611Y121125D01*
X311561Y121201D01*
X311509Y121275D01*
X311453Y121348D01*
X311394Y121417D01*
X311333Y121484D01*
X311268Y121549D01*
X311201Y121610D01*
X311132Y121669D01*
X311059Y121725D01*
X310985Y121777D01*
X310909Y121827D01*
X310830Y121873D01*
X310750Y121915D01*
X310668Y121955D01*
X310584Y121990D01*
X310499Y122022D01*
X310412Y122051D01*
X310324Y122076D01*
X310236Y122097D01*
X310147Y122114D01*
X310056Y122128D01*
X309966Y122137D01*
X309875Y122143D01*
X309784Y122145D01*
X351752Y154819D02*
X351752Y159645D01*
X350411Y159645D01*
X350340Y159643D01*
X350268Y159637D01*
X350198Y159628D01*
X350128Y159615D01*
X350058Y159598D01*
X349990Y159577D01*
X349923Y159553D01*
X349857Y159525D01*
X349793Y159494D01*
X349730Y159459D01*
X349670Y159421D01*
X349611Y159380D01*
X349555Y159336D01*
X349501Y159289D01*
X349450Y159240D01*
X349402Y159187D01*
X349356Y159132D01*
X349314Y159075D01*
X349274Y159015D01*
X349238Y158954D01*
X349205Y158890D01*
X349176Y158825D01*
X349150Y158759D01*
X349127Y158691D01*
X349108Y158622D01*
X349093Y158552D01*
X349082Y158482D01*
X349074Y158411D01*
X349070Y158340D01*
X349070Y158268D01*
X349074Y158197D01*
X349082Y158126D01*
X349093Y158056D01*
X349108Y157986D01*
X349127Y157917D01*
X349150Y157849D01*
X349176Y157783D01*
X349205Y157718D01*
X349238Y157654D01*
X349274Y157593D01*
X349314Y157533D01*
X349356Y157476D01*
X349402Y157421D01*
X349450Y157368D01*
X349501Y157319D01*
X349555Y157272D01*
X349611Y157228D01*
X349670Y157187D01*
X349730Y157149D01*
X349793Y157114D01*
X349857Y157083D01*
X349923Y157055D01*
X349990Y157031D01*
X350058Y157010D01*
X350128Y156993D01*
X350198Y156980D01*
X350268Y156971D01*
X350340Y156965D01*
X350411Y156963D01*
X350411Y156964D02*
X351752Y156964D01*
X350143Y156964D02*
X349071Y154819D01*
X346329Y159109D02*
X346329Y159645D01*
X343648Y159645D01*
X344989Y154819D01*
X349152Y172319D02*
X349152Y177145D01*
X347811Y177145D01*
X347740Y177143D01*
X347668Y177137D01*
X347598Y177128D01*
X347528Y177115D01*
X347458Y177098D01*
X347390Y177077D01*
X347323Y177053D01*
X347257Y177025D01*
X347193Y176994D01*
X347130Y176959D01*
X347070Y176921D01*
X347011Y176880D01*
X346955Y176836D01*
X346901Y176789D01*
X346850Y176740D01*
X346802Y176687D01*
X346756Y176632D01*
X346714Y176575D01*
X346674Y176515D01*
X346638Y176454D01*
X346605Y176390D01*
X346576Y176325D01*
X346550Y176259D01*
X346527Y176191D01*
X346508Y176122D01*
X346493Y176052D01*
X346482Y175982D01*
X346474Y175911D01*
X346470Y175840D01*
X346470Y175768D01*
X346474Y175697D01*
X346482Y175626D01*
X346493Y175556D01*
X346508Y175486D01*
X346527Y175417D01*
X346550Y175349D01*
X346576Y175283D01*
X346605Y175218D01*
X346638Y175154D01*
X346674Y175093D01*
X346714Y175033D01*
X346756Y174976D01*
X346802Y174921D01*
X346850Y174868D01*
X346901Y174819D01*
X346955Y174772D01*
X347011Y174728D01*
X347070Y174687D01*
X347130Y174649D01*
X347193Y174614D01*
X347257Y174583D01*
X347323Y174555D01*
X347390Y174531D01*
X347458Y174510D01*
X347528Y174493D01*
X347598Y174480D01*
X347668Y174471D01*
X347740Y174465D01*
X347811Y174463D01*
X347811Y174464D02*
X349152Y174464D01*
X347543Y174464D02*
X346471Y172319D01*
X343730Y173660D02*
X343728Y173731D01*
X343722Y173803D01*
X343713Y173873D01*
X343700Y173943D01*
X343683Y174013D01*
X343662Y174081D01*
X343638Y174148D01*
X343610Y174214D01*
X343579Y174278D01*
X343544Y174341D01*
X343506Y174401D01*
X343465Y174460D01*
X343421Y174516D01*
X343374Y174570D01*
X343325Y174621D01*
X343272Y174669D01*
X343217Y174715D01*
X343160Y174757D01*
X343100Y174797D01*
X343039Y174833D01*
X342975Y174866D01*
X342910Y174895D01*
X342844Y174921D01*
X342776Y174944D01*
X342707Y174963D01*
X342637Y174978D01*
X342567Y174989D01*
X342496Y174997D01*
X342425Y175001D01*
X342353Y175001D01*
X342282Y174997D01*
X342211Y174989D01*
X342141Y174978D01*
X342071Y174963D01*
X342002Y174944D01*
X341934Y174921D01*
X341868Y174895D01*
X341803Y174866D01*
X341739Y174833D01*
X341678Y174797D01*
X341618Y174757D01*
X341561Y174715D01*
X341506Y174669D01*
X341453Y174621D01*
X341404Y174570D01*
X341357Y174516D01*
X341313Y174460D01*
X341272Y174401D01*
X341234Y174341D01*
X341199Y174278D01*
X341168Y174214D01*
X341140Y174148D01*
X341116Y174081D01*
X341095Y174013D01*
X341078Y173943D01*
X341065Y173873D01*
X341056Y173803D01*
X341050Y173731D01*
X341048Y173660D01*
X341050Y173589D01*
X341056Y173517D01*
X341065Y173447D01*
X341078Y173377D01*
X341095Y173307D01*
X341116Y173239D01*
X341140Y173172D01*
X341168Y173106D01*
X341199Y173042D01*
X341234Y172979D01*
X341272Y172919D01*
X341313Y172860D01*
X341357Y172804D01*
X341404Y172750D01*
X341453Y172699D01*
X341506Y172651D01*
X341561Y172605D01*
X341618Y172563D01*
X341678Y172523D01*
X341739Y172487D01*
X341803Y172454D01*
X341868Y172425D01*
X341934Y172399D01*
X342002Y172376D01*
X342071Y172357D01*
X342141Y172342D01*
X342211Y172331D01*
X342282Y172323D01*
X342353Y172319D01*
X342425Y172319D01*
X342496Y172323D01*
X342567Y172331D01*
X342637Y172342D01*
X342707Y172357D01*
X342776Y172376D01*
X342844Y172399D01*
X342910Y172425D01*
X342975Y172454D01*
X343039Y172487D01*
X343100Y172523D01*
X343160Y172563D01*
X343217Y172605D01*
X343272Y172651D01*
X343325Y172699D01*
X343374Y172750D01*
X343421Y172804D01*
X343465Y172860D01*
X343506Y172919D01*
X343544Y172979D01*
X343579Y173042D01*
X343610Y173106D01*
X343638Y173172D01*
X343662Y173239D01*
X343683Y173307D01*
X343700Y173377D01*
X343713Y173447D01*
X343722Y173517D01*
X343728Y173589D01*
X343730Y173660D01*
X343461Y176073D02*
X343459Y176138D01*
X343453Y176202D01*
X343443Y176266D01*
X343430Y176330D01*
X343412Y176392D01*
X343391Y176453D01*
X343367Y176513D01*
X343338Y176571D01*
X343306Y176628D01*
X343271Y176682D01*
X343233Y176734D01*
X343191Y176784D01*
X343147Y176831D01*
X343100Y176875D01*
X343050Y176917D01*
X342998Y176955D01*
X342944Y176990D01*
X342887Y177022D01*
X342829Y177051D01*
X342769Y177075D01*
X342708Y177096D01*
X342646Y177114D01*
X342582Y177127D01*
X342518Y177137D01*
X342454Y177143D01*
X342389Y177145D01*
X342324Y177143D01*
X342260Y177137D01*
X342196Y177127D01*
X342132Y177114D01*
X342070Y177096D01*
X342009Y177075D01*
X341949Y177051D01*
X341891Y177022D01*
X341834Y176990D01*
X341780Y176955D01*
X341728Y176917D01*
X341678Y176875D01*
X341631Y176831D01*
X341587Y176784D01*
X341545Y176734D01*
X341507Y176682D01*
X341472Y176628D01*
X341440Y176571D01*
X341411Y176513D01*
X341387Y176453D01*
X341366Y176392D01*
X341348Y176330D01*
X341335Y176266D01*
X341325Y176202D01*
X341319Y176138D01*
X341317Y176073D01*
X341319Y176008D01*
X341325Y175944D01*
X341335Y175880D01*
X341348Y175816D01*
X341366Y175754D01*
X341387Y175693D01*
X341411Y175633D01*
X341440Y175575D01*
X341472Y175518D01*
X341507Y175464D01*
X341545Y175412D01*
X341587Y175362D01*
X341631Y175315D01*
X341678Y175271D01*
X341728Y175229D01*
X341780Y175191D01*
X341834Y175156D01*
X341891Y175124D01*
X341949Y175095D01*
X342009Y175071D01*
X342070Y175050D01*
X342132Y175032D01*
X342196Y175019D01*
X342260Y175009D01*
X342324Y175003D01*
X342389Y175001D01*
X342454Y175003D01*
X342518Y175009D01*
X342582Y175019D01*
X342646Y175032D01*
X342708Y175050D01*
X342769Y175071D01*
X342829Y175095D01*
X342887Y175124D01*
X342944Y175156D01*
X342998Y175191D01*
X343050Y175229D01*
X343100Y175271D01*
X343147Y175315D01*
X343191Y175362D01*
X343233Y175412D01*
X343271Y175464D01*
X343306Y175518D01*
X343338Y175575D01*
X343367Y175633D01*
X343391Y175693D01*
X343412Y175754D01*
X343430Y175816D01*
X343443Y175880D01*
X343453Y175944D01*
X343459Y176008D01*
X343461Y176073D01*
M02*
