G04 EAGLE Gerber RS-274X export*
G75*
%MOMM*%
%FSLAX34Y34*%
%LPD*%
%INSilkscreen Top*%
%IPPOS*%
%AMOC8*
5,1,8,0,0,1.08239X$1,22.5*%
G01*
%ADD10C,0.330200*%
%ADD11C,0.127000*%
%ADD12C,0.203200*%
%ADD13C,0.200000*%
%ADD14C,0.101600*%
%ADD15R,0.200000X0.200000*%
%ADD16C,0.152400*%
%ADD17C,0.381000*%
%ADD18C,0.254000*%
%ADD19C,0.050800*%


D10*
X127961Y221651D02*
X119806Y221651D01*
X119609Y221653D01*
X119412Y221661D01*
X119215Y221672D01*
X119019Y221689D01*
X118823Y221710D01*
X118628Y221737D01*
X118433Y221767D01*
X118239Y221803D01*
X118046Y221843D01*
X117854Y221888D01*
X117664Y221937D01*
X117474Y221992D01*
X117286Y222050D01*
X117099Y222113D01*
X116914Y222181D01*
X116731Y222253D01*
X116549Y222330D01*
X116369Y222410D01*
X116192Y222496D01*
X116016Y222585D01*
X115843Y222679D01*
X115672Y222777D01*
X115503Y222879D01*
X115337Y222985D01*
X115173Y223095D01*
X115013Y223208D01*
X114855Y223326D01*
X114699Y223448D01*
X114547Y223573D01*
X114398Y223702D01*
X114252Y223834D01*
X114110Y223970D01*
X113970Y224110D01*
X113834Y224252D01*
X113702Y224398D01*
X113573Y224547D01*
X113448Y224699D01*
X113326Y224855D01*
X113208Y225013D01*
X113095Y225173D01*
X112985Y225337D01*
X112879Y225503D01*
X112777Y225672D01*
X112679Y225843D01*
X112585Y226016D01*
X112496Y226192D01*
X112410Y226369D01*
X112330Y226549D01*
X112253Y226731D01*
X112181Y226914D01*
X112113Y227099D01*
X112050Y227286D01*
X111992Y227474D01*
X111937Y227664D01*
X111888Y227854D01*
X111843Y228046D01*
X111803Y228239D01*
X111767Y228433D01*
X111737Y228628D01*
X111710Y228823D01*
X111689Y229019D01*
X111672Y229215D01*
X111661Y229412D01*
X111653Y229609D01*
X111651Y229806D01*
X111651Y250194D01*
X111653Y250394D01*
X111661Y250594D01*
X111673Y250794D01*
X111690Y250993D01*
X111712Y251192D01*
X111739Y251391D01*
X111771Y251588D01*
X111808Y251785D01*
X111849Y251981D01*
X111895Y252175D01*
X111946Y252369D01*
X112002Y252561D01*
X112063Y252752D01*
X112128Y252941D01*
X112197Y253129D01*
X112272Y253315D01*
X112351Y253499D01*
X112434Y253681D01*
X112522Y253861D01*
X112614Y254038D01*
X112710Y254214D01*
X112811Y254386D01*
X112916Y254557D01*
X113025Y254725D01*
X113139Y254890D01*
X113256Y255052D01*
X113377Y255211D01*
X113502Y255367D01*
X113631Y255521D01*
X113764Y255671D01*
X113900Y255817D01*
X114040Y255960D01*
X114183Y256100D01*
X114329Y256236D01*
X114479Y256369D01*
X114633Y256498D01*
X114789Y256623D01*
X114948Y256744D01*
X115110Y256861D01*
X115275Y256975D01*
X115443Y257084D01*
X115613Y257189D01*
X115786Y257290D01*
X115962Y257386D01*
X116139Y257478D01*
X116319Y257566D01*
X116501Y257649D01*
X116685Y257728D01*
X116871Y257803D01*
X117059Y257872D01*
X117248Y257937D01*
X117439Y257998D01*
X117631Y258054D01*
X117824Y258105D01*
X118019Y258151D01*
X118215Y258192D01*
X118412Y258229D01*
X118609Y258261D01*
X118808Y258288D01*
X119007Y258310D01*
X119206Y258327D01*
X119406Y258339D01*
X119606Y258347D01*
X119806Y258349D01*
X127961Y258349D01*
X136643Y248155D02*
X136643Y231845D01*
X136643Y248155D02*
X136646Y248403D01*
X136655Y248651D01*
X136670Y248899D01*
X136691Y249146D01*
X136718Y249393D01*
X136752Y249639D01*
X136791Y249884D01*
X136836Y250129D01*
X136887Y250371D01*
X136944Y250613D01*
X137007Y250853D01*
X137075Y251092D01*
X137150Y251329D01*
X137230Y251564D01*
X137316Y251797D01*
X137407Y252027D01*
X137504Y252256D01*
X137607Y252482D01*
X137715Y252705D01*
X137828Y252926D01*
X137947Y253144D01*
X138071Y253359D01*
X138201Y253571D01*
X138335Y253780D01*
X138475Y253985D01*
X138619Y254187D01*
X138768Y254385D01*
X138923Y254580D01*
X139081Y254771D01*
X139245Y254958D01*
X139413Y255141D01*
X139585Y255319D01*
X139762Y255494D01*
X139942Y255664D01*
X140127Y255829D01*
X140316Y255991D01*
X140509Y256147D01*
X140705Y256299D01*
X140906Y256446D01*
X141109Y256588D01*
X141316Y256725D01*
X141527Y256857D01*
X141740Y256983D01*
X141956Y257105D01*
X142176Y257221D01*
X142398Y257332D01*
X142623Y257437D01*
X142850Y257537D01*
X143080Y257631D01*
X143312Y257720D01*
X143546Y257803D01*
X143781Y257880D01*
X144019Y257952D01*
X144259Y258018D01*
X144500Y258077D01*
X144742Y258131D01*
X144985Y258179D01*
X145230Y258222D01*
X145476Y258258D01*
X145722Y258288D01*
X145969Y258312D01*
X146217Y258330D01*
X146465Y258342D01*
X146713Y258348D01*
X146961Y258348D01*
X147209Y258342D01*
X147457Y258330D01*
X147705Y258312D01*
X147952Y258288D01*
X148198Y258258D01*
X148444Y258222D01*
X148689Y258179D01*
X148932Y258131D01*
X149174Y258077D01*
X149415Y258018D01*
X149655Y257952D01*
X149893Y257880D01*
X150128Y257803D01*
X150362Y257720D01*
X150594Y257631D01*
X150824Y257537D01*
X151051Y257437D01*
X151276Y257332D01*
X151498Y257221D01*
X151718Y257105D01*
X151934Y256983D01*
X152147Y256857D01*
X152358Y256725D01*
X152565Y256588D01*
X152768Y256446D01*
X152969Y256299D01*
X153165Y256147D01*
X153358Y255991D01*
X153547Y255829D01*
X153732Y255664D01*
X153912Y255494D01*
X154089Y255319D01*
X154261Y255141D01*
X154429Y254958D01*
X154593Y254771D01*
X154751Y254580D01*
X154906Y254385D01*
X155055Y254187D01*
X155199Y253985D01*
X155339Y253780D01*
X155473Y253571D01*
X155603Y253359D01*
X155727Y253144D01*
X155846Y252926D01*
X155959Y252705D01*
X156067Y252482D01*
X156170Y252256D01*
X156267Y252027D01*
X156358Y251797D01*
X156444Y251564D01*
X156524Y251329D01*
X156599Y251092D01*
X156667Y250853D01*
X156730Y250613D01*
X156787Y250371D01*
X156838Y250129D01*
X156883Y249884D01*
X156922Y249639D01*
X156956Y249393D01*
X156983Y249146D01*
X157004Y248899D01*
X157019Y248651D01*
X157028Y248403D01*
X157031Y248155D01*
X157031Y231845D01*
X157028Y231597D01*
X157019Y231349D01*
X157004Y231101D01*
X156983Y230854D01*
X156956Y230607D01*
X156922Y230361D01*
X156883Y230116D01*
X156838Y229871D01*
X156787Y229629D01*
X156730Y229387D01*
X156667Y229147D01*
X156599Y228908D01*
X156524Y228671D01*
X156444Y228436D01*
X156358Y228203D01*
X156267Y227973D01*
X156170Y227744D01*
X156067Y227518D01*
X155959Y227295D01*
X155846Y227074D01*
X155727Y226856D01*
X155603Y226641D01*
X155473Y226429D01*
X155339Y226220D01*
X155199Y226015D01*
X155055Y225813D01*
X154906Y225615D01*
X154751Y225420D01*
X154593Y225229D01*
X154429Y225042D01*
X154261Y224859D01*
X154089Y224681D01*
X153912Y224506D01*
X153732Y224336D01*
X153547Y224171D01*
X153358Y224009D01*
X153165Y223853D01*
X152969Y223701D01*
X152768Y223554D01*
X152565Y223412D01*
X152358Y223275D01*
X152147Y223143D01*
X151934Y223017D01*
X151718Y222895D01*
X151498Y222779D01*
X151276Y222668D01*
X151051Y222563D01*
X150824Y222463D01*
X150594Y222369D01*
X150362Y222280D01*
X150128Y222197D01*
X149893Y222120D01*
X149655Y222048D01*
X149415Y221982D01*
X149174Y221923D01*
X148932Y221869D01*
X148689Y221821D01*
X148444Y221778D01*
X148198Y221742D01*
X147952Y221712D01*
X147705Y221688D01*
X147457Y221670D01*
X147209Y221658D01*
X146961Y221652D01*
X146713Y221652D01*
X146465Y221658D01*
X146217Y221670D01*
X145969Y221688D01*
X145722Y221712D01*
X145476Y221742D01*
X145230Y221778D01*
X144985Y221821D01*
X144742Y221869D01*
X144500Y221923D01*
X144259Y221982D01*
X144019Y222048D01*
X143781Y222120D01*
X143546Y222197D01*
X143312Y222280D01*
X143080Y222369D01*
X142850Y222463D01*
X142623Y222563D01*
X142398Y222668D01*
X142176Y222779D01*
X141956Y222895D01*
X141740Y223017D01*
X141527Y223143D01*
X141316Y223275D01*
X141109Y223412D01*
X140906Y223554D01*
X140705Y223701D01*
X140509Y223853D01*
X140316Y224009D01*
X140127Y224171D01*
X139942Y224336D01*
X139762Y224506D01*
X139585Y224681D01*
X139413Y224859D01*
X139245Y225042D01*
X139081Y225229D01*
X138923Y225420D01*
X138768Y225615D01*
X138619Y225813D01*
X138475Y226015D01*
X138335Y226220D01*
X138201Y226429D01*
X138071Y226641D01*
X137947Y226856D01*
X137828Y227074D01*
X137715Y227295D01*
X137607Y227518D01*
X137504Y227744D01*
X137407Y227973D01*
X137316Y228203D01*
X137230Y228436D01*
X137150Y228671D01*
X137075Y228908D01*
X137007Y229147D01*
X136944Y229387D01*
X136887Y229629D01*
X136836Y229871D01*
X136791Y230116D01*
X136752Y230361D01*
X136718Y230607D01*
X136691Y230854D01*
X136670Y231101D01*
X136655Y231349D01*
X136646Y231597D01*
X136643Y231845D01*
X167616Y221651D02*
X167616Y258349D01*
X177809Y258349D01*
X178057Y258346D01*
X178305Y258337D01*
X178553Y258322D01*
X178800Y258301D01*
X179047Y258274D01*
X179293Y258240D01*
X179538Y258201D01*
X179783Y258156D01*
X180025Y258105D01*
X180267Y258048D01*
X180507Y257985D01*
X180746Y257917D01*
X180983Y257842D01*
X181218Y257762D01*
X181451Y257676D01*
X181681Y257585D01*
X181910Y257488D01*
X182136Y257385D01*
X182359Y257277D01*
X182580Y257164D01*
X182798Y257045D01*
X183013Y256921D01*
X183225Y256791D01*
X183434Y256657D01*
X183639Y256517D01*
X183841Y256373D01*
X184039Y256224D01*
X184234Y256069D01*
X184425Y255911D01*
X184612Y255747D01*
X184795Y255579D01*
X184973Y255407D01*
X185148Y255230D01*
X185318Y255050D01*
X185483Y254865D01*
X185645Y254676D01*
X185801Y254483D01*
X185953Y254287D01*
X186100Y254086D01*
X186242Y253883D01*
X186379Y253676D01*
X186511Y253465D01*
X186637Y253252D01*
X186759Y253036D01*
X186875Y252816D01*
X186986Y252594D01*
X187091Y252369D01*
X187191Y252142D01*
X187285Y251912D01*
X187374Y251680D01*
X187457Y251446D01*
X187534Y251211D01*
X187606Y250973D01*
X187672Y250733D01*
X187731Y250492D01*
X187785Y250250D01*
X187833Y250007D01*
X187876Y249762D01*
X187912Y249516D01*
X187942Y249270D01*
X187966Y249023D01*
X187984Y248775D01*
X187996Y248527D01*
X188002Y248279D01*
X188002Y248031D01*
X187996Y247783D01*
X187984Y247535D01*
X187966Y247287D01*
X187942Y247040D01*
X187912Y246794D01*
X187876Y246548D01*
X187833Y246303D01*
X187785Y246060D01*
X187731Y245818D01*
X187672Y245577D01*
X187606Y245337D01*
X187534Y245099D01*
X187457Y244864D01*
X187374Y244630D01*
X187285Y244398D01*
X187191Y244168D01*
X187091Y243941D01*
X186986Y243716D01*
X186875Y243494D01*
X186759Y243274D01*
X186637Y243058D01*
X186511Y242845D01*
X186379Y242634D01*
X186242Y242427D01*
X186100Y242224D01*
X185953Y242023D01*
X185801Y241827D01*
X185645Y241634D01*
X185483Y241445D01*
X185318Y241260D01*
X185148Y241080D01*
X184973Y240903D01*
X184795Y240731D01*
X184612Y240563D01*
X184425Y240399D01*
X184234Y240241D01*
X184039Y240086D01*
X183841Y239937D01*
X183639Y239793D01*
X183434Y239653D01*
X183225Y239519D01*
X183013Y239389D01*
X182798Y239265D01*
X182580Y239146D01*
X182359Y239033D01*
X182136Y238925D01*
X181910Y238822D01*
X181681Y238725D01*
X181451Y238634D01*
X181218Y238548D01*
X180983Y238468D01*
X180746Y238393D01*
X180507Y238325D01*
X180267Y238262D01*
X180025Y238205D01*
X179783Y238154D01*
X179538Y238109D01*
X179293Y238070D01*
X179047Y238036D01*
X178800Y238009D01*
X178553Y237988D01*
X178305Y237973D01*
X178057Y237964D01*
X177809Y237961D01*
X167616Y237961D01*
X179848Y237961D02*
X188003Y221651D01*
X198630Y221651D02*
X214941Y221651D01*
X198630Y221651D02*
X198630Y258349D01*
X214941Y258349D01*
X210863Y242039D02*
X198630Y242039D01*
D11*
X257745Y147604D02*
X257745Y146532D01*
X257743Y146467D01*
X257737Y146403D01*
X257727Y146339D01*
X257714Y146275D01*
X257696Y146213D01*
X257675Y146152D01*
X257651Y146092D01*
X257622Y146034D01*
X257590Y145977D01*
X257555Y145923D01*
X257517Y145871D01*
X257475Y145821D01*
X257431Y145774D01*
X257384Y145730D01*
X257334Y145688D01*
X257282Y145650D01*
X257228Y145615D01*
X257171Y145583D01*
X257113Y145554D01*
X257053Y145530D01*
X256992Y145509D01*
X256930Y145491D01*
X256866Y145478D01*
X256802Y145468D01*
X256738Y145462D01*
X256673Y145460D01*
X256673Y145459D02*
X253991Y145459D01*
X253926Y145461D01*
X253862Y145467D01*
X253798Y145477D01*
X253734Y145490D01*
X253672Y145508D01*
X253611Y145529D01*
X253551Y145554D01*
X253492Y145582D01*
X253436Y145614D01*
X253381Y145649D01*
X253329Y145687D01*
X253279Y145729D01*
X253232Y145773D01*
X253188Y145820D01*
X253146Y145870D01*
X253108Y145922D01*
X253073Y145977D01*
X253041Y146033D01*
X253013Y146092D01*
X252988Y146151D01*
X252967Y146213D01*
X252949Y146275D01*
X252936Y146339D01*
X252926Y146403D01*
X252920Y146467D01*
X252918Y146532D01*
X252919Y146532D02*
X252919Y147604D01*
X253991Y150060D02*
X252919Y151400D01*
X257745Y151400D01*
X257745Y150060D02*
X257745Y152741D01*
X109504Y35419D02*
X108432Y35419D01*
X108367Y35421D01*
X108303Y35427D01*
X108239Y35437D01*
X108175Y35450D01*
X108113Y35468D01*
X108052Y35489D01*
X107992Y35513D01*
X107934Y35542D01*
X107877Y35574D01*
X107823Y35609D01*
X107771Y35647D01*
X107721Y35689D01*
X107674Y35733D01*
X107630Y35780D01*
X107588Y35830D01*
X107550Y35882D01*
X107515Y35936D01*
X107483Y35993D01*
X107454Y36051D01*
X107430Y36111D01*
X107409Y36172D01*
X107391Y36234D01*
X107378Y36298D01*
X107368Y36362D01*
X107362Y36426D01*
X107360Y36491D01*
X107359Y36491D02*
X107359Y39173D01*
X107360Y39173D02*
X107362Y39238D01*
X107368Y39302D01*
X107378Y39366D01*
X107391Y39430D01*
X107409Y39492D01*
X107430Y39553D01*
X107454Y39613D01*
X107483Y39671D01*
X107515Y39728D01*
X107550Y39782D01*
X107588Y39834D01*
X107630Y39884D01*
X107674Y39931D01*
X107721Y39975D01*
X107771Y40017D01*
X107823Y40055D01*
X107877Y40090D01*
X107934Y40122D01*
X107992Y40151D01*
X108052Y40175D01*
X108113Y40196D01*
X108175Y40214D01*
X108239Y40227D01*
X108303Y40237D01*
X108367Y40243D01*
X108432Y40245D01*
X109504Y40245D01*
X113434Y40245D02*
X113502Y40243D01*
X113569Y40237D01*
X113636Y40228D01*
X113703Y40215D01*
X113768Y40198D01*
X113833Y40177D01*
X113896Y40153D01*
X113958Y40125D01*
X114018Y40094D01*
X114076Y40060D01*
X114132Y40022D01*
X114187Y39982D01*
X114238Y39938D01*
X114287Y39891D01*
X114334Y39842D01*
X114378Y39791D01*
X114418Y39736D01*
X114456Y39680D01*
X114490Y39622D01*
X114521Y39562D01*
X114549Y39500D01*
X114573Y39437D01*
X114594Y39372D01*
X114611Y39307D01*
X114624Y39240D01*
X114633Y39173D01*
X114639Y39106D01*
X114641Y39038D01*
X113434Y40245D02*
X113356Y40243D01*
X113278Y40237D01*
X113201Y40227D01*
X113124Y40214D01*
X113048Y40196D01*
X112973Y40175D01*
X112899Y40150D01*
X112827Y40121D01*
X112756Y40089D01*
X112687Y40053D01*
X112619Y40014D01*
X112554Y39971D01*
X112491Y39925D01*
X112430Y39876D01*
X112372Y39824D01*
X112317Y39769D01*
X112264Y39712D01*
X112215Y39652D01*
X112168Y39589D01*
X112125Y39525D01*
X112085Y39458D01*
X112048Y39389D01*
X112015Y39318D01*
X111985Y39246D01*
X111959Y39173D01*
X114239Y38100D02*
X114288Y38149D01*
X114335Y38201D01*
X114378Y38256D01*
X114419Y38313D01*
X114457Y38372D01*
X114491Y38433D01*
X114522Y38496D01*
X114550Y38560D01*
X114574Y38626D01*
X114594Y38692D01*
X114611Y38760D01*
X114624Y38829D01*
X114633Y38898D01*
X114639Y38968D01*
X114641Y39038D01*
X114239Y38100D02*
X111960Y35419D01*
X114641Y35419D01*
X310245Y76332D02*
X310245Y77404D01*
X310245Y76332D02*
X310243Y76267D01*
X310237Y76203D01*
X310227Y76139D01*
X310214Y76075D01*
X310196Y76013D01*
X310175Y75952D01*
X310151Y75892D01*
X310122Y75834D01*
X310090Y75777D01*
X310055Y75723D01*
X310017Y75671D01*
X309975Y75621D01*
X309931Y75574D01*
X309884Y75530D01*
X309834Y75488D01*
X309782Y75450D01*
X309728Y75415D01*
X309671Y75383D01*
X309613Y75354D01*
X309553Y75330D01*
X309492Y75309D01*
X309430Y75291D01*
X309366Y75278D01*
X309302Y75268D01*
X309238Y75262D01*
X309173Y75260D01*
X309173Y75259D02*
X306491Y75259D01*
X306426Y75261D01*
X306362Y75267D01*
X306298Y75277D01*
X306234Y75290D01*
X306172Y75308D01*
X306111Y75329D01*
X306051Y75354D01*
X305992Y75382D01*
X305936Y75414D01*
X305881Y75449D01*
X305829Y75487D01*
X305779Y75529D01*
X305732Y75573D01*
X305688Y75620D01*
X305646Y75670D01*
X305608Y75722D01*
X305573Y75777D01*
X305541Y75833D01*
X305513Y75892D01*
X305488Y75951D01*
X305467Y76013D01*
X305449Y76075D01*
X305436Y76139D01*
X305426Y76203D01*
X305420Y76267D01*
X305418Y76332D01*
X305419Y76332D02*
X305419Y77404D01*
X310245Y79860D02*
X310245Y81200D01*
X310243Y81271D01*
X310237Y81343D01*
X310228Y81413D01*
X310215Y81483D01*
X310198Y81553D01*
X310177Y81621D01*
X310153Y81688D01*
X310125Y81754D01*
X310094Y81818D01*
X310059Y81881D01*
X310021Y81941D01*
X309980Y82000D01*
X309936Y82056D01*
X309889Y82110D01*
X309840Y82161D01*
X309787Y82209D01*
X309732Y82255D01*
X309675Y82297D01*
X309615Y82337D01*
X309554Y82373D01*
X309490Y82406D01*
X309425Y82435D01*
X309359Y82461D01*
X309291Y82484D01*
X309222Y82503D01*
X309152Y82518D01*
X309082Y82529D01*
X309011Y82537D01*
X308940Y82541D01*
X308868Y82541D01*
X308797Y82537D01*
X308726Y82529D01*
X308656Y82518D01*
X308586Y82503D01*
X308517Y82484D01*
X308449Y82461D01*
X308383Y82435D01*
X308318Y82406D01*
X308254Y82373D01*
X308193Y82337D01*
X308133Y82297D01*
X308076Y82255D01*
X308021Y82209D01*
X307968Y82161D01*
X307919Y82110D01*
X307872Y82056D01*
X307828Y82000D01*
X307787Y81941D01*
X307749Y81881D01*
X307714Y81818D01*
X307683Y81754D01*
X307655Y81688D01*
X307631Y81621D01*
X307610Y81553D01*
X307593Y81483D01*
X307580Y81413D01*
X307571Y81343D01*
X307565Y81271D01*
X307563Y81200D01*
X305419Y81468D02*
X305419Y79860D01*
X305419Y81468D02*
X305421Y81533D01*
X305427Y81597D01*
X305437Y81661D01*
X305450Y81725D01*
X305468Y81787D01*
X305489Y81848D01*
X305513Y81908D01*
X305542Y81966D01*
X305574Y82023D01*
X305609Y82077D01*
X305647Y82129D01*
X305689Y82179D01*
X305733Y82226D01*
X305780Y82270D01*
X305830Y82312D01*
X305882Y82350D01*
X305936Y82385D01*
X305993Y82417D01*
X306051Y82446D01*
X306111Y82470D01*
X306172Y82491D01*
X306234Y82509D01*
X306298Y82522D01*
X306362Y82532D01*
X306426Y82538D01*
X306491Y82540D01*
X306556Y82538D01*
X306620Y82532D01*
X306684Y82522D01*
X306748Y82509D01*
X306810Y82491D01*
X306871Y82470D01*
X306931Y82446D01*
X306989Y82417D01*
X307046Y82385D01*
X307100Y82350D01*
X307152Y82312D01*
X307202Y82270D01*
X307249Y82226D01*
X307293Y82179D01*
X307335Y82129D01*
X307373Y82077D01*
X307408Y82023D01*
X307440Y81966D01*
X307469Y81908D01*
X307493Y81848D01*
X307514Y81787D01*
X307532Y81725D01*
X307545Y81661D01*
X307555Y81597D01*
X307561Y81533D01*
X307563Y81468D01*
X307564Y81468D02*
X307564Y80396D01*
X60704Y130419D02*
X59632Y130419D01*
X59567Y130421D01*
X59503Y130427D01*
X59439Y130437D01*
X59375Y130450D01*
X59313Y130468D01*
X59252Y130489D01*
X59192Y130513D01*
X59134Y130542D01*
X59077Y130574D01*
X59023Y130609D01*
X58971Y130647D01*
X58921Y130689D01*
X58874Y130733D01*
X58830Y130780D01*
X58788Y130830D01*
X58750Y130882D01*
X58715Y130936D01*
X58683Y130993D01*
X58654Y131051D01*
X58630Y131111D01*
X58609Y131172D01*
X58591Y131234D01*
X58578Y131298D01*
X58568Y131362D01*
X58562Y131426D01*
X58560Y131491D01*
X58559Y131491D02*
X58559Y134173D01*
X58560Y134173D02*
X58562Y134238D01*
X58568Y134302D01*
X58578Y134366D01*
X58591Y134430D01*
X58609Y134492D01*
X58630Y134553D01*
X58654Y134613D01*
X58683Y134671D01*
X58715Y134728D01*
X58750Y134782D01*
X58788Y134834D01*
X58830Y134884D01*
X58874Y134931D01*
X58921Y134975D01*
X58971Y135017D01*
X59023Y135055D01*
X59077Y135090D01*
X59134Y135122D01*
X59192Y135151D01*
X59252Y135175D01*
X59313Y135196D01*
X59375Y135214D01*
X59439Y135227D01*
X59503Y135237D01*
X59567Y135243D01*
X59632Y135245D01*
X60704Y135245D01*
X64232Y135245D02*
X63160Y131491D01*
X65841Y131491D01*
X65037Y132564D02*
X65037Y130419D01*
X38804Y281719D02*
X37732Y281719D01*
X37667Y281721D01*
X37603Y281727D01*
X37539Y281737D01*
X37475Y281750D01*
X37413Y281768D01*
X37352Y281789D01*
X37292Y281813D01*
X37234Y281842D01*
X37177Y281874D01*
X37123Y281909D01*
X37071Y281947D01*
X37021Y281989D01*
X36974Y282033D01*
X36930Y282080D01*
X36888Y282130D01*
X36850Y282182D01*
X36815Y282236D01*
X36783Y282293D01*
X36754Y282351D01*
X36730Y282411D01*
X36709Y282472D01*
X36691Y282534D01*
X36678Y282598D01*
X36668Y282662D01*
X36662Y282726D01*
X36660Y282791D01*
X36659Y282791D02*
X36659Y285473D01*
X36660Y285473D02*
X36662Y285538D01*
X36668Y285602D01*
X36678Y285666D01*
X36691Y285730D01*
X36709Y285792D01*
X36730Y285853D01*
X36754Y285913D01*
X36783Y285971D01*
X36815Y286028D01*
X36850Y286082D01*
X36888Y286134D01*
X36930Y286184D01*
X36974Y286231D01*
X37021Y286275D01*
X37071Y286317D01*
X37123Y286355D01*
X37177Y286390D01*
X37234Y286422D01*
X37292Y286451D01*
X37352Y286475D01*
X37413Y286496D01*
X37475Y286514D01*
X37539Y286527D01*
X37603Y286537D01*
X37667Y286543D01*
X37732Y286545D01*
X38804Y286545D01*
X41260Y281719D02*
X42868Y281719D01*
X42933Y281721D01*
X42997Y281727D01*
X43061Y281737D01*
X43125Y281750D01*
X43187Y281768D01*
X43248Y281789D01*
X43308Y281813D01*
X43366Y281842D01*
X43423Y281874D01*
X43477Y281909D01*
X43529Y281947D01*
X43579Y281989D01*
X43626Y282033D01*
X43670Y282080D01*
X43712Y282130D01*
X43750Y282182D01*
X43785Y282236D01*
X43817Y282293D01*
X43846Y282351D01*
X43870Y282411D01*
X43891Y282472D01*
X43909Y282534D01*
X43922Y282598D01*
X43932Y282662D01*
X43938Y282726D01*
X43940Y282791D01*
X43941Y282791D02*
X43941Y283328D01*
X43940Y283328D02*
X43938Y283393D01*
X43932Y283457D01*
X43922Y283521D01*
X43909Y283585D01*
X43891Y283647D01*
X43870Y283708D01*
X43846Y283768D01*
X43817Y283826D01*
X43785Y283883D01*
X43750Y283937D01*
X43712Y283989D01*
X43670Y284039D01*
X43626Y284086D01*
X43579Y284130D01*
X43529Y284172D01*
X43477Y284210D01*
X43423Y284245D01*
X43366Y284277D01*
X43308Y284306D01*
X43248Y284330D01*
X43187Y284351D01*
X43125Y284369D01*
X43061Y284382D01*
X42997Y284392D01*
X42933Y284398D01*
X42868Y284400D01*
X41260Y284400D01*
X41260Y286545D01*
X43941Y286545D01*
X28281Y300832D02*
X28281Y301904D01*
X28281Y300832D02*
X28279Y300767D01*
X28273Y300703D01*
X28263Y300639D01*
X28250Y300575D01*
X28232Y300513D01*
X28211Y300452D01*
X28187Y300392D01*
X28158Y300334D01*
X28126Y300277D01*
X28091Y300223D01*
X28053Y300171D01*
X28011Y300121D01*
X27967Y300074D01*
X27920Y300030D01*
X27870Y299988D01*
X27818Y299950D01*
X27764Y299915D01*
X27707Y299883D01*
X27649Y299854D01*
X27589Y299830D01*
X27528Y299809D01*
X27466Y299791D01*
X27402Y299778D01*
X27338Y299768D01*
X27274Y299762D01*
X27209Y299760D01*
X27209Y299759D02*
X24527Y299759D01*
X24462Y299761D01*
X24398Y299767D01*
X24334Y299777D01*
X24270Y299790D01*
X24208Y299808D01*
X24147Y299829D01*
X24087Y299854D01*
X24028Y299882D01*
X23972Y299914D01*
X23917Y299949D01*
X23865Y299987D01*
X23815Y300029D01*
X23768Y300073D01*
X23724Y300120D01*
X23682Y300170D01*
X23644Y300222D01*
X23609Y300277D01*
X23577Y300333D01*
X23549Y300392D01*
X23524Y300451D01*
X23503Y300513D01*
X23485Y300575D01*
X23472Y300639D01*
X23462Y300703D01*
X23456Y300767D01*
X23454Y300832D01*
X23455Y300832D02*
X23455Y301904D01*
X25600Y304360D02*
X25600Y305968D01*
X25602Y306033D01*
X25608Y306097D01*
X25618Y306161D01*
X25631Y306225D01*
X25649Y306287D01*
X25670Y306348D01*
X25694Y306408D01*
X25723Y306466D01*
X25755Y306523D01*
X25790Y306577D01*
X25828Y306629D01*
X25870Y306679D01*
X25914Y306726D01*
X25961Y306770D01*
X26011Y306812D01*
X26063Y306850D01*
X26117Y306885D01*
X26174Y306917D01*
X26232Y306946D01*
X26292Y306970D01*
X26353Y306991D01*
X26415Y307009D01*
X26479Y307022D01*
X26543Y307032D01*
X26607Y307038D01*
X26672Y307040D01*
X26672Y307041D02*
X26940Y307041D01*
X27011Y307039D01*
X27083Y307033D01*
X27153Y307024D01*
X27223Y307011D01*
X27293Y306994D01*
X27361Y306973D01*
X27428Y306949D01*
X27494Y306921D01*
X27558Y306890D01*
X27621Y306855D01*
X27681Y306817D01*
X27740Y306776D01*
X27796Y306732D01*
X27850Y306685D01*
X27901Y306636D01*
X27949Y306583D01*
X27995Y306528D01*
X28037Y306471D01*
X28077Y306411D01*
X28113Y306350D01*
X28146Y306286D01*
X28175Y306221D01*
X28201Y306155D01*
X28224Y306087D01*
X28243Y306018D01*
X28258Y305948D01*
X28269Y305878D01*
X28277Y305807D01*
X28281Y305736D01*
X28281Y305664D01*
X28277Y305593D01*
X28269Y305522D01*
X28258Y305452D01*
X28243Y305382D01*
X28224Y305313D01*
X28201Y305245D01*
X28175Y305179D01*
X28146Y305114D01*
X28113Y305050D01*
X28077Y304989D01*
X28037Y304929D01*
X27995Y304872D01*
X27949Y304817D01*
X27901Y304764D01*
X27850Y304715D01*
X27796Y304668D01*
X27740Y304624D01*
X27681Y304583D01*
X27621Y304545D01*
X27558Y304510D01*
X27494Y304479D01*
X27428Y304451D01*
X27361Y304427D01*
X27293Y304406D01*
X27223Y304389D01*
X27153Y304376D01*
X27083Y304367D01*
X27011Y304361D01*
X26940Y304359D01*
X26940Y304360D02*
X25600Y304360D01*
X25509Y304362D01*
X25418Y304368D01*
X25328Y304377D01*
X25237Y304391D01*
X25148Y304408D01*
X25060Y304429D01*
X24972Y304454D01*
X24885Y304483D01*
X24800Y304515D01*
X24716Y304550D01*
X24634Y304590D01*
X24554Y304632D01*
X24475Y304678D01*
X24399Y304728D01*
X24325Y304780D01*
X24252Y304836D01*
X24183Y304895D01*
X24116Y304956D01*
X24051Y305021D01*
X23990Y305088D01*
X23931Y305157D01*
X23875Y305229D01*
X23823Y305304D01*
X23773Y305380D01*
X23727Y305459D01*
X23685Y305539D01*
X23645Y305621D01*
X23610Y305705D01*
X23578Y305790D01*
X23549Y305877D01*
X23524Y305964D01*
X23503Y306053D01*
X23486Y306142D01*
X23472Y306232D01*
X23463Y306323D01*
X23457Y306414D01*
X23455Y306505D01*
D12*
X154050Y291900D02*
X166750Y291900D01*
X154050Y291900D02*
X147700Y298250D01*
X147700Y310950D02*
X154050Y317300D01*
X192150Y291900D02*
X198500Y298250D01*
X192150Y291900D02*
X179450Y291900D01*
X173100Y298250D01*
X173100Y310950D02*
X179450Y317300D01*
X192150Y317300D01*
X198500Y310950D01*
X173100Y298250D02*
X166750Y291900D01*
X173100Y310950D02*
X166750Y317300D01*
X154050Y317300D01*
X230250Y291900D02*
X242950Y291900D01*
X230250Y291900D02*
X223900Y298250D01*
X223900Y310950D02*
X230250Y317300D01*
X223900Y298250D02*
X217550Y291900D01*
X204850Y291900D01*
X198500Y298250D01*
X198500Y310950D02*
X204850Y317300D01*
X217550Y317300D01*
X223900Y310950D01*
X249300Y310950D02*
X249300Y298250D01*
X242950Y291900D01*
X249300Y310950D02*
X242950Y317300D01*
X230250Y317300D01*
X147700Y310950D02*
X147700Y298250D01*
D11*
X223863Y281747D02*
X226403Y281747D01*
X223863Y281747D02*
X223763Y281749D01*
X223664Y281755D01*
X223564Y281765D01*
X223466Y281778D01*
X223367Y281796D01*
X223270Y281817D01*
X223174Y281842D01*
X223078Y281871D01*
X222984Y281904D01*
X222891Y281940D01*
X222800Y281980D01*
X222710Y282024D01*
X222622Y282071D01*
X222536Y282121D01*
X222452Y282175D01*
X222370Y282232D01*
X222291Y282292D01*
X222213Y282356D01*
X222139Y282422D01*
X222067Y282491D01*
X221998Y282563D01*
X221932Y282637D01*
X221868Y282715D01*
X221808Y282794D01*
X221751Y282876D01*
X221697Y282960D01*
X221647Y283046D01*
X221600Y283134D01*
X221556Y283224D01*
X221516Y283315D01*
X221480Y283408D01*
X221447Y283502D01*
X221418Y283598D01*
X221393Y283694D01*
X221372Y283791D01*
X221354Y283890D01*
X221341Y283988D01*
X221331Y284088D01*
X221325Y284187D01*
X221323Y284287D01*
X221323Y290637D01*
X221325Y290737D01*
X221331Y290836D01*
X221341Y290936D01*
X221354Y291034D01*
X221372Y291133D01*
X221393Y291230D01*
X221418Y291326D01*
X221447Y291422D01*
X221480Y291516D01*
X221516Y291609D01*
X221556Y291700D01*
X221600Y291790D01*
X221647Y291878D01*
X221697Y291964D01*
X221751Y292048D01*
X221808Y292130D01*
X221868Y292209D01*
X221932Y292287D01*
X221998Y292361D01*
X222067Y292433D01*
X222139Y292502D01*
X222213Y292568D01*
X222291Y292632D01*
X222370Y292692D01*
X222452Y292749D01*
X222536Y292803D01*
X222622Y292853D01*
X222710Y292900D01*
X222800Y292944D01*
X222891Y292984D01*
X222984Y293020D01*
X223078Y293053D01*
X223174Y293082D01*
X223270Y293107D01*
X223367Y293128D01*
X223466Y293146D01*
X223564Y293159D01*
X223664Y293169D01*
X223763Y293175D01*
X223863Y293177D01*
X226403Y293177D01*
X231266Y293177D02*
X231266Y281747D01*
X237616Y281747D02*
X231266Y293177D01*
X237616Y293177D02*
X237616Y281747D01*
X246570Y293178D02*
X246674Y293176D01*
X246779Y293170D01*
X246883Y293161D01*
X246986Y293148D01*
X247089Y293130D01*
X247191Y293110D01*
X247293Y293085D01*
X247393Y293057D01*
X247493Y293025D01*
X247591Y292989D01*
X247688Y292950D01*
X247783Y292908D01*
X247877Y292862D01*
X247969Y292812D01*
X248059Y292760D01*
X248147Y292704D01*
X248233Y292644D01*
X248317Y292582D01*
X248398Y292517D01*
X248477Y292449D01*
X248554Y292377D01*
X248627Y292304D01*
X248699Y292227D01*
X248767Y292148D01*
X248832Y292067D01*
X248894Y291983D01*
X248954Y291897D01*
X249010Y291809D01*
X249062Y291719D01*
X249112Y291627D01*
X249158Y291533D01*
X249200Y291438D01*
X249239Y291341D01*
X249275Y291243D01*
X249307Y291143D01*
X249335Y291043D01*
X249360Y290941D01*
X249380Y290839D01*
X249398Y290736D01*
X249411Y290633D01*
X249420Y290529D01*
X249426Y290424D01*
X249428Y290320D01*
X246570Y293177D02*
X246452Y293175D01*
X246333Y293169D01*
X246215Y293160D01*
X246098Y293147D01*
X245981Y293129D01*
X245864Y293109D01*
X245748Y293084D01*
X245633Y293056D01*
X245520Y293023D01*
X245407Y292988D01*
X245295Y292948D01*
X245185Y292906D01*
X245076Y292859D01*
X244968Y292809D01*
X244863Y292756D01*
X244759Y292699D01*
X244657Y292639D01*
X244557Y292576D01*
X244459Y292509D01*
X244363Y292440D01*
X244270Y292367D01*
X244179Y292291D01*
X244090Y292213D01*
X244004Y292131D01*
X243921Y292047D01*
X243840Y291961D01*
X243763Y291871D01*
X243688Y291780D01*
X243616Y291686D01*
X243547Y291589D01*
X243482Y291491D01*
X243419Y291390D01*
X243360Y291287D01*
X243304Y291183D01*
X243252Y291077D01*
X243203Y290969D01*
X243158Y290860D01*
X243116Y290749D01*
X243078Y290637D01*
X248475Y288098D02*
X248551Y288173D01*
X248626Y288252D01*
X248697Y288333D01*
X248766Y288417D01*
X248831Y288503D01*
X248893Y288591D01*
X248953Y288681D01*
X249009Y288773D01*
X249062Y288868D01*
X249111Y288964D01*
X249157Y289062D01*
X249200Y289161D01*
X249239Y289262D01*
X249274Y289364D01*
X249306Y289467D01*
X249334Y289571D01*
X249359Y289676D01*
X249380Y289783D01*
X249397Y289889D01*
X249410Y289996D01*
X249419Y290104D01*
X249425Y290212D01*
X249427Y290320D01*
X248475Y288097D02*
X243077Y281747D01*
X249427Y281747D01*
D12*
X49275Y227963D02*
X49275Y218438D01*
D11*
X29225Y230185D02*
X29225Y235011D01*
X30565Y235011D01*
X30635Y235009D01*
X30705Y235004D01*
X30775Y234994D01*
X30844Y234982D01*
X30912Y234965D01*
X30979Y234945D01*
X31046Y234922D01*
X31110Y234895D01*
X31174Y234865D01*
X31236Y234831D01*
X31295Y234795D01*
X31353Y234755D01*
X31409Y234712D01*
X31462Y234667D01*
X31513Y234618D01*
X31562Y234567D01*
X31607Y234514D01*
X31650Y234458D01*
X31690Y234400D01*
X31726Y234341D01*
X31760Y234279D01*
X31790Y234215D01*
X31817Y234151D01*
X31840Y234084D01*
X31860Y234017D01*
X31877Y233949D01*
X31889Y233880D01*
X31899Y233810D01*
X31904Y233740D01*
X31906Y233670D01*
X31906Y231526D01*
X31904Y231456D01*
X31899Y231386D01*
X31889Y231316D01*
X31877Y231247D01*
X31860Y231179D01*
X31840Y231112D01*
X31817Y231045D01*
X31790Y230981D01*
X31760Y230917D01*
X31726Y230855D01*
X31690Y230796D01*
X31650Y230738D01*
X31607Y230682D01*
X31562Y230629D01*
X31513Y230578D01*
X31462Y230529D01*
X31409Y230484D01*
X31353Y230441D01*
X31295Y230401D01*
X31235Y230365D01*
X31174Y230331D01*
X31110Y230301D01*
X31046Y230274D01*
X30979Y230251D01*
X30912Y230231D01*
X30844Y230214D01*
X30775Y230202D01*
X30705Y230192D01*
X30635Y230187D01*
X30565Y230185D01*
X29225Y230185D01*
X34894Y233939D02*
X36235Y235011D01*
X36235Y230185D01*
X37575Y230185D02*
X34894Y230185D01*
D12*
X279025Y309438D02*
X279025Y318963D01*
D11*
X290725Y307215D02*
X290725Y302389D01*
X290725Y307215D02*
X292065Y307215D01*
X292135Y307213D01*
X292205Y307208D01*
X292275Y307198D01*
X292344Y307186D01*
X292412Y307169D01*
X292479Y307149D01*
X292546Y307126D01*
X292610Y307099D01*
X292674Y307069D01*
X292736Y307035D01*
X292795Y306999D01*
X292853Y306959D01*
X292909Y306916D01*
X292962Y306871D01*
X293013Y306822D01*
X293062Y306771D01*
X293107Y306718D01*
X293150Y306662D01*
X293190Y306604D01*
X293226Y306545D01*
X293260Y306483D01*
X293290Y306419D01*
X293317Y306355D01*
X293340Y306288D01*
X293360Y306221D01*
X293377Y306153D01*
X293389Y306084D01*
X293399Y306014D01*
X293404Y305944D01*
X293406Y305874D01*
X293406Y303730D01*
X293404Y303660D01*
X293399Y303590D01*
X293389Y303520D01*
X293377Y303451D01*
X293360Y303383D01*
X293340Y303316D01*
X293317Y303249D01*
X293290Y303185D01*
X293260Y303121D01*
X293226Y303059D01*
X293190Y303000D01*
X293150Y302942D01*
X293107Y302886D01*
X293062Y302833D01*
X293013Y302782D01*
X292962Y302733D01*
X292909Y302688D01*
X292853Y302645D01*
X292795Y302605D01*
X292735Y302569D01*
X292674Y302535D01*
X292610Y302505D01*
X292546Y302478D01*
X292479Y302455D01*
X292412Y302435D01*
X292344Y302418D01*
X292275Y302406D01*
X292205Y302396D01*
X292135Y302391D01*
X292065Y302389D01*
X290725Y302389D01*
X297869Y307215D02*
X297937Y307213D01*
X298004Y307207D01*
X298071Y307198D01*
X298138Y307185D01*
X298203Y307168D01*
X298268Y307147D01*
X298331Y307123D01*
X298393Y307095D01*
X298453Y307064D01*
X298511Y307030D01*
X298567Y306992D01*
X298622Y306952D01*
X298673Y306908D01*
X298722Y306861D01*
X298769Y306812D01*
X298813Y306761D01*
X298853Y306706D01*
X298891Y306650D01*
X298925Y306592D01*
X298956Y306532D01*
X298984Y306470D01*
X299008Y306407D01*
X299029Y306342D01*
X299046Y306277D01*
X299059Y306210D01*
X299068Y306143D01*
X299074Y306076D01*
X299076Y306008D01*
X297869Y307215D02*
X297791Y307213D01*
X297713Y307207D01*
X297636Y307197D01*
X297559Y307184D01*
X297483Y307166D01*
X297408Y307145D01*
X297334Y307120D01*
X297262Y307091D01*
X297191Y307059D01*
X297122Y307023D01*
X297054Y306984D01*
X296989Y306941D01*
X296926Y306895D01*
X296865Y306846D01*
X296807Y306794D01*
X296752Y306739D01*
X296699Y306682D01*
X296650Y306622D01*
X296603Y306559D01*
X296560Y306495D01*
X296520Y306428D01*
X296483Y306359D01*
X296450Y306288D01*
X296420Y306216D01*
X296394Y306143D01*
X298673Y305070D02*
X298722Y305119D01*
X298769Y305171D01*
X298812Y305226D01*
X298853Y305283D01*
X298891Y305342D01*
X298925Y305403D01*
X298956Y305466D01*
X298984Y305530D01*
X299008Y305596D01*
X299028Y305662D01*
X299045Y305730D01*
X299058Y305799D01*
X299067Y305868D01*
X299073Y305938D01*
X299075Y306008D01*
X298673Y305070D02*
X296394Y302389D01*
X299075Y302389D01*
D13*
X72800Y321000D02*
X60800Y321000D01*
X72800Y321000D02*
X72800Y292000D01*
X60800Y292000D01*
X60800Y321000D01*
X57300Y321500D02*
X48300Y321500D01*
D14*
X62658Y291492D02*
X74342Y291492D01*
X74342Y290194D02*
X74342Y292790D01*
X62658Y292790D02*
X62658Y290194D01*
X74342Y299954D02*
X74342Y302550D01*
X74342Y299954D02*
X74340Y299855D01*
X74334Y299755D01*
X74325Y299656D01*
X74312Y299558D01*
X74295Y299460D01*
X74274Y299362D01*
X74249Y299266D01*
X74221Y299171D01*
X74189Y299077D01*
X74154Y298984D01*
X74115Y298892D01*
X74072Y298802D01*
X74027Y298714D01*
X73977Y298627D01*
X73925Y298543D01*
X73869Y298460D01*
X73811Y298380D01*
X73749Y298302D01*
X73684Y298227D01*
X73616Y298154D01*
X73546Y298084D01*
X73473Y298016D01*
X73398Y297951D01*
X73320Y297889D01*
X73240Y297831D01*
X73157Y297775D01*
X73073Y297723D01*
X72986Y297673D01*
X72898Y297628D01*
X72808Y297585D01*
X72716Y297546D01*
X72623Y297511D01*
X72529Y297479D01*
X72434Y297451D01*
X72338Y297426D01*
X72240Y297405D01*
X72142Y297388D01*
X72044Y297375D01*
X71945Y297366D01*
X71845Y297360D01*
X71746Y297358D01*
X71746Y297357D02*
X65254Y297357D01*
X65155Y297359D01*
X65055Y297365D01*
X64956Y297374D01*
X64858Y297387D01*
X64760Y297405D01*
X64662Y297425D01*
X64566Y297450D01*
X64470Y297478D01*
X64376Y297510D01*
X64283Y297545D01*
X64192Y297584D01*
X64102Y297627D01*
X64013Y297672D01*
X63927Y297722D01*
X63842Y297774D01*
X63760Y297830D01*
X63680Y297889D01*
X63602Y297950D01*
X63526Y298015D01*
X63453Y298083D01*
X63383Y298153D01*
X63315Y298226D01*
X63250Y298302D01*
X63189Y298380D01*
X63130Y298460D01*
X63074Y298542D01*
X63022Y298627D01*
X62973Y298713D01*
X62927Y298802D01*
X62884Y298892D01*
X62845Y298983D01*
X62810Y299076D01*
X62778Y299170D01*
X62750Y299266D01*
X62725Y299362D01*
X62705Y299460D01*
X62687Y299558D01*
X62674Y299656D01*
X62665Y299755D01*
X62659Y299854D01*
X62657Y299954D01*
X62658Y299954D02*
X62658Y302550D01*
X74342Y306915D02*
X74342Y310161D01*
X74340Y310274D01*
X74334Y310387D01*
X74324Y310500D01*
X74310Y310613D01*
X74293Y310725D01*
X74271Y310836D01*
X74246Y310946D01*
X74216Y311056D01*
X74183Y311164D01*
X74146Y311271D01*
X74106Y311377D01*
X74061Y311481D01*
X74013Y311584D01*
X73962Y311685D01*
X73907Y311784D01*
X73849Y311881D01*
X73787Y311976D01*
X73722Y312069D01*
X73654Y312159D01*
X73583Y312247D01*
X73508Y312333D01*
X73431Y312416D01*
X73351Y312496D01*
X73268Y312573D01*
X73182Y312648D01*
X73094Y312719D01*
X73004Y312787D01*
X72911Y312852D01*
X72816Y312914D01*
X72719Y312972D01*
X72620Y313027D01*
X72519Y313078D01*
X72416Y313126D01*
X72312Y313171D01*
X72206Y313211D01*
X72099Y313248D01*
X71991Y313281D01*
X71881Y313311D01*
X71771Y313336D01*
X71660Y313358D01*
X71548Y313375D01*
X71435Y313389D01*
X71322Y313399D01*
X71209Y313405D01*
X71096Y313407D01*
X70983Y313405D01*
X70870Y313399D01*
X70757Y313389D01*
X70644Y313375D01*
X70532Y313358D01*
X70421Y313336D01*
X70311Y313311D01*
X70201Y313281D01*
X70093Y313248D01*
X69986Y313211D01*
X69880Y313171D01*
X69776Y313126D01*
X69673Y313078D01*
X69572Y313027D01*
X69473Y312972D01*
X69376Y312914D01*
X69281Y312852D01*
X69188Y312787D01*
X69098Y312719D01*
X69010Y312648D01*
X68924Y312573D01*
X68841Y312496D01*
X68761Y312416D01*
X68684Y312333D01*
X68609Y312247D01*
X68538Y312159D01*
X68470Y312069D01*
X68405Y311976D01*
X68343Y311881D01*
X68285Y311784D01*
X68230Y311685D01*
X68179Y311584D01*
X68131Y311481D01*
X68086Y311377D01*
X68046Y311271D01*
X68009Y311164D01*
X67976Y311056D01*
X67946Y310946D01*
X67921Y310836D01*
X67899Y310725D01*
X67882Y310613D01*
X67868Y310500D01*
X67858Y310387D01*
X67852Y310274D01*
X67850Y310161D01*
X62658Y310810D02*
X62658Y306915D01*
X62658Y310810D02*
X62660Y310911D01*
X62666Y311011D01*
X62676Y311111D01*
X62689Y311211D01*
X62707Y311310D01*
X62728Y311409D01*
X62753Y311506D01*
X62782Y311603D01*
X62815Y311698D01*
X62851Y311792D01*
X62891Y311884D01*
X62934Y311975D01*
X62981Y312064D01*
X63031Y312151D01*
X63085Y312237D01*
X63142Y312320D01*
X63202Y312400D01*
X63265Y312479D01*
X63332Y312555D01*
X63401Y312628D01*
X63473Y312698D01*
X63547Y312766D01*
X63624Y312831D01*
X63704Y312892D01*
X63786Y312951D01*
X63870Y313006D01*
X63956Y313058D01*
X64044Y313107D01*
X64134Y313152D01*
X64226Y313194D01*
X64319Y313232D01*
X64414Y313266D01*
X64509Y313297D01*
X64606Y313324D01*
X64704Y313347D01*
X64803Y313367D01*
X64903Y313382D01*
X65003Y313394D01*
X65103Y313402D01*
X65204Y313406D01*
X65304Y313406D01*
X65405Y313402D01*
X65505Y313394D01*
X65605Y313382D01*
X65705Y313367D01*
X65804Y313347D01*
X65902Y313324D01*
X65999Y313297D01*
X66094Y313266D01*
X66189Y313232D01*
X66282Y313194D01*
X66374Y313152D01*
X66464Y313107D01*
X66552Y313058D01*
X66638Y313006D01*
X66722Y312951D01*
X66804Y312892D01*
X66884Y312831D01*
X66961Y312766D01*
X67035Y312698D01*
X67107Y312628D01*
X67176Y312555D01*
X67243Y312479D01*
X67306Y312400D01*
X67366Y312320D01*
X67423Y312237D01*
X67477Y312151D01*
X67527Y312064D01*
X67574Y311975D01*
X67617Y311884D01*
X67657Y311792D01*
X67693Y311698D01*
X67726Y311603D01*
X67755Y311506D01*
X67780Y311409D01*
X67801Y311310D01*
X67819Y311211D01*
X67832Y311111D01*
X67842Y311011D01*
X67848Y310911D01*
X67850Y310810D01*
X67851Y310810D02*
X67851Y308214D01*
D15*
X248700Y24100D03*
D14*
X233008Y34808D02*
X233008Y46492D01*
X233008Y34808D02*
X238201Y34808D01*
X242914Y34808D02*
X248107Y34808D01*
X242914Y34808D02*
X242914Y46492D01*
X248107Y46492D01*
X246809Y41299D02*
X242914Y41299D01*
X252797Y46492D02*
X252797Y34808D01*
X252797Y46492D02*
X256043Y46492D01*
X256156Y46490D01*
X256269Y46484D01*
X256382Y46474D01*
X256495Y46460D01*
X256607Y46443D01*
X256718Y46421D01*
X256828Y46396D01*
X256938Y46366D01*
X257046Y46333D01*
X257153Y46296D01*
X257259Y46256D01*
X257363Y46211D01*
X257466Y46163D01*
X257567Y46112D01*
X257666Y46057D01*
X257763Y45999D01*
X257858Y45937D01*
X257951Y45872D01*
X258041Y45804D01*
X258129Y45733D01*
X258215Y45658D01*
X258298Y45581D01*
X258378Y45501D01*
X258455Y45418D01*
X258530Y45332D01*
X258601Y45244D01*
X258669Y45154D01*
X258734Y45061D01*
X258796Y44966D01*
X258854Y44869D01*
X258909Y44770D01*
X258960Y44669D01*
X259008Y44566D01*
X259053Y44462D01*
X259093Y44356D01*
X259130Y44249D01*
X259163Y44141D01*
X259193Y44031D01*
X259218Y43921D01*
X259240Y43810D01*
X259257Y43698D01*
X259271Y43585D01*
X259281Y43472D01*
X259287Y43359D01*
X259289Y43246D01*
X259289Y38054D01*
X259287Y37941D01*
X259281Y37828D01*
X259271Y37715D01*
X259257Y37602D01*
X259240Y37490D01*
X259218Y37379D01*
X259193Y37269D01*
X259163Y37159D01*
X259130Y37051D01*
X259093Y36944D01*
X259053Y36838D01*
X259008Y36734D01*
X258960Y36631D01*
X258909Y36530D01*
X258854Y36431D01*
X258796Y36334D01*
X258734Y36239D01*
X258669Y36146D01*
X258601Y36056D01*
X258530Y35968D01*
X258455Y35882D01*
X258378Y35799D01*
X258298Y35719D01*
X258215Y35642D01*
X258129Y35567D01*
X258041Y35496D01*
X257951Y35428D01*
X257858Y35363D01*
X257763Y35301D01*
X257666Y35243D01*
X257567Y35188D01*
X257466Y35137D01*
X257363Y35089D01*
X257259Y35044D01*
X257153Y35004D01*
X257046Y34967D01*
X256938Y34934D01*
X256828Y34904D01*
X256718Y34879D01*
X256607Y34857D01*
X256495Y34840D01*
X256382Y34826D01*
X256269Y34816D01*
X256156Y34810D01*
X256043Y34808D01*
X252797Y34808D01*
X264608Y43896D02*
X267854Y46492D01*
X267854Y34808D01*
X271099Y34808D02*
X264608Y34808D01*
D15*
X206800Y23600D03*
D14*
X186901Y33708D02*
X186901Y45392D01*
X186901Y33708D02*
X192093Y33708D01*
X196807Y33708D02*
X201999Y33708D01*
X196807Y33708D02*
X196807Y45392D01*
X201999Y45392D01*
X200701Y40199D02*
X196807Y40199D01*
X206690Y45392D02*
X206690Y33708D01*
X206690Y45392D02*
X209935Y45392D01*
X210048Y45390D01*
X210161Y45384D01*
X210274Y45374D01*
X210387Y45360D01*
X210499Y45343D01*
X210610Y45321D01*
X210720Y45296D01*
X210830Y45266D01*
X210938Y45233D01*
X211045Y45196D01*
X211151Y45156D01*
X211255Y45111D01*
X211358Y45063D01*
X211459Y45012D01*
X211558Y44957D01*
X211655Y44899D01*
X211750Y44837D01*
X211843Y44772D01*
X211933Y44704D01*
X212021Y44633D01*
X212107Y44558D01*
X212190Y44481D01*
X212270Y44401D01*
X212347Y44318D01*
X212422Y44232D01*
X212493Y44144D01*
X212561Y44054D01*
X212626Y43961D01*
X212688Y43866D01*
X212746Y43769D01*
X212801Y43670D01*
X212852Y43569D01*
X212900Y43466D01*
X212945Y43362D01*
X212985Y43256D01*
X213022Y43149D01*
X213055Y43041D01*
X213085Y42931D01*
X213110Y42821D01*
X213132Y42710D01*
X213149Y42598D01*
X213163Y42485D01*
X213173Y42372D01*
X213179Y42259D01*
X213181Y42146D01*
X213181Y36954D01*
X213182Y36954D02*
X213180Y36841D01*
X213174Y36728D01*
X213164Y36615D01*
X213150Y36502D01*
X213133Y36390D01*
X213111Y36279D01*
X213086Y36169D01*
X213056Y36059D01*
X213023Y35951D01*
X212986Y35844D01*
X212946Y35738D01*
X212901Y35634D01*
X212853Y35531D01*
X212802Y35430D01*
X212747Y35331D01*
X212689Y35234D01*
X212627Y35139D01*
X212562Y35046D01*
X212494Y34956D01*
X212423Y34868D01*
X212348Y34782D01*
X212271Y34699D01*
X212191Y34619D01*
X212108Y34542D01*
X212022Y34467D01*
X211934Y34396D01*
X211844Y34328D01*
X211751Y34263D01*
X211656Y34201D01*
X211559Y34143D01*
X211460Y34088D01*
X211359Y34037D01*
X211256Y33989D01*
X211152Y33944D01*
X211046Y33904D01*
X210939Y33867D01*
X210831Y33834D01*
X210721Y33804D01*
X210611Y33779D01*
X210500Y33757D01*
X210388Y33740D01*
X210275Y33726D01*
X210162Y33716D01*
X210049Y33710D01*
X209936Y33708D01*
X209935Y33708D02*
X206690Y33708D01*
X222071Y45392D02*
X222178Y45390D01*
X222284Y45384D01*
X222390Y45374D01*
X222496Y45361D01*
X222602Y45343D01*
X222706Y45322D01*
X222810Y45297D01*
X222913Y45268D01*
X223014Y45236D01*
X223114Y45199D01*
X223213Y45159D01*
X223311Y45116D01*
X223407Y45069D01*
X223501Y45018D01*
X223593Y44964D01*
X223683Y44907D01*
X223771Y44847D01*
X223856Y44783D01*
X223939Y44716D01*
X224020Y44646D01*
X224098Y44574D01*
X224174Y44498D01*
X224246Y44420D01*
X224316Y44339D01*
X224383Y44256D01*
X224447Y44171D01*
X224507Y44083D01*
X224564Y43993D01*
X224618Y43901D01*
X224669Y43807D01*
X224716Y43711D01*
X224759Y43613D01*
X224799Y43514D01*
X224836Y43414D01*
X224868Y43313D01*
X224897Y43210D01*
X224922Y43106D01*
X224943Y43002D01*
X224961Y42896D01*
X224974Y42790D01*
X224984Y42684D01*
X224990Y42578D01*
X224992Y42471D01*
X222071Y45392D02*
X221950Y45390D01*
X221829Y45384D01*
X221709Y45374D01*
X221588Y45361D01*
X221469Y45343D01*
X221349Y45322D01*
X221231Y45297D01*
X221114Y45268D01*
X220997Y45235D01*
X220882Y45199D01*
X220768Y45158D01*
X220655Y45115D01*
X220543Y45067D01*
X220434Y45016D01*
X220326Y44961D01*
X220219Y44903D01*
X220115Y44842D01*
X220013Y44777D01*
X219913Y44709D01*
X219815Y44638D01*
X219719Y44564D01*
X219626Y44487D01*
X219536Y44406D01*
X219448Y44323D01*
X219363Y44237D01*
X219280Y44148D01*
X219201Y44057D01*
X219124Y43963D01*
X219051Y43867D01*
X218981Y43769D01*
X218914Y43668D01*
X218850Y43565D01*
X218790Y43460D01*
X218733Y43353D01*
X218679Y43245D01*
X218629Y43135D01*
X218583Y43023D01*
X218540Y42910D01*
X218501Y42795D01*
X224019Y40199D02*
X224098Y40276D01*
X224174Y40357D01*
X224247Y40440D01*
X224317Y40525D01*
X224384Y40613D01*
X224448Y40703D01*
X224508Y40795D01*
X224565Y40890D01*
X224619Y40986D01*
X224670Y41084D01*
X224717Y41184D01*
X224761Y41286D01*
X224801Y41389D01*
X224837Y41493D01*
X224869Y41599D01*
X224898Y41705D01*
X224923Y41813D01*
X224945Y41921D01*
X224962Y42031D01*
X224976Y42140D01*
X224985Y42250D01*
X224991Y42361D01*
X224993Y42471D01*
X224018Y40199D02*
X218501Y33708D01*
X224992Y33708D01*
X328608Y9454D02*
X331204Y6208D01*
X328608Y9454D02*
X340292Y9454D01*
X340292Y12699D02*
X340292Y6208D01*
X316929Y12699D02*
X316822Y12697D01*
X316716Y12691D01*
X316610Y12681D01*
X316504Y12668D01*
X316398Y12650D01*
X316294Y12629D01*
X316190Y12604D01*
X316087Y12575D01*
X315986Y12543D01*
X315886Y12506D01*
X315787Y12466D01*
X315689Y12423D01*
X315593Y12376D01*
X315499Y12325D01*
X315407Y12271D01*
X315317Y12214D01*
X315229Y12154D01*
X315144Y12090D01*
X315061Y12023D01*
X314980Y11953D01*
X314902Y11881D01*
X314826Y11805D01*
X314754Y11727D01*
X314684Y11646D01*
X314617Y11563D01*
X314553Y11478D01*
X314493Y11390D01*
X314436Y11300D01*
X314382Y11208D01*
X314331Y11114D01*
X314284Y11018D01*
X314241Y10920D01*
X314201Y10821D01*
X314164Y10721D01*
X314132Y10620D01*
X314103Y10517D01*
X314078Y10413D01*
X314057Y10309D01*
X314039Y10203D01*
X314026Y10097D01*
X314016Y9991D01*
X314010Y9885D01*
X314008Y9778D01*
X314010Y9657D01*
X314016Y9536D01*
X314026Y9416D01*
X314039Y9295D01*
X314057Y9176D01*
X314078Y9056D01*
X314103Y8938D01*
X314132Y8821D01*
X314165Y8704D01*
X314201Y8589D01*
X314242Y8475D01*
X314285Y8362D01*
X314333Y8250D01*
X314384Y8141D01*
X314439Y8033D01*
X314497Y7926D01*
X314558Y7822D01*
X314623Y7720D01*
X314691Y7620D01*
X314762Y7522D01*
X314836Y7426D01*
X314913Y7333D01*
X314994Y7243D01*
X315077Y7155D01*
X315163Y7070D01*
X315252Y6987D01*
X315343Y6908D01*
X315437Y6831D01*
X315533Y6758D01*
X315631Y6688D01*
X315732Y6621D01*
X315835Y6557D01*
X315940Y6497D01*
X316047Y6439D01*
X316155Y6386D01*
X316265Y6336D01*
X316377Y6290D01*
X316490Y6247D01*
X316605Y6208D01*
X319201Y11725D02*
X319123Y11804D01*
X319043Y11880D01*
X318960Y11953D01*
X318874Y12023D01*
X318787Y12090D01*
X318696Y12154D01*
X318604Y12214D01*
X318510Y12272D01*
X318413Y12326D01*
X318315Y12376D01*
X318215Y12423D01*
X318114Y12467D01*
X318011Y12507D01*
X317906Y12543D01*
X317801Y12575D01*
X317694Y12604D01*
X317587Y12629D01*
X317478Y12651D01*
X317369Y12668D01*
X317260Y12682D01*
X317150Y12691D01*
X317039Y12697D01*
X316929Y12699D01*
X319201Y11725D02*
X325692Y6208D01*
X325692Y12699D01*
X311092Y9454D02*
X311092Y6208D01*
X311092Y9454D02*
X311090Y9567D01*
X311084Y9680D01*
X311074Y9793D01*
X311060Y9906D01*
X311043Y10018D01*
X311021Y10129D01*
X310996Y10239D01*
X310966Y10349D01*
X310933Y10457D01*
X310896Y10564D01*
X310856Y10670D01*
X310811Y10774D01*
X310763Y10877D01*
X310712Y10978D01*
X310657Y11077D01*
X310599Y11174D01*
X310537Y11269D01*
X310472Y11362D01*
X310404Y11452D01*
X310333Y11540D01*
X310258Y11626D01*
X310181Y11709D01*
X310101Y11789D01*
X310018Y11866D01*
X309932Y11941D01*
X309844Y12012D01*
X309754Y12080D01*
X309661Y12145D01*
X309566Y12207D01*
X309469Y12265D01*
X309370Y12320D01*
X309269Y12371D01*
X309166Y12419D01*
X309062Y12464D01*
X308956Y12504D01*
X308849Y12541D01*
X308741Y12574D01*
X308631Y12604D01*
X308521Y12629D01*
X308410Y12651D01*
X308298Y12668D01*
X308185Y12682D01*
X308072Y12692D01*
X307959Y12698D01*
X307846Y12700D01*
X307733Y12698D01*
X307620Y12692D01*
X307507Y12682D01*
X307394Y12668D01*
X307282Y12651D01*
X307171Y12629D01*
X307061Y12604D01*
X306951Y12574D01*
X306843Y12541D01*
X306736Y12504D01*
X306630Y12464D01*
X306526Y12419D01*
X306423Y12371D01*
X306322Y12320D01*
X306223Y12265D01*
X306126Y12207D01*
X306031Y12145D01*
X305938Y12080D01*
X305848Y12012D01*
X305760Y11941D01*
X305674Y11866D01*
X305591Y11789D01*
X305511Y11709D01*
X305434Y11626D01*
X305359Y11540D01*
X305288Y11452D01*
X305220Y11362D01*
X305155Y11269D01*
X305093Y11174D01*
X305035Y11077D01*
X304980Y10978D01*
X304929Y10877D01*
X304881Y10774D01*
X304836Y10670D01*
X304796Y10564D01*
X304759Y10457D01*
X304726Y10349D01*
X304696Y10239D01*
X304671Y10129D01*
X304649Y10018D01*
X304632Y9906D01*
X304618Y9793D01*
X304608Y9680D01*
X304602Y9567D01*
X304600Y9454D01*
X299408Y10103D02*
X299408Y6208D01*
X299408Y10103D02*
X299410Y10204D01*
X299416Y10304D01*
X299426Y10404D01*
X299439Y10504D01*
X299457Y10603D01*
X299478Y10702D01*
X299503Y10799D01*
X299532Y10896D01*
X299565Y10991D01*
X299601Y11085D01*
X299641Y11177D01*
X299684Y11268D01*
X299731Y11357D01*
X299781Y11444D01*
X299835Y11530D01*
X299892Y11613D01*
X299952Y11693D01*
X300015Y11772D01*
X300082Y11848D01*
X300151Y11921D01*
X300223Y11991D01*
X300297Y12059D01*
X300374Y12124D01*
X300454Y12185D01*
X300536Y12244D01*
X300620Y12299D01*
X300706Y12351D01*
X300794Y12400D01*
X300884Y12445D01*
X300976Y12487D01*
X301069Y12525D01*
X301164Y12559D01*
X301259Y12590D01*
X301356Y12617D01*
X301454Y12640D01*
X301553Y12660D01*
X301653Y12675D01*
X301753Y12687D01*
X301853Y12695D01*
X301954Y12699D01*
X302054Y12699D01*
X302155Y12695D01*
X302255Y12687D01*
X302355Y12675D01*
X302455Y12660D01*
X302554Y12640D01*
X302652Y12617D01*
X302749Y12590D01*
X302844Y12559D01*
X302939Y12525D01*
X303032Y12487D01*
X303124Y12445D01*
X303214Y12400D01*
X303302Y12351D01*
X303388Y12299D01*
X303472Y12244D01*
X303554Y12185D01*
X303634Y12124D01*
X303711Y12059D01*
X303785Y11991D01*
X303857Y11921D01*
X303926Y11848D01*
X303993Y11772D01*
X304056Y11693D01*
X304116Y11613D01*
X304173Y11530D01*
X304227Y11444D01*
X304277Y11357D01*
X304324Y11268D01*
X304367Y11177D01*
X304407Y11085D01*
X304443Y10991D01*
X304476Y10896D01*
X304505Y10799D01*
X304530Y10702D01*
X304551Y10603D01*
X304569Y10504D01*
X304582Y10404D01*
X304592Y10304D01*
X304598Y10204D01*
X304600Y10103D01*
X304601Y10103D02*
X304601Y7506D01*
X343308Y8804D02*
X352396Y6208D01*
X352396Y12699D01*
X349799Y10752D02*
X354992Y10752D01*
D12*
X69900Y263600D02*
X69900Y269600D01*
X61900Y269600D01*
X69900Y247600D02*
X69900Y241600D01*
X61900Y241600D01*
D11*
X59013Y274086D02*
X59013Y276230D01*
X59015Y276301D01*
X59021Y276373D01*
X59030Y276443D01*
X59043Y276513D01*
X59060Y276583D01*
X59081Y276651D01*
X59105Y276718D01*
X59133Y276784D01*
X59164Y276848D01*
X59199Y276911D01*
X59237Y276971D01*
X59278Y277030D01*
X59322Y277086D01*
X59369Y277140D01*
X59418Y277191D01*
X59471Y277239D01*
X59526Y277285D01*
X59583Y277327D01*
X59643Y277367D01*
X59704Y277403D01*
X59768Y277436D01*
X59833Y277465D01*
X59899Y277491D01*
X59967Y277514D01*
X60036Y277533D01*
X60106Y277548D01*
X60176Y277559D01*
X60247Y277567D01*
X60318Y277571D01*
X60390Y277571D01*
X60461Y277567D01*
X60532Y277559D01*
X60602Y277548D01*
X60672Y277533D01*
X60741Y277514D01*
X60809Y277491D01*
X60875Y277465D01*
X60940Y277436D01*
X61004Y277403D01*
X61065Y277367D01*
X61125Y277327D01*
X61182Y277285D01*
X61237Y277239D01*
X61290Y277191D01*
X61339Y277140D01*
X61386Y277086D01*
X61430Y277030D01*
X61471Y276971D01*
X61509Y276911D01*
X61544Y276848D01*
X61575Y276784D01*
X61603Y276718D01*
X61627Y276651D01*
X61648Y276583D01*
X61665Y276513D01*
X61678Y276443D01*
X61687Y276373D01*
X61693Y276301D01*
X61695Y276230D01*
X61694Y276230D02*
X61694Y274086D01*
X61695Y274086D02*
X61693Y274015D01*
X61687Y273943D01*
X61678Y273873D01*
X61665Y273803D01*
X61648Y273733D01*
X61627Y273665D01*
X61603Y273598D01*
X61575Y273532D01*
X61544Y273468D01*
X61509Y273405D01*
X61471Y273345D01*
X61430Y273286D01*
X61386Y273230D01*
X61339Y273176D01*
X61290Y273125D01*
X61237Y273077D01*
X61182Y273031D01*
X61125Y272989D01*
X61065Y272949D01*
X61004Y272913D01*
X60940Y272880D01*
X60875Y272851D01*
X60809Y272825D01*
X60741Y272802D01*
X60672Y272783D01*
X60602Y272768D01*
X60532Y272757D01*
X60461Y272749D01*
X60390Y272745D01*
X60318Y272745D01*
X60247Y272749D01*
X60176Y272757D01*
X60106Y272768D01*
X60036Y272783D01*
X59967Y272802D01*
X59899Y272825D01*
X59833Y272851D01*
X59768Y272880D01*
X59704Y272913D01*
X59643Y272949D01*
X59583Y272989D01*
X59526Y273031D01*
X59471Y273077D01*
X59418Y273125D01*
X59369Y273176D01*
X59322Y273230D01*
X59278Y273286D01*
X59237Y273345D01*
X59199Y273405D01*
X59164Y273468D01*
X59133Y273532D01*
X59105Y273598D01*
X59081Y273665D01*
X59060Y273733D01*
X59043Y273803D01*
X59030Y273873D01*
X59021Y273943D01*
X59015Y274015D01*
X59013Y274086D01*
X61158Y273817D02*
X62231Y272745D01*
X64106Y276499D02*
X65446Y277571D01*
X65446Y272745D01*
X64106Y272745D02*
X66787Y272745D01*
X75419Y146448D02*
X80245Y146448D01*
X75419Y146448D02*
X75419Y147789D01*
X75421Y147860D01*
X75427Y147932D01*
X75436Y148002D01*
X75449Y148072D01*
X75466Y148142D01*
X75487Y148210D01*
X75511Y148277D01*
X75539Y148343D01*
X75570Y148407D01*
X75605Y148470D01*
X75643Y148530D01*
X75684Y148589D01*
X75728Y148645D01*
X75775Y148699D01*
X75824Y148750D01*
X75877Y148798D01*
X75932Y148844D01*
X75989Y148886D01*
X76049Y148926D01*
X76110Y148962D01*
X76174Y148995D01*
X76239Y149024D01*
X76305Y149050D01*
X76373Y149073D01*
X76442Y149092D01*
X76512Y149107D01*
X76582Y149118D01*
X76653Y149126D01*
X76724Y149130D01*
X76796Y149130D01*
X76867Y149126D01*
X76938Y149118D01*
X77008Y149107D01*
X77078Y149092D01*
X77147Y149073D01*
X77215Y149050D01*
X77281Y149024D01*
X77346Y148995D01*
X77410Y148962D01*
X77471Y148926D01*
X77531Y148886D01*
X77588Y148844D01*
X77643Y148798D01*
X77696Y148750D01*
X77745Y148699D01*
X77792Y148645D01*
X77836Y148589D01*
X77877Y148530D01*
X77915Y148470D01*
X77950Y148407D01*
X77981Y148343D01*
X78009Y148277D01*
X78033Y148210D01*
X78054Y148142D01*
X78071Y148072D01*
X78084Y148002D01*
X78093Y147932D01*
X78099Y147860D01*
X78101Y147789D01*
X78100Y147789D02*
X78100Y146448D01*
X78100Y148057D02*
X80245Y149129D01*
X76491Y151871D02*
X75419Y153211D01*
X80245Y153211D01*
X80245Y151871D02*
X80245Y154552D01*
X334105Y287855D02*
X334105Y292681D01*
X335446Y292681D01*
X335517Y292679D01*
X335589Y292673D01*
X335659Y292664D01*
X335729Y292651D01*
X335799Y292634D01*
X335867Y292613D01*
X335934Y292589D01*
X336000Y292561D01*
X336064Y292530D01*
X336127Y292495D01*
X336187Y292457D01*
X336246Y292416D01*
X336302Y292372D01*
X336356Y292325D01*
X336407Y292276D01*
X336455Y292223D01*
X336501Y292168D01*
X336543Y292111D01*
X336583Y292051D01*
X336619Y291990D01*
X336652Y291926D01*
X336681Y291861D01*
X336707Y291795D01*
X336730Y291727D01*
X336749Y291658D01*
X336764Y291588D01*
X336775Y291518D01*
X336783Y291447D01*
X336787Y291376D01*
X336787Y291304D01*
X336783Y291233D01*
X336775Y291162D01*
X336764Y291092D01*
X336749Y291022D01*
X336730Y290953D01*
X336707Y290885D01*
X336681Y290819D01*
X336652Y290754D01*
X336619Y290690D01*
X336583Y290629D01*
X336543Y290569D01*
X336501Y290512D01*
X336455Y290457D01*
X336407Y290404D01*
X336356Y290355D01*
X336302Y290308D01*
X336246Y290264D01*
X336187Y290223D01*
X336127Y290185D01*
X336064Y290150D01*
X336000Y290119D01*
X335934Y290091D01*
X335867Y290067D01*
X335799Y290046D01*
X335729Y290029D01*
X335659Y290016D01*
X335589Y290007D01*
X335517Y290001D01*
X335446Y289999D01*
X335446Y290000D02*
X334105Y290000D01*
X335714Y290000D02*
X336786Y287855D01*
X339528Y291609D02*
X340868Y292681D01*
X340868Y287855D01*
X339528Y287855D02*
X342209Y287855D01*
X345014Y290268D02*
X345016Y290388D01*
X345021Y290508D01*
X345030Y290628D01*
X345043Y290748D01*
X345059Y290867D01*
X345079Y290986D01*
X345103Y291104D01*
X345130Y291221D01*
X345160Y291337D01*
X345194Y291452D01*
X345232Y291567D01*
X345273Y291680D01*
X345317Y291791D01*
X345365Y291902D01*
X345416Y292011D01*
X345417Y292011D02*
X345438Y292068D01*
X345464Y292124D01*
X345492Y292179D01*
X345524Y292231D01*
X345560Y292282D01*
X345598Y292330D01*
X345639Y292376D01*
X345683Y292419D01*
X345729Y292459D01*
X345778Y292496D01*
X345830Y292530D01*
X345883Y292561D01*
X345938Y292589D01*
X345994Y292613D01*
X346052Y292634D01*
X346111Y292651D01*
X346171Y292664D01*
X346232Y292673D01*
X346294Y292679D01*
X346355Y292681D01*
X346416Y292679D01*
X346478Y292673D01*
X346539Y292664D01*
X346599Y292651D01*
X346658Y292634D01*
X346716Y292613D01*
X346772Y292589D01*
X346827Y292561D01*
X346880Y292530D01*
X346932Y292496D01*
X346981Y292459D01*
X347027Y292419D01*
X347071Y292376D01*
X347112Y292330D01*
X347150Y292282D01*
X347186Y292231D01*
X347218Y292179D01*
X347246Y292124D01*
X347272Y292068D01*
X347293Y292011D01*
X347344Y291902D01*
X347392Y291791D01*
X347436Y291680D01*
X347477Y291567D01*
X347515Y291452D01*
X347549Y291337D01*
X347579Y291221D01*
X347606Y291104D01*
X347630Y290986D01*
X347650Y290867D01*
X347666Y290748D01*
X347679Y290628D01*
X347688Y290508D01*
X347693Y290388D01*
X347695Y290268D01*
X345014Y290268D02*
X345016Y290148D01*
X345021Y290028D01*
X345030Y289908D01*
X345043Y289788D01*
X345059Y289669D01*
X345079Y289550D01*
X345103Y289432D01*
X345130Y289315D01*
X345160Y289199D01*
X345194Y289084D01*
X345232Y288969D01*
X345273Y288856D01*
X345317Y288745D01*
X345365Y288634D01*
X345416Y288525D01*
X345417Y288525D02*
X345438Y288468D01*
X345464Y288412D01*
X345492Y288357D01*
X345524Y288305D01*
X345560Y288254D01*
X345598Y288206D01*
X345639Y288160D01*
X345683Y288117D01*
X345729Y288077D01*
X345778Y288040D01*
X345830Y288006D01*
X345883Y287975D01*
X345938Y287947D01*
X345994Y287923D01*
X346052Y287902D01*
X346111Y287885D01*
X346171Y287872D01*
X346232Y287863D01*
X346294Y287857D01*
X346355Y287855D01*
X347293Y288525D02*
X347344Y288634D01*
X347392Y288745D01*
X347436Y288856D01*
X347477Y288969D01*
X347515Y289084D01*
X347549Y289199D01*
X347579Y289315D01*
X347606Y289432D01*
X347630Y289550D01*
X347650Y289669D01*
X347666Y289788D01*
X347679Y289908D01*
X347688Y290028D01*
X347693Y290148D01*
X347695Y290268D01*
X347293Y288525D02*
X347272Y288468D01*
X347246Y288412D01*
X347218Y288357D01*
X347186Y288305D01*
X347150Y288254D01*
X347112Y288206D01*
X347071Y288160D01*
X347027Y288117D01*
X346980Y288077D01*
X346932Y288040D01*
X346880Y288006D01*
X346827Y287975D01*
X346772Y287947D01*
X346716Y287923D01*
X346658Y287902D01*
X346599Y287885D01*
X346539Y287872D01*
X346478Y287863D01*
X346416Y287857D01*
X346355Y287855D01*
X345282Y288927D02*
X347427Y291609D01*
X342005Y97681D02*
X342005Y92855D01*
X342005Y97681D02*
X343346Y97681D01*
X343417Y97679D01*
X343489Y97673D01*
X343559Y97664D01*
X343629Y97651D01*
X343699Y97634D01*
X343767Y97613D01*
X343834Y97589D01*
X343900Y97561D01*
X343964Y97530D01*
X344027Y97495D01*
X344087Y97457D01*
X344146Y97416D01*
X344202Y97372D01*
X344256Y97325D01*
X344307Y97276D01*
X344355Y97223D01*
X344401Y97168D01*
X344443Y97111D01*
X344483Y97051D01*
X344519Y96990D01*
X344552Y96926D01*
X344581Y96861D01*
X344607Y96795D01*
X344630Y96727D01*
X344649Y96658D01*
X344664Y96588D01*
X344675Y96518D01*
X344683Y96447D01*
X344687Y96376D01*
X344687Y96304D01*
X344683Y96233D01*
X344675Y96162D01*
X344664Y96092D01*
X344649Y96022D01*
X344630Y95953D01*
X344607Y95885D01*
X344581Y95819D01*
X344552Y95754D01*
X344519Y95690D01*
X344483Y95629D01*
X344443Y95569D01*
X344401Y95512D01*
X344355Y95457D01*
X344307Y95404D01*
X344256Y95355D01*
X344202Y95308D01*
X344146Y95264D01*
X344087Y95223D01*
X344027Y95185D01*
X343964Y95150D01*
X343900Y95119D01*
X343834Y95091D01*
X343767Y95067D01*
X343699Y95046D01*
X343629Y95029D01*
X343559Y95016D01*
X343489Y95007D01*
X343417Y95001D01*
X343346Y94999D01*
X343346Y95000D02*
X342005Y95000D01*
X343614Y95000D02*
X344686Y92855D01*
X347428Y96609D02*
X348768Y97681D01*
X348768Y92855D01*
X347428Y92855D02*
X350109Y92855D01*
X352914Y96609D02*
X354255Y97681D01*
X354255Y92855D01*
X355595Y92855D02*
X352914Y92855D01*
X337905Y185355D02*
X337905Y190181D01*
X339246Y190181D01*
X339317Y190179D01*
X339389Y190173D01*
X339459Y190164D01*
X339529Y190151D01*
X339599Y190134D01*
X339667Y190113D01*
X339734Y190089D01*
X339800Y190061D01*
X339864Y190030D01*
X339927Y189995D01*
X339987Y189957D01*
X340046Y189916D01*
X340102Y189872D01*
X340156Y189825D01*
X340207Y189776D01*
X340255Y189723D01*
X340301Y189668D01*
X340343Y189611D01*
X340383Y189551D01*
X340419Y189490D01*
X340452Y189426D01*
X340481Y189361D01*
X340507Y189295D01*
X340530Y189227D01*
X340549Y189158D01*
X340564Y189088D01*
X340575Y189018D01*
X340583Y188947D01*
X340587Y188876D01*
X340587Y188804D01*
X340583Y188733D01*
X340575Y188662D01*
X340564Y188592D01*
X340549Y188522D01*
X340530Y188453D01*
X340507Y188385D01*
X340481Y188319D01*
X340452Y188254D01*
X340419Y188190D01*
X340383Y188129D01*
X340343Y188069D01*
X340301Y188012D01*
X340255Y187957D01*
X340207Y187904D01*
X340156Y187855D01*
X340102Y187808D01*
X340046Y187764D01*
X339987Y187723D01*
X339927Y187685D01*
X339864Y187650D01*
X339800Y187619D01*
X339734Y187591D01*
X339667Y187567D01*
X339599Y187546D01*
X339529Y187529D01*
X339459Y187516D01*
X339389Y187507D01*
X339317Y187501D01*
X339246Y187499D01*
X339246Y187500D02*
X337905Y187500D01*
X339514Y187500D02*
X340586Y185355D01*
X343328Y189109D02*
X344668Y190181D01*
X344668Y185355D01*
X343328Y185355D02*
X346009Y185355D01*
X350289Y190181D02*
X350357Y190179D01*
X350424Y190173D01*
X350491Y190164D01*
X350558Y190151D01*
X350623Y190134D01*
X350688Y190113D01*
X350751Y190089D01*
X350813Y190061D01*
X350873Y190030D01*
X350931Y189996D01*
X350987Y189958D01*
X351042Y189918D01*
X351093Y189874D01*
X351142Y189827D01*
X351189Y189778D01*
X351233Y189727D01*
X351273Y189672D01*
X351311Y189616D01*
X351345Y189558D01*
X351376Y189498D01*
X351404Y189436D01*
X351428Y189373D01*
X351449Y189308D01*
X351466Y189243D01*
X351479Y189176D01*
X351488Y189109D01*
X351494Y189042D01*
X351496Y188974D01*
X350289Y190181D02*
X350211Y190179D01*
X350133Y190173D01*
X350056Y190163D01*
X349979Y190150D01*
X349903Y190132D01*
X349828Y190111D01*
X349754Y190086D01*
X349682Y190057D01*
X349611Y190025D01*
X349542Y189989D01*
X349474Y189950D01*
X349409Y189907D01*
X349346Y189861D01*
X349285Y189812D01*
X349227Y189760D01*
X349172Y189705D01*
X349119Y189648D01*
X349070Y189588D01*
X349023Y189525D01*
X348980Y189461D01*
X348940Y189394D01*
X348903Y189325D01*
X348870Y189254D01*
X348840Y189182D01*
X348814Y189109D01*
X351093Y188036D02*
X351142Y188085D01*
X351189Y188137D01*
X351232Y188192D01*
X351273Y188249D01*
X351311Y188308D01*
X351345Y188369D01*
X351376Y188432D01*
X351404Y188496D01*
X351428Y188562D01*
X351448Y188628D01*
X351465Y188696D01*
X351478Y188765D01*
X351487Y188834D01*
X351493Y188904D01*
X351495Y188974D01*
X351093Y188036D02*
X348814Y185355D01*
X351495Y185355D01*
X276205Y37181D02*
X276205Y32355D01*
X276205Y37181D02*
X277546Y37181D01*
X277617Y37179D01*
X277689Y37173D01*
X277759Y37164D01*
X277829Y37151D01*
X277899Y37134D01*
X277967Y37113D01*
X278034Y37089D01*
X278100Y37061D01*
X278164Y37030D01*
X278227Y36995D01*
X278287Y36957D01*
X278346Y36916D01*
X278402Y36872D01*
X278456Y36825D01*
X278507Y36776D01*
X278555Y36723D01*
X278601Y36668D01*
X278643Y36611D01*
X278683Y36551D01*
X278719Y36490D01*
X278752Y36426D01*
X278781Y36361D01*
X278807Y36295D01*
X278830Y36227D01*
X278849Y36158D01*
X278864Y36088D01*
X278875Y36018D01*
X278883Y35947D01*
X278887Y35876D01*
X278887Y35804D01*
X278883Y35733D01*
X278875Y35662D01*
X278864Y35592D01*
X278849Y35522D01*
X278830Y35453D01*
X278807Y35385D01*
X278781Y35319D01*
X278752Y35254D01*
X278719Y35190D01*
X278683Y35129D01*
X278643Y35069D01*
X278601Y35012D01*
X278555Y34957D01*
X278507Y34904D01*
X278456Y34855D01*
X278402Y34808D01*
X278346Y34764D01*
X278287Y34723D01*
X278227Y34685D01*
X278164Y34650D01*
X278100Y34619D01*
X278034Y34591D01*
X277967Y34567D01*
X277899Y34546D01*
X277829Y34529D01*
X277759Y34516D01*
X277689Y34507D01*
X277617Y34501D01*
X277546Y34499D01*
X277546Y34500D02*
X276205Y34500D01*
X277814Y34500D02*
X278886Y32355D01*
X281628Y36109D02*
X282968Y37181D01*
X282968Y32355D01*
X281628Y32355D02*
X284309Y32355D01*
X287114Y33427D02*
X288186Y37181D01*
X287114Y33427D02*
X289795Y33427D01*
X288991Y34500D02*
X288991Y32355D01*
X165305Y11645D02*
X165305Y6819D01*
X165305Y11645D02*
X166645Y11645D01*
X166716Y11643D01*
X166788Y11637D01*
X166858Y11628D01*
X166928Y11615D01*
X166998Y11598D01*
X167066Y11577D01*
X167133Y11553D01*
X167199Y11525D01*
X167263Y11494D01*
X167326Y11459D01*
X167386Y11421D01*
X167445Y11380D01*
X167501Y11336D01*
X167555Y11289D01*
X167606Y11240D01*
X167654Y11187D01*
X167700Y11132D01*
X167742Y11075D01*
X167782Y11015D01*
X167818Y10954D01*
X167851Y10890D01*
X167880Y10825D01*
X167906Y10759D01*
X167929Y10691D01*
X167948Y10622D01*
X167963Y10552D01*
X167974Y10482D01*
X167982Y10411D01*
X167986Y10340D01*
X167986Y10268D01*
X167982Y10197D01*
X167974Y10126D01*
X167963Y10056D01*
X167948Y9986D01*
X167929Y9917D01*
X167906Y9849D01*
X167880Y9783D01*
X167851Y9718D01*
X167818Y9654D01*
X167782Y9593D01*
X167742Y9533D01*
X167700Y9476D01*
X167654Y9421D01*
X167606Y9368D01*
X167555Y9319D01*
X167501Y9272D01*
X167445Y9228D01*
X167386Y9187D01*
X167326Y9149D01*
X167263Y9114D01*
X167199Y9083D01*
X167133Y9055D01*
X167066Y9031D01*
X166998Y9010D01*
X166928Y8993D01*
X166858Y8980D01*
X166788Y8971D01*
X166716Y8965D01*
X166645Y8963D01*
X166645Y8964D02*
X165305Y8964D01*
X166914Y8964D02*
X167986Y6819D01*
X170728Y10573D02*
X172068Y11645D01*
X172068Y6819D01*
X170728Y6819D02*
X173409Y6819D01*
X176214Y6819D02*
X177823Y6819D01*
X177888Y6821D01*
X177952Y6827D01*
X178016Y6837D01*
X178080Y6850D01*
X178142Y6868D01*
X178203Y6889D01*
X178263Y6913D01*
X178321Y6942D01*
X178378Y6974D01*
X178432Y7009D01*
X178484Y7047D01*
X178534Y7089D01*
X178581Y7133D01*
X178625Y7180D01*
X178667Y7230D01*
X178705Y7282D01*
X178740Y7336D01*
X178772Y7393D01*
X178801Y7451D01*
X178825Y7511D01*
X178846Y7572D01*
X178864Y7634D01*
X178877Y7698D01*
X178887Y7762D01*
X178893Y7826D01*
X178895Y7891D01*
X178895Y8428D01*
X178893Y8493D01*
X178887Y8557D01*
X178877Y8621D01*
X178864Y8685D01*
X178846Y8747D01*
X178825Y8808D01*
X178801Y8868D01*
X178772Y8926D01*
X178740Y8983D01*
X178705Y9037D01*
X178667Y9089D01*
X178625Y9139D01*
X178581Y9186D01*
X178534Y9230D01*
X178484Y9272D01*
X178432Y9310D01*
X178378Y9345D01*
X178321Y9377D01*
X178263Y9406D01*
X178203Y9430D01*
X178142Y9451D01*
X178080Y9469D01*
X178016Y9482D01*
X177952Y9492D01*
X177888Y9498D01*
X177823Y9500D01*
X176214Y9500D01*
X176214Y11645D01*
X178895Y11645D01*
X132005Y115955D02*
X132005Y120781D01*
X133346Y120781D01*
X133417Y120779D01*
X133489Y120773D01*
X133559Y120764D01*
X133629Y120751D01*
X133699Y120734D01*
X133767Y120713D01*
X133834Y120689D01*
X133900Y120661D01*
X133964Y120630D01*
X134027Y120595D01*
X134087Y120557D01*
X134146Y120516D01*
X134202Y120472D01*
X134256Y120425D01*
X134307Y120376D01*
X134355Y120323D01*
X134401Y120268D01*
X134443Y120211D01*
X134483Y120151D01*
X134519Y120090D01*
X134552Y120026D01*
X134581Y119961D01*
X134607Y119895D01*
X134630Y119827D01*
X134649Y119758D01*
X134664Y119688D01*
X134675Y119618D01*
X134683Y119547D01*
X134687Y119476D01*
X134687Y119404D01*
X134683Y119333D01*
X134675Y119262D01*
X134664Y119192D01*
X134649Y119122D01*
X134630Y119053D01*
X134607Y118985D01*
X134581Y118919D01*
X134552Y118854D01*
X134519Y118790D01*
X134483Y118729D01*
X134443Y118669D01*
X134401Y118612D01*
X134355Y118557D01*
X134307Y118504D01*
X134256Y118455D01*
X134202Y118408D01*
X134146Y118364D01*
X134087Y118323D01*
X134027Y118285D01*
X133964Y118250D01*
X133900Y118219D01*
X133834Y118191D01*
X133767Y118167D01*
X133699Y118146D01*
X133629Y118129D01*
X133559Y118116D01*
X133489Y118107D01*
X133417Y118101D01*
X133346Y118099D01*
X133346Y118100D02*
X132005Y118100D01*
X133614Y118100D02*
X134686Y115955D01*
X137428Y119709D02*
X138768Y120781D01*
X138768Y115955D01*
X137428Y115955D02*
X140109Y115955D01*
X143986Y118100D02*
X145595Y118100D01*
X143986Y118100D02*
X143921Y118102D01*
X143857Y118108D01*
X143793Y118118D01*
X143729Y118131D01*
X143667Y118149D01*
X143606Y118170D01*
X143546Y118194D01*
X143488Y118223D01*
X143431Y118255D01*
X143377Y118290D01*
X143325Y118328D01*
X143275Y118370D01*
X143228Y118414D01*
X143184Y118461D01*
X143142Y118511D01*
X143104Y118563D01*
X143069Y118617D01*
X143037Y118674D01*
X143008Y118732D01*
X142984Y118792D01*
X142963Y118853D01*
X142945Y118915D01*
X142932Y118979D01*
X142922Y119043D01*
X142916Y119107D01*
X142914Y119172D01*
X142914Y119440D01*
X142916Y119511D01*
X142922Y119583D01*
X142931Y119653D01*
X142944Y119723D01*
X142961Y119793D01*
X142982Y119861D01*
X143006Y119928D01*
X143034Y119994D01*
X143065Y120058D01*
X143100Y120121D01*
X143138Y120181D01*
X143179Y120240D01*
X143223Y120296D01*
X143270Y120350D01*
X143319Y120401D01*
X143372Y120449D01*
X143427Y120495D01*
X143484Y120537D01*
X143544Y120577D01*
X143605Y120613D01*
X143669Y120646D01*
X143734Y120675D01*
X143800Y120701D01*
X143868Y120724D01*
X143937Y120743D01*
X144007Y120758D01*
X144077Y120769D01*
X144148Y120777D01*
X144219Y120781D01*
X144291Y120781D01*
X144362Y120777D01*
X144433Y120769D01*
X144503Y120758D01*
X144573Y120743D01*
X144642Y120724D01*
X144710Y120701D01*
X144776Y120675D01*
X144841Y120646D01*
X144905Y120613D01*
X144966Y120577D01*
X145026Y120537D01*
X145083Y120495D01*
X145138Y120449D01*
X145191Y120401D01*
X145240Y120350D01*
X145287Y120296D01*
X145331Y120240D01*
X145372Y120181D01*
X145410Y120121D01*
X145445Y120058D01*
X145476Y119994D01*
X145504Y119928D01*
X145528Y119861D01*
X145549Y119793D01*
X145566Y119723D01*
X145579Y119653D01*
X145588Y119583D01*
X145594Y119511D01*
X145596Y119440D01*
X145595Y119440D02*
X145595Y118100D01*
X145593Y118009D01*
X145587Y117918D01*
X145578Y117828D01*
X145564Y117737D01*
X145547Y117648D01*
X145526Y117560D01*
X145501Y117472D01*
X145472Y117385D01*
X145440Y117300D01*
X145405Y117216D01*
X145365Y117134D01*
X145323Y117054D01*
X145277Y116975D01*
X145227Y116899D01*
X145175Y116825D01*
X145119Y116752D01*
X145060Y116683D01*
X144999Y116616D01*
X144934Y116551D01*
X144867Y116490D01*
X144798Y116431D01*
X144725Y116375D01*
X144651Y116323D01*
X144575Y116273D01*
X144496Y116227D01*
X144416Y116185D01*
X144334Y116145D01*
X144250Y116110D01*
X144165Y116078D01*
X144078Y116049D01*
X143990Y116024D01*
X143902Y116003D01*
X143813Y115986D01*
X143722Y115972D01*
X143632Y115963D01*
X143541Y115957D01*
X143450Y115955D01*
X25245Y138848D02*
X20419Y138848D01*
X20419Y140189D01*
X20421Y140260D01*
X20427Y140332D01*
X20436Y140402D01*
X20449Y140472D01*
X20466Y140542D01*
X20487Y140610D01*
X20511Y140677D01*
X20539Y140743D01*
X20570Y140807D01*
X20605Y140870D01*
X20643Y140930D01*
X20684Y140989D01*
X20728Y141045D01*
X20775Y141099D01*
X20824Y141150D01*
X20877Y141198D01*
X20932Y141244D01*
X20989Y141286D01*
X21049Y141326D01*
X21110Y141362D01*
X21174Y141395D01*
X21239Y141424D01*
X21305Y141450D01*
X21373Y141473D01*
X21442Y141492D01*
X21512Y141507D01*
X21582Y141518D01*
X21653Y141526D01*
X21724Y141530D01*
X21796Y141530D01*
X21867Y141526D01*
X21938Y141518D01*
X22008Y141507D01*
X22078Y141492D01*
X22147Y141473D01*
X22215Y141450D01*
X22281Y141424D01*
X22346Y141395D01*
X22410Y141362D01*
X22471Y141326D01*
X22531Y141286D01*
X22588Y141244D01*
X22643Y141198D01*
X22696Y141150D01*
X22745Y141099D01*
X22792Y141045D01*
X22836Y140989D01*
X22877Y140930D01*
X22915Y140870D01*
X22950Y140807D01*
X22981Y140743D01*
X23009Y140677D01*
X23033Y140610D01*
X23054Y140542D01*
X23071Y140472D01*
X23084Y140402D01*
X23093Y140332D01*
X23099Y140260D01*
X23101Y140189D01*
X23100Y140189D02*
X23100Y138848D01*
X23100Y140457D02*
X25245Y141529D01*
X20419Y145745D02*
X20421Y145813D01*
X20427Y145880D01*
X20436Y145947D01*
X20449Y146014D01*
X20466Y146079D01*
X20487Y146144D01*
X20511Y146207D01*
X20539Y146269D01*
X20570Y146329D01*
X20604Y146387D01*
X20642Y146443D01*
X20682Y146498D01*
X20726Y146549D01*
X20773Y146598D01*
X20822Y146645D01*
X20873Y146689D01*
X20928Y146729D01*
X20984Y146767D01*
X21042Y146801D01*
X21102Y146832D01*
X21164Y146860D01*
X21227Y146884D01*
X21292Y146905D01*
X21357Y146922D01*
X21424Y146935D01*
X21491Y146944D01*
X21558Y146950D01*
X21626Y146952D01*
X20419Y145745D02*
X20421Y145667D01*
X20427Y145589D01*
X20437Y145512D01*
X20450Y145435D01*
X20468Y145359D01*
X20489Y145284D01*
X20514Y145210D01*
X20543Y145138D01*
X20575Y145067D01*
X20611Y144998D01*
X20650Y144930D01*
X20693Y144865D01*
X20739Y144802D01*
X20788Y144741D01*
X20840Y144683D01*
X20895Y144628D01*
X20952Y144575D01*
X21012Y144526D01*
X21075Y144479D01*
X21140Y144436D01*
X21206Y144396D01*
X21275Y144359D01*
X21346Y144326D01*
X21418Y144296D01*
X21492Y144270D01*
X22564Y146550D02*
X22515Y146599D01*
X22463Y146646D01*
X22408Y146689D01*
X22351Y146730D01*
X22292Y146768D01*
X22231Y146802D01*
X22168Y146833D01*
X22104Y146861D01*
X22038Y146885D01*
X21972Y146905D01*
X21904Y146922D01*
X21835Y146935D01*
X21766Y146944D01*
X21696Y146950D01*
X21626Y146952D01*
X22564Y146550D02*
X25245Y144271D01*
X25245Y146952D01*
X165505Y99045D02*
X165505Y94219D01*
X165505Y99045D02*
X166845Y99045D01*
X166916Y99043D01*
X166988Y99037D01*
X167058Y99028D01*
X167128Y99015D01*
X167198Y98998D01*
X167266Y98977D01*
X167333Y98953D01*
X167399Y98925D01*
X167463Y98894D01*
X167526Y98859D01*
X167586Y98821D01*
X167645Y98780D01*
X167701Y98736D01*
X167755Y98689D01*
X167806Y98640D01*
X167854Y98587D01*
X167900Y98532D01*
X167942Y98475D01*
X167982Y98415D01*
X168018Y98354D01*
X168051Y98290D01*
X168080Y98225D01*
X168106Y98159D01*
X168129Y98091D01*
X168148Y98022D01*
X168163Y97952D01*
X168174Y97882D01*
X168182Y97811D01*
X168186Y97740D01*
X168186Y97668D01*
X168182Y97597D01*
X168174Y97526D01*
X168163Y97456D01*
X168148Y97386D01*
X168129Y97317D01*
X168106Y97249D01*
X168080Y97183D01*
X168051Y97118D01*
X168018Y97054D01*
X167982Y96993D01*
X167942Y96933D01*
X167900Y96876D01*
X167854Y96821D01*
X167806Y96768D01*
X167755Y96719D01*
X167701Y96672D01*
X167645Y96628D01*
X167586Y96587D01*
X167526Y96549D01*
X167463Y96514D01*
X167399Y96483D01*
X167333Y96455D01*
X167266Y96431D01*
X167198Y96410D01*
X167128Y96393D01*
X167058Y96380D01*
X166988Y96371D01*
X166916Y96365D01*
X166845Y96363D01*
X166845Y96364D02*
X165505Y96364D01*
X167114Y96364D02*
X168186Y94219D01*
X172402Y99045D02*
X172470Y99043D01*
X172537Y99037D01*
X172604Y99028D01*
X172671Y99015D01*
X172736Y98998D01*
X172801Y98977D01*
X172864Y98953D01*
X172926Y98925D01*
X172986Y98894D01*
X173044Y98860D01*
X173100Y98822D01*
X173155Y98782D01*
X173206Y98738D01*
X173255Y98691D01*
X173302Y98642D01*
X173346Y98591D01*
X173386Y98536D01*
X173424Y98480D01*
X173458Y98422D01*
X173489Y98362D01*
X173517Y98300D01*
X173541Y98237D01*
X173562Y98172D01*
X173579Y98107D01*
X173592Y98040D01*
X173601Y97973D01*
X173607Y97906D01*
X173609Y97838D01*
X172402Y99045D02*
X172324Y99043D01*
X172246Y99037D01*
X172169Y99027D01*
X172092Y99014D01*
X172016Y98996D01*
X171941Y98975D01*
X171867Y98950D01*
X171795Y98921D01*
X171724Y98889D01*
X171655Y98853D01*
X171587Y98814D01*
X171522Y98771D01*
X171459Y98725D01*
X171398Y98676D01*
X171340Y98624D01*
X171285Y98569D01*
X171232Y98512D01*
X171183Y98452D01*
X171136Y98389D01*
X171093Y98325D01*
X171053Y98258D01*
X171016Y98189D01*
X170983Y98118D01*
X170953Y98046D01*
X170927Y97973D01*
X173207Y96900D02*
X173256Y96949D01*
X173303Y97001D01*
X173346Y97056D01*
X173387Y97113D01*
X173425Y97172D01*
X173459Y97233D01*
X173490Y97296D01*
X173518Y97360D01*
X173542Y97426D01*
X173562Y97492D01*
X173579Y97560D01*
X173592Y97629D01*
X173601Y97698D01*
X173607Y97768D01*
X173609Y97838D01*
X173207Y96900D02*
X170928Y94219D01*
X173609Y94219D01*
X176414Y96632D02*
X176416Y96752D01*
X176421Y96872D01*
X176430Y96992D01*
X176443Y97112D01*
X176459Y97231D01*
X176479Y97350D01*
X176503Y97468D01*
X176530Y97585D01*
X176560Y97701D01*
X176594Y97816D01*
X176632Y97931D01*
X176673Y98044D01*
X176717Y98155D01*
X176765Y98266D01*
X176816Y98375D01*
X176837Y98432D01*
X176863Y98488D01*
X176891Y98543D01*
X176923Y98595D01*
X176959Y98646D01*
X176997Y98694D01*
X177038Y98740D01*
X177082Y98783D01*
X177128Y98823D01*
X177177Y98860D01*
X177229Y98894D01*
X177282Y98925D01*
X177337Y98953D01*
X177393Y98977D01*
X177451Y98998D01*
X177510Y99015D01*
X177570Y99028D01*
X177631Y99037D01*
X177693Y99043D01*
X177754Y99045D01*
X177815Y99043D01*
X177877Y99037D01*
X177938Y99028D01*
X177998Y99015D01*
X178057Y98998D01*
X178115Y98977D01*
X178171Y98953D01*
X178226Y98925D01*
X178279Y98894D01*
X178331Y98860D01*
X178380Y98823D01*
X178426Y98783D01*
X178470Y98740D01*
X178511Y98694D01*
X178549Y98646D01*
X178585Y98595D01*
X178617Y98543D01*
X178645Y98488D01*
X178671Y98432D01*
X178692Y98375D01*
X178693Y98375D02*
X178744Y98266D01*
X178792Y98155D01*
X178836Y98044D01*
X178877Y97931D01*
X178915Y97816D01*
X178949Y97701D01*
X178979Y97585D01*
X179006Y97468D01*
X179030Y97350D01*
X179050Y97231D01*
X179066Y97112D01*
X179079Y96992D01*
X179088Y96872D01*
X179093Y96752D01*
X179095Y96632D01*
X176414Y96632D02*
X176416Y96512D01*
X176421Y96392D01*
X176430Y96272D01*
X176443Y96152D01*
X176459Y96033D01*
X176479Y95914D01*
X176503Y95796D01*
X176530Y95679D01*
X176560Y95563D01*
X176594Y95448D01*
X176632Y95333D01*
X176673Y95220D01*
X176717Y95109D01*
X176765Y94998D01*
X176816Y94889D01*
X176837Y94832D01*
X176863Y94776D01*
X176891Y94721D01*
X176923Y94669D01*
X176959Y94618D01*
X176997Y94570D01*
X177038Y94524D01*
X177082Y94481D01*
X177128Y94441D01*
X177177Y94404D01*
X177229Y94370D01*
X177282Y94339D01*
X177337Y94311D01*
X177393Y94287D01*
X177451Y94266D01*
X177510Y94249D01*
X177570Y94236D01*
X177631Y94227D01*
X177693Y94221D01*
X177754Y94219D01*
X178693Y94889D02*
X178744Y94998D01*
X178792Y95109D01*
X178836Y95220D01*
X178877Y95333D01*
X178915Y95448D01*
X178949Y95563D01*
X178979Y95679D01*
X179006Y95796D01*
X179030Y95914D01*
X179050Y96033D01*
X179066Y96152D01*
X179079Y96272D01*
X179088Y96392D01*
X179093Y96512D01*
X179095Y96632D01*
X178692Y94889D02*
X178671Y94832D01*
X178645Y94776D01*
X178617Y94721D01*
X178585Y94669D01*
X178549Y94618D01*
X178511Y94570D01*
X178470Y94524D01*
X178426Y94481D01*
X178379Y94441D01*
X178331Y94404D01*
X178279Y94370D01*
X178226Y94339D01*
X178171Y94311D01*
X178115Y94287D01*
X178057Y94266D01*
X177998Y94249D01*
X177938Y94236D01*
X177877Y94227D01*
X177815Y94221D01*
X177754Y94219D01*
X176682Y95291D02*
X178827Y97973D01*
X53605Y191719D02*
X53605Y196545D01*
X54945Y196545D01*
X55016Y196543D01*
X55088Y196537D01*
X55158Y196528D01*
X55228Y196515D01*
X55298Y196498D01*
X55366Y196477D01*
X55433Y196453D01*
X55499Y196425D01*
X55563Y196394D01*
X55626Y196359D01*
X55686Y196321D01*
X55745Y196280D01*
X55801Y196236D01*
X55855Y196189D01*
X55906Y196140D01*
X55954Y196087D01*
X56000Y196032D01*
X56042Y195975D01*
X56082Y195915D01*
X56118Y195854D01*
X56151Y195790D01*
X56180Y195725D01*
X56206Y195659D01*
X56229Y195591D01*
X56248Y195522D01*
X56263Y195452D01*
X56274Y195382D01*
X56282Y195311D01*
X56286Y195240D01*
X56286Y195168D01*
X56282Y195097D01*
X56274Y195026D01*
X56263Y194956D01*
X56248Y194886D01*
X56229Y194817D01*
X56206Y194749D01*
X56180Y194683D01*
X56151Y194618D01*
X56118Y194554D01*
X56082Y194493D01*
X56042Y194433D01*
X56000Y194376D01*
X55954Y194321D01*
X55906Y194268D01*
X55855Y194219D01*
X55801Y194172D01*
X55745Y194128D01*
X55686Y194087D01*
X55626Y194049D01*
X55563Y194014D01*
X55499Y193983D01*
X55433Y193955D01*
X55366Y193931D01*
X55298Y193910D01*
X55228Y193893D01*
X55158Y193880D01*
X55088Y193871D01*
X55016Y193865D01*
X54945Y193863D01*
X54945Y193864D02*
X53605Y193864D01*
X55214Y193864D02*
X56286Y191719D01*
X60502Y196545D02*
X60570Y196543D01*
X60637Y196537D01*
X60704Y196528D01*
X60771Y196515D01*
X60836Y196498D01*
X60901Y196477D01*
X60964Y196453D01*
X61026Y196425D01*
X61086Y196394D01*
X61144Y196360D01*
X61200Y196322D01*
X61255Y196282D01*
X61306Y196238D01*
X61355Y196191D01*
X61402Y196142D01*
X61446Y196091D01*
X61486Y196036D01*
X61524Y195980D01*
X61558Y195922D01*
X61589Y195862D01*
X61617Y195800D01*
X61641Y195737D01*
X61662Y195672D01*
X61679Y195607D01*
X61692Y195540D01*
X61701Y195473D01*
X61707Y195406D01*
X61709Y195338D01*
X60502Y196545D02*
X60424Y196543D01*
X60346Y196537D01*
X60269Y196527D01*
X60192Y196514D01*
X60116Y196496D01*
X60041Y196475D01*
X59967Y196450D01*
X59895Y196421D01*
X59824Y196389D01*
X59755Y196353D01*
X59687Y196314D01*
X59622Y196271D01*
X59559Y196225D01*
X59498Y196176D01*
X59440Y196124D01*
X59385Y196069D01*
X59332Y196012D01*
X59283Y195952D01*
X59236Y195889D01*
X59193Y195825D01*
X59153Y195758D01*
X59116Y195689D01*
X59083Y195618D01*
X59053Y195546D01*
X59027Y195473D01*
X61307Y194400D02*
X61356Y194449D01*
X61403Y194501D01*
X61446Y194556D01*
X61487Y194613D01*
X61525Y194672D01*
X61559Y194733D01*
X61590Y194796D01*
X61618Y194860D01*
X61642Y194926D01*
X61662Y194992D01*
X61679Y195060D01*
X61692Y195129D01*
X61701Y195198D01*
X61707Y195268D01*
X61709Y195338D01*
X61307Y194400D02*
X59028Y191719D01*
X61709Y191719D01*
X64514Y195473D02*
X65854Y196545D01*
X65854Y191719D01*
X64514Y191719D02*
X67195Y191719D01*
X246719Y292205D02*
X251545Y292205D01*
X246719Y292205D02*
X246719Y293546D01*
X246721Y293617D01*
X246727Y293689D01*
X246736Y293759D01*
X246749Y293829D01*
X246766Y293899D01*
X246787Y293967D01*
X246811Y294034D01*
X246839Y294100D01*
X246870Y294164D01*
X246905Y294227D01*
X246943Y294287D01*
X246984Y294346D01*
X247028Y294402D01*
X247075Y294456D01*
X247124Y294507D01*
X247177Y294555D01*
X247232Y294601D01*
X247289Y294643D01*
X247349Y294683D01*
X247410Y294719D01*
X247474Y294752D01*
X247539Y294781D01*
X247605Y294807D01*
X247673Y294830D01*
X247742Y294849D01*
X247812Y294864D01*
X247882Y294875D01*
X247953Y294883D01*
X248024Y294887D01*
X248096Y294887D01*
X248167Y294883D01*
X248238Y294875D01*
X248308Y294864D01*
X248378Y294849D01*
X248447Y294830D01*
X248515Y294807D01*
X248581Y294781D01*
X248646Y294752D01*
X248710Y294719D01*
X248771Y294683D01*
X248831Y294643D01*
X248888Y294601D01*
X248943Y294555D01*
X248996Y294507D01*
X249045Y294456D01*
X249092Y294402D01*
X249136Y294346D01*
X249177Y294287D01*
X249215Y294227D01*
X249250Y294164D01*
X249281Y294100D01*
X249309Y294034D01*
X249333Y293967D01*
X249354Y293899D01*
X249371Y293829D01*
X249384Y293759D01*
X249393Y293689D01*
X249399Y293617D01*
X249401Y293546D01*
X249400Y293546D02*
X249400Y292205D01*
X249400Y293814D02*
X251545Y294886D01*
X246719Y299102D02*
X246721Y299170D01*
X246727Y299237D01*
X246736Y299304D01*
X246749Y299371D01*
X246766Y299436D01*
X246787Y299501D01*
X246811Y299564D01*
X246839Y299626D01*
X246870Y299686D01*
X246904Y299744D01*
X246942Y299800D01*
X246982Y299855D01*
X247026Y299906D01*
X247073Y299955D01*
X247122Y300002D01*
X247173Y300046D01*
X247228Y300086D01*
X247284Y300124D01*
X247342Y300158D01*
X247402Y300189D01*
X247464Y300217D01*
X247527Y300241D01*
X247592Y300262D01*
X247657Y300279D01*
X247724Y300292D01*
X247791Y300301D01*
X247858Y300307D01*
X247926Y300309D01*
X246719Y299102D02*
X246721Y299024D01*
X246727Y298946D01*
X246737Y298869D01*
X246750Y298792D01*
X246768Y298716D01*
X246789Y298641D01*
X246814Y298567D01*
X246843Y298495D01*
X246875Y298424D01*
X246911Y298355D01*
X246950Y298287D01*
X246993Y298222D01*
X247039Y298159D01*
X247088Y298098D01*
X247140Y298040D01*
X247195Y297985D01*
X247252Y297932D01*
X247312Y297883D01*
X247375Y297836D01*
X247440Y297793D01*
X247506Y297753D01*
X247575Y297716D01*
X247646Y297683D01*
X247718Y297653D01*
X247792Y297627D01*
X248864Y299907D02*
X248815Y299956D01*
X248763Y300003D01*
X248708Y300046D01*
X248651Y300087D01*
X248592Y300125D01*
X248531Y300159D01*
X248468Y300190D01*
X248404Y300218D01*
X248338Y300242D01*
X248272Y300262D01*
X248204Y300279D01*
X248135Y300292D01*
X248066Y300301D01*
X247996Y300307D01*
X247926Y300309D01*
X248864Y299907D02*
X251545Y297628D01*
X251545Y300309D01*
X246719Y304589D02*
X246721Y304657D01*
X246727Y304724D01*
X246736Y304791D01*
X246749Y304858D01*
X246766Y304923D01*
X246787Y304988D01*
X246811Y305051D01*
X246839Y305113D01*
X246870Y305173D01*
X246904Y305231D01*
X246942Y305287D01*
X246982Y305342D01*
X247026Y305393D01*
X247073Y305442D01*
X247122Y305489D01*
X247173Y305533D01*
X247228Y305573D01*
X247284Y305611D01*
X247342Y305645D01*
X247402Y305676D01*
X247464Y305704D01*
X247527Y305728D01*
X247592Y305749D01*
X247657Y305766D01*
X247724Y305779D01*
X247791Y305788D01*
X247858Y305794D01*
X247926Y305796D01*
X246719Y304588D02*
X246721Y304510D01*
X246727Y304432D01*
X246737Y304355D01*
X246750Y304278D01*
X246768Y304202D01*
X246789Y304127D01*
X246814Y304053D01*
X246843Y303981D01*
X246875Y303910D01*
X246911Y303841D01*
X246950Y303773D01*
X246993Y303708D01*
X247039Y303645D01*
X247088Y303584D01*
X247140Y303526D01*
X247195Y303471D01*
X247252Y303418D01*
X247312Y303369D01*
X247375Y303322D01*
X247440Y303279D01*
X247506Y303239D01*
X247575Y303202D01*
X247646Y303169D01*
X247718Y303139D01*
X247792Y303113D01*
X248864Y305393D02*
X248815Y305442D01*
X248763Y305489D01*
X248708Y305532D01*
X248651Y305573D01*
X248592Y305611D01*
X248531Y305645D01*
X248468Y305676D01*
X248404Y305704D01*
X248338Y305728D01*
X248272Y305748D01*
X248204Y305765D01*
X248135Y305778D01*
X248066Y305787D01*
X247996Y305793D01*
X247926Y305795D01*
X248864Y305393D02*
X251545Y303114D01*
X251545Y305795D01*
X29545Y174105D02*
X24719Y174105D01*
X24719Y175446D01*
X24721Y175517D01*
X24727Y175589D01*
X24736Y175659D01*
X24749Y175729D01*
X24766Y175799D01*
X24787Y175867D01*
X24811Y175934D01*
X24839Y176000D01*
X24870Y176064D01*
X24905Y176127D01*
X24943Y176187D01*
X24984Y176246D01*
X25028Y176302D01*
X25075Y176356D01*
X25124Y176407D01*
X25177Y176455D01*
X25232Y176501D01*
X25289Y176543D01*
X25349Y176583D01*
X25410Y176619D01*
X25474Y176652D01*
X25539Y176681D01*
X25605Y176707D01*
X25673Y176730D01*
X25742Y176749D01*
X25812Y176764D01*
X25882Y176775D01*
X25953Y176783D01*
X26024Y176787D01*
X26096Y176787D01*
X26167Y176783D01*
X26238Y176775D01*
X26308Y176764D01*
X26378Y176749D01*
X26447Y176730D01*
X26515Y176707D01*
X26581Y176681D01*
X26646Y176652D01*
X26710Y176619D01*
X26771Y176583D01*
X26831Y176543D01*
X26888Y176501D01*
X26943Y176455D01*
X26996Y176407D01*
X27045Y176356D01*
X27092Y176302D01*
X27136Y176246D01*
X27177Y176187D01*
X27215Y176127D01*
X27250Y176064D01*
X27281Y176000D01*
X27309Y175934D01*
X27333Y175867D01*
X27354Y175799D01*
X27371Y175729D01*
X27384Y175659D01*
X27393Y175589D01*
X27399Y175517D01*
X27401Y175446D01*
X27400Y175446D02*
X27400Y174105D01*
X27400Y175714D02*
X29545Y176786D01*
X24719Y181002D02*
X24721Y181070D01*
X24727Y181137D01*
X24736Y181204D01*
X24749Y181271D01*
X24766Y181336D01*
X24787Y181401D01*
X24811Y181464D01*
X24839Y181526D01*
X24870Y181586D01*
X24904Y181644D01*
X24942Y181700D01*
X24982Y181755D01*
X25026Y181806D01*
X25073Y181855D01*
X25122Y181902D01*
X25173Y181946D01*
X25228Y181986D01*
X25284Y182024D01*
X25342Y182058D01*
X25402Y182089D01*
X25464Y182117D01*
X25527Y182141D01*
X25592Y182162D01*
X25657Y182179D01*
X25724Y182192D01*
X25791Y182201D01*
X25858Y182207D01*
X25926Y182209D01*
X24719Y181002D02*
X24721Y180924D01*
X24727Y180846D01*
X24737Y180769D01*
X24750Y180692D01*
X24768Y180616D01*
X24789Y180541D01*
X24814Y180467D01*
X24843Y180395D01*
X24875Y180324D01*
X24911Y180255D01*
X24950Y180187D01*
X24993Y180122D01*
X25039Y180059D01*
X25088Y179998D01*
X25140Y179940D01*
X25195Y179885D01*
X25252Y179832D01*
X25312Y179783D01*
X25375Y179736D01*
X25440Y179693D01*
X25506Y179653D01*
X25575Y179616D01*
X25646Y179583D01*
X25718Y179553D01*
X25792Y179527D01*
X26864Y181807D02*
X26815Y181856D01*
X26763Y181903D01*
X26708Y181946D01*
X26651Y181987D01*
X26592Y182025D01*
X26531Y182059D01*
X26468Y182090D01*
X26404Y182118D01*
X26338Y182142D01*
X26272Y182162D01*
X26204Y182179D01*
X26135Y182192D01*
X26066Y182201D01*
X25996Y182207D01*
X25926Y182209D01*
X26864Y181807D02*
X29545Y179528D01*
X29545Y182209D01*
X29545Y185014D02*
X29545Y186355D01*
X29543Y186426D01*
X29537Y186498D01*
X29528Y186568D01*
X29515Y186638D01*
X29498Y186708D01*
X29477Y186776D01*
X29453Y186843D01*
X29425Y186909D01*
X29394Y186973D01*
X29359Y187036D01*
X29321Y187096D01*
X29280Y187155D01*
X29236Y187211D01*
X29189Y187265D01*
X29140Y187316D01*
X29087Y187364D01*
X29032Y187410D01*
X28975Y187452D01*
X28915Y187492D01*
X28854Y187528D01*
X28790Y187561D01*
X28725Y187590D01*
X28659Y187616D01*
X28591Y187639D01*
X28522Y187658D01*
X28452Y187673D01*
X28382Y187684D01*
X28311Y187692D01*
X28240Y187696D01*
X28168Y187696D01*
X28097Y187692D01*
X28026Y187684D01*
X27956Y187673D01*
X27886Y187658D01*
X27817Y187639D01*
X27749Y187616D01*
X27683Y187590D01*
X27618Y187561D01*
X27554Y187528D01*
X27493Y187492D01*
X27433Y187452D01*
X27376Y187410D01*
X27321Y187364D01*
X27268Y187316D01*
X27219Y187265D01*
X27172Y187211D01*
X27128Y187155D01*
X27087Y187096D01*
X27049Y187036D01*
X27014Y186973D01*
X26983Y186909D01*
X26955Y186843D01*
X26931Y186776D01*
X26910Y186708D01*
X26893Y186638D01*
X26880Y186568D01*
X26871Y186498D01*
X26865Y186426D01*
X26863Y186355D01*
X24719Y186623D02*
X24719Y185014D01*
X24719Y186623D02*
X24721Y186688D01*
X24727Y186752D01*
X24737Y186816D01*
X24750Y186880D01*
X24768Y186942D01*
X24789Y187003D01*
X24813Y187063D01*
X24842Y187121D01*
X24874Y187178D01*
X24909Y187232D01*
X24947Y187284D01*
X24989Y187334D01*
X25033Y187381D01*
X25080Y187425D01*
X25130Y187467D01*
X25182Y187505D01*
X25236Y187540D01*
X25293Y187572D01*
X25351Y187601D01*
X25411Y187625D01*
X25472Y187646D01*
X25534Y187664D01*
X25598Y187677D01*
X25662Y187687D01*
X25726Y187693D01*
X25791Y187695D01*
X25856Y187693D01*
X25920Y187687D01*
X25984Y187677D01*
X26048Y187664D01*
X26110Y187646D01*
X26171Y187625D01*
X26231Y187601D01*
X26289Y187572D01*
X26346Y187540D01*
X26400Y187505D01*
X26452Y187467D01*
X26502Y187425D01*
X26549Y187381D01*
X26593Y187334D01*
X26635Y187284D01*
X26673Y187232D01*
X26708Y187178D01*
X26740Y187121D01*
X26769Y187063D01*
X26793Y187003D01*
X26814Y186942D01*
X26832Y186880D01*
X26845Y186816D01*
X26855Y186752D01*
X26861Y186688D01*
X26863Y186623D01*
X26864Y186623D02*
X26864Y185550D01*
X13045Y173505D02*
X8219Y173505D01*
X8219Y174846D01*
X8221Y174917D01*
X8227Y174989D01*
X8236Y175059D01*
X8249Y175129D01*
X8266Y175199D01*
X8287Y175267D01*
X8311Y175334D01*
X8339Y175400D01*
X8370Y175464D01*
X8405Y175527D01*
X8443Y175587D01*
X8484Y175646D01*
X8528Y175702D01*
X8575Y175756D01*
X8624Y175807D01*
X8677Y175855D01*
X8732Y175901D01*
X8789Y175943D01*
X8849Y175983D01*
X8910Y176019D01*
X8974Y176052D01*
X9039Y176081D01*
X9105Y176107D01*
X9173Y176130D01*
X9242Y176149D01*
X9312Y176164D01*
X9382Y176175D01*
X9453Y176183D01*
X9524Y176187D01*
X9596Y176187D01*
X9667Y176183D01*
X9738Y176175D01*
X9808Y176164D01*
X9878Y176149D01*
X9947Y176130D01*
X10015Y176107D01*
X10081Y176081D01*
X10146Y176052D01*
X10210Y176019D01*
X10271Y175983D01*
X10331Y175943D01*
X10388Y175901D01*
X10443Y175855D01*
X10496Y175807D01*
X10545Y175756D01*
X10592Y175702D01*
X10636Y175646D01*
X10677Y175587D01*
X10715Y175527D01*
X10750Y175464D01*
X10781Y175400D01*
X10809Y175334D01*
X10833Y175267D01*
X10854Y175199D01*
X10871Y175129D01*
X10884Y175059D01*
X10893Y174989D01*
X10899Y174917D01*
X10901Y174846D01*
X10900Y174846D02*
X10900Y173505D01*
X10900Y175114D02*
X13045Y176186D01*
X8219Y180402D02*
X8221Y180470D01*
X8227Y180537D01*
X8236Y180604D01*
X8249Y180671D01*
X8266Y180736D01*
X8287Y180801D01*
X8311Y180864D01*
X8339Y180926D01*
X8370Y180986D01*
X8404Y181044D01*
X8442Y181100D01*
X8482Y181155D01*
X8526Y181206D01*
X8573Y181255D01*
X8622Y181302D01*
X8673Y181346D01*
X8728Y181386D01*
X8784Y181424D01*
X8842Y181458D01*
X8902Y181489D01*
X8964Y181517D01*
X9027Y181541D01*
X9092Y181562D01*
X9157Y181579D01*
X9224Y181592D01*
X9291Y181601D01*
X9358Y181607D01*
X9426Y181609D01*
X8219Y180402D02*
X8221Y180324D01*
X8227Y180246D01*
X8237Y180169D01*
X8250Y180092D01*
X8268Y180016D01*
X8289Y179941D01*
X8314Y179867D01*
X8343Y179795D01*
X8375Y179724D01*
X8411Y179655D01*
X8450Y179587D01*
X8493Y179522D01*
X8539Y179459D01*
X8588Y179398D01*
X8640Y179340D01*
X8695Y179285D01*
X8752Y179232D01*
X8812Y179183D01*
X8875Y179136D01*
X8940Y179093D01*
X9006Y179053D01*
X9075Y179016D01*
X9146Y178983D01*
X9218Y178953D01*
X9292Y178927D01*
X10364Y181207D02*
X10315Y181256D01*
X10263Y181303D01*
X10208Y181346D01*
X10151Y181387D01*
X10092Y181425D01*
X10031Y181459D01*
X9968Y181490D01*
X9904Y181518D01*
X9838Y181542D01*
X9772Y181562D01*
X9704Y181579D01*
X9635Y181592D01*
X9566Y181601D01*
X9496Y181607D01*
X9426Y181609D01*
X10364Y181207D02*
X13045Y178928D01*
X13045Y181609D01*
X11973Y184414D02*
X8219Y185486D01*
X11973Y184414D02*
X11973Y187095D01*
X10900Y186291D02*
X13045Y186291D01*
X7145Y138548D02*
X2319Y138548D01*
X2319Y139889D01*
X2321Y139960D01*
X2327Y140032D01*
X2336Y140102D01*
X2349Y140172D01*
X2366Y140242D01*
X2387Y140310D01*
X2411Y140377D01*
X2439Y140443D01*
X2470Y140507D01*
X2505Y140570D01*
X2543Y140630D01*
X2584Y140689D01*
X2628Y140745D01*
X2675Y140799D01*
X2724Y140850D01*
X2777Y140898D01*
X2832Y140944D01*
X2889Y140986D01*
X2949Y141026D01*
X3010Y141062D01*
X3074Y141095D01*
X3139Y141124D01*
X3205Y141150D01*
X3273Y141173D01*
X3342Y141192D01*
X3412Y141207D01*
X3482Y141218D01*
X3553Y141226D01*
X3624Y141230D01*
X3696Y141230D01*
X3767Y141226D01*
X3838Y141218D01*
X3908Y141207D01*
X3978Y141192D01*
X4047Y141173D01*
X4115Y141150D01*
X4181Y141124D01*
X4246Y141095D01*
X4310Y141062D01*
X4371Y141026D01*
X4431Y140986D01*
X4488Y140944D01*
X4543Y140898D01*
X4596Y140850D01*
X4645Y140799D01*
X4692Y140745D01*
X4736Y140689D01*
X4777Y140630D01*
X4815Y140570D01*
X4850Y140507D01*
X4881Y140443D01*
X4909Y140377D01*
X4933Y140310D01*
X4954Y140242D01*
X4971Y140172D01*
X4984Y140102D01*
X4993Y140032D01*
X4999Y139960D01*
X5001Y139889D01*
X5000Y139889D02*
X5000Y138548D01*
X5000Y140157D02*
X7145Y141229D01*
X7145Y143971D02*
X7145Y145311D01*
X7143Y145382D01*
X7137Y145454D01*
X7128Y145524D01*
X7115Y145594D01*
X7098Y145664D01*
X7077Y145732D01*
X7053Y145799D01*
X7025Y145865D01*
X6994Y145929D01*
X6959Y145992D01*
X6921Y146052D01*
X6880Y146111D01*
X6836Y146167D01*
X6789Y146221D01*
X6740Y146272D01*
X6687Y146320D01*
X6632Y146366D01*
X6575Y146408D01*
X6515Y146448D01*
X6454Y146484D01*
X6390Y146517D01*
X6325Y146546D01*
X6259Y146572D01*
X6191Y146595D01*
X6122Y146614D01*
X6052Y146629D01*
X5982Y146640D01*
X5911Y146648D01*
X5840Y146652D01*
X5768Y146652D01*
X5697Y146648D01*
X5626Y146640D01*
X5556Y146629D01*
X5486Y146614D01*
X5417Y146595D01*
X5349Y146572D01*
X5283Y146546D01*
X5218Y146517D01*
X5154Y146484D01*
X5093Y146448D01*
X5033Y146408D01*
X4976Y146366D01*
X4921Y146320D01*
X4868Y146272D01*
X4819Y146221D01*
X4772Y146167D01*
X4728Y146111D01*
X4687Y146052D01*
X4649Y145992D01*
X4614Y145929D01*
X4583Y145865D01*
X4555Y145799D01*
X4531Y145732D01*
X4510Y145664D01*
X4493Y145594D01*
X4480Y145524D01*
X4471Y145454D01*
X4465Y145382D01*
X4463Y145311D01*
X2319Y145579D02*
X2319Y143971D01*
X2319Y145579D02*
X2321Y145644D01*
X2327Y145708D01*
X2337Y145772D01*
X2350Y145836D01*
X2368Y145898D01*
X2389Y145959D01*
X2413Y146019D01*
X2442Y146077D01*
X2474Y146134D01*
X2509Y146188D01*
X2547Y146240D01*
X2589Y146290D01*
X2633Y146337D01*
X2680Y146381D01*
X2730Y146423D01*
X2782Y146461D01*
X2836Y146496D01*
X2893Y146528D01*
X2951Y146557D01*
X3011Y146581D01*
X3072Y146602D01*
X3134Y146620D01*
X3198Y146633D01*
X3262Y146643D01*
X3326Y146649D01*
X3391Y146651D01*
X3456Y146649D01*
X3520Y146643D01*
X3584Y146633D01*
X3648Y146620D01*
X3710Y146602D01*
X3771Y146581D01*
X3831Y146557D01*
X3889Y146528D01*
X3946Y146496D01*
X4000Y146461D01*
X4052Y146423D01*
X4102Y146381D01*
X4149Y146337D01*
X4193Y146290D01*
X4235Y146240D01*
X4273Y146188D01*
X4308Y146134D01*
X4340Y146077D01*
X4369Y146019D01*
X4393Y145959D01*
X4414Y145898D01*
X4432Y145836D01*
X4445Y145772D01*
X4455Y145708D01*
X4461Y145644D01*
X4463Y145579D01*
X4464Y145579D02*
X4464Y144507D01*
X254819Y187948D02*
X259645Y187948D01*
X254819Y187948D02*
X254819Y189289D01*
X254821Y189360D01*
X254827Y189432D01*
X254836Y189502D01*
X254849Y189572D01*
X254866Y189642D01*
X254887Y189710D01*
X254911Y189777D01*
X254939Y189843D01*
X254970Y189907D01*
X255005Y189970D01*
X255043Y190030D01*
X255084Y190089D01*
X255128Y190145D01*
X255175Y190199D01*
X255224Y190250D01*
X255277Y190298D01*
X255332Y190344D01*
X255389Y190386D01*
X255449Y190426D01*
X255510Y190462D01*
X255574Y190495D01*
X255639Y190524D01*
X255705Y190550D01*
X255773Y190573D01*
X255842Y190592D01*
X255912Y190607D01*
X255982Y190618D01*
X256053Y190626D01*
X256124Y190630D01*
X256196Y190630D01*
X256267Y190626D01*
X256338Y190618D01*
X256408Y190607D01*
X256478Y190592D01*
X256547Y190573D01*
X256615Y190550D01*
X256681Y190524D01*
X256746Y190495D01*
X256810Y190462D01*
X256871Y190426D01*
X256931Y190386D01*
X256988Y190344D01*
X257043Y190298D01*
X257096Y190250D01*
X257145Y190199D01*
X257192Y190145D01*
X257236Y190089D01*
X257277Y190030D01*
X257315Y189970D01*
X257350Y189907D01*
X257381Y189843D01*
X257409Y189777D01*
X257433Y189710D01*
X257454Y189642D01*
X257471Y189572D01*
X257484Y189502D01*
X257493Y189432D01*
X257499Y189360D01*
X257501Y189289D01*
X257500Y189289D02*
X257500Y187948D01*
X257500Y189557D02*
X259645Y190629D01*
X258573Y193371D02*
X254819Y194443D01*
X258573Y193371D02*
X258573Y196052D01*
X257500Y195248D02*
X259645Y195248D01*
X37681Y251948D02*
X32855Y251948D01*
X32855Y253289D01*
X32857Y253360D01*
X32863Y253432D01*
X32872Y253502D01*
X32885Y253572D01*
X32902Y253642D01*
X32923Y253710D01*
X32947Y253777D01*
X32975Y253843D01*
X33006Y253907D01*
X33041Y253970D01*
X33079Y254030D01*
X33120Y254089D01*
X33164Y254145D01*
X33211Y254199D01*
X33260Y254250D01*
X33313Y254298D01*
X33368Y254344D01*
X33425Y254386D01*
X33485Y254426D01*
X33546Y254462D01*
X33610Y254495D01*
X33675Y254524D01*
X33741Y254550D01*
X33809Y254573D01*
X33878Y254592D01*
X33948Y254607D01*
X34018Y254618D01*
X34089Y254626D01*
X34160Y254630D01*
X34232Y254630D01*
X34303Y254626D01*
X34374Y254618D01*
X34444Y254607D01*
X34514Y254592D01*
X34583Y254573D01*
X34651Y254550D01*
X34717Y254524D01*
X34782Y254495D01*
X34846Y254462D01*
X34907Y254426D01*
X34967Y254386D01*
X35024Y254344D01*
X35079Y254298D01*
X35132Y254250D01*
X35181Y254199D01*
X35228Y254145D01*
X35272Y254089D01*
X35313Y254030D01*
X35351Y253970D01*
X35386Y253907D01*
X35417Y253843D01*
X35445Y253777D01*
X35469Y253710D01*
X35490Y253642D01*
X35507Y253572D01*
X35520Y253502D01*
X35529Y253432D01*
X35535Y253360D01*
X35537Y253289D01*
X35536Y253289D02*
X35536Y251948D01*
X35536Y253557D02*
X37681Y254629D01*
X35536Y258443D02*
X35536Y260052D01*
X35536Y258443D02*
X35534Y258378D01*
X35528Y258314D01*
X35518Y258250D01*
X35505Y258186D01*
X35487Y258124D01*
X35466Y258063D01*
X35442Y258003D01*
X35413Y257945D01*
X35381Y257888D01*
X35346Y257834D01*
X35308Y257782D01*
X35266Y257732D01*
X35222Y257685D01*
X35175Y257641D01*
X35125Y257599D01*
X35073Y257561D01*
X35019Y257526D01*
X34962Y257494D01*
X34904Y257465D01*
X34844Y257441D01*
X34783Y257420D01*
X34721Y257402D01*
X34657Y257389D01*
X34593Y257379D01*
X34529Y257373D01*
X34464Y257371D01*
X34196Y257371D01*
X34196Y257370D02*
X34125Y257372D01*
X34053Y257378D01*
X33983Y257387D01*
X33913Y257400D01*
X33843Y257417D01*
X33775Y257438D01*
X33708Y257462D01*
X33642Y257490D01*
X33578Y257521D01*
X33515Y257556D01*
X33455Y257594D01*
X33396Y257635D01*
X33340Y257679D01*
X33286Y257726D01*
X33235Y257775D01*
X33187Y257828D01*
X33141Y257883D01*
X33099Y257940D01*
X33059Y258000D01*
X33023Y258061D01*
X32990Y258125D01*
X32961Y258190D01*
X32935Y258256D01*
X32912Y258324D01*
X32893Y258393D01*
X32878Y258463D01*
X32867Y258533D01*
X32859Y258604D01*
X32855Y258675D01*
X32855Y258747D01*
X32859Y258818D01*
X32867Y258889D01*
X32878Y258959D01*
X32893Y259029D01*
X32912Y259098D01*
X32935Y259166D01*
X32961Y259232D01*
X32990Y259297D01*
X33023Y259361D01*
X33059Y259422D01*
X33099Y259482D01*
X33141Y259539D01*
X33187Y259594D01*
X33235Y259647D01*
X33286Y259696D01*
X33340Y259743D01*
X33396Y259787D01*
X33455Y259828D01*
X33515Y259866D01*
X33578Y259901D01*
X33642Y259932D01*
X33708Y259960D01*
X33775Y259984D01*
X33843Y260005D01*
X33913Y260022D01*
X33983Y260035D01*
X34053Y260044D01*
X34125Y260050D01*
X34196Y260052D01*
X35536Y260052D01*
X35627Y260050D01*
X35718Y260044D01*
X35808Y260035D01*
X35899Y260021D01*
X35988Y260004D01*
X36076Y259983D01*
X36164Y259958D01*
X36251Y259929D01*
X36336Y259897D01*
X36420Y259862D01*
X36502Y259822D01*
X36582Y259780D01*
X36661Y259734D01*
X36737Y259684D01*
X36811Y259632D01*
X36884Y259576D01*
X36953Y259517D01*
X37020Y259456D01*
X37085Y259391D01*
X37146Y259324D01*
X37205Y259255D01*
X37261Y259182D01*
X37313Y259108D01*
X37363Y259032D01*
X37409Y258953D01*
X37451Y258873D01*
X37491Y258791D01*
X37526Y258707D01*
X37558Y258622D01*
X37587Y258535D01*
X37612Y258447D01*
X37633Y258359D01*
X37650Y258270D01*
X37664Y258179D01*
X37673Y258089D01*
X37679Y257998D01*
X37681Y257907D01*
D12*
X394700Y273600D02*
X394798Y273598D01*
X394896Y273592D01*
X394994Y273583D01*
X395091Y273569D01*
X395188Y273552D01*
X395284Y273531D01*
X395379Y273506D01*
X395473Y273478D01*
X395565Y273445D01*
X395657Y273410D01*
X395747Y273370D01*
X395835Y273328D01*
X395922Y273281D01*
X396006Y273232D01*
X396089Y273179D01*
X396169Y273123D01*
X396248Y273063D01*
X396324Y273001D01*
X396397Y272936D01*
X396468Y272868D01*
X396536Y272797D01*
X396601Y272724D01*
X396663Y272648D01*
X396723Y272569D01*
X396779Y272489D01*
X396832Y272406D01*
X396881Y272322D01*
X396928Y272235D01*
X396970Y272147D01*
X397010Y272057D01*
X397045Y271965D01*
X397078Y271873D01*
X397106Y271779D01*
X397131Y271684D01*
X397152Y271588D01*
X397169Y271491D01*
X397183Y271394D01*
X397192Y271296D01*
X397198Y271198D01*
X397200Y271100D01*
X397200Y216100D01*
X397198Y216002D01*
X397192Y215904D01*
X397183Y215806D01*
X397169Y215709D01*
X397152Y215612D01*
X397131Y215516D01*
X397106Y215421D01*
X397078Y215327D01*
X397045Y215235D01*
X397010Y215143D01*
X396970Y215053D01*
X396928Y214965D01*
X396881Y214878D01*
X396832Y214794D01*
X396779Y214711D01*
X396723Y214631D01*
X396663Y214552D01*
X396601Y214476D01*
X396536Y214403D01*
X396468Y214332D01*
X396397Y214264D01*
X396324Y214199D01*
X396248Y214137D01*
X396169Y214077D01*
X396089Y214021D01*
X396006Y213968D01*
X395922Y213919D01*
X395835Y213872D01*
X395747Y213830D01*
X395657Y213790D01*
X395565Y213755D01*
X395473Y213722D01*
X395379Y213694D01*
X395284Y213669D01*
X395188Y213648D01*
X395091Y213631D01*
X394994Y213617D01*
X394896Y213608D01*
X394798Y213602D01*
X394700Y213600D01*
X364700Y213600D02*
X364602Y213602D01*
X364504Y213608D01*
X364406Y213617D01*
X364309Y213631D01*
X364212Y213648D01*
X364116Y213669D01*
X364021Y213694D01*
X363927Y213722D01*
X363835Y213755D01*
X363743Y213790D01*
X363653Y213830D01*
X363565Y213872D01*
X363478Y213919D01*
X363394Y213968D01*
X363311Y214021D01*
X363231Y214077D01*
X363152Y214137D01*
X363076Y214199D01*
X363003Y214264D01*
X362932Y214332D01*
X362864Y214403D01*
X362799Y214476D01*
X362737Y214552D01*
X362677Y214631D01*
X362621Y214711D01*
X362568Y214794D01*
X362519Y214878D01*
X362472Y214965D01*
X362430Y215053D01*
X362390Y215143D01*
X362355Y215235D01*
X362322Y215327D01*
X362294Y215421D01*
X362269Y215516D01*
X362248Y215612D01*
X362231Y215709D01*
X362217Y215806D01*
X362208Y215904D01*
X362202Y216002D01*
X362200Y216100D01*
X362200Y271100D01*
X362202Y271198D01*
X362208Y271296D01*
X362217Y271394D01*
X362231Y271491D01*
X362248Y271588D01*
X362269Y271684D01*
X362294Y271779D01*
X362322Y271873D01*
X362355Y271965D01*
X362390Y272057D01*
X362430Y272147D01*
X362472Y272235D01*
X362519Y272322D01*
X362568Y272406D01*
X362621Y272489D01*
X362677Y272569D01*
X362737Y272648D01*
X362799Y272724D01*
X362864Y272797D01*
X362932Y272868D01*
X363003Y272936D01*
X363076Y273001D01*
X363152Y273063D01*
X363231Y273123D01*
X363311Y273179D01*
X363394Y273232D01*
X363478Y273281D01*
X363565Y273328D01*
X363653Y273370D01*
X363743Y273410D01*
X363835Y273445D01*
X363927Y273478D01*
X364021Y273506D01*
X364116Y273531D01*
X364212Y273552D01*
X364309Y273569D01*
X364406Y273583D01*
X364504Y273592D01*
X364602Y273598D01*
X364700Y273600D01*
X368700Y273600D01*
X390700Y273600D02*
X394700Y273600D01*
X394700Y213600D02*
X390700Y213600D01*
X368700Y213600D02*
X364700Y213600D01*
X387200Y228600D02*
X387200Y258600D01*
X372200Y258600D02*
X372200Y228600D01*
X372200Y258600D02*
X387200Y258600D01*
X387200Y228600D02*
X372200Y228600D01*
D11*
X398139Y242288D02*
X398204Y242286D01*
X398268Y242280D01*
X398332Y242270D01*
X398396Y242257D01*
X398458Y242239D01*
X398519Y242218D01*
X398579Y242194D01*
X398637Y242165D01*
X398694Y242133D01*
X398748Y242098D01*
X398800Y242060D01*
X398850Y242018D01*
X398897Y241974D01*
X398941Y241927D01*
X398983Y241877D01*
X399021Y241825D01*
X399056Y241771D01*
X399088Y241714D01*
X399117Y241656D01*
X399141Y241596D01*
X399162Y241535D01*
X399180Y241473D01*
X399193Y241409D01*
X399203Y241345D01*
X399209Y241281D01*
X399211Y241216D01*
X399209Y241122D01*
X399203Y241028D01*
X399193Y240934D01*
X399180Y240841D01*
X399162Y240749D01*
X399141Y240657D01*
X399116Y240566D01*
X399087Y240476D01*
X399054Y240388D01*
X399018Y240301D01*
X398978Y240216D01*
X398935Y240132D01*
X398888Y240051D01*
X398838Y239971D01*
X398785Y239893D01*
X398728Y239818D01*
X398669Y239745D01*
X398606Y239675D01*
X398541Y239607D01*
X395457Y239742D02*
X395392Y239744D01*
X395328Y239750D01*
X395264Y239760D01*
X395200Y239773D01*
X395138Y239791D01*
X395077Y239812D01*
X395017Y239836D01*
X394959Y239865D01*
X394902Y239897D01*
X394848Y239932D01*
X394796Y239970D01*
X394746Y240012D01*
X394699Y240056D01*
X394655Y240103D01*
X394613Y240153D01*
X394575Y240205D01*
X394540Y240259D01*
X394508Y240316D01*
X394479Y240374D01*
X394455Y240434D01*
X394434Y240495D01*
X394416Y240557D01*
X394403Y240621D01*
X394393Y240685D01*
X394387Y240749D01*
X394385Y240814D01*
X394387Y240900D01*
X394392Y240986D01*
X394402Y241072D01*
X394415Y241157D01*
X394431Y241242D01*
X394451Y241326D01*
X394475Y241409D01*
X394502Y241491D01*
X394533Y241571D01*
X394567Y241651D01*
X394605Y241728D01*
X394646Y241804D01*
X394690Y241878D01*
X394737Y241951D01*
X394787Y242021D01*
X396395Y240278D02*
X396362Y240225D01*
X396325Y240174D01*
X396286Y240125D01*
X396244Y240078D01*
X396199Y240034D01*
X396152Y239993D01*
X396103Y239954D01*
X396051Y239918D01*
X395997Y239885D01*
X395942Y239856D01*
X395885Y239830D01*
X395826Y239807D01*
X395767Y239787D01*
X395706Y239771D01*
X395645Y239758D01*
X395582Y239749D01*
X395520Y239744D01*
X395457Y239742D01*
X397201Y241753D02*
X397234Y241806D01*
X397271Y241857D01*
X397310Y241906D01*
X397352Y241953D01*
X397397Y241997D01*
X397444Y242038D01*
X397493Y242077D01*
X397545Y242113D01*
X397599Y242146D01*
X397654Y242175D01*
X397711Y242201D01*
X397770Y242224D01*
X397829Y242244D01*
X397890Y242260D01*
X397951Y242273D01*
X398014Y242282D01*
X398076Y242287D01*
X398139Y242289D01*
X397200Y241753D02*
X396396Y240278D01*
X395457Y244911D02*
X394385Y246252D01*
X399211Y246252D01*
X399211Y247592D02*
X399211Y244911D01*
D12*
X395700Y91300D02*
X395798Y91298D01*
X395896Y91292D01*
X395994Y91283D01*
X396091Y91269D01*
X396188Y91252D01*
X396284Y91231D01*
X396379Y91206D01*
X396473Y91178D01*
X396565Y91145D01*
X396657Y91110D01*
X396747Y91070D01*
X396835Y91028D01*
X396922Y90981D01*
X397006Y90932D01*
X397089Y90879D01*
X397169Y90823D01*
X397248Y90763D01*
X397324Y90701D01*
X397397Y90636D01*
X397468Y90568D01*
X397536Y90497D01*
X397601Y90424D01*
X397663Y90348D01*
X397723Y90269D01*
X397779Y90189D01*
X397832Y90106D01*
X397881Y90022D01*
X397928Y89935D01*
X397970Y89847D01*
X398010Y89757D01*
X398045Y89665D01*
X398078Y89573D01*
X398106Y89479D01*
X398131Y89384D01*
X398152Y89288D01*
X398169Y89191D01*
X398183Y89094D01*
X398192Y88996D01*
X398198Y88898D01*
X398200Y88800D01*
X398200Y33800D01*
X398198Y33702D01*
X398192Y33604D01*
X398183Y33506D01*
X398169Y33409D01*
X398152Y33312D01*
X398131Y33216D01*
X398106Y33121D01*
X398078Y33027D01*
X398045Y32935D01*
X398010Y32843D01*
X397970Y32753D01*
X397928Y32665D01*
X397881Y32578D01*
X397832Y32494D01*
X397779Y32411D01*
X397723Y32331D01*
X397663Y32252D01*
X397601Y32176D01*
X397536Y32103D01*
X397468Y32032D01*
X397397Y31964D01*
X397324Y31899D01*
X397248Y31837D01*
X397169Y31777D01*
X397089Y31721D01*
X397006Y31668D01*
X396922Y31619D01*
X396835Y31572D01*
X396747Y31530D01*
X396657Y31490D01*
X396565Y31455D01*
X396473Y31422D01*
X396379Y31394D01*
X396284Y31369D01*
X396188Y31348D01*
X396091Y31331D01*
X395994Y31317D01*
X395896Y31308D01*
X395798Y31302D01*
X395700Y31300D01*
X365700Y31300D02*
X365602Y31302D01*
X365504Y31308D01*
X365406Y31317D01*
X365309Y31331D01*
X365212Y31348D01*
X365116Y31369D01*
X365021Y31394D01*
X364927Y31422D01*
X364835Y31455D01*
X364743Y31490D01*
X364653Y31530D01*
X364565Y31572D01*
X364478Y31619D01*
X364394Y31668D01*
X364311Y31721D01*
X364231Y31777D01*
X364152Y31837D01*
X364076Y31899D01*
X364003Y31964D01*
X363932Y32032D01*
X363864Y32103D01*
X363799Y32176D01*
X363737Y32252D01*
X363677Y32331D01*
X363621Y32411D01*
X363568Y32494D01*
X363519Y32578D01*
X363472Y32665D01*
X363430Y32753D01*
X363390Y32843D01*
X363355Y32935D01*
X363322Y33027D01*
X363294Y33121D01*
X363269Y33216D01*
X363248Y33312D01*
X363231Y33409D01*
X363217Y33506D01*
X363208Y33604D01*
X363202Y33702D01*
X363200Y33800D01*
X363200Y88800D01*
X363202Y88898D01*
X363208Y88996D01*
X363217Y89094D01*
X363231Y89191D01*
X363248Y89288D01*
X363269Y89384D01*
X363294Y89479D01*
X363322Y89573D01*
X363355Y89665D01*
X363390Y89757D01*
X363430Y89847D01*
X363472Y89935D01*
X363519Y90022D01*
X363568Y90106D01*
X363621Y90189D01*
X363677Y90269D01*
X363737Y90348D01*
X363799Y90424D01*
X363864Y90497D01*
X363932Y90568D01*
X364003Y90636D01*
X364076Y90701D01*
X364152Y90763D01*
X364231Y90823D01*
X364311Y90879D01*
X364394Y90932D01*
X364478Y90981D01*
X364565Y91028D01*
X364653Y91070D01*
X364743Y91110D01*
X364835Y91145D01*
X364927Y91178D01*
X365021Y91206D01*
X365116Y91231D01*
X365212Y91252D01*
X365309Y91269D01*
X365406Y91283D01*
X365504Y91292D01*
X365602Y91298D01*
X365700Y91300D01*
X369700Y91300D01*
X391700Y91300D02*
X395700Y91300D01*
X395700Y31300D02*
X391700Y31300D01*
X369700Y31300D02*
X365700Y31300D01*
X388200Y46300D02*
X388200Y76300D01*
X373200Y76300D02*
X373200Y46300D01*
X373200Y76300D02*
X388200Y76300D01*
X388200Y46300D02*
X373200Y46300D01*
D11*
X396639Y59988D02*
X396704Y59986D01*
X396768Y59980D01*
X396832Y59970D01*
X396896Y59957D01*
X396958Y59939D01*
X397019Y59918D01*
X397079Y59894D01*
X397137Y59865D01*
X397194Y59833D01*
X397248Y59798D01*
X397300Y59760D01*
X397350Y59718D01*
X397397Y59674D01*
X397441Y59627D01*
X397483Y59577D01*
X397521Y59525D01*
X397556Y59471D01*
X397588Y59414D01*
X397617Y59356D01*
X397641Y59296D01*
X397662Y59235D01*
X397680Y59173D01*
X397693Y59109D01*
X397703Y59045D01*
X397709Y58981D01*
X397711Y58916D01*
X397709Y58822D01*
X397703Y58728D01*
X397693Y58634D01*
X397680Y58541D01*
X397662Y58449D01*
X397641Y58357D01*
X397616Y58266D01*
X397587Y58176D01*
X397554Y58088D01*
X397518Y58001D01*
X397478Y57916D01*
X397435Y57832D01*
X397388Y57751D01*
X397338Y57671D01*
X397285Y57593D01*
X397228Y57518D01*
X397169Y57445D01*
X397106Y57375D01*
X397041Y57307D01*
X393957Y57442D02*
X393892Y57444D01*
X393828Y57450D01*
X393764Y57460D01*
X393700Y57473D01*
X393638Y57491D01*
X393577Y57512D01*
X393517Y57536D01*
X393459Y57565D01*
X393402Y57597D01*
X393348Y57632D01*
X393296Y57670D01*
X393246Y57712D01*
X393199Y57756D01*
X393155Y57803D01*
X393113Y57853D01*
X393075Y57905D01*
X393040Y57959D01*
X393008Y58016D01*
X392979Y58074D01*
X392955Y58134D01*
X392934Y58195D01*
X392916Y58257D01*
X392903Y58321D01*
X392893Y58385D01*
X392887Y58449D01*
X392885Y58514D01*
X392887Y58600D01*
X392892Y58686D01*
X392902Y58772D01*
X392915Y58857D01*
X392931Y58942D01*
X392951Y59026D01*
X392975Y59109D01*
X393002Y59191D01*
X393033Y59271D01*
X393067Y59351D01*
X393105Y59428D01*
X393146Y59504D01*
X393190Y59578D01*
X393237Y59651D01*
X393287Y59721D01*
X394895Y57978D02*
X394862Y57925D01*
X394825Y57874D01*
X394786Y57825D01*
X394744Y57778D01*
X394699Y57734D01*
X394652Y57693D01*
X394603Y57654D01*
X394551Y57618D01*
X394497Y57585D01*
X394442Y57556D01*
X394385Y57530D01*
X394326Y57507D01*
X394267Y57487D01*
X394206Y57471D01*
X394145Y57458D01*
X394082Y57449D01*
X394020Y57444D01*
X393957Y57442D01*
X395701Y59453D02*
X395734Y59506D01*
X395771Y59557D01*
X395810Y59606D01*
X395852Y59653D01*
X395897Y59697D01*
X395944Y59738D01*
X395993Y59777D01*
X396045Y59813D01*
X396099Y59846D01*
X396154Y59875D01*
X396211Y59901D01*
X396270Y59924D01*
X396329Y59944D01*
X396390Y59960D01*
X396451Y59973D01*
X396514Y59982D01*
X396576Y59987D01*
X396639Y59989D01*
X395700Y59453D02*
X394896Y57978D01*
X392885Y64086D02*
X392887Y64154D01*
X392893Y64221D01*
X392902Y64288D01*
X392915Y64355D01*
X392932Y64420D01*
X392953Y64485D01*
X392977Y64548D01*
X393005Y64610D01*
X393036Y64670D01*
X393070Y64728D01*
X393108Y64784D01*
X393148Y64839D01*
X393192Y64890D01*
X393239Y64939D01*
X393288Y64986D01*
X393339Y65030D01*
X393394Y65070D01*
X393450Y65108D01*
X393508Y65142D01*
X393568Y65173D01*
X393630Y65201D01*
X393693Y65225D01*
X393758Y65246D01*
X393823Y65263D01*
X393890Y65276D01*
X393957Y65285D01*
X394024Y65291D01*
X394092Y65293D01*
X392885Y64086D02*
X392887Y64008D01*
X392893Y63930D01*
X392903Y63853D01*
X392916Y63776D01*
X392934Y63700D01*
X392955Y63625D01*
X392980Y63551D01*
X393009Y63479D01*
X393041Y63408D01*
X393077Y63339D01*
X393116Y63271D01*
X393159Y63206D01*
X393205Y63143D01*
X393254Y63082D01*
X393306Y63024D01*
X393361Y62969D01*
X393418Y62916D01*
X393478Y62867D01*
X393541Y62820D01*
X393606Y62777D01*
X393672Y62737D01*
X393741Y62700D01*
X393812Y62667D01*
X393884Y62637D01*
X393958Y62611D01*
X395030Y64890D02*
X394981Y64939D01*
X394929Y64986D01*
X394874Y65029D01*
X394817Y65070D01*
X394758Y65108D01*
X394697Y65142D01*
X394634Y65173D01*
X394570Y65201D01*
X394504Y65225D01*
X394438Y65245D01*
X394370Y65262D01*
X394301Y65275D01*
X394232Y65284D01*
X394162Y65290D01*
X394092Y65292D01*
X395030Y64890D02*
X397711Y62611D01*
X397711Y65292D01*
D12*
X398200Y176700D02*
X398198Y176798D01*
X398192Y176896D01*
X398183Y176994D01*
X398169Y177091D01*
X398152Y177188D01*
X398131Y177284D01*
X398106Y177379D01*
X398078Y177473D01*
X398045Y177565D01*
X398010Y177657D01*
X397970Y177747D01*
X397928Y177835D01*
X397881Y177922D01*
X397832Y178006D01*
X397779Y178089D01*
X397723Y178169D01*
X397663Y178248D01*
X397601Y178324D01*
X397536Y178397D01*
X397468Y178468D01*
X397397Y178536D01*
X397324Y178601D01*
X397248Y178663D01*
X397169Y178723D01*
X397089Y178779D01*
X397006Y178832D01*
X396922Y178881D01*
X396835Y178928D01*
X396747Y178970D01*
X396657Y179010D01*
X396565Y179045D01*
X396473Y179078D01*
X396379Y179106D01*
X396284Y179131D01*
X396188Y179152D01*
X396091Y179169D01*
X395994Y179183D01*
X395896Y179192D01*
X395798Y179198D01*
X395700Y179200D01*
X398200Y176700D02*
X398200Y121700D01*
X398198Y121602D01*
X398192Y121504D01*
X398183Y121406D01*
X398169Y121309D01*
X398152Y121212D01*
X398131Y121116D01*
X398106Y121021D01*
X398078Y120927D01*
X398045Y120835D01*
X398010Y120743D01*
X397970Y120653D01*
X397928Y120565D01*
X397881Y120478D01*
X397832Y120394D01*
X397779Y120311D01*
X397723Y120231D01*
X397663Y120152D01*
X397601Y120076D01*
X397536Y120003D01*
X397468Y119932D01*
X397397Y119864D01*
X397324Y119799D01*
X397248Y119737D01*
X397169Y119677D01*
X397089Y119621D01*
X397006Y119568D01*
X396922Y119519D01*
X396835Y119472D01*
X396747Y119430D01*
X396657Y119390D01*
X396565Y119355D01*
X396473Y119322D01*
X396379Y119294D01*
X396284Y119269D01*
X396188Y119248D01*
X396091Y119231D01*
X395994Y119217D01*
X395896Y119208D01*
X395798Y119202D01*
X395700Y119200D01*
X365700Y119200D02*
X365602Y119202D01*
X365504Y119208D01*
X365406Y119217D01*
X365309Y119231D01*
X365212Y119248D01*
X365116Y119269D01*
X365021Y119294D01*
X364927Y119322D01*
X364835Y119355D01*
X364743Y119390D01*
X364653Y119430D01*
X364565Y119472D01*
X364478Y119519D01*
X364394Y119568D01*
X364311Y119621D01*
X364231Y119677D01*
X364152Y119737D01*
X364076Y119799D01*
X364003Y119864D01*
X363932Y119932D01*
X363864Y120003D01*
X363799Y120076D01*
X363737Y120152D01*
X363677Y120231D01*
X363621Y120311D01*
X363568Y120394D01*
X363519Y120478D01*
X363472Y120565D01*
X363430Y120653D01*
X363390Y120743D01*
X363355Y120835D01*
X363322Y120927D01*
X363294Y121021D01*
X363269Y121116D01*
X363248Y121212D01*
X363231Y121309D01*
X363217Y121406D01*
X363208Y121504D01*
X363202Y121602D01*
X363200Y121700D01*
X363200Y176700D01*
X363202Y176798D01*
X363208Y176896D01*
X363217Y176994D01*
X363231Y177091D01*
X363248Y177188D01*
X363269Y177284D01*
X363294Y177379D01*
X363322Y177473D01*
X363355Y177565D01*
X363390Y177657D01*
X363430Y177747D01*
X363472Y177835D01*
X363519Y177922D01*
X363568Y178006D01*
X363621Y178089D01*
X363677Y178169D01*
X363737Y178248D01*
X363799Y178324D01*
X363864Y178397D01*
X363932Y178468D01*
X364003Y178536D01*
X364076Y178601D01*
X364152Y178663D01*
X364231Y178723D01*
X364311Y178779D01*
X364394Y178832D01*
X364478Y178881D01*
X364565Y178928D01*
X364653Y178970D01*
X364743Y179010D01*
X364835Y179045D01*
X364927Y179078D01*
X365021Y179106D01*
X365116Y179131D01*
X365212Y179152D01*
X365309Y179169D01*
X365406Y179183D01*
X365504Y179192D01*
X365602Y179198D01*
X365700Y179200D01*
X369700Y179200D01*
X391700Y179200D02*
X395700Y179200D01*
X395700Y119200D02*
X391700Y119200D01*
X369700Y119200D02*
X365700Y119200D01*
X388200Y134200D02*
X388200Y164200D01*
X373200Y164200D02*
X373200Y134200D01*
X373200Y164200D02*
X388200Y164200D01*
X388200Y134200D02*
X373200Y134200D01*
D11*
X396639Y147888D02*
X396704Y147886D01*
X396768Y147880D01*
X396832Y147870D01*
X396896Y147857D01*
X396958Y147839D01*
X397019Y147818D01*
X397079Y147794D01*
X397137Y147765D01*
X397194Y147733D01*
X397248Y147698D01*
X397300Y147660D01*
X397350Y147618D01*
X397397Y147574D01*
X397441Y147527D01*
X397483Y147477D01*
X397521Y147425D01*
X397556Y147371D01*
X397588Y147314D01*
X397617Y147256D01*
X397641Y147196D01*
X397662Y147135D01*
X397680Y147073D01*
X397693Y147009D01*
X397703Y146945D01*
X397709Y146881D01*
X397711Y146816D01*
X397709Y146722D01*
X397703Y146628D01*
X397693Y146534D01*
X397680Y146441D01*
X397662Y146349D01*
X397641Y146257D01*
X397616Y146166D01*
X397587Y146076D01*
X397554Y145988D01*
X397518Y145901D01*
X397478Y145816D01*
X397435Y145732D01*
X397388Y145651D01*
X397338Y145571D01*
X397285Y145493D01*
X397228Y145418D01*
X397169Y145345D01*
X397106Y145275D01*
X397041Y145207D01*
X393957Y145342D02*
X393892Y145344D01*
X393828Y145350D01*
X393764Y145360D01*
X393700Y145373D01*
X393638Y145391D01*
X393577Y145412D01*
X393517Y145436D01*
X393459Y145465D01*
X393402Y145497D01*
X393348Y145532D01*
X393296Y145570D01*
X393246Y145612D01*
X393199Y145656D01*
X393155Y145703D01*
X393113Y145753D01*
X393075Y145805D01*
X393040Y145859D01*
X393008Y145916D01*
X392979Y145974D01*
X392955Y146034D01*
X392934Y146095D01*
X392916Y146157D01*
X392903Y146221D01*
X392893Y146285D01*
X392887Y146349D01*
X392885Y146414D01*
X392887Y146500D01*
X392892Y146586D01*
X392902Y146672D01*
X392915Y146757D01*
X392931Y146842D01*
X392951Y146926D01*
X392975Y147009D01*
X393002Y147091D01*
X393033Y147171D01*
X393067Y147251D01*
X393105Y147328D01*
X393146Y147404D01*
X393190Y147478D01*
X393237Y147551D01*
X393287Y147621D01*
X394895Y145878D02*
X394862Y145825D01*
X394825Y145774D01*
X394786Y145725D01*
X394744Y145678D01*
X394699Y145634D01*
X394652Y145593D01*
X394603Y145554D01*
X394551Y145518D01*
X394497Y145485D01*
X394442Y145456D01*
X394385Y145430D01*
X394326Y145407D01*
X394267Y145387D01*
X394206Y145371D01*
X394145Y145358D01*
X394082Y145349D01*
X394020Y145344D01*
X393957Y145342D01*
X395701Y147353D02*
X395734Y147406D01*
X395771Y147457D01*
X395810Y147506D01*
X395852Y147553D01*
X395897Y147597D01*
X395944Y147638D01*
X395993Y147677D01*
X396045Y147713D01*
X396099Y147746D01*
X396154Y147775D01*
X396211Y147801D01*
X396270Y147824D01*
X396329Y147844D01*
X396390Y147860D01*
X396451Y147873D01*
X396514Y147882D01*
X396576Y147887D01*
X396639Y147889D01*
X395700Y147353D02*
X394896Y145878D01*
X397711Y150511D02*
X397711Y151852D01*
X397709Y151923D01*
X397703Y151995D01*
X397694Y152065D01*
X397681Y152135D01*
X397664Y152205D01*
X397643Y152273D01*
X397619Y152340D01*
X397591Y152406D01*
X397560Y152470D01*
X397525Y152533D01*
X397487Y152593D01*
X397446Y152652D01*
X397402Y152708D01*
X397355Y152762D01*
X397306Y152813D01*
X397253Y152861D01*
X397198Y152907D01*
X397141Y152949D01*
X397081Y152989D01*
X397020Y153025D01*
X396956Y153058D01*
X396891Y153087D01*
X396825Y153113D01*
X396757Y153136D01*
X396688Y153155D01*
X396618Y153170D01*
X396548Y153181D01*
X396477Y153189D01*
X396406Y153193D01*
X396334Y153193D01*
X396263Y153189D01*
X396192Y153181D01*
X396122Y153170D01*
X396052Y153155D01*
X395983Y153136D01*
X395915Y153113D01*
X395849Y153087D01*
X395784Y153058D01*
X395720Y153025D01*
X395659Y152989D01*
X395599Y152949D01*
X395542Y152907D01*
X395487Y152861D01*
X395434Y152813D01*
X395385Y152762D01*
X395338Y152708D01*
X395294Y152652D01*
X395253Y152593D01*
X395215Y152533D01*
X395180Y152470D01*
X395149Y152406D01*
X395121Y152340D01*
X395097Y152273D01*
X395076Y152205D01*
X395059Y152135D01*
X395046Y152065D01*
X395037Y151995D01*
X395031Y151923D01*
X395029Y151852D01*
X392885Y152120D02*
X392885Y150511D01*
X392885Y152120D02*
X392887Y152185D01*
X392893Y152249D01*
X392903Y152313D01*
X392916Y152377D01*
X392934Y152439D01*
X392955Y152500D01*
X392979Y152560D01*
X393008Y152618D01*
X393040Y152675D01*
X393075Y152729D01*
X393113Y152781D01*
X393155Y152831D01*
X393199Y152878D01*
X393246Y152922D01*
X393296Y152964D01*
X393348Y153002D01*
X393402Y153037D01*
X393459Y153069D01*
X393517Y153098D01*
X393577Y153122D01*
X393638Y153143D01*
X393700Y153161D01*
X393764Y153174D01*
X393828Y153184D01*
X393892Y153190D01*
X393957Y153192D01*
X394022Y153190D01*
X394086Y153184D01*
X394150Y153174D01*
X394214Y153161D01*
X394276Y153143D01*
X394337Y153122D01*
X394397Y153098D01*
X394455Y153069D01*
X394512Y153037D01*
X394566Y153002D01*
X394618Y152964D01*
X394668Y152922D01*
X394715Y152878D01*
X394759Y152831D01*
X394801Y152781D01*
X394839Y152729D01*
X394874Y152675D01*
X394906Y152618D01*
X394935Y152560D01*
X394959Y152500D01*
X394980Y152439D01*
X394998Y152377D01*
X395011Y152313D01*
X395021Y152249D01*
X395027Y152185D01*
X395029Y152120D01*
X395030Y152120D02*
X395030Y151047D01*
D16*
X221000Y177552D02*
X221000Y180600D01*
X221000Y129800D02*
X217952Y129800D01*
X170200Y129800D02*
X170200Y132848D01*
X170200Y180600D02*
X173248Y180600D01*
X173248Y129800D02*
X170200Y129800D01*
X221000Y129800D02*
X221000Y132848D01*
X221000Y180600D02*
X217952Y180600D01*
X170200Y180600D02*
X170200Y177552D01*
D17*
X162580Y185680D02*
X162580Y186879D01*
X163779Y186879D01*
X163779Y185680D01*
X162580Y185680D01*
D12*
X29637Y119968D02*
X29637Y22432D01*
X68563Y120968D02*
X68544Y121081D01*
X68522Y121193D01*
X68495Y121304D01*
X68465Y121414D01*
X68430Y121523D01*
X68392Y121631D01*
X68351Y121738D01*
X68306Y121843D01*
X68257Y121946D01*
X68205Y122048D01*
X68149Y122148D01*
X68090Y122246D01*
X68028Y122341D01*
X67962Y122435D01*
X67893Y122526D01*
X67822Y122615D01*
X67747Y122702D01*
X67669Y122786D01*
X67589Y122867D01*
X67505Y122945D01*
X67419Y123021D01*
X67331Y123093D01*
X67240Y123162D01*
X67147Y123229D01*
X67052Y123292D01*
X66954Y123352D01*
X66855Y123408D01*
X66754Y123461D01*
X66650Y123510D01*
X66546Y123556D01*
X66440Y123599D01*
X66332Y123637D01*
X66223Y123672D01*
X66113Y123704D01*
X66002Y123731D01*
X65890Y123755D01*
X65778Y123775D01*
X65665Y123791D01*
X65551Y123803D01*
X65437Y123811D01*
X65323Y123815D01*
X65208Y123816D01*
X65094Y123812D01*
X64980Y123805D01*
X64866Y123794D01*
X64753Y123778D01*
X29637Y22432D02*
X29654Y22302D01*
X29675Y22173D01*
X29700Y22044D01*
X29728Y21916D01*
X29761Y21789D01*
X29797Y21663D01*
X29838Y21538D01*
X29882Y21415D01*
X29929Y21293D01*
X29981Y21172D01*
X30035Y21053D01*
X30094Y20936D01*
X30156Y20821D01*
X30221Y20707D01*
X30290Y20595D01*
X30363Y20486D01*
X30438Y20379D01*
X30517Y20274D01*
X30599Y20172D01*
X30684Y20072D01*
X30771Y19975D01*
X30862Y19880D01*
X30956Y19788D01*
X31052Y19699D01*
X31151Y19613D01*
X31252Y19531D01*
X31356Y19451D01*
X31463Y19374D01*
X31571Y19301D01*
X31682Y19231D01*
X31795Y19164D01*
X31910Y19101D01*
X32026Y19041D01*
X32145Y18985D01*
X32265Y18932D01*
X32386Y18883D01*
X32509Y18838D01*
X32634Y18796D01*
X32759Y18758D01*
X32886Y18725D01*
X33013Y18694D01*
X33142Y18668D01*
X33271Y18646D01*
X33401Y18627D01*
X33531Y18613D01*
X33662Y18602D01*
X33793Y18596D01*
X33924Y18593D01*
X34055Y18594D01*
X34186Y18600D01*
X34316Y18609D01*
X34447Y18622D01*
X29637Y119968D02*
X29639Y120090D01*
X29645Y120212D01*
X29655Y120334D01*
X29668Y120455D01*
X29686Y120576D01*
X29707Y120696D01*
X29732Y120816D01*
X29761Y120935D01*
X29794Y121052D01*
X29831Y121169D01*
X29871Y121284D01*
X29915Y121398D01*
X29963Y121510D01*
X30014Y121621D01*
X30069Y121730D01*
X30127Y121838D01*
X30189Y121943D01*
X30254Y122047D01*
X30322Y122148D01*
X30393Y122247D01*
X30468Y122344D01*
X30546Y122438D01*
X30626Y122530D01*
X30710Y122619D01*
X30796Y122705D01*
X30885Y122789D01*
X30977Y122869D01*
X31071Y122947D01*
X31168Y123022D01*
X31267Y123093D01*
X31368Y123161D01*
X31472Y123226D01*
X31577Y123288D01*
X31685Y123346D01*
X31794Y123401D01*
X31905Y123452D01*
X32017Y123500D01*
X32131Y123544D01*
X32246Y123584D01*
X32363Y123621D01*
X32480Y123654D01*
X32599Y123683D01*
X32719Y123708D01*
X32839Y123729D01*
X32960Y123747D01*
X33081Y123760D01*
X33203Y123770D01*
X33325Y123776D01*
X33447Y123778D01*
X68563Y22433D02*
X68578Y22319D01*
X68590Y22205D01*
X68597Y22091D01*
X68601Y21977D01*
X68600Y21863D01*
X68596Y21748D01*
X68588Y21634D01*
X68576Y21521D01*
X68560Y21408D01*
X68540Y21295D01*
X68516Y21183D01*
X68489Y21072D01*
X68458Y20962D01*
X68423Y20853D01*
X68384Y20746D01*
X68342Y20639D01*
X68296Y20535D01*
X68246Y20432D01*
X68193Y20330D01*
X68137Y20231D01*
X68077Y20133D01*
X68014Y20038D01*
X67948Y19945D01*
X67878Y19854D01*
X67806Y19766D01*
X67730Y19680D01*
X67652Y19597D01*
X67571Y19516D01*
X67487Y19438D01*
X67401Y19364D01*
X67312Y19292D01*
X67220Y19223D01*
X67127Y19157D01*
X67031Y19095D01*
X66933Y19036D01*
X66833Y18980D01*
X66731Y18928D01*
X66628Y18880D01*
X66523Y18834D01*
X66416Y18793D01*
X66308Y18755D01*
X66199Y18721D01*
X66089Y18691D01*
X65978Y18664D01*
X65866Y18641D01*
X65753Y18622D01*
X68563Y22432D02*
X68563Y120968D01*
X64753Y123778D02*
X33447Y123778D01*
X43004Y19130D02*
X43006Y19288D01*
X43012Y19447D01*
X43022Y19605D01*
X43036Y19762D01*
X43053Y19920D01*
X43075Y20076D01*
X43100Y20233D01*
X43130Y20388D01*
X43163Y20543D01*
X43200Y20697D01*
X43241Y20850D01*
X43286Y21002D01*
X43335Y21152D01*
X43387Y21302D01*
X43443Y21450D01*
X43503Y21597D01*
X43566Y21742D01*
X43633Y21885D01*
X43703Y22027D01*
X43777Y22167D01*
X43855Y22305D01*
X43936Y22441D01*
X44020Y22575D01*
X44107Y22707D01*
X44198Y22837D01*
X44292Y22964D01*
X44389Y23089D01*
X44490Y23212D01*
X44593Y23332D01*
X44699Y23449D01*
X44808Y23564D01*
X44920Y23676D01*
X45035Y23785D01*
X45152Y23891D01*
X45272Y23994D01*
X45395Y24095D01*
X45520Y24192D01*
X45647Y24286D01*
X45777Y24377D01*
X45909Y24464D01*
X46043Y24548D01*
X46179Y24629D01*
X46317Y24707D01*
X46457Y24781D01*
X46599Y24851D01*
X46742Y24918D01*
X46887Y24981D01*
X47034Y25041D01*
X47182Y25097D01*
X47332Y25149D01*
X47482Y25198D01*
X47634Y25243D01*
X47787Y25284D01*
X47941Y25321D01*
X48096Y25354D01*
X48251Y25384D01*
X48408Y25409D01*
X48564Y25431D01*
X48722Y25448D01*
X48879Y25462D01*
X49037Y25472D01*
X49196Y25478D01*
X49354Y25480D01*
X49512Y25478D01*
X49671Y25472D01*
X49829Y25462D01*
X49986Y25448D01*
X50144Y25431D01*
X50300Y25409D01*
X50457Y25384D01*
X50612Y25354D01*
X50767Y25321D01*
X50921Y25284D01*
X51074Y25243D01*
X51226Y25198D01*
X51376Y25149D01*
X51526Y25097D01*
X51674Y25041D01*
X51821Y24981D01*
X51966Y24918D01*
X52109Y24851D01*
X52251Y24781D01*
X52391Y24707D01*
X52529Y24629D01*
X52665Y24548D01*
X52799Y24464D01*
X52931Y24377D01*
X53061Y24286D01*
X53188Y24192D01*
X53313Y24095D01*
X53436Y23994D01*
X53556Y23891D01*
X53673Y23785D01*
X53788Y23676D01*
X53900Y23564D01*
X54009Y23449D01*
X54115Y23332D01*
X54218Y23212D01*
X54319Y23089D01*
X54416Y22964D01*
X54510Y22837D01*
X54601Y22707D01*
X54688Y22575D01*
X54772Y22441D01*
X54853Y22305D01*
X54931Y22167D01*
X55005Y22027D01*
X55075Y21885D01*
X55142Y21742D01*
X55205Y21597D01*
X55265Y21450D01*
X55321Y21302D01*
X55373Y21152D01*
X55422Y21002D01*
X55467Y20850D01*
X55508Y20697D01*
X55545Y20543D01*
X55578Y20388D01*
X55608Y20233D01*
X55633Y20076D01*
X55655Y19920D01*
X55672Y19762D01*
X55686Y19605D01*
X55696Y19447D01*
X55702Y19288D01*
X55704Y19130D01*
X43004Y18622D02*
X34574Y18622D01*
X55704Y18622D02*
X65753Y18622D01*
D18*
X73230Y14050D02*
X73232Y14121D01*
X73238Y14192D01*
X73248Y14263D01*
X73262Y14333D01*
X73280Y14402D01*
X73301Y14469D01*
X73327Y14536D01*
X73356Y14601D01*
X73388Y14664D01*
X73425Y14726D01*
X73464Y14785D01*
X73507Y14842D01*
X73553Y14896D01*
X73602Y14948D01*
X73654Y14997D01*
X73708Y15043D01*
X73765Y15086D01*
X73824Y15125D01*
X73886Y15162D01*
X73949Y15194D01*
X74014Y15223D01*
X74081Y15249D01*
X74148Y15270D01*
X74217Y15288D01*
X74287Y15302D01*
X74358Y15312D01*
X74429Y15318D01*
X74500Y15320D01*
X74571Y15318D01*
X74642Y15312D01*
X74713Y15302D01*
X74783Y15288D01*
X74852Y15270D01*
X74919Y15249D01*
X74986Y15223D01*
X75051Y15194D01*
X75114Y15162D01*
X75176Y15125D01*
X75235Y15086D01*
X75292Y15043D01*
X75346Y14997D01*
X75398Y14948D01*
X75447Y14896D01*
X75493Y14842D01*
X75536Y14785D01*
X75575Y14726D01*
X75612Y14664D01*
X75644Y14601D01*
X75673Y14536D01*
X75699Y14469D01*
X75720Y14402D01*
X75738Y14333D01*
X75752Y14263D01*
X75762Y14192D01*
X75768Y14121D01*
X75770Y14050D01*
X75768Y13979D01*
X75762Y13908D01*
X75752Y13837D01*
X75738Y13767D01*
X75720Y13698D01*
X75699Y13631D01*
X75673Y13564D01*
X75644Y13499D01*
X75612Y13436D01*
X75575Y13374D01*
X75536Y13315D01*
X75493Y13258D01*
X75447Y13204D01*
X75398Y13152D01*
X75346Y13103D01*
X75292Y13057D01*
X75235Y13014D01*
X75176Y12975D01*
X75114Y12938D01*
X75051Y12906D01*
X74986Y12877D01*
X74919Y12851D01*
X74852Y12830D01*
X74783Y12812D01*
X74713Y12798D01*
X74642Y12788D01*
X74571Y12782D01*
X74500Y12780D01*
X74429Y12782D01*
X74358Y12788D01*
X74287Y12798D01*
X74217Y12812D01*
X74148Y12830D01*
X74081Y12851D01*
X74014Y12877D01*
X73949Y12906D01*
X73886Y12938D01*
X73824Y12975D01*
X73765Y13014D01*
X73708Y13057D01*
X73654Y13103D01*
X73602Y13152D01*
X73553Y13204D01*
X73507Y13258D01*
X73464Y13315D01*
X73425Y13374D01*
X73388Y13436D01*
X73356Y13499D01*
X73327Y13564D01*
X73301Y13631D01*
X73280Y13698D01*
X73262Y13767D01*
X73248Y13837D01*
X73238Y13908D01*
X73232Y13979D01*
X73230Y14050D01*
D19*
X47294Y33354D02*
X43258Y33354D01*
X47294Y33354D02*
X47371Y33356D01*
X47449Y33362D01*
X47525Y33371D01*
X47602Y33385D01*
X47677Y33402D01*
X47751Y33423D01*
X47825Y33448D01*
X47897Y33476D01*
X47967Y33508D01*
X48036Y33543D01*
X48103Y33582D01*
X48168Y33624D01*
X48231Y33669D01*
X48292Y33717D01*
X48350Y33768D01*
X48405Y33822D01*
X48458Y33879D01*
X48507Y33938D01*
X48554Y34000D01*
X48598Y34064D01*
X48638Y34130D01*
X48675Y34198D01*
X48709Y34268D01*
X48739Y34339D01*
X48765Y34412D01*
X48788Y34486D01*
X48807Y34561D01*
X48822Y34636D01*
X48834Y34713D01*
X48842Y34790D01*
X48846Y34867D01*
X48846Y34945D01*
X48842Y35022D01*
X48834Y35099D01*
X48822Y35176D01*
X48807Y35251D01*
X48788Y35326D01*
X48765Y35400D01*
X48739Y35473D01*
X48709Y35544D01*
X48675Y35614D01*
X48638Y35682D01*
X48598Y35748D01*
X48554Y35812D01*
X48507Y35874D01*
X48458Y35933D01*
X48405Y35990D01*
X48350Y36044D01*
X48292Y36095D01*
X48231Y36143D01*
X48168Y36188D01*
X48103Y36230D01*
X48036Y36269D01*
X47967Y36304D01*
X47897Y36336D01*
X47825Y36364D01*
X47751Y36389D01*
X47677Y36410D01*
X47602Y36427D01*
X47525Y36441D01*
X47449Y36450D01*
X47371Y36456D01*
X47294Y36458D01*
X43258Y36458D01*
X43258Y40731D02*
X43260Y40804D01*
X43266Y40877D01*
X43275Y40950D01*
X43289Y41021D01*
X43306Y41093D01*
X43326Y41163D01*
X43351Y41232D01*
X43379Y41299D01*
X43410Y41365D01*
X43445Y41430D01*
X43483Y41492D01*
X43525Y41552D01*
X43569Y41610D01*
X43617Y41666D01*
X43667Y41719D01*
X43720Y41769D01*
X43776Y41817D01*
X43834Y41861D01*
X43894Y41903D01*
X43957Y41941D01*
X44021Y41976D01*
X44087Y42007D01*
X44154Y42035D01*
X44223Y42060D01*
X44293Y42080D01*
X44365Y42097D01*
X44436Y42111D01*
X44509Y42120D01*
X44582Y42126D01*
X44655Y42128D01*
X43258Y40731D02*
X43260Y40647D01*
X43266Y40564D01*
X43275Y40481D01*
X43289Y40398D01*
X43306Y40317D01*
X43328Y40236D01*
X43353Y40156D01*
X43381Y40078D01*
X43413Y40000D01*
X43449Y39925D01*
X43488Y39851D01*
X43531Y39779D01*
X43577Y39709D01*
X43626Y39642D01*
X43679Y39576D01*
X43734Y39514D01*
X43792Y39454D01*
X43853Y39396D01*
X43916Y39342D01*
X43982Y39290D01*
X44050Y39242D01*
X44121Y39197D01*
X44193Y39155D01*
X44268Y39117D01*
X44344Y39082D01*
X44421Y39051D01*
X44500Y39023D01*
X45741Y41661D02*
X45688Y41715D01*
X45631Y41766D01*
X45572Y41814D01*
X45511Y41859D01*
X45448Y41900D01*
X45382Y41939D01*
X45315Y41974D01*
X45246Y42006D01*
X45175Y42034D01*
X45104Y42058D01*
X45031Y42079D01*
X44957Y42096D01*
X44882Y42110D01*
X44807Y42119D01*
X44731Y42125D01*
X44655Y42127D01*
X45742Y41662D02*
X48846Y39023D01*
X48846Y42128D01*
D12*
X136311Y140102D02*
X136311Y153102D01*
X98813Y153102D02*
X98813Y140102D01*
D11*
X114991Y162382D02*
X113382Y164661D01*
X114991Y162382D02*
X116600Y164661D01*
X114991Y162382D02*
X114991Y159835D01*
X119137Y163589D02*
X120477Y164661D01*
X120477Y159835D01*
X119137Y159835D02*
X121818Y159835D01*
M02*
