G04 EAGLE Gerber RS-274X export*
G75*
%MOMM*%
%FSLAX34Y34*%
%LPD*%
%INSoldermask Bottom*%
%IPPOS*%
%AMOC8*
5,1,8,0,0,1.08239X$1,22.5*%
G01*
%ADD10R,1.473200X2.743200*%
%ADD11R,2.743200X1.473200*%
%ADD12R,1.303200X1.203200*%
%ADD13R,2.603200X2.203200*%
%ADD14R,2.511200X0.703200*%
%ADD15C,1.203200*%
%ADD16C,1.981200*%
%ADD17R,2.403200X0.803200*%
%ADD18R,1.203200X1.203200*%
%ADD19R,0.853200X1.403200*%
%ADD20R,0.903200X1.728200*%
%ADD21R,3.605200X2.716200*%
%ADD22R,2.703200X3.403200*%
%ADD23C,1.003200*%
%ADD24R,1.203200X1.003200*%
%ADD25R,0.623200X0.623200*%
%ADD26R,1.203200X1.303200*%
%ADD27C,0.919600*%
%ADD28C,0.959600*%


D10*
X51800Y306600D03*
X129800Y306600D03*
X114200Y306600D03*
X98600Y306600D03*
X83000Y306600D03*
X67400Y306600D03*
D11*
X249100Y58800D03*
X248400Y38100D03*
D12*
X135000Y117700D03*
X118000Y117700D03*
X188800Y116500D03*
X171800Y116500D03*
X169400Y16500D03*
X152400Y16500D03*
D13*
X78100Y20500D03*
D14*
X83740Y48500D03*
X83740Y56500D03*
X83740Y64500D03*
X83740Y72500D03*
X83740Y80500D03*
D13*
X23100Y20500D03*
X78100Y108500D03*
X23100Y108500D03*
D15*
X53100Y42500D03*
X53100Y86500D03*
D16*
X236600Y304600D03*
X211200Y304600D03*
X185800Y304600D03*
X160400Y304600D03*
D17*
X375000Y98050D03*
X283000Y72650D03*
X375000Y110750D03*
X375000Y85350D03*
X375000Y72650D03*
X283000Y85350D03*
X283000Y59950D03*
X283000Y47250D03*
X375000Y47250D03*
X283000Y21850D03*
X375000Y59950D03*
X375000Y34550D03*
X283000Y34550D03*
X375000Y21850D03*
X283000Y98050D03*
X283000Y110750D03*
D18*
X85100Y273500D03*
X100100Y273500D03*
X115100Y273500D03*
X130100Y273500D03*
X145100Y273500D03*
X160100Y273500D03*
X175100Y273500D03*
X190100Y273500D03*
X205100Y273500D03*
X220100Y273500D03*
X235100Y273500D03*
X250100Y273500D03*
X265100Y273500D03*
X280100Y261000D03*
X280100Y246000D03*
X280100Y231000D03*
X280100Y216000D03*
X280100Y201000D03*
X280100Y186000D03*
X280100Y171000D03*
X280100Y156000D03*
X265100Y143500D03*
X250100Y143500D03*
X235100Y143500D03*
X220100Y143500D03*
X205100Y143500D03*
X190100Y143500D03*
X175100Y143500D03*
X160100Y143500D03*
X145100Y143500D03*
X130100Y143500D03*
X115100Y143500D03*
X100100Y143500D03*
X85100Y143500D03*
D19*
X201000Y58100D03*
X191500Y58100D03*
X182000Y58100D03*
X182000Y83100D03*
X191500Y83100D03*
X201000Y83100D03*
D20*
X113750Y93020D03*
X126450Y93020D03*
X139150Y93020D03*
X151850Y93020D03*
X151850Y38780D03*
X139150Y38780D03*
X126450Y38780D03*
X113750Y38780D03*
D21*
X132800Y65900D03*
D22*
X341300Y299500D03*
X341300Y219500D03*
D23*
X363800Y298500D03*
X302300Y237000D03*
D24*
X209900Y22600D03*
X209900Y32600D03*
D25*
X219050Y21100D03*
X219050Y27600D03*
X219050Y34100D03*
X200750Y34100D03*
X200750Y27600D03*
X200750Y21100D03*
D26*
X314600Y185600D03*
X314600Y202600D03*
X224800Y87400D03*
X224800Y70400D03*
X27700Y136000D03*
X27700Y153000D03*
X224800Y120100D03*
X224800Y103100D03*
D12*
X357100Y146600D03*
X340100Y146600D03*
X304800Y130400D03*
X321800Y130400D03*
X339200Y167900D03*
X356200Y167900D03*
X336600Y185400D03*
X353600Y185400D03*
D27*
X249000Y109000D03*
X225000Y56000D03*
X317000Y110000D03*
X302500Y70500D03*
X190000Y202500D03*
X210000Y210000D03*
X45000Y255000D03*
X115000Y286000D03*
X152500Y180000D03*
X260000Y232500D03*
X137500Y180000D03*
X230000Y210000D03*
X145500Y165500D03*
X245000Y220000D03*
X157500Y122500D03*
X165000Y80000D03*
X235000Y240000D03*
X212000Y61500D03*
X103000Y112500D03*
X70500Y223500D03*
X340000Y130000D03*
X60000Y167500D03*
X70000Y277500D03*
X239000Y125000D03*
X366000Y184000D03*
X98000Y22000D03*
X160000Y55000D03*
X340000Y109000D03*
X107500Y77500D03*
X107500Y67500D03*
X155000Y285000D03*
X100000Y250000D03*
X132500Y20500D03*
X114500Y24000D03*
X97500Y31500D03*
X170000Y30000D03*
D28*
X95000Y205000D03*
D27*
X35000Y210000D03*
X20000Y210000D03*
M02*
