M48
;GenerationSoftware,Autodesk,EAGLE,9.6.2*%
;CreationDate,2021-08-10T08:00:34Z*%
FMAT,2
ICI,OFF
METRIC,TZ,000.000
T5C0.310
T4C0.350
T3C0.800
T2C1.000
T1C1.016
%
G90
M71
T1
X16040Y30460
X23660Y30460
X21120Y30460
X18580Y30460
T2
X5310Y4250
X5310Y8650
T3
X36380Y29850
X30230Y23700
T4
X9500Y20500
T5
X26000Y23250
X13750Y18000
X23000Y21000
X14550Y16550
X24500Y22000
X15750Y12250
X16500Y8000
X23500Y24000
X21200Y6150
X10300Y11250
X7050Y22350
X34000Y13000
X6000Y16750
X7000Y27750
X21000Y21000
X36600Y18400
X9800Y2200
X16000Y5500
X34000Y10900
X10750Y7750
X10750Y6750
X15500Y28500
X10000Y25000
X13250Y2050
X11450Y2400
X9750Y3150
X17000Y3000
X24900Y10900
X3500Y21000
X2000Y21000
X22500Y5600
X31700Y11000
X23900Y12500
X30250Y7050
X19000Y20250
X4500Y25500
X11500Y28600
X15250Y18000
M30